<svg height="512pt" viewBox="0 0 512 512" width="512pt" xmlns="http://www.w3.org/2000/svg" fill="currentColor"><path d="M510.148 367.77c-4.359-25.008-16.183-47.747-34.191-65.754-32.312-32.317-78.281-42.852-119.504-31.618-.07-.07-.137-.14-.21-.207a70.795 70.795 0 0 0-31.864-16.218l-64.203-14.04c-9.61-2.097-16.918-9.93-18.63-19.382 20.169-14.953 33.27-38.922 33.27-65.899V93.895c8.13-9.633 13.043-22.067 13.043-35.63V10c0-5.523-4.476-10-10-10h-97.261c-38.473 0-69.778 31.3-69.778 69.777v33.817c0 .152.016.3.024.453-.008.148-.024.297-.024.45v50.155c0 24.328 10.664 46.207 27.547 61.235v.445c0 11.273-7.992 21.203-19 23.617l-63.805 14c-15.69 3.442-29.878 12.23-39.949 24.746C5.543 291.215 0 306.957 0 323.023v86.961c0 5.524 4.477 10 10 10h259.996c5.313 20.52 15.977 39.93 32.02 55.973 17.964 17.965 40.644 29.777 65.586 34.16A124.202 124.202 0 0 0 389.109 512c17.215 0 34.243-3.613 50.133-10.723 5.043-2.254 7.301-8.168 5.047-13.21-2.254-5.044-8.172-7.301-13.21-5.044-38.727 17.32-84.911 8.801-114.923-21.207-40.156-40.16-40.156-105.504 0-145.66 40.16-40.16 105.5-40.16 145.66 0 30.102 30.102 38.575 76.39 21.086 115.184-2.27 5.035-.027 10.957 5.008 13.226 5.035 2.27 10.957.028 13.227-5.007 10.152-22.528 13.27-47.352 9.011-71.79zM130.82 69.777C130.82 42.328 153.152 20 180.598 20h87.261v38.266c0 19.48-15.847 35.332-35.328 35.332h-101.71zm0 84.875v-41.054h101.711c7.926 0 15.461-1.692 22.285-4.707v45.761c0 34.188-27.812 62-61.996 62-34.187 0-62-27.812-62-62zm25.875 73.59a81.487 81.487 0 0 0 36.125 8.406 81.571 81.571 0 0 0 30.774-6.011c3.691 10.633 11.367 19.601 21.383 24.851l-55.211 129.07-55.207-129.054c10.761-5.649 18.82-15.586 22.136-27.262zM20 323.023c0-23.64 16.758-44.476 39.848-49.539l55.449-12.164 59.312 138.664H20zm282.016-21.007c-26.774 26.773-38.59 62.918-35.473 97.968h-61.625l59.324-138.683 55.863 12.215a50.788 50.788 0 0 1 14.04 5.37 122.377 122.377 0 0 0-32.13 23.13zm0 0"/><path d="M457.168 361.965l-28.285-28.281c-3.903-3.907-10.235-3.907-14.14 0l-38.485 38.484-13.028-13.031a10.009 10.009 0 0 0-7.074-2.93 10.006 10.006 0 0 0-7.07 2.93l-28.281 28.281c-3.907 3.906-3.907 10.238 0 14.145l48.382 48.382a9.968 9.968 0 0 0 7.07 2.93c2.552 0 5.098-.969 7.048-2.906l73.863-73.86a10 10 0 0 0 0-14.144zm-80.91 66.77l-34.242-34.243 14.14-14.144 13.032 13.03a10 10 0 0 0 14.14 0l38.485-38.483 14.14 14.144zm92.625 30.148c-2.63 0-5.211 1.07-7.07 2.93s-2.93 4.44-2.93 7.07c0 2.64 1.07 5.21 2.93 7.07s4.44 2.93 7.07 2.93c2.64 0 5.21-1.07 7.07-2.93a10.01 10.01 0 0 0 2.93-7.07 10.03 10.03 0 0 0-2.93-7.07 10.059 10.059 0 0 0-7.07-2.93zm0 0"/></svg>
