<svg xmlns="http://www.w3.org/2000/svg" viewBox="0 0 512 512" fill="currentColor"><path d="M146.219 333.781L94.72 282.283c-10.091-10.069-23.467-15.616-37.717-15.616h-35.67c-5.888 0-10.667 4.779-10.667 10.667S15.445 288 21.333 288h35.669c8.405 0 16.661 3.413 22.613 9.365l33.301 33.301H21.333c-5.888 0-10.667 4.779-10.667 10.667S15.445 352 21.333 352h117.333c4.309 0 8.192-2.603 9.856-6.592s.747-8.576-2.303-11.627zM138.667 384c-5.888 0-10.667 4.779-10.667 10.667v32c0 5.888-4.8 10.667-10.667 10.667h-64c-5.867 0-10.667-4.779-10.667-10.667V384c0-5.888-4.779-10.667-10.667-10.667S21.333 378.112 21.333 384v42.667c0 17.643 14.357 32 32 32h64c17.643 0 32-14.357 32-32v-32c0-5.888-4.778-10.667-10.666-10.667z"/><path d="M463.595 203.883c-29.397-15.381-95.381-22.549-207.595-22.549s-178.197 7.168-207.595 22.549C14.912 221.376 0 250.603 0 298.667c0 46.208 10.581 86.4 11.029 88.085a10.642 10.642 0 0 0 10.304 7.915h93.483l40.405 20.203a10.7 10.7 0 0 0 4.779 1.131h192c1.643 0 3.285-.384 4.757-1.131l40.427-20.203h93.483c4.843 0 9.067-3.243 10.304-7.915.448-1.685 11.029-41.877 11.029-88.085 0-48.064-14.912-77.291-48.405-94.784zm18.645 169.45h-87.552a10.57 10.57 0 0 0-4.779 1.131l-40.427 20.203H162.517l-40.405-20.203a10.7 10.7 0 0 0-4.779-1.131H29.781c-2.965-13.589-8.448-42.944-8.448-74.667 0-40.171 10.709-62.165 36.928-75.883 25.557-13.355 92.075-20.117 197.739-20.117s172.181 6.763 197.739 20.117c26.219 13.717 36.928 35.712 36.928 75.883 0 31.723-5.483 61.078-8.427 74.667z"/><path d="M490.667 330.667h-91.584l33.28-33.301c5.973-5.952 14.208-9.365 22.635-9.365h35.669c5.888 0 10.667-4.779 10.667-10.667s-4.779-10.667-10.667-10.667h-35.669c-14.251 0-27.627 5.547-37.717 15.616l-51.499 51.499c-3.029 3.051-3.947 7.637-2.304 11.627s5.547 6.592 9.856 6.592h117.333c5.888 0 10.667-4.779 10.667-10.667-.001-5.889-4.779-10.667-10.667-10.667zm-107.67-57.856a10.68 10.68 0 0 0-9.664-6.144H138.667a10.68 10.68 0 0 0-9.664 6.144 10.643 10.643 0 0 0 1.472 11.349l53.333 64A10.677 10.677 0 0 0 192 352h128c3.157 0 6.165-1.408 8.192-3.84l53.333-64a10.641 10.641 0 0 0 1.472-11.349zm-68.01 57.856H196.992L161.429 288h189.12l-35.562 42.667zm153.472-121.579c-12.139-27.904-52.757-119.872-66.88-131.883-17.6-14.955-68.011-23.872-134.912-23.872h-21.333c-66.901 0-117.312 8.917-134.912 23.851-14.123 12.011-54.763 103.979-66.88 131.883-2.325 5.419.149 11.691 5.547 14.037 5.376 2.347 11.691-.107 14.037-5.525 24.085-55.445 53.547-117.056 61.12-124.117 8.213-6.976 42.965-18.795 121.088-18.795h21.333c78.123 0 112.875 11.819 121.045 18.752 7.616 7.104 37.077 68.693 61.163 124.16 1.749 4.032 5.696 6.421 9.792 6.421 1.408 0 2.88-.277 4.245-.875 5.397-2.346 7.872-8.64 5.547-14.037zM480 373.333c-5.888 0-10.667 4.779-10.667 10.667v42.667c0 5.888-4.8 10.667-10.667 10.667h-64c-5.867 0-10.667-4.779-10.667-10.667v-32c0-5.888-4.779-10.667-10.667-10.667s-10.667 4.779-10.667 10.667v32c0 17.643 14.357 32 32 32h64c17.643 0 32-14.357 32-32V384c.002-5.888-4.777-10.667-10.665-10.667z"/></svg>
