<svg height="512pt" viewBox="0 -28 512 512" width="512pt" xmlns="http://www.w3.org/2000/svg" fill="currentColor"><path d="M512 269.793c0-22.066-15.953-40.465-36.934-44.297 5.125-7.312 8.149-16.2 8.149-25.785 0-24.84-20.207-45.043-45.043-45.043h-91.563a44.775 44.775 0 0 0-24.316 7.156V75.48c0-41.62-33.86-75.48-75.48-75.48-11.028 0-20 8.973-20 20v48.395c0 47.511-31.633 88.644-76.543 101.414C146.73 153.363 132.082 141 114.594 141H36.5C16.375 141 0 157.375 0 177.5V258c0 5.523 4.477 10 10 10s10-4.477 10-10v-80.5c0-9.098 7.402-16.5 16.5-16.5h78.094c9.097 0 16.5 7.402 16.5 16.5v241c0 9.098-7.403 16.5-16.5 16.5H36.5c-9.098 0-16.5-7.402-16.5-16.5V338c0-5.523-4.477-10-10-10s-10 4.477-10 10v80.5C0 438.625 16.375 455 36.5 455h78.094c20.101 0 36.46-16.34 36.496-36.434l15.574 11.278C189.383 446.3 216.223 455 244.277 455h176.77c24.836 0 45.039-20.207 45.039-45.043 0-10.863-3.867-20.844-10.297-28.633 16.106-6.87 27.426-22.863 27.426-41.449 0-9.586-3.024-18.477-8.149-25.79C496.046 310.259 512 291.86 512 269.794zm-165.39-95.125h91.562c13.808 0 25.043 11.234 25.043 25.043 0 13.805-11.235 25.039-25.043 25.039h-91.563c-13.804 0-25.039-11.234-25.039-25.04 0-13.808 11.235-25.042 25.04-25.042zm-168.215 238.98l-27.301-19.773V190.281c55.886-13.605 95.719-63.734 95.719-121.886V20c30.593 0 55.48 24.89 55.48 55.48v116.247a44.788 44.788 0 0 0-.64 5.363l-5.184 17.515c-6.774 22.899-28.184 38.891-52.063 38.891-5.52 0-10 4.48-10 10 0 5.524 4.48 10 10 10 16.149 0 31.524-5.105 44.461-14.77 10.434-7.792 18.469-17.945 23.594-29.699a45.35 45.35 0 0 0 5.894 5.723c-10.226 8.266-16.785 20.898-16.785 35.043s6.559 26.777 16.785 35.043c-10.226 8.262-16.785 20.898-16.785 35.039 0 14.492 6.887 27.398 17.551 35.645-9.809 8.27-16.055 20.636-16.055 34.44a44.794 44.794 0 0 0 7.621 25.04h-66.41c-23.816 0-46.597-7.383-65.882-21.352zM421.047 435h-72.942c-13.808 0-25.039-11.234-25.039-25.043s11.23-25.039 25.04-25.039h72.94c13.81 0 25.04 11.23 25.04 25.039 0 13.809-11.23 25.043-25.04 25.043zm17.125-70.082h-91.559c-13.808 0-25.043-11.234-25.043-25.043s11.235-25.04 25.043-25.04h91.559c13.808 0 25.043 11.231 25.043 25.04s-11.235 25.043-25.043 25.043zm28.785-70.082H346.609c-13.804 0-25.039-11.234-25.039-25.043s11.235-25.043 25.04-25.043h120.347c13.809 0 25.043 11.234 25.043 25.043s-11.234 25.043-25.043 25.043zm0 0"/><path d="M107.547 369c0-17.645-14.356-32-32-32s-32 14.355-32 32 14.355 32 32 32 32-14.355 32-32zm-44 0c0-6.617 5.383-12 12-12s12 5.383 12 12-5.383 12-12 12-12-5.383-12-12zM10 308c2.629 0 5.21-1.07 7.07-2.93C18.93 303.21 20 300.63 20 298s-1.07-5.21-2.93-7.07C15.21 289.07 12.63 288 10 288s-5.21 1.07-7.07 2.93C1.07 292.79 0 295.37 0 298s1.07 5.21 2.93 7.07A10.08 10.08 0 0 0 10 308zm0 0"/></svg>
