<svg enable-background="new 0 0 512 512" viewBox="0 0 512 512" xmlns="http://www.w3.org/2000/svg" fill="currentColor"><path d="m502.747 74.024h-493.494c-5.11 0-9.253 4.142-9.253 9.253v296.096c0 32.313 26.29 58.602 58.602 58.602 20.705 0 38.922-10.803 49.349-27.058 10.428 16.256 28.645 27.058 49.349 27.058s38.922-10.803 49.349-27.058c10.427 16.256 28.645 27.058 49.349 27.058s38.923-10.803 49.349-27.058c10.426 16.256 28.645 27.058 49.349 27.058 20.705 0 38.923-10.803 49.349-27.058 10.426 16.256 28.645 27.058 49.349 27.058 32.313 0 58.602-26.29 58.602-58.602v-296.096c.004-5.111-4.138-9.253-9.249-9.253zm-138.795 18.506h80.193v27.759c0 22.11-17.987 40.096-40.096 40.096s-40.096-17.987-40.096-40.096v-27.759zm-9.253 59.303c8.841 13.783 23.282 23.641 40.096 26.32v28.497c0 22.11-17.987 40.096-40.096 40.096s-40.096-17.987-40.096-40.096v-28.497c16.814-2.679 31.255-12.536 40.096-26.32zm-89.446-59.303h80.193v27.759c0 22.11-17.987 40.096-40.096 40.096-22.11 0-40.096-17.987-40.096-40.096v-27.759zm-9.253 59.303c8.841 13.783 23.282 23.641 40.096 26.32v28.497c0 22.11-17.987 40.096-40.096 40.096s-40.096-17.987-40.096-40.096v-28.497c16.813-2.679 31.254-12.536 40.096-26.32zm-89.446-59.303h80.193v27.759c0 22.11-17.988 40.096-40.096 40.096-22.109 0-40.096-17.987-40.096-40.096v-27.759zm-9.253 59.303c8.842 13.783 23.283 23.641 40.096 26.32v28.497c0 22.11-17.988 40.096-40.096 40.096s-40.096-17.987-40.096-40.096v-28.497c16.813-2.679 31.255-12.536 40.096-26.32zm-89.446-59.303h80.193v27.759c0 22.11-17.988 40.096-40.096 40.096-22.109 0-40.096-17.987-40.096-40.096v-27.759zm-49.349 0h30.843v27.759c0 18.925-13.182 34.817-30.843 39.007zm0 85.624c16.813-2.68 31.254-12.537 40.096-26.32 8.842 13.783 23.283 23.641 40.096 26.32v28.497c0 22.11-17.988 40.096-40.096 40.096s-40.096-17.987-40.096-40.096zm0 71.176c8.36 7.859 19.013 13.301 30.843 15.185v28.497c0 18.926-13.182 34.817-30.843 39.007zm80.193 130.043c0 22.11-17.988 40.096-40.096 40.096s-40.096-17.987-40.096-40.096v-28.497c16.813-2.68 31.254-12.537 40.096-26.321 8.842 13.783 23.283 23.641 40.096 26.32zm9.253-46.265c-22.109 0-40.096-17.987-40.096-40.096v-28.497c16.813-2.68 31.255-12.537 40.096-26.32 8.841 13.783 23.283 23.641 40.096 26.32v28.497c0 22.11-17.988 40.096-40.096 40.096zm89.446 46.265c0 22.11-17.988 40.096-40.096 40.096s-40.096-17.987-40.096-40.096v-28.497c16.813-2.68 31.255-12.537 40.096-26.321 8.842 13.783 23.283 23.641 40.096 26.32zm9.253-46.265c-22.109 0-40.096-17.987-40.096-40.096v-28.497c16.813-2.68 31.254-12.537 40.096-26.32 8.842 13.783 23.283 23.641 40.096 26.32v28.497c0 22.11-17.988 40.096-40.096 40.096zm89.445 46.265c0 22.11-17.987 40.096-40.096 40.096s-40.096-17.987-40.096-40.096v-28.497c16.813-2.68 31.254-12.537 40.096-26.321 8.841 13.783 23.282 23.641 40.096 26.32zm9.253-46.265c-22.11 0-40.096-17.987-40.096-40.096v-28.497c16.815-2.68 31.255-12.537 40.096-26.32 8.841 13.783 23.282 23.641 40.096 26.32v28.497c.001 22.11-17.986 40.096-40.096 40.096zm89.446 46.265c0 22.11-17.987 40.096-40.096 40.096s-40.096-17.987-40.096-40.096v-28.497c16.815-2.68 31.255-12.537 40.096-26.321 8.841 13.783 23.282 23.641 40.096 26.32zm9.253-46.265c-22.11 0-40.096-17.987-40.096-40.096v-28.497c16.815-2.68 31.255-12.537 40.096-26.32 8.841 13.783 23.282 23.641 40.096 26.32v28.497c.001 22.11-17.986 40.096-40.096 40.096zm89.446 46.265c0 22.11-17.987 40.096-40.096 40.096s-40.096-17.987-40.096-40.096v-28.497c16.815-2.68 31.255-12.537 40.096-26.321 8.841 13.783 23.282 23.641 40.096 26.32zm0-47.355c-17.661-4.19-30.843-20.082-30.843-39.007v-28.496c11.83-1.884 22.484-7.326 30.843-15.186zm0-125.367c0 22.11-17.987 40.096-40.096 40.096s-40.096-17.987-40.096-40.096v-28.497c16.815-2.68 31.255-12.537 40.096-26.32 8.841 13.783 23.282 23.641 40.096 26.32zm0-47.355c-17.661-4.19-30.843-20.081-30.843-39.007v-27.759h30.843z"/></svg>
