<svg height="512" width="512" xmlns="http://www.w3.org/2000/svg" fill="currentColor"><path d="M303.889 256.01c-2.45-1.806-5.689-2.541-8.846-1.563l-84 26A10 10 0 0 0 204 290v108c0 5.285 4.53 10 10 10 .991 0 86.957-26.447 86.957-26.447A10 10 0 0 0 308 372V264c0-3.306-1.661-6.184-4.111-7.99zM288 364.627l-64 19.81v-87.063l64-19.81zm-35.959-151.172c2.378 1.73 5.844 2.436 8.789 1.515l40.13-12.42c5.259-1.63 8.219-7.239 6.59-12.509-1.598-5.169-7.35-8.201-12.51-6.591l-40.12 12.42c-5.168 1.6-8.199 7.337-6.601 12.499.634 2.045 1.99 3.825 3.722 5.086zm51.818 196.485c-2.475-1.784-5.731-2.453-8.818-1.49l-40.12 12.42c-5.207 1.612-8.216 7.285-6.6 12.5 1.568 5.06 7.263 8.241 12.51 6.601l40.13-12.42c5.26-1.63 8.22-7.239 6.59-12.509a9.9 9.9 0 0 0-3.692-5.102zm-51.822-246.482c2.49 1.778 5.756 2.461 8.793 1.512l40.13-12.42c5.26-1.63 8.219-7.239 6.59-12.509-1.602-5.183-7.329-8.208-12.51-6.591l-40.12 12.42c-5.177 1.603-8.196 7.339-6.6 12.51.647 2.097 1.997 3.849 3.717 5.078zm51.815-78.51c-2.479-1.781-5.737-2.448-8.812-1.499l-40.12 12.42c-5.087 1.575-8.163 7.445-6.6 12.51 1.598 5.179 7.344 8.205 12.51 6.59l40.13-12.42c5.211-1.613 8.205-7.295 6.59-12.509-.655-2.115-1.992-3.867-3.698-5.092zM136.957 324.447l-84-26c-5.277-1.633-10.877 1.319-12.51 6.596-1.633 5.276 1.32 10.877 6.596 12.51l84 26c.985.305 1.981.45 2.96.45 4.268 0 8.221-2.754 9.549-7.045 1.634-5.277-1.319-10.878-6.595-12.511zM66.968 98.529l44 14a9.993 9.993 0 0 0 3.035.473c4.238 0 8.173-2.716 9.527-6.97 1.674-5.263-1.234-10.887-6.497-12.562l-44-14c-5.264-1.675-10.887 1.234-12.562 6.497-1.675 5.264 1.234 10.888 6.497 12.562zM49.844 143.42l19.105 5.914c.985.305 1.98.45 2.96.45 4.268 0 8.221-2.754 9.549-7.045 1.633-5.276-1.32-10.876-6.596-12.51l-19.105-5.914c-5.274-1.634-10.877 1.32-12.51 6.596-1.632 5.275 1.321 10.875 6.597 12.509zm87.113 6.027l-19.106-5.914c-5.275-1.632-10.876 1.319-12.509 6.596-1.633 5.276 1.32 10.876 6.596 12.509l19.106 5.914c.984.305 1.98.45 2.959.45 4.269 0 8.222-2.754 9.55-7.046 1.633-5.275-1.32-10.876-6.596-12.509zm0 225l-84-26c-5.277-1.632-10.877 1.32-12.51 6.596s1.32 10.877 6.596 12.51l84 26c.985.305 1.981.45 2.96.45 4.268 0 8.221-2.754 9.549-7.045 1.634-5.277-1.319-10.878-6.595-12.511zm0 50l-84-26c-5.277-1.633-10.877 1.32-12.51 6.596s1.32 10.877 6.596 12.51l84 26c.985.305 1.981.45 2.96.45 4.268 0 8.221-2.754 9.549-7.045 1.634-5.277-1.319-10.878-6.595-12.511zM502 331.9c-5.51 0-10 4.49-10 10.01 0 5.51 4.49 9.99 10 9.99s10-4.48 10-9.99c0-5.52-4.49-10.01-10-10.01z"/><path d="M504.92 50.43L340.908.437a10 10 0 0 0-5.825-.003L174 49.546 12.917.435A9.999 9.999 0 0 0 0 10v442a10 10 0 0 0 7.083 9.565l164 50c.94.287 1.932.435 2.918.435.937 0 2.879-.424 2.915-.435l161.09-49.113L499.08 511.57c.95.28 1.94.43 2.93.43 2.15 0 4.2-.68 5.94-1.96 2.54-1.88 4.05-4.88 4.05-8.04V386.9c0-5.51-4.49-9.99-10-9.99s-10 4.48-10 9.99v101.6l-144-43.91V23.5l144 43.91V296.9c0 5.52 4.49 10 10 10s10-4.48 10-10V60c0-4.43-2.85-8.27-7.08-9.57zM20 23.504l144 43.902v421.091L20 444.594zm164 43.902l144-43.902v421.091l-144 43.902z"/><path d="M464.957 336.447l-84-26C374.638 308.491 368 313.419 368 320v98a10 10 0 0 0 7.043 9.553l84 26c.97.3 1.965.447 2.956.447 5.449 0 10.001-4.565 10.001-10v-98a10 10 0 0 0-7.043-9.553zM452 430.437l-64-19.81v-77.063l64 19.81zm-76.957-252.884l84 26C465.369 205.512 472 200.603 472 194V96a10 10 0 0 0-7.043-9.553l-84-26C374.615 58.484 368 63.396 368 70v98a10 10 0 0 0 7.043 9.553zM388 83.564l64 19.81v77.063l-64-19.81zm76.957 204.883l-84-26c-5.276-1.633-10.877 1.32-12.51 6.596s1.32 10.877 6.596 12.51l84 26c5.085 1.574 10.893-1.372 12.51-6.596 1.633-5.276-1.32-10.877-6.596-12.51zm0-50l-84-26c-5.276-1.634-10.877 1.32-12.51 6.596s1.32 10.877 6.596 12.51l84 26c5.099 1.578 10.887-1.351 12.51-6.596 1.633-5.276-1.32-10.877-6.596-12.51z"/><circle cx="215" cy="218" r="10"/><circle cx="215" cy="169" r="10"/><circle cx="215" cy="119" r="10"/><circle cx="215" cy="444" r="10"/></svg>
