<svg height="682pt" viewBox="-21 -86 682.667 682" width="682pt" xmlns="http://www.w3.org/2000/svg" fill="currentColor"><path d="M627.5 199.402c-6.906 0-12.5 5.602-12.5 12.5v44.547c0 25.563-20.8 46.363-46.363 46.363h-71.25a12.503 12.503 0 0 0-8.84 3.657l-86.379 86.383v-77.54c0-6.906-5.598-12.5-12.5-12.5H210.699c-25.562 0-46.363-20.796-46.363-46.363V67.36c0-25.562 20.8-46.359 46.363-46.359h357.938C594.199 21 615 41.797 615 67.36v44.542c0 6.907 5.594 12.5 12.5 12.5 6.898 0 12.5-5.593 12.5-12.5V67.36C640 28.012 607.988-4 568.637-4H210.699c-39.351 0-71.363 32.012-71.363 71.36v160.59h-90.98C21.695 227.95 0 249.636 0 276.304v115.187c0 26.668 21.695 48.356 48.355 48.356h38.23l61.954 61.957a12.503 12.503 0 0 0 21.344-8.836v-53.121h96.523c26.664 0 48.356-21.688 48.356-48.356v-63.68h62.406v95.215c0 5.059 3.047 9.614 7.719 11.547a12.48 12.48 0 0 0 13.621-2.71l104.054-104.052h66.075c39.351 0 71.363-32.011 71.363-71.363v-44.547c0-6.898-5.602-12.5-12.5-12.5zm-337.734 192.09c0 12.883-10.477 23.356-23.36 23.356H157.383c-6.906 0-12.5 5.601-12.5 12.5v35.445l-44.281-44.281a12.504 12.504 0 0 0-8.84-3.664H48.355C35.477 414.848 25 404.375 25 391.492V276.305c0-12.88 10.477-23.356 23.355-23.356h90.98v3.5c0 39.352 32.013 71.363 71.364 71.363h79.067zm0 0"/><path d="M511.543 77.914h-243.75c-6.902 0-12.5 5.598-12.5 12.5 0 6.906 5.598 12.5 12.5 12.5h243.75c6.902 0 12.5-5.594 12.5-12.5 0-6.902-5.598-12.5-12.5-12.5zm12.5 80.004c0-6.902-5.598-12.5-12.5-12.5h-243.75c-6.902 0-12.5 5.598-12.5 12.5 0 6.906 5.598 12.5 12.5 12.5h243.75c6.902 0 12.5-5.594 12.5-12.5zm-256.25 55c-6.902 0-12.5 5.598-12.5 12.5 0 6.906 5.598 12.5 12.5 12.5h140.625c6.902 0 12.5-5.594 12.5-12.5 0-6.902-5.598-12.5-12.5-12.5zM627.5 149.402c-6.883 0-12.5 5.618-12.5 12.5 0 6.887 5.617 12.5 12.5 12.5s12.5-5.613 12.5-12.5c0-6.882-5.617-12.5-12.5-12.5zm0 0"/></svg>
