<svg height="512pt" viewBox="0 0 512 512" width="512pt" xmlns="http://www.w3.org/2000/svg" fill="currentColor"><path d="M202 452a10.08 10.08 0 0 0-7.07 2.93c-1.86 1.86-2.93 4.441-2.93 7.07s1.07 5.21 2.93 7.07c1.86 1.86 4.441 2.93 7.07 2.93s5.21-1.07 7.07-2.93c1.86-1.86 2.93-4.441 2.93-7.07s-1.07-5.21-2.93-7.07A10.08 10.08 0 0 0 202 452zm0 0"/><path d="M501.324 136.32c-14.21-14.21-37.332-14.21-51.543 0L404 182.102V34c0-18.746-15.254-34-34-34H34C15.254 0 0 15.254 0 34v444c0 18.746 15.254 34 34 34h336c18.746 0 34-15.254 34-34V285.191l97.324-97.328c14.211-14.21 14.211-37.332 0-51.543zM384 34v168.102l-20 20V50c0-5.523-4.477-10-10-10h-66.832V20H370c7.719 0 14 6.281 14 14zm-54.602 274.246l13.5-30.328 16.829 16.828zM267.168 20v40.75c0 6.203-5.047 11.25-11.25 11.25H148.082c-6.203 0-11.25-5.047-11.25-11.25V20zM370 492H34c-7.719 0-14-6.281-14-14V34c0-7.719 6.281-14 14-14h82.832v20H50c-5.523 0-10 4.477-10 10v412c0 5.523 4.477 10 10 10h112c5.523 0 10-4.477 10-10s-4.477-10-10-10H60V60h56.832v.75c0 17.23 14.02 31.25 31.25 31.25h107.836c17.23 0 31.25-14.02 31.25-31.25V60H344v182.102l-11.39 11.386a10.119 10.119 0 0 0-2.063 3.004L300.53 323.91a10.006 10.006 0 0 0 2.063 11.14 10.014 10.014 0 0 0 11.14 2.067L344 323.641V452H242c-5.523 0-10 4.477-10 10s4.477 10 10 10h112c5.52 0 10-4.477 10-10V314.734l17.152-7.636a9.97 9.97 0 0 0 2.848-1.922V478c0 7.719-6.281 14-14 14zm79.91-281.008l-72.824 72.828-23.262-23.261 90.168-90.168 23.262 23.261zm37.274-37.27l-5.79 5.786-23.257-23.258 5.785-5.785c6.414-6.414 16.848-6.414 23.262 0 6.41 6.41 6.41 16.844 0 23.258zm0 0"/><path d="M162 120H98c-5.523 0-10 4.477-10 10v64c0 5.523 4.477 10 10 10h64c5.523 0 10-4.477 10-10v-64c0-5.523-4.477-10-10-10zm-10 64h-44v-44h44zm10 46H98c-5.523 0-10 4.477-10 10v64c0 5.523 4.477 10 10 10h64c5.523 0 10-4.477 10-10v-64c0-5.523-4.477-10-10-10zm-10 64h-44v-44h44zm10 46H98c-5.523 0-10 4.477-10 10v64c0 5.523 4.477 10 10 10h64c5.523 0 10-4.477 10-10v-64c0-5.523-4.477-10-10-10zm-10 64h-44v-44h44zm81.578-212.355a9.968 9.968 0 0 0 7.07 2.93 9.968 9.968 0 0 0 7.07-2.93l45.15-45.149c3.902-3.902 3.902-10.234 0-14.14-3.907-3.907-10.24-3.907-14.145 0l-38.075 38.074-15.175-15.176c-3.907-3.906-10.235-3.906-14.145 0-3.902 3.906-3.902 10.238 0 14.14zm0 110a10 10 0 0 0 14.14 0l45.15-45.145c3.902-3.906 3.902-10.238 0-14.145-3.907-3.902-10.24-3.902-14.145 0l-38.075 38.079-15.175-15.176c-3.907-3.906-10.235-3.906-14.145 0-3.902 3.902-3.902 10.234 0 14.14zm18.52 94.5l15.504 15.5c1.953 1.953 4.511 2.93 7.07 2.93s5.117-.977 7.07-2.93c3.906-3.907 3.906-10.239 0-14.141L266.242 382l15.5-15.504c3.906-3.902 3.906-10.234 0-14.14s-10.234-3.907-14.14 0l-15.504 15.5-15.5-15.5c-3.907-3.903-10.235-3.907-14.145 0-3.902 3.906-3.902 10.238 0 14.14L237.957 382l-15.504 15.504c-3.902 3.902-3.902 10.234 0 14.14 1.953 1.954 4.516 2.93 7.074 2.93s5.118-.976 7.07-2.93zm0 0"/></svg>
