<svg fill="none" height="94" viewBox="0 0 299 94" width="299" xmlns="http://www.w3.org/2000/svg" xmlns:xlink="http://www.w3.org/1999/xlink"><clipPath id="a"><path d="m0 0h299v94h-299z"/></clipPath><g clip-path="url(#a)"><path d="m61.2479 50.2066h12.0196c1.691-.0609 3.3828 0 5.0738.1817 3.7447.4852 7.6107 2.1832 7.6107 6.7931 0 3.8821-2.2953 5.6411-5.0132 6.2471v.2425c3.9266.6669 6.2211 2.7901 6.2211 6.9757 0 6.854-6.5233 8.7347-11.7789 8.9772-1.2685.0609-2.9595.0609-4.047.0609h-10.087v-29.4782zm213.1591-12.6159c-2.415-1.7589-4.651-3.6395-6.764-5.7619-2.115-2.0623-4.047-4.3064-5.799-6.7331-.061-.6069-.061-1.152.061-1.7589.362-1.6981 1.812-3.2753 3.383-4.4882 1.268-.9703 2.597-1.8197 3.986-2.5475 1.812 2.7293 3.866 5.2159 6.221 7.4609 2.295 2.3049 4.832 4.3673 7.55 6.1262l.092.0582c1.435-2.8931 2.571-5.9642 3.351-9.0963.846-3.1544 1.33-6.3688 1.45-9.644 0-1.63809-.061-3.2144-.242-4.79161-.302-2.0015-.906-4.06386-2.174-5.21588-.483-.424293-.966-.72774-1.51-.970318 2.355-.2425783 4.711-.3034467 7.067-.120842 2.174.18171 4.349.727736 5.678 2.0015 1.328 1.27376 1.933 3.45696 2.115 5.64106.181 2.30499.181 4.67079-.061 7.03569-.604 5.9445-2.054 11.7673-4.349 17.2866-.053.0394-.106.0788-.16.1164-.891 2.0954-2.003 4.079-3.283 5.949-1.269 1.8197-2.84 3.5178-4.591 4.0029-1.752.4852-3.986-.1208-5.98-1.0311-2.053-.9712-4.047-2.1233-6.041-3.5179zm-7.429-32.63258c-2.174.97032-4.167 2.12324-6.1 3.51784-1.752 1.27376-3.383 2.91184-3.866 4.60984-.483 1.6981.181 3.9431 1.087 5.9446 1.027 2.1232 2.235 4.1847 3.625 6.0653-.061-.6069-.061-1.152.06-1.7589.363-1.6981 1.813-3.2753 3.383-4.4882 1.269-.9703 2.598-1.8197 3.986-2.5475 2.899-1.5163 5.92-2.6692 9.061-3.5178 3.141-.9095 6.342-1.4555 9.543-1.6381.061-1.57719 0-3.21437-.242-4.79158-.241-2.00149-.846-4.00299-2.174-5.21588-.422-.364318-.966-.727738-1.51-.970316-2.959.364315-5.859.910336-8.698 1.758916-2.598.84947-5.437 1.88065-8.155 3.03268zm-3.382 54.83168v-10.857l-8.396 2.5476v28.1435h10.691c7.792 0 15.041-2.1232 15.041-10.1901 0-6.8539-5.86-9.7049-13.047-9.7049l-4.288.0609zm0 14.0722v-8.2485h2.778c2.96 0 6.221.4851 6.221 3.943 0 3.5178-2.778 4.2455-6.101 4.2455l-2.899.0609zm-243.9656 6.3688c-12.74518 0-19.63120872-9.2197-19.63120872-20.7445 0-11.6455 8.15448872-21.2296 21.50310872-21.2296 3.5638 0 6.6445.4852 9.3017 1.8807v7.5208c-2.7178-1.6981-5.7985-2.5475-9.0004-2.4867-9.0601 0-12.62392 6.7332-12.62392 13.7688 0 7.8852 4.40972 14.1322 11.77892 14.1322 3.201 0 6.2816-.8495 9.0601-2.4258l2.2348 5.9446c-3.7448 2.3658-8.1545 3.7004-12.624 3.6395zm143.3956 0c-9.423 0-14.256-6.9148-14.256-15.2242 0-9.2798 6.403-15.406 14.92-15.406 3.745 0 5.738.7277 7.308 1.6981v6.6722c-1.751-1.3946-3.866-2.1232-6.1-2.0624-4.833 0-7.792 3.5787-7.792 8.6738 0 4.6099 2.295 9.098 7.671 9.098 1.993-.1208 3.927-.7277 5.678-1.698l1.994 5.3984c-2.839 1.759-6.101 2.7293-9.423 2.851zm26.033-23.4128v22.8059h-8.396v-22.8059h-8.155v-6.6723h25.672l-2.115 6.6723zm40.167-3.1544c0 10.2509-.422 15.6494-2.295 18.0752-.967 1.2129-2.356 2.0624-3.866 2.3049l2.356 6.2471c2.597-.1208 5.013-1.152 6.886-2.9118 2.658-2.6084 3.564-5.9446 3.926-9.4624.363-3.1544.605-6.3688.605-9.5832v-1.4554h6.523v22.8059h8.335v-29.4782h-22.53v3.457h.061zm-189.6025 13.5262c.181 3.9421 3.866 6.4296 7.7917 6.4296 2.8391 0 5.0132-.546 8.3355-2.1232l1.8728 5.3376c-3.4426 2.2441-7.4895 3.397-11.5365 3.397-10.4498 0-14.7383-7.4608-14.7383-15.2242 0-8.2486 4.9526-15.406 13.7114-15.406 8.0333 0 13.5903 5.9445 13.5903 15.0425v2.5476zm5.1345-11.4639c-3.3829 0-5.3154 3.0327-5.3154 5.702h10.5701c-.1203-2.7901-1.6909-5.702-5.2547-5.702zm52.4898 11.4639c.1809 3.9421 3.8662 6.4296 7.7912 6.4296 2.84 0 5.014-.546 8.336-2.1232l1.873 5.3376c-3.443 2.2441-7.49 3.397-11.537 3.397-10.4495 0-14.738-7.4608-14.738-15.2242 0-8.2486 4.9535-15.406 13.711-15.406 8.034 0 13.591 5.9445 13.591 15.0425v2.5476zm5.1342-11.4639c-3.3826 0-5.3152 3.0327-5.3152 5.702h10.5092c-.12-2.7901-1.691-5.702-5.194-5.702zm111.865 21.2896c-2.174 2.1233-5.074 3.2753-8.094 3.2144-5.557 0-9.725-3.7604-9.725-9.5832 0-6.247 5.013-9.4623 12.443-9.644l4.953-.1817v-.6069c0-3.0936-2.477-4.3065-5.437-4.3065-2.597 0-5.194.6669-7.43 2.0624l-2.537-5.1559c3.987-2.6084 7.853-3.2144 11.839-3.2144 7.732 0 11.839 3.0936 11.839 10.857v19.1672h-6.524l-1.329-2.6084zm-4.167-10.5544c-3.625.1209-5.316 1.3347-5.316 3.5787 0 2.1833 1.571 3.7005 4.41 3.7005 1.631.0608 3.201-.4243 4.53-1.3346v-6.0054zm-82.872 12.5559v12.4342l-8.336 2.5475v-43.793h7.007l.906 2.6693c2.174-1.6981 4.651-3.2753 7.913-3.2753 6.705 0 12.02 5.1559 12.02 14.4357 0 8.7346-5.195 16.1346-13.893 16.1346-1.932.1208-3.866-.3035-5.617-1.1521zm0-19.9558v13.9505c1.027.7886 2.295 1.152 3.624 1.152 5.678 0 7.55-5.2159 7.55-10.1901 0-6.0654-1.993-8.1886-5.315-8.1886-2.235 0-4.893 1.8198-5.859 3.2753zm-57.5034 14.9816h3.4434c2.8997 0 5.7379-.8494 5.7379-3.7004 0-2.6084-2.1741-3.5787-6.1613-3.5787h-3.02v7.2782zm.1212-12.4341h2.5369c3.5032 0 5.557-.6669 5.557-2.9718 0-1.8198-1.2685-2.851-4.712-2.851h-3.4425v5.8228z" fill="#00d1ff"/></g></svg>