<svg xmlns="http://www.w3.org/2000/svg" xmlns:xlink="http://www.w3.org/1999/xlink"><defs><style>
    .sprite-symbol-usage {display: none;}
    .sprite-symbol-usage:target {display: inline;}
  </style><symbol preserveAspectRatio="xMidYMid meet" viewBox="0 0 179 163" id="calculator_01">
    <path d="m1040 1609c-19-12-84-50-145-84-60-34-139-80-175-102s-101-59-145-83c-44-23-100-55-125-70-49-29-113-66-315-182-100-58-131-81-133-98-3-17 15-41 72-99l76-76 2-253 3-254 120-67c66-38 188-107 270-154 83-48 156-87 163-87 11 0 114 58 572 322 91 52 215 124 275 158 61 35 118 70 128 78 14 13 17 34 17 136l1 121 44 27c76 46 76 46-164 293-75 77-193 200-263 273-70 72-132 132-138 132-5 0-16 13-25 29-15 30-51 61-70 61-5 0-26-10-45-21zm137-161c256-265 518-541 517-546-1-7-141-89-634-372-118-68-244-141-280-162l-65-39-70 75c-38 41-163 170-276 288-228 236-269 280-269 288 1 3 65 41 143 86 190 108 676 388 757 436 36 21 70 38 76 38s51-42 101-92zm449-833c-4-10-54-43-141-90-55-30-614-353-677-391-31-19-59-34-62-34-4 0-6 37-4 82l3 81 130 75c72 41 155 90 185 107 204 118 473 273 515 296l50 28 3-71c2-39 1-77-2-83zm-1186-105c8-9 66-68 128-131l112-116v-83c0-71-2-81-16-76-9 3-84 46-168 95-83 48-179 103-213 122l-63 34v191 191l103-106c56-58 109-112 117-121z" transform="matrix(.1 0 0 -.1 0 163)" fill="currentColor" />
</symbol><symbol viewBox="0 0 177 155" id="calculator_02"><path d="M123.5 1.5l-11 1.2-23 13.3C76.8 23.3 55.9 35.3 43 42.8 5.5 64.4 1.1 67 .5 68c-.4.6-.3 2 0 3.1.7 2 1.2 2.1 8 1.6l7.2-.7.7 3.8c.3 2 .6 14.1.6 26.9v23.1l8.8 5c4.8 2.7 16.3 9.3 25.5 14.6 9.3 5.4 17.5 9.5 18.3 9.2.8-.3 5.8-3.1 11.1-6.2 5.4-3.1 15.2-8.8 21.8-12.6 6.6-3.8 12.2-7.4 12.3-7.9.2-.5.9-.9 1.7-.9 1.1 0 24-12.8 38.8-21.7l5.7-3.4V52.3l8-4.7c6.4-3.7 8-5.1 8-7 0-1.6-5.2-8.9-15.2-21.4L146.5.1l-6 .1c-3.3 0-11 .6-17 1.3zm3.5 6.8c0 .2-6.2 3.9-13.7 8.2-7.6 4.3-16.3 9.3-19.3 11.1-3 1.7-18.1 10.5-33.5 19.4-24.9 14.5-28.7 16.3-34 17-3.3.4-6.1.7-6.2.6-.1-.1 8.5-5.1 19-11.1 10.6-6 32.2-18.5 48-27.7C107 14.4 117.2 9 119.8 8.7c6.7-.7 7.2-.7 7.2-.4zm28.8 15.4c6.7 8.6 12.1 15.7 12 15.8-.4.4-80.6 46.7-97.2 56.2-3.3 1.9-6.3 3-6.7 2.6-1.1-1.2-15.3-18.9-20.1-25.1-2.2-2.9-3.9-5.5-3.6-5.7.5-.5 22.7-13.4 56.8-33 10.7-6.2 25.4-14.6 32.5-18.8 7.2-4.2 13.2-7.6 13.5-7.6.3 0 6 7.1 12.8 15.6zM154 76.8v20.8l-26.2 15.1c-14.5 8.3-32.9 18.9-41 23.6L72 144.9v-41.5l24.8-14.2c13.6-7.8 31.9-18.5 40.7-23.6 8.8-5.2 16.1-9.4 16.3-9.5.1-.1.2 9.2.2 20.7zM42 83c3.8 4.7 9.6 12 13 16.2 3.9 5.1 6.7 7.8 8 7.8 1.9 0 2 .7 2 18.6 0 17.3-.1 18.6-1.7 18-1-.4-10.5-5.7-21-11.9L23 120.5V71.1l4.3-.3c4.8-.4 4.1-.9 14.7 12.2z" fill="currentColor" /></symbol><symbol viewBox="0 0 177 164" id="calculator_03"><path d="M121.5 5.4c-4.9 2.9-28.8 16.9-53 31C27.2 60.5 2 75.6.5 77.2c-1.7 1.6 1.1 5 6.8 8.2 3.4 2 6.9 4 7.7 4.5 1.2.8 1.6 5 2 23.3l.5 22.3 17 9.8c29.6 17 32.7 18.7 34.2 18.7.7 0 7.1-3.3 14.1-7.4 26.4-15.3 44.2-25.6 59.2-34.1 8.5-4.8 16.3-9.5 17.3-10.3 1.5-1.4 1.7-3.9 1.7-26.1V61.5l8-4.5c6.8-3.9 8-4.9 8-7.2 0-1.5-.8-3.3-1.9-4-1.1-.8-6.1-5.2-11.3-9.9-5.1-4.7-11-10-13-11.8-2.1-1.8-6.2-7.8-9.5-13.7-7-12.6-7-12.6-19.8-5zm16.4 14.3c2.3 4.3 5.5 8.1 10.5 12.4 10.5 9.1 18.9 17 18.5 17.3-1 .7-19.6 11.6-41.4 24.1-32.6 18.7-42.3 24.4-43 25.6-.4.5-1.2.9-2 .9-.7 0-4.1 1.6-7.5 3.6-3.3 2-6.3 3.4-6.7 3.1-.3-.3-2.1-8.3-3.9-17.7-2.7-13.9-4-18.2-7-23.8-2-3.7-4.1-7.3-4.7-8-.5-.7-.8-1.4-.6-1.6.2-.2 18.6-10.9 40.9-23.8l40.5-23.6 1.6 2.7c.8 1.4 3 5.4 4.8 8.8zM43.5 71.2l9.2 5.1 2.9 14.9c1.7 8.2 2.7 14.7 2.4 14.6-2.5-1.1-46-26.4-46-26.8 0-.7 20.3-13 21.4-13 .5 0 5.1 2.3 10.1 5.2zM154 86.4v20.4l-13.7 8c-7.6 4.4-15.4 8.9-17.3 10-1.9 1.1-14.1 8.1-27 15.5l-23.5 13.6-.3-20.6c-.2-21.1.1-23.3 3.7-23.3.9 0 3.2-1 5.1-2.2 1.9-1.2 10.7-6.3 19.5-11.3 32.6-18.8 42.1-24.3 47-27.3 2.8-1.7 5.3-3.1 5.8-3.1.4-.1.7 9.1.7 20.3zm-110 20c10 5.8 18.8 10.6 19.6 10.6 1.2 0 1.4 3.2 1.4 18.6v18.5l-5.3-3c-2.8-1.6-12.2-7-20.7-11.9l-15.5-8.9-.3-17.8c-.2-15 0-17.6 1.2-17.2.8.3 9.6 5.3 19.6 11.1z" fill="currentColor" /></symbol><symbol viewBox="0 0 216 174" id="calculator_04"><path d="M118.5 4.2c-3.8 2.2-8.8 5-11 6.3-2.2 1.2-9.6 5.5-16.5 9.5-18.3 10.6-50.4 29.1-59 34.1-4.1 2.3-12.9 7.4-19.5 11.3C-2.8 74.5-3 75.2 8.7 82.3l8.3 4.9.1 8.7c.1 4.7.2 15.1.3 23l.1 14.4 6.5 4c5.8 3.5 32 18.7 44 25.5 2.5 1.4 7.8 4.5 11.8 6.9 4.1 2.4 8.4 4.3 9.7 4.3 1.2 0 8.9-3.9 17.1-8.6 29.4-17 69.1-39.9 79.8-46 6-3.5 11.3-6.9 11.7-7.6.5-.7.9-11.4.8-23.8 0-12.3.3-22.6.8-22.7.4-.2 4.3-2.4 8.6-4.9 8-4.7 9.3-6.7 6-9.6-1.9-1.6-1.9-1.6-26.3-15.6-9.1-5.2-19-10.9-22-12.7-3-1.8-9.8-5.7-15-8.7-5.2-3-12.7-7.4-16.6-9.6-3.9-2.3-7.5-4.2-8-4.1-.5 0-4 1.8-7.9 4.1zm14.3 7.7c2.6 1.5 6.8 3.9 9.3 5.3 2.4 1.4 7.1 4.1 10.4 6 3.3 1.9 13.3 7.7 22.2 12.8 9 5.2 16.2 9.5 16 9.6-.3.3-76.1-14.7-76.5-15.1-.3-.3 13-21.5 13.5-21.5.1 0 2.4 1.3 5.1 2.9zm-22.5 10.3c-2.5 4-4.7 7.5-4.9 7.7-.5.6-51.8 21-52.1 20.7-.2-.1 3.6-2.5 8.5-5.2 4.8-2.6 18.6-10.6 30.7-17.6 12.1-7.1 22.1-12.8 22.2-12.8.2 0-1.8 3.3-4.4 7.2zm14.2 17.7c5.5 1.1 25.1 5 43.5 8.6 18.4 3.7 33.6 6.7 33.7 6.9.1.1-3.2 2.2-7.5 4.6-4.2 2.4-10.2 5.8-13.2 7.6-25.7 15.2-85.4 49.3-85.8 49-.2-.3 3.1-18.3 7.4-40 7.4-37 8-39.5 9.9-39.1 1.1.3 6.5 1.3 12 2.4zm-29.4 39c-4.4 21.6-8.1 39.4-8.3 39.5-.3.4-24-13-33.3-18.7-2.7-1.6-9.5-5.6-15-8.7-16.4-9.3-26.6-15.3-26.3-15.6.6-.5 90.3-36.3 90.5-36 .1.1-3.3 17.9-7.6 39.5zm96.9 9.9v18.8l-12.7 7.3c-7.1 4.1-21.6 12.4-32.3 18.6-10.7 6.1-26.5 15.3-35.1 20.3-8.7 5.1-16.4 9.5-17.3 9.8-1.5.6-1.6-1.2-1.4-18.1l.3-18.8 19-11c10.5-6 27.8-16 38.5-22.2 10.7-6.2 24.2-14 30-17.4 5.8-3.3 10.6-6.1 10.7-6.1.2 0 .3 8.5.3 18.8zM54 108.4c10.2 6 21.5 12.6 25.3 14.8l6.7 4v18.4c0 10.1-.2 18.4-.5 18.4-.5 0-6-3.1-41-23.2l-20-11.5-.3-19.1-.2-19.1 5.7 3.3c3.2 1.8 14.1 8.1 24.3 14z" fill="currentColor" /></symbol><symbol viewBox="0 0 189 174" id="calculator_05"><path d="M135.2.7c-4.8.3-7.5 1.1-11.5 3.5-2.9 1.7-7.2 4.2-9.7 5.6-4.3 2.4-33.6 19.4-47 27.2-18 10.5-31.9 18.5-35.5 20.4C20.9 63.2 16.8 66 8.8 73.3 1.6 79.8 0 81.8 0 84.1c0 4 3.3 3.8 10.9-.6 3.2-1.9 6.2-3.5 6.5-3.5.3 0 .6 14.5.6 32.3v32.3l25.5 14.7c14.1 8.1 26.1 14.7 26.8 14.7.7 0 1.7-.4 2.2-.9.6-.5 11.6-6.9 24.5-14.3s26.6-15.3 30.4-17.6c3.7-2.3 7-4.2 7.2-4.2.3 0 5.9-3.2 12.7-7.2 6.7-3.9 14.7-8.5 17.7-10.3l5.5-3.1.2-10.9c.1-6.1.2-16 .2-22l.1-11 6.3-3.4c9-5 11.7-7 11.7-9.1 0-1-3.6-9.1-8-17.9-4.4-8.9-8-16.4-8-16.7 0-.3-4.8-6.2-10.6-13L151.9 0l-5.2.2c-2.9.1-8 .3-11.5.5zm.8 6.8c0 .2-1.5 1.2-3.2 2.1-1.8.9-7.3 4-12.3 6.9-10.6 6.2-45.4 26.4-50.5 29.3-1.9 1.1-6.4 3.7-10 5.7C42.7 61.6 36.4 65 35 65c-1.8 0-.3-1 19-12 8-4.6 18.6-10.7 23.5-13.6C130.4 8.7 136 5.6 136 7.5zm20.2 9c3.4 4.2 6.4 7.9 6.5 8.3.2.4-4.6 3.4-10.5 6.8-5.9 3.3-21 12.1-33.7 19.4C84.2 70.8 70 79 65 81.8c-2.5 1.3-5 2.9-5.6 3.3-.7.6-3-1.3-6.4-5.4-3-3.4-6.2-7.2-7.2-8.3-1.9-2.1-1.9-2.2 2.4-4.6 2.4-1.3 12-6.9 21.3-12.3 9.4-5.4 22.9-13.2 30-17.3 7.2-4.1 18.9-10.9 26-15C143.2 11.9 148.4 9 149.2 9c.3 0 3.5 3.4 7 7.5zm20.4 44.4c-7.3 4.2-22.9 13.2-29.6 17.1-10.4 6.1-44.2 25.6-48 27.8-8.9 5-15.8 9-19 11-1.9 1.2-3.8 2.2-4.3 2.2-.4 0-2.8-4.4-5.3-9.8-2.6-5.3-5.5-11.4-6.5-13.4L62 92.2l14.3-8.3c7.8-4.5 18.3-10.6 23.2-13.4 5-2.9 17.8-10.3 28.5-16.5 22.6-13 32.3-18.6 36.5-21.1l3-1.9 6.6 13.7 6.7 13.8-4.2 2.4zM45.1 82.2c6.5 7.7 10.2 13.4 14.8 22.5L66 117v23.1c0 14.4-.4 22.9-1 22.7-.5-.1-9.9-5.5-20.9-11.8L24 139.5V72h12.5l8.6 10.2zM164 94.3v17.4l-14.6 8.4c-8.1 4.6-16.3 9.3-18.3 10.5-2 1.2-14.4 8.3-27.6 15.9-13.2 7.5-25.5 14.6-27.2 15.7l-3.3 2 .1-17.9v-17.8l5.7-2.9c4.4-2.2 53.4-30.3 80.7-46.2 2.2-1.3 4.1-2.4 4.3-2.4.1 0 .2 7.8.2 17.3z" fill="currentColor" /></symbol></defs><use id="calculator_01-usage" xlink:href="#calculator_01" class="sprite-symbol-usage" /><use id="calculator_02-usage" xlink:href="#calculator_02" class="sprite-symbol-usage" /><use id="calculator_03-usage" xlink:href="#calculator_03" class="sprite-symbol-usage" /><use id="calculator_04-usage" xlink:href="#calculator_04" class="sprite-symbol-usage" /><use id="calculator_05-usage" xlink:href="#calculator_05" class="sprite-symbol-usage" /></svg>