<svg xmlns="http://www.w3.org/2000/svg" xmlns:xlink="http://www.w3.org/1999/xlink"><defs><style>
    .sprite-symbol-usage {display: none;}
    .sprite-symbol-usage:target {display: inline;}
  </style><symbol viewBox="0 0 512 512" id="dealer_01"><path fill="currentColor" d="M503.249 173.612L387.681 62.44c-5.494-5.277-12.742-8.08-20.376-7.935-7.632.159-14.729 3.268-19.982 8.75l-38.198 39.807c-5.093 5.36-4.896 13.854.409 18.908l3.112 2.994-15.678 12.523a66.386 66.386 0 0 0-1.341-.058c-24.483-.761-42.661 3.295-54.027 12.074l-1.803 1.395-43.073-21.22 5.712-5.495a13.279 13.279 0 0 0 4.141-9.392 13.292 13.292 0 0 0-3.729-9.57L164.68 65.443c-5.255-5.486-12.352-8.594-19.984-8.754-7.672-.185-14.884 2.657-20.382 7.939L8.754 175.793c-11.345 10.896-11.712 29.013-.813 40.391l38.178 39.786c2.616 2.72 6.124 4.091 9.645 4.091 3.335 0 6.681-1.231 9.287-3.713l4.528-4.356c3.202 20.378 8.706 40.952 21.678 55.462l-1.608 1.742c-13.708 14.88-9.444 34.733 1.529 45.859 6.048 6.134 13.401 9.331 20.809 9.562-.99 9.504 3.365 19.014 10.349 25.636 6.128 5.811 14.323 9.536 22.658 9.535 2.072 0 4.153-.239 6.214-.725 1.172 6.743 4.69 13.155 9.474 17.952 5.746 5.762 13.833 9.778 22.445 9.778.881 0 1.768-.044 2.658-.13.115 1.655.372 3.338.791 5.041 2.924 11.888 12.556 21.884 23.968 24.873 1.906.499 4.363.925 7.199.925 6.629 0 15.328-2.325 23.901-11.463l8.402-8.944 12.288 9.447c8.041 6.183 16.016 8.706 23.176 8.706 8.992 0 16.7-3.979 21.636-9.685 4.692-5.423 7.484-13.12 6.449-21.35 9.444.481 18.352-3.16 24.105-9.227 4.257-4.489 7.035-10.603 6.985-17.305 9.786 1.03 18.329-3.147 23.613-9.414 6.086-7.218 8.806-17.974 5.349-28.182 9.031-1.949 17.309-7.664 22.591-16.258 5.929-9.647 8.114-24.027-.955-38.233 13.579-7.486 31.37-22.429 51.037-52.033l.656.629a13.37 13.37 0 0 0 9.248 3.69c3.523 0 7.04-1.374 9.663-4.101l38.177-39.784c10.893-11.375 10.526-29.492-.815-40.383zm-401.311 170.83c-6.029-6.114-8.967-16.546-1.178-25l13.125-14.219c5.369-5.827 11.242-8.211 16.993-6.896 6.03 1.38 11.403 6.661 13.369 13.142.948 3.123 1.798 9.148-3.158 14.4l-.016.019-18.404 19.539c-7.746 6.918-15.786 4.028-20.731-.985zm52.497 35.821c-7.749 8.126-17.286 3.209-21.7-.978-1.146-1.087-10.947-10.887-2.217-20.145l.003-.003 33.328-35.385c4.141-4.399 8.399-5.668 11.934-5.668 1.313 0 2.527.176 3.596.43 5.946 1.416 11.06 6.149 12.726 11.779 1.551 5.243-.068 10.572-4.681 15.41l-7.032 7.368c-.358.358-.709.735-1.06 1.11zm39.287 26.45c-.064.055-.132.103-.195.16-.131.119-.249.246-.377.367-10.364 9.511-19.939.937-21.768-.897-4.298-4.31-8.518-13.002-2.527-19.278.067-.07.123-.145.187-.216l20.359-21.331c.116-.115.233-.227.343-.351.071-.081.144-.154.216-.234l1.316-1.379c5.066-5.014 10.599-6.994 16.112-5.71 6.072 1.412 11.298 6.573 13.004 12.844 1.055 3.879 1.125 9.632-4.538 15.013l-2.485 2.359c-.062.055-.125.104-.187.159-.161.144-.31.297-.456.452zm47.674 17.514l-10.773 11.467c-5.258 5.603-10.731 7.705-16.251 6.262-6.015-1.576-11.533-7.405-13.122-13.862-.696-2.827-.852-6.775 2.177-9.772.139-.128.279-.248.418-.38l19.6-18.608c5.903-5.092 14.192-2.618 19.051 2.36 2.4 2.456 9.41 11.338-1.1 22.533zm141.964-88.315c-3.83 6.231-11.848 11.22-20.217 9.408l-28.825-26.831a7.557 7.557 0 1 0-10.298 11.064l30.209 28.119c.029.027.06.049.089.075.013.012.022.026.035.037 7.453 6.637 6.844 15.458 2.389 20.741-5.056 5.997-12.966 5.695-21.187-.782l-29.972-27.9a7.558 7.558 0 0 0-10.298 11.064l29.991 27.918c5.208 5.661 5.731 11.254 1.455 15.763-5.084 5.36-15.22 7.089-23.99-.269-.11-.092-.226-.172-.34-.257l-13.769-12.796a7.557 7.557 0 1 0-10.289 11.072l14.902 13.849c7.497 7.768 6.082 15.312 2.468 19.49-4.519 5.221-13.743 6.901-24.17-1.113l-12.424-9.552c6.223-12.785 2.279-25.593-5.81-33.876-4.727-4.838-11.214-8.368-18.111-9.442 1.198-4.798 1.163-9.88-.223-14.971-3.173-11.659-12.658-20.922-24.164-23.597a29.393 29.393 0 0 0-4.288-.669c1.619-5.367 1.692-10.984.074-16.45-3.2-10.815-12.511-19.525-23.719-22.193-8.36-1.987-16.735-.392-23.873 4.362-.097-.364-.185-.727-.295-1.091-3.544-11.678-13.146-20.897-24.461-23.486-11.177-2.556-22.354 1.486-31.474 11.382l-1.213 1.314c-10.641-12.657-15.34-32.256-18.535-57.235l31.871-30.659a7.556 7.556 0 0 0 .207-10.685 7.556 7.556 0 0 0-10.685-.207L70.218 230.41a7.625 7.625 0 0 0-.744.716l-13.651 13.132-36.973-38.529c-5.137-5.363-4.969-13.9.377-19.035l115.56-111.169a13.353 13.353 0 0 1 9.594-3.726c3.592.075 6.925 1.531 9.39 4.103l36.984 38.542-62.417 60.047a7.557 7.557 0 0 0 10.478 10.892l46.324-44.565 41.348 20.37-29.211 22.59c-35.023 27.099-24.47 51.489-20.401 58.318 6.941 11.653 19.841 18.38 33 18.38 5.13 0 10.3-1.023 15.171-3.175.29-.128.572-.274.844-.438l30.675-18.472 41.721-9.528 79.756 79.253c12.396 12.724 7.85 23.675 5.317 27.796zm109.793-132.378l-36.979 38.536-5.669-5.431a7.513 7.513 0 0 0-.687-.658l-52.084-49.894A7.558 7.558 0 0 0 387.277 197l47.937 45.923c-21.069 32.378-39.117 45.565-50.1 50.914l-79.126-78.628c-.021-.021-.043-.037-.064-.058a7.103 7.103 0 0 0-.354-.318c-.073-.063-.145-.127-.22-.187-.11-.087-.225-.167-.339-.248-.091-.064-.181-.131-.274-.191-.104-.067-.213-.126-.32-.188-.106-.061-.211-.125-.32-.18-.112-.057-.227-.106-.342-.157-.106-.048-.21-.099-.318-.141-.14-.055-.283-.101-.427-.148-.084-.027-.167-.059-.252-.084a7.354 7.354 0 0 0-.532-.128c-.056-.012-.111-.027-.166-.038a7.262 7.262 0 0 0-.571-.081c-.05-.005-.099-.014-.149-.019a7.073 7.073 0 0 0-.527-.023c-.072-.001-.144-.006-.216-.006-.145.001-.291.012-.437.022-.108.007-.215.012-.323.024-.114.013-.228.032-.342.05a6.68 6.68 0 0 0-.423.075c-.031.007-.062.009-.093.016l-46.957 10.725a7.57 7.57 0 0 0-2.216.893l-31.27 18.83c-10.098 4.198-23.135.012-28.676-9.289-6.57-11.029-.34-25.471 16.665-38.628l38.815-30.017c.068-.053.138-.102.204-.158l5.3-4.099c8.274-6.393 24.02-9.562 44.309-8.925.662.021 1.189.052 1.622.076 4.414.263 6.18-.551 9.577-3.276l17.282-13.803 38.782 37.311a7.558 7.558 0 0 0 10.48-10.892l-51.649-49.691 36.988-38.546c2.461-2.569 5.794-4.024 9.387-4.099.097-.002.193-.003.291-.003 3.498 0 6.791 1.317 9.297 3.724l115.568 111.173c5.34 5.132 5.508 13.669.375 19.027z" /></symbol><symbol viewBox="0 0 512 512" id="dealer_02"><g fill="currentColor"><path d="M90.05 395.95c-7.167 0-14.058 1.788-20.171 5.148C37.676 359.816 20 308.535 20 256 20 125.867 125.867 20 256 20c15.82 0 31.633 1.574 47 4.68 5.406 1.093 10.688-2.407 11.781-7.82s-2.406-10.688-7.82-11.786C290.293 1.707 273.148 0 256 0 187.621 0 123.332 26.629 74.98 74.98 26.63 123.332 0 187.621 0 256c0 57.52 19.531 113.652 55.09 158.652-4.578 6.84-7.04 14.88-7.04 23.297 0 11.219 4.372 21.766 12.305 29.696 7.93 7.933 18.477 12.304 29.696 12.304s21.765-4.37 29.699-12.304c7.934-7.93 12.3-18.48 12.3-29.7 0-11.215-4.366-21.765-12.3-29.695-7.934-7.934-18.48-12.3-29.7-12.3zm15.555 57.554c-4.152 4.156-9.68 6.445-15.554 6.445s-11.399-2.289-15.555-6.445-6.445-9.68-6.445-15.555c0-5.879 2.289-11.402 6.445-15.558 4.152-4.157 9.68-6.442 15.555-6.442s11.398 2.29 15.554 6.442a21.856 21.856 0 0 1 6.446 15.558c0 5.875-2.29 11.399-6.446 15.555zM456.902 97.336c10.871-16.309 9.125-38.606-5.254-52.984-7.933-7.93-18.48-12.301-29.699-12.301s-21.765 4.37-29.699 12.3c-7.934 7.934-12.3 18.481-12.3 29.7s4.366 21.765 12.3 29.699 18.48 12.3 29.7 12.3c7.167 0 14.058-1.788 20.171-5.148C474.324 152.187 492 203.465 492 256c0 130.133-105.867 236-236 236-15.664 0-31.328-1.543-46.55-4.59-5.415-1.082-10.684 2.43-11.77 7.844-1.082 5.418 2.43 10.683 7.843 11.77A258.08 258.08 0 0 0 256 512c68.379 0 132.668-26.629 181.02-74.98C485.37 388.668 512 324.379 512 256c0-57.523-19.535-113.66-55.098-158.664zm-50.507-7.727a21.856 21.856 0 0 1-6.446-15.558c0-5.875 2.29-11.399 6.446-15.555 4.152-4.156 9.68-6.445 15.554-6.445s11.403 2.289 15.559 6.445c8.574 8.578 8.574 22.535 0 31.113a21.875 21.875 0 0 1-15.559 6.442 21.853 21.853 0 0 1-15.554-6.442zm0 0" /><path d="M214.734 428c0 5.523 4.48 10 10 10h62.528c5.523 0 10-4.477 10-10v-19.387a156.596 156.596 0 0 0 37.531-15.554l13.687 13.687a9.994 9.994 0 0 0 14.145-.004l44.195-44.226c3.903-3.907 3.903-10.239 0-14.141l-13.672-13.672a156.596 156.596 0 0 0 15.555-37.531h19.313c5.523 0 10-4.477 10-10v-62.527c0-5.524-4.477-10-10-10h-19.317a156.623 156.623 0 0 0-15.55-37.528l13.597-13.597a10.009 10.009 0 0 0 2.93-7.075 10.029 10.029 0 0 0-2.934-7.074l-44.23-44.195c-3.903-3.903-10.235-3.903-14.14.004l-13.579 13.582a156.596 156.596 0 0 0-37.531-15.555V84c0-5.523-4.477-10-10-10h-62.528c-5.52 0-10 4.477-10 10v19.21a156.464 156.464 0 0 0-37.527 15.552l-13.582-13.582c-3.902-3.903-10.234-3.907-14.14-.004l-44.227 44.199a9.987 9.987 0 0 0-2.934 7.07c0 2.653 1.055 5.2 2.93 7.075l13.598 13.597a156.568 156.568 0 0 0-15.555 37.528H84.02c-5.524 0-10 4.476-10 9.996l-.036 62.527c-.004 2.652 1.051 5.2 2.926 7.074s4.418 2.93 7.074 2.93h19.313a156.596 156.596 0 0 0 15.555 37.531l-13.672 13.672c-3.903 3.902-3.907 10.234 0 14.14l44.195 44.227a10.003 10.003 0 0 0 7.07 2.934h.004a10 10 0 0 0 7.07-2.93l13.684-13.687a156.728 156.728 0 0 0 37.531 15.554zm-33.609-55.973a10.003 10.003 0 0 0-12.5 1.328l-12.176 12.176-30.058-30.082 12.164-12.168a9.997 9.997 0 0 0 1.328-12.496c-9.067-14.031-15.442-29.41-18.942-45.715a10.003 10.003 0 0 0-9.777-7.898H93.988l.024-42.527h17.152a9.999 9.999 0 0 0 9.777-7.899c3.5-16.3 9.875-31.68 18.942-45.71a9.997 9.997 0 0 0-1.328-12.497l-12.086-12.09 30.082-30.058 12.074 12.078a10.007 10.007 0 0 0 12.5 1.328c14.027-9.067 29.406-15.442 45.71-18.942a10.006 10.006 0 0 0 7.9-9.777V94h42.527v17.074c0 4.715 3.289 8.79 7.898 9.778a136.936 136.936 0 0 1 45.711 18.941 9.992 9.992 0 0 0 12.496-1.328l12.078-12.074 30.082 30.058-12.086 12.086a9.998 9.998 0 0 0-1.328 12.5 136.97 136.97 0 0 1 18.942 45.711 9.996 9.996 0 0 0 9.777 7.899h17.184v42.527h-17.184a10.003 10.003 0 0 0-9.777 7.898 136.855 136.855 0 0 1-18.942 45.711 10.002 10.002 0 0 0 1.328 12.5l12.164 12.164-30.058 30.082-12.176-12.172a9.998 9.998 0 0 0-12.5-1.328 136.97 136.97 0 0 1-45.71 18.942 9.999 9.999 0 0 0-7.9 9.777V418h-42.527v-17.254c0-4.71-3.293-8.785-7.898-9.777-16.3-3.5-31.68-9.875-45.711-18.942zm0 0" /><path d="M338.629 256c0-45.563-37.067-82.629-82.629-82.629S173.371 210.437 173.371 256s37.066 82.629 82.629 82.629 82.629-37.066 82.629-82.629zm-145.258 0c0-34.535 28.094-62.629 62.629-62.629S318.629 221.47 318.629 256 290.535 318.629 256 318.629 193.371 290.535 193.371 256zM348.078 37.82c2.633 0 5.211-1.07 7.07-2.93a10.121 10.121 0 0 0 2.93-7.081c0-2.618-1.066-5.2-2.93-7.07a10.073 10.073 0 0 0-7.07-2.93 10.05 10.05 0 0 0-7.066 2.93 10.087 10.087 0 0 0-2.934 7.07c0 2.64 1.07 5.21 2.934 7.082a10.05 10.05 0 0 0 7.066 2.93zM164.36 474.36a10.08 10.08 0 0 0-7.07 2.93 10.08 10.08 0 0 0-2.93 7.07c0 2.64 1.07 5.21 2.93 7.07 1.86 1.86 4.441 2.93 7.07 2.93s5.211-1.07 7.07-2.93c1.86-1.86 2.93-4.442 2.93-7.07s-1.07-5.212-2.93-7.07a10.08 10.08 0 0 0-7.07-2.93zm0 0" /></g></symbol><symbol viewBox="0 0 512 512" id="dealer_03"><g fill="currentColor"><path d="M512 304c0-12.821-5.099-24.768-13.888-33.579 9.963-10.901 15.04-25.515 13.653-40.725-2.496-27.115-26.923-48.363-55.637-48.363H324.352c6.528-19.819 16.981-56.149 16.981-85.333 0-46.272-39.317-85.333-64-85.333-22.144 0-37.995 12.48-38.656 12.992A10.672 10.672 0 0 0 234.666 32v72.341L173.205 237.44l-2.539 1.301v-4.075c0-5.888-4.779-10.667-10.667-10.667H53.333C23.915 224 0 247.915 0 277.333V448c0 29.419 23.915 53.333 53.333 53.333h64c23.061 0 42.773-14.72 50.197-35.264C185.28 475.2 209.173 480 224 480h195.819c23.232 0 43.563-15.659 48.341-37.248 2.453-11.136 1.024-22.336-3.84-32.064 15.744-7.915 26.347-24.192 26.347-42.688 0-7.552-1.728-14.784-4.992-21.312C501.419 338.752 512 322.496 512 304zm-44.992 26.325a10.719 10.719 0 0 0-8.917 7.232 10.688 10.688 0 0 0 2.816 11.136c5.419 5.099 8.427 11.968 8.427 19.307 0 13.461-10.176 24.768-23.637 26.325a10.719 10.719 0 0 0-8.917 7.232 10.688 10.688 0 0 0 2.816 11.136c7.019 6.613 9.835 15.893 7.723 25.451-2.624 11.904-14.187 20.523-27.499 20.523H224c-17.323 0-46.379-8.128-56.448-18.219-3.051-3.029-7.659-3.925-11.627-2.304a10.667 10.667 0 0 0-6.592 9.856c0 17.643-14.357 32-32 32h-64c-17.643 0-32-14.357-32-32V277.333c0-17.643 14.357-32 32-32h96V256c0 3.691 1.92 7.125 5.077 9.088a10.902 10.902 0 0 0 10.368.448l21.333-10.667a10.65 10.65 0 0 0 4.907-5.056l64-138.667c.64-1.408.981-2.944.981-4.48V37.781c4.438-2.453 12.14-5.781 21.334-5.781C289.024 32 320 61.056 320 96c0 37.547-20.437 91.669-20.629 92.203a10.739 10.739 0 0 0 1.173 9.856 10.728 10.728 0 0 0 8.789 4.608h146.795c17.792 0 32.896 12.736 34.389 28.992 1.131 12.16-4.715 23.723-15.189 30.187-3.264 2.005-5.205 5.632-5.056 9.493s2.368 7.317 5.781 9.088c9.024 4.587 14.613 13.632 14.613 23.573.001 13.461-10.175 24.768-23.658 26.325z" /><path d="M160 245.333c-5.888 0-10.667 4.779-10.667 10.667v192c0 5.888 4.779 10.667 10.667 10.667s10.667-4.779 10.667-10.667V256c0-5.888-4.779-10.667-10.667-10.667z" /></g></symbol><symbol viewBox="0 0 512 512" id="dealer_04"><g fill="currentColor"><path d="M491.342 0H20.659C15.027 0 10.46 4.567 10.46 10.199v413.154c0 48.88 39.767 88.646 88.646 88.646 33.997 0 63.581-19.242 78.447-47.404C192.419 492.758 222.003 512 256 512s63.581-19.242 78.447-47.404C349.314 492.758 378.897 512 412.894 512c48.88 0 88.646-39.767 88.646-88.646V10.199C501.541 4.567 496.974 0 491.342 0zM167.354 423.354c0 37.632-30.616 68.248-68.248 68.248s-68.248-30.616-68.248-68.248v-80.629c16.273 19.619 40.825 32.138 68.248 32.138s51.975-12.517 68.248-32.138v80.629zm0-137.719v.58c0 37.632-30.616 68.248-68.248 68.248s-68.248-30.616-68.248-68.248v-81.789c16.273 19.62 40.825 32.138 68.248 32.138s51.975-12.517 68.248-32.138v81.209zm0-137.718c0 37.632-30.616 68.248-68.248 68.248-37.632 0-68.248-30.616-68.248-68.248V20.398h136.496v127.519zm156.894 275.437c0 37.632-30.616 68.248-68.248 68.248s-68.248-30.616-68.248-68.248v-80.629c16.273 19.619 40.825 32.138 68.248 32.138s51.975-12.517 68.248-32.138v80.629zm0-137.718v.58c0 37.632-30.616 68.248-68.248 68.248s-68.248-30.616-68.248-68.248v-81.789c16.273 19.619 40.825 32.138 68.248 32.138s51.975-12.517 68.248-32.138v81.209zm0-137.719c0 37.632-30.616 68.248-68.248 68.248s-68.248-30.616-68.248-68.248V20.398h136.496v127.519zm156.894 275.437c0 37.632-30.616 68.248-68.248 68.248s-68.248-30.616-68.248-68.248v-80.629c16.273 19.619 40.825 32.138 68.248 32.138s51.975-12.517 68.248-32.138v80.629zm0-137.718v.58c0 37.632-30.616 68.248-68.248 68.248s-68.248-30.616-68.248-68.248v-81.789c16.273 19.619 40.825 32.138 68.248 32.138s51.975-12.517 68.248-32.138v81.209zm0-137.719c0 37.632-30.616 68.248-68.248 68.248s-68.248-30.616-68.248-68.248V20.398h136.496v127.519z" /><path d="M462.024 31.669c-5.632 0-10.199 4.567-10.199 10.199v46.916c0 5.632 4.567 10.199 10.199 10.199s10.199-4.567 10.199-10.199V41.868c0-5.632-4.567-10.199-10.199-10.199zm0 77.513c-5.632 0-10.199 4.567-10.199 10.199v10.199c0 5.632 4.567 10.199 10.199 10.199s10.199-4.567 10.199-10.199v-10.199c0-5.631-4.567-10.199-10.199-10.199z" /></g></symbol><symbol viewBox="0 0 512 512" id="dealer_05"><g fill="currentColor"><path d="M458.667 0H323.349c-25.643 0-49.749 9.984-67.883 28.117L18.197 265.387C6.464 277.12 0 292.715 0 309.376c0 16.576 6.464 32.171 18.197 43.904L158.72 493.803C170.453 505.536 186.048 512 202.709 512c16.576 0 32.171-6.464 43.904-18.197l237.269-237.269C502.016 238.4 512 214.293 512 188.651V53.333C512 23.936 488.064 0 458.667 0zm32 188.651c0 19.947-7.765 38.699-21.845 52.779L231.531 478.72c-15.339 15.339-42.24 15.445-57.707 0L33.28 338.176c-7.701-7.68-11.947-17.92-11.947-28.885 0-10.88 4.245-21.12 11.947-28.821L270.549 43.2c14.123-14.101 32.853-21.867 52.8-21.867h135.317c17.643 0 32 14.357 32 32v135.318z" /><path d="M394.667 64c-29.397 0-53.333 23.936-53.333 53.333s23.936 53.333 53.333 53.333S448 146.731 448 117.333C448 87.936 424.064 64 394.667 64zm0 85.333c-17.643 0-32-14.357-32-32s14.357-32 32-32 32 14.357 32 32-14.358 32-32 32z" /></g></symbol><symbol viewBox="-106 0 512 512" id="dealer_06"><g fill="currentColor"><path d="M150 323c5.52 0 10-4.48 10-10s-4.48-10-10-10-10 4.48-10 10 4.48 10 10 10zm0 0" /><path d="M204.684 247.238c23.203-14.097 42.41-33.941 55.55-57.39C273.164 166.773 280 140.664 280 114.34V58.28c11.64-4.129 20-15.246 20-28.281V10c0-5.523-4.477-10-10-10H10C4.477 0 0 4.477 0 10v20c0 13.035 8.36 24.152 20 28.281v56.059c0 26.324 6.836 52.433 19.766 75.508 13.14 23.449 32.351 43.297 55.554 57.39 2.965 1.801 4.739 5.078 4.739 8.762 0 3.688-1.774 6.96-4.739 8.766-23.203 14.093-42.414 33.937-55.554 57.386C26.836 345.227 20 371.336 20 397.66v56.059C8.36 457.848 0 468.965 0 482v20c0 5.523 4.477 10 10 10h280c5.523 0 10-4.477 10-10v-20c0-13.035-8.36-24.152-20-28.281V397.66c0-26.324-6.836-52.433-19.766-75.508-13.14-23.449-32.351-43.297-55.554-57.39-2.965-1.801-4.739-5.078-4.739-8.762 0-3.688 1.774-6.96 4.743-8.762zM20 20h260v10c0 5.516-4.484 10-10 10H30c-5.516 0-10-4.484-10-10zm260 472H20v-10c0-5.516 4.484-10 10-10h240c5.516 0 10 4.484 10 10zm-85.7-210.145c41.137 24.993 65.7 68.286 65.7 115.805V452H40v-54.34c0-47.52 24.563-90.812 65.7-115.805 8.991-5.457 14.359-15.125 14.359-25.855s-5.368-20.398-14.36-25.855C64.563 205.152 40 161.859 40 114.34V60h220v54.34c0 47.52-24.563 90.812-65.7 115.805-8.991 5.457-14.359 15.125-14.359 25.855s5.368 20.398 14.36 25.855zm0 0" /><path d="M157.969 346.46a9.994 9.994 0 0 0-7.992-4h-.008a10 10 0 0 0-7.989 3.985c-3.77 5.016-8.464 9.278-13.953 12.68-11.453 6.898-21.683 11.21-30.714 15.02C77.288 382.59 60 389.883 60 417.602V422c0 5.523 4.477 10 10 10h160c5.523 0 10-4.477 10-10v-4.398c0-27.704-17.332-35.028-37.398-43.512-9.106-3.852-19.426-8.211-31.024-15.192a49.75 49.75 0 0 1-13.61-12.437zM219.605 412H80.391c1.523-9.242 7.824-12.313 24.695-19.426 9.184-3.875 20.61-8.691 33.316-16.347.032-.024.067-.043.098-.063a72.166 72.166 0 0 0 11.46-8.77 70.318 70.318 0 0 0 11.134 8.536c.035.02.07.043.105.062 12.844 7.735 24.36 12.606 33.613 16.52 16.942 7.16 23.266 10.246 24.793 19.488zM240 114.398V96a9.997 9.997 0 0 0-5.152-8.746 9.996 9.996 0 0 0-10.149.266A140.77 140.77 0 0 1 150 108.94 140.78 140.78 0 0 1 75.3 87.52a10.005 10.005 0 0 0-10.148-.266A9.997 9.997 0 0 0 60 96v18.398c0 17.297 6.68 35.915 19.313 53.836 12.242 17.368 29.222 32.88 49.109 44.868 4.039 2.511 7.996 6.074 11.578 10.378V273c0 5.523 4.477 10 10 10 5.52 0 10-4.477 10-10v-49.5c3.648-4.355 7.738-8 11.973-10.625C212.664 188.332 240 148.765 240 114.398zm-78.402 81.375c-.032.024-.067.04-.098.063-3.988 2.465-7.852 5.516-11.465 9.023-3.504-3.43-7.226-6.37-11.129-8.789l-.105-.066C103.629 174.82 80 142.027 80 114.398v-1.472c21.762 10.515 45.652 16.015 70 16.015s48.238-5.5 70-16.015v1.472c0 27.196-24.016 60.657-58.402 81.375zm0 0" /></g></symbol></defs><use id="dealer_01-usage" xlink:href="#dealer_01" class="sprite-symbol-usage" /><use id="dealer_02-usage" xlink:href="#dealer_02" class="sprite-symbol-usage" /><use id="dealer_03-usage" xlink:href="#dealer_03" class="sprite-symbol-usage" /><use id="dealer_04-usage" xlink:href="#dealer_04" class="sprite-symbol-usage" /><use id="dealer_05-usage" xlink:href="#dealer_05" class="sprite-symbol-usage" /><use id="dealer_06-usage" xlink:href="#dealer_06" class="sprite-symbol-usage" /></svg>