<svg xmlns="http://www.w3.org/2000/svg" xmlns:xlink="http://www.w3.org/1999/xlink"><defs><style>
    .sprite-symbol-usage {display: none;}
    .sprite-symbol-usage:target {display: inline;}
  </style><symbol viewBox="-21 -86 682.667 682" fill="currentColor" id="dealers_01"><path d="M627.5 199.402c-6.906 0-12.5 5.602-12.5 12.5v44.547c0 25.563-20.8 46.363-46.363 46.363h-71.25a12.503 12.503 0 0 0-8.84 3.657l-86.379 86.383v-77.54c0-6.906-5.598-12.5-12.5-12.5H210.699c-25.562 0-46.363-20.796-46.363-46.363V67.36c0-25.562 20.8-46.359 46.363-46.359h357.938C594.199 21 615 41.797 615 67.36v44.542c0 6.907 5.594 12.5 12.5 12.5 6.898 0 12.5-5.593 12.5-12.5V67.36C640 28.012 607.988-4 568.637-4H210.699c-39.351 0-71.363 32.012-71.363 71.36v160.59h-90.98C21.695 227.95 0 249.636 0 276.304v115.187c0 26.668 21.695 48.356 48.355 48.356h38.23l61.954 61.957a12.503 12.503 0 0 0 21.344-8.836v-53.121h96.523c26.664 0 48.356-21.688 48.356-48.356v-63.68h62.406v95.215c0 5.059 3.047 9.614 7.719 11.547a12.48 12.48 0 0 0 13.621-2.71l104.054-104.052h66.075c39.351 0 71.363-32.011 71.363-71.363v-44.547c0-6.898-5.602-12.5-12.5-12.5zm-337.734 192.09c0 12.883-10.477 23.356-23.36 23.356H157.383c-6.906 0-12.5 5.601-12.5 12.5v35.445l-44.281-44.281a12.504 12.504 0 0 0-8.84-3.664H48.355C35.477 414.848 25 404.375 25 391.492V276.305c0-12.88 10.477-23.356 23.355-23.356h90.98v3.5c0 39.352 32.013 71.363 71.364 71.363h79.067zm0 0" /><path d="M511.543 77.914h-243.75c-6.902 0-12.5 5.598-12.5 12.5 0 6.906 5.598 12.5 12.5 12.5h243.75c6.902 0 12.5-5.594 12.5-12.5 0-6.902-5.598-12.5-12.5-12.5zm12.5 80.004c0-6.902-5.598-12.5-12.5-12.5h-243.75c-6.902 0-12.5 5.598-12.5 12.5 0 6.906 5.598 12.5 12.5 12.5h243.75c6.902 0 12.5-5.594 12.5-12.5zm-256.25 55c-6.902 0-12.5 5.598-12.5 12.5 0 6.906 5.598 12.5 12.5 12.5h140.625c6.902 0 12.5-5.594 12.5-12.5 0-6.902-5.598-12.5-12.5-12.5zM627.5 149.402c-6.883 0-12.5 5.618-12.5 12.5 0 6.887 5.617 12.5 12.5 12.5s12.5-5.613 12.5-12.5c0-6.882-5.617-12.5-12.5-12.5zm0 0" /></symbol><symbol viewBox="0 0 512 512" fill="currentColor" id="dealers_02"><path d="M146.219 333.781L94.72 282.283c-10.091-10.069-23.467-15.616-37.717-15.616h-35.67c-5.888 0-10.667 4.779-10.667 10.667S15.445 288 21.333 288h35.669c8.405 0 16.661 3.413 22.613 9.365l33.301 33.301H21.333c-5.888 0-10.667 4.779-10.667 10.667S15.445 352 21.333 352h117.333c4.309 0 8.192-2.603 9.856-6.592s.747-8.576-2.303-11.627zM138.667 384c-5.888 0-10.667 4.779-10.667 10.667v32c0 5.888-4.8 10.667-10.667 10.667h-64c-5.867 0-10.667-4.779-10.667-10.667V384c0-5.888-4.779-10.667-10.667-10.667S21.333 378.112 21.333 384v42.667c0 17.643 14.357 32 32 32h64c17.643 0 32-14.357 32-32v-32c0-5.888-4.778-10.667-10.666-10.667z" /><path d="M463.595 203.883c-29.397-15.381-95.381-22.549-207.595-22.549s-178.197 7.168-207.595 22.549C14.912 221.376 0 250.603 0 298.667c0 46.208 10.581 86.4 11.029 88.085a10.642 10.642 0 0 0 10.304 7.915h93.483l40.405 20.203a10.7 10.7 0 0 0 4.779 1.131h192c1.643 0 3.285-.384 4.757-1.131l40.427-20.203h93.483c4.843 0 9.067-3.243 10.304-7.915.448-1.685 11.029-41.877 11.029-88.085 0-48.064-14.912-77.291-48.405-94.784zm18.645 169.45h-87.552a10.57 10.57 0 0 0-4.779 1.131l-40.427 20.203H162.517l-40.405-20.203a10.7 10.7 0 0 0-4.779-1.131H29.781c-2.965-13.589-8.448-42.944-8.448-74.667 0-40.171 10.709-62.165 36.928-75.883 25.557-13.355 92.075-20.117 197.739-20.117s172.181 6.763 197.739 20.117c26.219 13.717 36.928 35.712 36.928 75.883 0 31.723-5.483 61.078-8.427 74.667z" /><path d="M490.667 330.667h-91.584l33.28-33.301c5.973-5.952 14.208-9.365 22.635-9.365h35.669c5.888 0 10.667-4.779 10.667-10.667s-4.779-10.667-10.667-10.667h-35.669c-14.251 0-27.627 5.547-37.717 15.616l-51.499 51.499c-3.029 3.051-3.947 7.637-2.304 11.627s5.547 6.592 9.856 6.592h117.333c5.888 0 10.667-4.779 10.667-10.667-.001-5.889-4.779-10.667-10.667-10.667zm-107.67-57.856a10.68 10.68 0 0 0-9.664-6.144H138.667a10.68 10.68 0 0 0-9.664 6.144 10.643 10.643 0 0 0 1.472 11.349l53.333 64A10.677 10.677 0 0 0 192 352h128c3.157 0 6.165-1.408 8.192-3.84l53.333-64a10.641 10.641 0 0 0 1.472-11.349zm-68.01 57.856H196.992L161.429 288h189.12l-35.562 42.667zm153.472-121.579c-12.139-27.904-52.757-119.872-66.88-131.883-17.6-14.955-68.011-23.872-134.912-23.872h-21.333c-66.901 0-117.312 8.917-134.912 23.851-14.123 12.011-54.763 103.979-66.88 131.883-2.325 5.419.149 11.691 5.547 14.037 5.376 2.347 11.691-.107 14.037-5.525 24.085-55.445 53.547-117.056 61.12-124.117 8.213-6.976 42.965-18.795 121.088-18.795h21.333c78.123 0 112.875 11.819 121.045 18.752 7.616 7.104 37.077 68.693 61.163 124.16 1.749 4.032 5.696 6.421 9.792 6.421 1.408 0 2.88-.277 4.245-.875 5.397-2.346 7.872-8.64 5.547-14.037zM480 373.333c-5.888 0-10.667 4.779-10.667 10.667v42.667c0 5.888-4.8 10.667-10.667 10.667h-64c-5.867 0-10.667-4.779-10.667-10.667v-32c0-5.888-4.779-10.667-10.667-10.667s-10.667 4.779-10.667 10.667v32c0 17.643 14.357 32 32 32h64c17.643 0 32-14.357 32-32V384c.002-5.888-4.777-10.667-10.665-10.667z" /></symbol><symbol viewBox="0 0 512 512" fill="currentColor" id="dealers_03"><path d="M290 512h-68c-11.027 0-20-8.973-20-20v-29.855a211.262 211.262 0 0 1-53.563-22.211l-21.128 21.129c-7.801 7.796-20.489 7.796-28.286 0l-48.085-48.086c-7.797-7.797-7.797-20.485 0-28.282l21.128-21.132A211.262 211.262 0 0 1 49.856 310H20c-11.027 0-20-8.973-20-20v-68c0-11.027 8.973-20 20-20h29.79a211.258 211.258 0 0 1 22.187-53.656l-21.04-21.04c-7.796-7.796-7.796-20.484 0-28.28l48.086-48.087c7.797-7.796 20.485-7.796 28.286 0l20.964 20.97A211.256 211.256 0 0 1 202 49.601V20c0-11.027 8.973-20 20-20h68c11.027 0 20 8.973 20 20v29.535a211.358 211.358 0 0 1 53.816 22.278l20.88-20.876c7.796-7.796 20.484-7.796 28.28 0l48.087 48.086c7.796 7.797 7.796 20.485 0 28.286l-20.875 20.875A211.358 211.358 0 0 1 462.465 202H492c11.027 0 20 8.973 20 20v68c0 11.027-8.973 20-20 20h-29.602a211.397 211.397 0 0 1-22.304 53.727l20.965 20.968c7.796 7.797 7.796 20.485 0 28.282l-48.082 48.086c-7.797 7.796-20.485 7.796-28.286 0l-21.035-21.04A211.375 211.375 0 0 1 310 462.211V492c0 11.027-8.973 20-20 20zm-143.063-94.71c1.86 0 3.723.515 5.38 1.57a191.476 191.476 0 0 0 61.843 25.648 10 10 0 0 1 7.84 9.765V492h68v-37.672a9.997 9.997 0 0 1 7.852-9.765c22.039-4.852 42.878-13.47 61.937-25.61a10 10 0 0 1 12.445 1.363l26.602 26.602 48.082-48.082-26.543-26.543a10 10 0 0 1-1.352-12.461c12.192-19.062 20.856-39.922 25.743-61.992a9.996 9.996 0 0 1 9.761-7.84H492v-68h-37.418a9.997 9.997 0 0 1-9.766-7.852 191.491 191.491 0 0 0-25.703-62.086 10.006 10.006 0 0 1 1.36-12.453l26.445-26.445-48.082-48.082-26.445 26.445a10.005 10.005 0 0 1-12.453 1.36 191.577 191.577 0 0 0-62.086-25.703A9.997 9.997 0 0 1 290 57.418V20h-68v37.473c0 4.691-3.258 8.75-7.836 9.765a191.579 191.579 0 0 0-61.996 25.739 9.995 9.995 0 0 1-12.457-1.352l-26.547-26.543-48.082 48.082 26.602 26.606a9.995 9.995 0 0 1 1.363 12.44c-12.14 19.06-20.758 39.9-25.61 61.938A9.997 9.997 0 0 1 57.673 222H20v68h37.727c4.691 0 8.75 3.262 9.765 7.84 4.871 22.012 13.504 42.816 25.649 61.844a10 10 0 0 1-1.36 12.453l-26.699 26.699 48.082 48.086 26.7-26.703a10.001 10.001 0 0 1 7.074-2.93zm0 0" /><path d="M256 401.934c-37.387 0-74.773-14.235-103.238-42.696-56.926-56.925-56.926-149.55 0-206.476 22.96-22.957 52.074-37.317 84.191-41.52 31.098-4.07 63.203 2.094 90.414 17.352 4.817 2.699 6.531 8.793 3.832 13.61-2.703 4.82-8.797 6.534-13.613 3.831-48.969-27.46-110.934-18.879-150.68 20.871-49.129 49.125-49.129 129.063 0 178.192 24.563 24.558 56.832 36.84 89.094 36.843 32.27.004 64.531-12.277 89.098-36.843 38.41-38.41 47.922-96.844 23.664-145.403-2.469-4.941-.465-10.949 4.476-13.418 4.938-2.468 10.946-.46 13.414 4.48 28.11 56.266 17.094 123.977-27.414 168.481C330.773 387.7 293.387 401.934 256 401.934zm0 0" /><path d="M354.352 172.012a10.06 10.06 0 0 1-7.082-2.934 10.045 10.045 0 0 1-2.918-7.066c0-2.633 1.058-5.211 2.918-7.07a10.07 10.07 0 0 1 7.082-2.93 10.07 10.07 0 0 1 7.07 2.93 10.073 10.073 0 0 1 2.93 7.07c0 2.636-1.07 5.207-2.93 7.066a10.054 10.054 0 0 1-7.07 2.934zM241.887 329.668a10 10 0 0 1-7.07-2.93l-63.239-63.242c-3.906-3.902-3.906-10.234 0-14.14l35.867-35.872c1.875-1.875 4.418-2.925 7.07-2.925s5.2 1.05 7.075 2.925l20.297 20.301 48.527-48.523c3.902-3.907 10.234-3.907 14.14 0l35.872 35.87c3.902 3.903 3.902 10.235 0 14.141l-91.465 91.465a10.015 10.015 0 0 1-7.074 2.93zm-49.098-73.242l49.098 49.097 77.324-77.32-21.727-21.726L248.961 255a10 10 0 0 1-14.145 0l-20.3-20.3zm0 0" /></symbol><symbol viewBox="0 0 512 512" fill="currentColor" id="dealers_04"><path d="m502.747 74.024h-493.494c-5.11 0-9.253 4.142-9.253 9.253v296.096c0 32.313 26.29 58.602 58.602 58.602 20.705 0 38.922-10.803 49.349-27.058 10.428 16.256 28.645 27.058 49.349 27.058s38.922-10.803 49.349-27.058c10.427 16.256 28.645 27.058 49.349 27.058s38.923-10.803 49.349-27.058c10.426 16.256 28.645 27.058 49.349 27.058 20.705 0 38.923-10.803 49.349-27.058 10.426 16.256 28.645 27.058 49.349 27.058 32.313 0 58.602-26.29 58.602-58.602v-296.096c.004-5.111-4.138-9.253-9.249-9.253zm-138.795 18.506h80.193v27.759c0 22.11-17.987 40.096-40.096 40.096s-40.096-17.987-40.096-40.096v-27.759zm-9.253 59.303c8.841 13.783 23.282 23.641 40.096 26.32v28.497c0 22.11-17.987 40.096-40.096 40.096s-40.096-17.987-40.096-40.096v-28.497c16.814-2.679 31.255-12.536 40.096-26.32zm-89.446-59.303h80.193v27.759c0 22.11-17.987 40.096-40.096 40.096-22.11 0-40.096-17.987-40.096-40.096v-27.759zm-9.253 59.303c8.841 13.783 23.282 23.641 40.096 26.32v28.497c0 22.11-17.987 40.096-40.096 40.096s-40.096-17.987-40.096-40.096v-28.497c16.813-2.679 31.254-12.536 40.096-26.32zm-89.446-59.303h80.193v27.759c0 22.11-17.988 40.096-40.096 40.096-22.109 0-40.096-17.987-40.096-40.096v-27.759zm-9.253 59.303c8.842 13.783 23.283 23.641 40.096 26.32v28.497c0 22.11-17.988 40.096-40.096 40.096s-40.096-17.987-40.096-40.096v-28.497c16.813-2.679 31.255-12.536 40.096-26.32zm-89.446-59.303h80.193v27.759c0 22.11-17.988 40.096-40.096 40.096-22.109 0-40.096-17.987-40.096-40.096v-27.759zm-49.349 0h30.843v27.759c0 18.925-13.182 34.817-30.843 39.007zm0 85.624c16.813-2.68 31.254-12.537 40.096-26.32 8.842 13.783 23.283 23.641 40.096 26.32v28.497c0 22.11-17.988 40.096-40.096 40.096s-40.096-17.987-40.096-40.096zm0 71.176c8.36 7.859 19.013 13.301 30.843 15.185v28.497c0 18.926-13.182 34.817-30.843 39.007zm80.193 130.043c0 22.11-17.988 40.096-40.096 40.096s-40.096-17.987-40.096-40.096v-28.497c16.813-2.68 31.254-12.537 40.096-26.321 8.842 13.783 23.283 23.641 40.096 26.32zm9.253-46.265c-22.109 0-40.096-17.987-40.096-40.096v-28.497c16.813-2.68 31.255-12.537 40.096-26.32 8.841 13.783 23.283 23.641 40.096 26.32v28.497c0 22.11-17.988 40.096-40.096 40.096zm89.446 46.265c0 22.11-17.988 40.096-40.096 40.096s-40.096-17.987-40.096-40.096v-28.497c16.813-2.68 31.255-12.537 40.096-26.321 8.842 13.783 23.283 23.641 40.096 26.32zm9.253-46.265c-22.109 0-40.096-17.987-40.096-40.096v-28.497c16.813-2.68 31.254-12.537 40.096-26.32 8.842 13.783 23.283 23.641 40.096 26.32v28.497c0 22.11-17.988 40.096-40.096 40.096zm89.445 46.265c0 22.11-17.987 40.096-40.096 40.096s-40.096-17.987-40.096-40.096v-28.497c16.813-2.68 31.254-12.537 40.096-26.321 8.841 13.783 23.282 23.641 40.096 26.32zm9.253-46.265c-22.11 0-40.096-17.987-40.096-40.096v-28.497c16.815-2.68 31.255-12.537 40.096-26.32 8.841 13.783 23.282 23.641 40.096 26.32v28.497c.001 22.11-17.986 40.096-40.096 40.096zm89.446 46.265c0 22.11-17.987 40.096-40.096 40.096s-40.096-17.987-40.096-40.096v-28.497c16.815-2.68 31.255-12.537 40.096-26.321 8.841 13.783 23.282 23.641 40.096 26.32zm9.253-46.265c-22.11 0-40.096-17.987-40.096-40.096v-28.497c16.815-2.68 31.255-12.537 40.096-26.32 8.841 13.783 23.282 23.641 40.096 26.32v28.497c.001 22.11-17.986 40.096-40.096 40.096zm89.446 46.265c0 22.11-17.987 40.096-40.096 40.096s-40.096-17.987-40.096-40.096v-28.497c16.815-2.68 31.255-12.537 40.096-26.321 8.841 13.783 23.282 23.641 40.096 26.32zm0-47.355c-17.661-4.19-30.843-20.082-30.843-39.007v-28.496c11.83-1.884 22.484-7.326 30.843-15.186zm0-125.367c0 22.11-17.987 40.096-40.096 40.096s-40.096-17.987-40.096-40.096v-28.497c16.815-2.68 31.255-12.537 40.096-26.32 8.841 13.783 23.282 23.641 40.096 26.32zm0-47.355c-17.661-4.19-30.843-20.081-30.843-39.007v-27.759h30.843z" /></symbol><symbol fill="currentColor" viewBox="0 0 512 512" id="dealers_05"><path d="M303.889 256.01c-2.45-1.806-5.689-2.541-8.846-1.563l-84 26A10 10 0 0 0 204 290v108c0 5.285 4.53 10 10 10 .991 0 86.957-26.447 86.957-26.447A10 10 0 0 0 308 372V264c0-3.306-1.661-6.184-4.111-7.99zM288 364.627l-64 19.81v-87.063l64-19.81zm-35.959-151.172c2.378 1.73 5.844 2.436 8.789 1.515l40.13-12.42c5.259-1.63 8.219-7.239 6.59-12.509-1.598-5.169-7.35-8.201-12.51-6.591l-40.12 12.42c-5.168 1.6-8.199 7.337-6.601 12.499.634 2.045 1.99 3.825 3.722 5.086zm51.818 196.485c-2.475-1.784-5.731-2.453-8.818-1.49l-40.12 12.42c-5.207 1.612-8.216 7.285-6.6 12.5 1.568 5.06 7.263 8.241 12.51 6.601l40.13-12.42c5.26-1.63 8.22-7.239 6.59-12.509a9.9 9.9 0 0 0-3.692-5.102zm-51.822-246.482c2.49 1.778 5.756 2.461 8.793 1.512l40.13-12.42c5.26-1.63 8.219-7.239 6.59-12.509-1.602-5.183-7.329-8.208-12.51-6.591l-40.12 12.42c-5.177 1.603-8.196 7.339-6.6 12.51.647 2.097 1.997 3.849 3.717 5.078zm51.815-78.51c-2.479-1.781-5.737-2.448-8.812-1.499l-40.12 12.42c-5.087 1.575-8.163 7.445-6.6 12.51 1.598 5.179 7.344 8.205 12.51 6.59l40.13-12.42c5.211-1.613 8.205-7.295 6.59-12.509-.655-2.115-1.992-3.867-3.698-5.092zM136.957 324.447l-84-26c-5.277-1.633-10.877 1.319-12.51 6.596-1.633 5.276 1.32 10.877 6.596 12.51l84 26c.985.305 1.981.45 2.96.45 4.268 0 8.221-2.754 9.549-7.045 1.634-5.277-1.319-10.878-6.595-12.511zM66.968 98.529l44 14a9.993 9.993 0 0 0 3.035.473c4.238 0 8.173-2.716 9.527-6.97 1.674-5.263-1.234-10.887-6.497-12.562l-44-14c-5.264-1.675-10.887 1.234-12.562 6.497-1.675 5.264 1.234 10.888 6.497 12.562zM49.844 143.42l19.105 5.914c.985.305 1.98.45 2.96.45 4.268 0 8.221-2.754 9.549-7.045 1.633-5.276-1.32-10.876-6.596-12.51l-19.105-5.914c-5.274-1.634-10.877 1.32-12.51 6.596-1.632 5.275 1.321 10.875 6.597 12.509zm87.113 6.027l-19.106-5.914c-5.275-1.632-10.876 1.319-12.509 6.596-1.633 5.276 1.32 10.876 6.596 12.509l19.106 5.914c.984.305 1.98.45 2.959.45 4.269 0 8.222-2.754 9.55-7.046 1.633-5.275-1.32-10.876-6.596-12.509zm0 225l-84-26c-5.277-1.632-10.877 1.32-12.51 6.596s1.32 10.877 6.596 12.51l84 26c.985.305 1.981.45 2.96.45 4.268 0 8.221-2.754 9.549-7.045 1.634-5.277-1.319-10.878-6.595-12.511zm0 50l-84-26c-5.277-1.633-10.877 1.32-12.51 6.596s1.32 10.877 6.596 12.51l84 26c.985.305 1.981.45 2.96.45 4.268 0 8.221-2.754 9.549-7.045 1.634-5.277-1.319-10.878-6.595-12.511zM502 331.9c-5.51 0-10 4.49-10 10.01 0 5.51 4.49 9.99 10 9.99s10-4.48 10-9.99c0-5.52-4.49-10.01-10-10.01z" /><path d="M504.92 50.43L340.908.437a10 10 0 0 0-5.825-.003L174 49.546 12.917.435A9.999 9.999 0 0 0 0 10v442a10 10 0 0 0 7.083 9.565l164 50c.94.287 1.932.435 2.918.435.937 0 2.879-.424 2.915-.435l161.09-49.113L499.08 511.57c.95.28 1.94.43 2.93.43 2.15 0 4.2-.68 5.94-1.96 2.54-1.88 4.05-4.88 4.05-8.04V386.9c0-5.51-4.49-9.99-10-9.99s-10 4.48-10 9.99v101.6l-144-43.91V23.5l144 43.91V296.9c0 5.52 4.49 10 10 10s10-4.48 10-10V60c0-4.43-2.85-8.27-7.08-9.57zM20 23.504l144 43.902v421.091L20 444.594zm164 43.902l144-43.902v421.091l-144 43.902z" /><path d="M464.957 336.447l-84-26C374.638 308.491 368 313.419 368 320v98a10 10 0 0 0 7.043 9.553l84 26c.97.3 1.965.447 2.956.447 5.449 0 10.001-4.565 10.001-10v-98a10 10 0 0 0-7.043-9.553zM452 430.437l-64-19.81v-77.063l64 19.81zm-76.957-252.884l84 26C465.369 205.512 472 200.603 472 194V96a10 10 0 0 0-7.043-9.553l-84-26C374.615 58.484 368 63.396 368 70v98a10 10 0 0 0 7.043 9.553zM388 83.564l64 19.81v77.063l-64-19.81zm76.957 204.883l-84-26c-5.276-1.633-10.877 1.32-12.51 6.596s1.32 10.877 6.596 12.51l84 26c5.085 1.574 10.893-1.372 12.51-6.596 1.633-5.276-1.32-10.877-6.596-12.51zm0-50l-84-26c-5.276-1.634-10.877 1.32-12.51 6.596s1.32 10.877 6.596 12.51l84 26c5.099 1.578 10.887-1.351 12.51-6.596 1.633-5.276-1.32-10.877-6.596-12.51z" /><circle cx="215" cy="218" r="10" /><circle cx="215" cy="169" r="10" /><circle cx="215" cy="119" r="10" /><circle cx="215" cy="444" r="10" /></symbol><symbol viewBox="0 -28 512 512" fill="currentColor" id="dealers_06"><path d="M512 269.793c0-22.066-15.953-40.465-36.934-44.297 5.125-7.312 8.149-16.2 8.149-25.785 0-24.84-20.207-45.043-45.043-45.043h-91.563a44.775 44.775 0 0 0-24.316 7.156V75.48c0-41.62-33.86-75.48-75.48-75.48-11.028 0-20 8.973-20 20v48.395c0 47.511-31.633 88.644-76.543 101.414C146.73 153.363 132.082 141 114.594 141H36.5C16.375 141 0 157.375 0 177.5V258c0 5.523 4.477 10 10 10s10-4.477 10-10v-80.5c0-9.098 7.402-16.5 16.5-16.5h78.094c9.097 0 16.5 7.402 16.5 16.5v241c0 9.098-7.403 16.5-16.5 16.5H36.5c-9.098 0-16.5-7.402-16.5-16.5V338c0-5.523-4.477-10-10-10s-10 4.477-10 10v80.5C0 438.625 16.375 455 36.5 455h78.094c20.101 0 36.46-16.34 36.496-36.434l15.574 11.278C189.383 446.3 216.223 455 244.277 455h176.77c24.836 0 45.039-20.207 45.039-45.043 0-10.863-3.867-20.844-10.297-28.633 16.106-6.87 27.426-22.863 27.426-41.449 0-9.586-3.024-18.477-8.149-25.79C496.046 310.259 512 291.86 512 269.794zm-165.39-95.125h91.562c13.808 0 25.043 11.234 25.043 25.043 0 13.805-11.235 25.039-25.043 25.039h-91.563c-13.804 0-25.039-11.234-25.039-25.04 0-13.808 11.235-25.042 25.04-25.042zm-168.215 238.98l-27.301-19.773V190.281c55.886-13.605 95.719-63.734 95.719-121.886V20c30.593 0 55.48 24.89 55.48 55.48v116.247a44.788 44.788 0 0 0-.64 5.363l-5.184 17.515c-6.774 22.899-28.184 38.891-52.063 38.891-5.52 0-10 4.48-10 10 0 5.524 4.48 10 10 10 16.149 0 31.524-5.105 44.461-14.77 10.434-7.792 18.469-17.945 23.594-29.699a45.35 45.35 0 0 0 5.894 5.723c-10.226 8.266-16.785 20.898-16.785 35.043s6.559 26.777 16.785 35.043c-10.226 8.262-16.785 20.898-16.785 35.039 0 14.492 6.887 27.398 17.551 35.645-9.809 8.27-16.055 20.636-16.055 34.44a44.794 44.794 0 0 0 7.621 25.04h-66.41c-23.816 0-46.597-7.383-65.882-21.352zM421.047 435h-72.942c-13.808 0-25.039-11.234-25.039-25.043s11.23-25.039 25.04-25.039h72.94c13.81 0 25.04 11.23 25.04 25.039 0 13.809-11.23 25.043-25.04 25.043zm17.125-70.082h-91.559c-13.808 0-25.043-11.234-25.043-25.043s11.235-25.04 25.043-25.04h91.559c13.808 0 25.043 11.231 25.043 25.04s-11.235 25.043-25.043 25.043zm28.785-70.082H346.609c-13.804 0-25.039-11.234-25.039-25.043s11.235-25.043 25.04-25.043h120.347c13.809 0 25.043 11.234 25.043 25.043s-11.234 25.043-25.043 25.043zm0 0" /><path d="M107.547 369c0-17.645-14.356-32-32-32s-32 14.355-32 32 14.355 32 32 32 32-14.355 32-32zm-44 0c0-6.617 5.383-12 12-12s12 5.383 12 12-5.383 12-12 12-12-5.383-12-12zM10 308c2.629 0 5.21-1.07 7.07-2.93C18.93 303.21 20 300.63 20 298s-1.07-5.21-2.93-7.07C15.21 289.07 12.63 288 10 288s-5.21 1.07-7.07 2.93C1.07 292.79 0 295.37 0 298s1.07 5.21 2.93 7.07A10.08 10.08 0 0 0 10 308zm0 0" /></symbol><symbol viewBox="0 0 512 512" fill="currentColor" id="dealers_07"><path d="M510.148 367.77c-4.359-25.008-16.183-47.747-34.191-65.754-32.312-32.317-78.281-42.852-119.504-31.618-.07-.07-.137-.14-.21-.207a70.795 70.795 0 0 0-31.864-16.218l-64.203-14.04c-9.61-2.097-16.918-9.93-18.63-19.382 20.169-14.953 33.27-38.922 33.27-65.899V93.895c8.13-9.633 13.043-22.067 13.043-35.63V10c0-5.523-4.476-10-10-10h-97.261c-38.473 0-69.778 31.3-69.778 69.777v33.817c0 .152.016.3.024.453-.008.148-.024.297-.024.45v50.155c0 24.328 10.664 46.207 27.547 61.235v.445c0 11.273-7.992 21.203-19 23.617l-63.805 14c-15.69 3.442-29.878 12.23-39.949 24.746C5.543 291.215 0 306.957 0 323.023v86.961c0 5.524 4.477 10 10 10h259.996c5.313 20.52 15.977 39.93 32.02 55.973 17.964 17.965 40.644 29.777 65.586 34.16A124.202 124.202 0 0 0 389.109 512c17.215 0 34.243-3.613 50.133-10.723 5.043-2.254 7.301-8.168 5.047-13.21-2.254-5.044-8.172-7.301-13.21-5.044-38.727 17.32-84.911 8.801-114.923-21.207-40.156-40.16-40.156-105.504 0-145.66 40.16-40.16 105.5-40.16 145.66 0 30.102 30.102 38.575 76.39 21.086 115.184-2.27 5.035-.027 10.957 5.008 13.226 5.035 2.27 10.957.028 13.227-5.007 10.152-22.528 13.27-47.352 9.011-71.79zM130.82 69.777C130.82 42.328 153.152 20 180.598 20h87.261v38.266c0 19.48-15.847 35.332-35.328 35.332h-101.71zm0 84.875v-41.054h101.711c7.926 0 15.461-1.692 22.285-4.707v45.761c0 34.188-27.812 62-61.996 62-34.187 0-62-27.812-62-62zm25.875 73.59a81.487 81.487 0 0 0 36.125 8.406 81.571 81.571 0 0 0 30.774-6.011c3.691 10.633 11.367 19.601 21.383 24.851l-55.211 129.07-55.207-129.054c10.761-5.649 18.82-15.586 22.136-27.262zM20 323.023c0-23.64 16.758-44.476 39.848-49.539l55.449-12.164 59.312 138.664H20zm282.016-21.007c-26.774 26.773-38.59 62.918-35.473 97.968h-61.625l59.324-138.683 55.863 12.215a50.788 50.788 0 0 1 14.04 5.37 122.377 122.377 0 0 0-32.13 23.13zm0 0" /><path d="M457.168 361.965l-28.285-28.281c-3.903-3.907-10.235-3.907-14.14 0l-38.485 38.484-13.028-13.031a10.009 10.009 0 0 0-7.074-2.93 10.006 10.006 0 0 0-7.07 2.93l-28.281 28.281c-3.907 3.906-3.907 10.238 0 14.145l48.382 48.382a9.968 9.968 0 0 0 7.07 2.93c2.552 0 5.098-.969 7.048-2.906l73.863-73.86a10 10 0 0 0 0-14.144zm-80.91 66.77l-34.242-34.243 14.14-14.144 13.032 13.03a10 10 0 0 0 14.14 0l38.485-38.483 14.14 14.144zm92.625 30.148c-2.63 0-5.211 1.07-7.07 2.93s-2.93 4.44-2.93 7.07c0 2.64 1.07 5.21 2.93 7.07s4.44 2.93 7.07 2.93c2.64 0 5.21-1.07 7.07-2.93a10.01 10.01 0 0 0 2.93-7.07 10.03 10.03 0 0 0-2.93-7.07 10.059 10.059 0 0 0-7.07-2.93zm0 0" /></symbol><symbol viewBox="0 0 512 512" fill="currentColor" id="dealers_08"><path d="M202 452a10.08 10.08 0 0 0-7.07 2.93c-1.86 1.86-2.93 4.441-2.93 7.07s1.07 5.21 2.93 7.07c1.86 1.86 4.441 2.93 7.07 2.93s5.21-1.07 7.07-2.93c1.86-1.86 2.93-4.441 2.93-7.07s-1.07-5.21-2.93-7.07A10.08 10.08 0 0 0 202 452zm0 0" /><path d="M501.324 136.32c-14.21-14.21-37.332-14.21-51.543 0L404 182.102V34c0-18.746-15.254-34-34-34H34C15.254 0 0 15.254 0 34v444c0 18.746 15.254 34 34 34h336c18.746 0 34-15.254 34-34V285.191l97.324-97.328c14.211-14.21 14.211-37.332 0-51.543zM384 34v168.102l-20 20V50c0-5.523-4.477-10-10-10h-66.832V20H370c7.719 0 14 6.281 14 14zm-54.602 274.246l13.5-30.328 16.829 16.828zM267.168 20v40.75c0 6.203-5.047 11.25-11.25 11.25H148.082c-6.203 0-11.25-5.047-11.25-11.25V20zM370 492H34c-7.719 0-14-6.281-14-14V34c0-7.719 6.281-14 14-14h82.832v20H50c-5.523 0-10 4.477-10 10v412c0 5.523 4.477 10 10 10h112c5.523 0 10-4.477 10-10s-4.477-10-10-10H60V60h56.832v.75c0 17.23 14.02 31.25 31.25 31.25h107.836c17.23 0 31.25-14.02 31.25-31.25V60H344v182.102l-11.39 11.386a10.119 10.119 0 0 0-2.063 3.004L300.53 323.91a10.006 10.006 0 0 0 2.063 11.14 10.014 10.014 0 0 0 11.14 2.067L344 323.641V452H242c-5.523 0-10 4.477-10 10s4.477 10 10 10h112c5.52 0 10-4.477 10-10V314.734l17.152-7.636a9.97 9.97 0 0 0 2.848-1.922V478c0 7.719-6.281 14-14 14zm79.91-281.008l-72.824 72.828-23.262-23.261 90.168-90.168 23.262 23.261zm37.274-37.27l-5.79 5.786-23.257-23.258 5.785-5.785c6.414-6.414 16.848-6.414 23.262 0 6.41 6.41 6.41 16.844 0 23.258zm0 0" /><path d="M162 120H98c-5.523 0-10 4.477-10 10v64c0 5.523 4.477 10 10 10h64c5.523 0 10-4.477 10-10v-64c0-5.523-4.477-10-10-10zm-10 64h-44v-44h44zm10 46H98c-5.523 0-10 4.477-10 10v64c0 5.523 4.477 10 10 10h64c5.523 0 10-4.477 10-10v-64c0-5.523-4.477-10-10-10zm-10 64h-44v-44h44zm10 46H98c-5.523 0-10 4.477-10 10v64c0 5.523 4.477 10 10 10h64c5.523 0 10-4.477 10-10v-64c0-5.523-4.477-10-10-10zm-10 64h-44v-44h44zm81.578-212.355a9.968 9.968 0 0 0 7.07 2.93 9.968 9.968 0 0 0 7.07-2.93l45.15-45.149c3.902-3.902 3.902-10.234 0-14.14-3.907-3.907-10.24-3.907-14.145 0l-38.075 38.074-15.175-15.176c-3.907-3.906-10.235-3.906-14.145 0-3.902 3.906-3.902 10.238 0 14.14zm0 110a10 10 0 0 0 14.14 0l45.15-45.145c3.902-3.906 3.902-10.238 0-14.145-3.907-3.902-10.24-3.902-14.145 0l-38.075 38.079-15.175-15.176c-3.907-3.906-10.235-3.906-14.145 0-3.902 3.902-3.902 10.234 0 14.14zm18.52 94.5l15.504 15.5c1.953 1.953 4.511 2.93 7.07 2.93s5.117-.977 7.07-2.93c3.906-3.907 3.906-10.239 0-14.141L266.242 382l15.5-15.504c3.906-3.902 3.906-10.234 0-14.14s-10.234-3.907-14.14 0l-15.504 15.5-15.5-15.5c-3.907-3.903-10.235-3.907-14.145 0-3.902 3.906-3.902 10.238 0 14.14L237.957 382l-15.504 15.504c-3.902 3.902-3.902 10.234 0 14.14 1.953 1.954 4.516 2.93 7.074 2.93s5.118-.976 7.07-2.93zm0 0" /></symbol><symbol viewBox="0 0 512 512.001" fill="currentColor" id="dealers_09"><path d="M502 348H366V222c0-5.523-4.477-10-10-10h-17.422a21.126 21.126 0 0 0-1.043-7.055l-19.187-58.61 50.07-36.21c7.375-5.336 10.328-14.379 7.527-23.035-2.804-8.66-10.496-14.258-19.601-14.258H294.53l-18.933-58.57C272.8 5.598 265.105 0 256 0s-16.8 5.598-19.602 14.266l-18.933 58.57h-61.813c-9.101 0-16.793 5.594-19.597 14.254-2.801 8.66.152 17.7 7.527 23.035l50.07 36.21-19.187 58.61a21.145 21.145 0 0 0-1.047 7.055H156c-5.523 0-10 4.477-10 10v126H10c-5.523 0-10 4.477-10 10v144c0 5.523 4.477 10 10 10h492c5.523 0 10-4.477 10-10v-32c0-5.523-4.477-10-10-10s-10 4.477-10 10v22H366V368h126v22c0 5.523 4.477 10 10 10s10-4.477 10-10v-32c0-5.523-4.477-10-10-10zM193.477 211.164l21.453-65.543a9.997 9.997 0 0 0-3.645-11.215l-55.98-40.484c-.246-.176-.356-.258-.22-.672.134-.414.27-.414.571-.414h69.09a10 10 0 0 0 9.512-6.926l21.172-65.496c.093-.285.136-.414.57-.414.438 0 .477.129.57.414l21.172 65.496a9.998 9.998 0 0 0 9.516 6.922h69.09c.297 0 .433 0 .57.414.133.418.023.496-.219.672l-55.984 40.488a10.003 10.003 0 0 0-3.645 11.215l21.457 65.543c.09.285.133.414-.218.672-.352.258-.465.176-.707 0l-55.707-40.66a9.98 9.98 0 0 0-5.895-1.922 10 10 0 0 0-5.898 1.922l-55.704 40.66c-.246.176-.355.258-.707 0-.351-.254-.308-.387-.214-.672zM256 191.633L283.902 212h-55.804zM20 368h126v124H20zm146-10V232h27.355c.23.008.461.027.692.027.226 0 .457-.02.687-.027H317.27c.457.016.91.016 1.367 0H346v260H166zM448 34.414c5.523 0 10-4.477 10-10V10c0-5.523-4.477-10-10-10s-10 4.477-10 10v14.414c0 5.523 4.477 10 10 10zM448 100c5.523 0 10-4.477 10-10V75.586c0-5.523-4.477-10-10-10s-10 4.477-10 10V90c0 5.523 4.477 10 10 10zm25.586-40H488c5.523 0 10-4.477 10-10s-4.477-10-10-10h-14.414c-5.524 0-10 4.477-10 10s4.476 10 10 10zM408 60h14.414c5.524 0 10-4.477 10-10s-4.476-10-10-10H408c-5.523 0-10 4.477-10 10s4.477 10 10 10zM64 159.762c5.523 0 10-4.48 10-10v-14.414c0-5.524-4.477-10-10-10s-10 4.476-10 10v14.414c0 5.52 4.477 10 10 10zm0 0" /><path d="M64 225.348c5.523 0 10-4.48 10-10V200.93c0-5.524-4.477-10-10-10s-10 4.476-10 10v14.418c0 5.52 4.477 10 10 10zm25.586-40H104c5.523 0 10-4.48 10-10 0-5.524-4.477-10-10-10H89.586c-5.523 0-10 4.476-10 10 0 5.52 4.477 10 10 10zm-65.586 0h14.414c5.523 0 10-4.48 10-10 0-5.524-4.477-10-10-10H24c-5.523 0-10 4.476-10 10 0 5.52 4.477 10 10 10zM502 420a10.08 10.08 0 0 0-7.07 2.93c-1.86 1.86-2.93 4.441-2.93 7.07s1.07 5.21 2.93 7.07c1.86 1.86 4.441 2.93 7.07 2.93s5.21-1.07 7.07-2.93c1.86-1.86 2.93-4.441 2.93-7.07s-1.07-5.21-2.93-7.07A10.08 10.08 0 0 0 502 420zm0 0" /></symbol></defs><use id="dealers_01-usage" xlink:href="#dealers_01" class="sprite-symbol-usage" /><use id="dealers_02-usage" xlink:href="#dealers_02" class="sprite-symbol-usage" /><use id="dealers_03-usage" xlink:href="#dealers_03" class="sprite-symbol-usage" /><use id="dealers_04-usage" xlink:href="#dealers_04" class="sprite-symbol-usage" /><use id="dealers_05-usage" xlink:href="#dealers_05" class="sprite-symbol-usage" /><use id="dealers_06-usage" xlink:href="#dealers_06" class="sprite-symbol-usage" /><use id="dealers_07-usage" xlink:href="#dealers_07" class="sprite-symbol-usage" /><use id="dealers_08-usage" xlink:href="#dealers_08" class="sprite-symbol-usage" /><use id="dealers_09-usage" xlink:href="#dealers_09" class="sprite-symbol-usage" /></svg>