<svg xmlns="http://www.w3.org/2000/svg" xmlns:xlink="http://www.w3.org/1999/xlink"><defs><style>
    .sprite-symbol-usage {display: none;}
    .sprite-symbol-usage:target {display: inline;}
  </style><symbol viewBox="0 0 600 600" id="category_01"><g fill="currentColor"><path d="M257.9 2.2C256.8 3.5 198.4 92.9 128 201L0 397.5V600h600V399.1L470.2 199.8 340.4.5 300.1.2 259.9 0l-2 2.2zm189.2 210.3l121.7 187-134.3.3c-73.9.1-195.1.1-269.3 0l-135-.3 113.9-175c62.7-96.3 117.6-180.5 122-187.3l8-12.2 25.6.2 25.6.3 121.8 187zM50 475v50H25V425h25v50zm213-7.9v42l-8.2-4.4c-6.5-3.5-124.3-64.7-148.3-77l-5-2.6 80.8-.1H263v42.1zm50 7.9v50h-25V425h25v50zm180.5-47.6c-2.2 1.2-34.4 17.9-71.5 37.1-37.1 19.1-71.2 36.7-75.7 39.2l-8.3 4.4V425h159.5l-4 2.4zM575 475v50h-21V425h21v50zm-46 7v43h-83.2l-83.3-.1 9-4.7c29.8-15.6 156.1-81 156.8-81.1.4-.1.7 19.2.7 42.9zm-367 4c40.4 21 73.7 38.4 73.9 38.6.2.2-35.9.4-80.2.4H75v-84l6.8 3.4c3.7 1.9 39.9 20.6 80.2 41.6zm413 76.5V575H25v-25h550v12.5z" /><path d="M189.1 223.4C135.7 305.6 92 373.1 92 373.4c0 .3 43.9.6 97.5.6H287V224c0-82.5-.2-150-.4-150s-44.1 67.2-97.5 149.4zm69.6 125.3c-.2.2-27.2.2-60 .1l-59.5-.3 59.6-91.8 59.7-91.8.3 91.7c.1 50.5.1 91.9-.1 92.1zM313 223.8V374h97.5c53.6 0 97.5-.3 97.5-.6 0-.6-192.7-297.4-194.1-298.9-.5-.5-.9 60.4-.9 149.3zm86.8 30.8c31.8 48.9 58.6 90.1 59.6 91.6l1.8 2.8H341v-92.2c0-50.7.2-91.9.5-91.7.2.3 26.5 40.5 58.3 89.5z" /></g></symbol><symbol viewBox="0 0 600 600" id="category_02"><path d="M98.8 1.6C91.2 3.4 83.2 7.5 72 15.4c-9.5 6.8-10.5 7.1-23.2 8.1l-7.8.7V600h10.5c17.5 0 27-3.2 42.4-14.1 11.5-8.3 13.8-9.2 23.2-8.7l7.7.3 11.4 7.7c17.8 12.2 25.5 14.8 42.6 14.8 16.7 0 27-3.7 42.7-15.1 9.3-6.7 12-7.9 18-7.9s8.7 1.2 18 7.9c15.7 11.4 26 15.1 42.7 15.1 16.7 0 26.5-3.3 41.7-14.1 11.5-8.3 13.8-9.2 23.2-8.7l7.7.3 11.4 7.7c17.8 12.2 25.5 14.8 42.6 14.8 16.7 0 27-3.7 42.7-15.1 9.3-6.7 12-7.9 18-7.9s8.7 1.2 18 7.9c16.7 12.1 25.7 15.1 46.3 15.1H565V24.3l-11.7-.8c-6.5-.3-13.3-1.3-15.1-2-1.8-.8-7-4.1-11.5-7.4C512.9 4 501.6 0 487.5 0c-14.1 0-25.4 4-39.2 14.1-11.2 8.1-14 9.2-23.4 8.7-7.6-.3-7.8-.4-16.3-6.3C390 3.4 380.6 0 363.5 0S337 3.4 318.4 16.5c-8.5 5.9-8.7 6-16.3 6.3-9.4.5-12.2-.6-23.4-8.7C264.9 4 253.6 0 239.5 0c-14.1 0-25.4 4-39.2 14.1-11.2 8.1-14 9.2-23.4 8.7-7.6-.3-7.8-.4-16.3-6.3-12.2-8.5-21.1-13.2-28.8-15-8.2-1.9-25.2-1.8-33 .1zm37.4 31.6c11.7 8 19.9 12.2 26.2 13.3l3.6.7v55.5c0 44-.3 55.3-1.2 54.7-.7-.4-4.3-2.9-7.9-5.5-14.4-10.3-25-13.9-41.4-13.9-16.5 0-27.1 3.6-41.5 14.1-3.7 2.7-7.1 4.9-7.4 4.9-.3 0-.6-24.7-.6-54.9V47.2l3.3-.7c5.9-1.3 15.9-6.4 24.6-12.6 11.7-8.4 13.1-9 22.8-8.7l8.1.3 11.4 7.7zm110.5-7.1c1.5.6 6.4 3.6 10.8 6.8 11.8 8.6 18.5 11.8 30.8 14.5l2.7.6v112.1l-2.2-1.2c-1.3-.7-5.9-3.8-10.3-7-13.7-9.9-25-13.9-39-13.9-14.1 0-25.4 4-39.1 14-4.6 3.3-8.5 6-8.8 6-.3 0-.6-24.9-.6-55.4V47.2l3.9-.7c5.9-1 17.2-6.7 26.4-13.4 4.5-3.3 9.3-6.4 10.7-7 3.4-1.3 11.2-1.3 14.7 0zm137.5 7.1c12.1 8.2 20.3 12.4 26.8 13.4l4 .7v111.8l-7.7-5.5c-16.4-11.9-26.9-15.6-43.8-15.6-15.9 0-27.4 3.7-39.9 12.9-2.8 2.1-5.7 4.1-6.3 4.5-1 .6-1.3-10.5-1.3-53.9 0-51.1.1-54.6 1.8-55.1 7.4-2.3 15.7-6.7 23.5-12.2 12.4-8.8 13.7-9.3 23.4-9l8.1.3 11.4 7.7zm110.5-7.1c1.5.6 6.4 3.6 10.8 6.8 10.4 7.5 18.9 11.8 27.5 13.7l7 1.6v55.9c0 30.7-.3 55.9-.6 55.9-1.2 0-5.2-2.5-12.9-8.1-13.7-9.9-25-13.9-39-13.9-15.8 0-26.4 4.3-44.2 17.8l-3.3 2.4v-111l4.6-1.1c6.6-1.7 15.7-6.5 24.9-13.2 4.4-3.2 9.1-6.2 10.5-6.8 3.4-1.3 11.2-1.3 14.7 0zM136.2 171.2c11.7 8 19.9 12.2 26.2 13.3l3.6.7v55.5c0 44-.3 55.3-1.2 54.7-.7-.4-4.3-2.9-7.9-5.5-14.4-10.3-25-13.9-41.4-13.9-16.5 0-27.1 3.6-41.5 14.1-3.7 2.7-7.1 4.9-7.4 4.9-.3 0-.6-24.7-.6-54.9v-54.9l3.3-.7c5.9-1.3 15.9-6.4 24.6-12.6 11.7-8.4 13.1-9 22.8-8.7l8.1.3 11.4 7.7zm110.5-7.1c1.5.6 6.4 3.6 10.8 6.8 11.8 8.6 18.5 11.8 30.8 14.5l2.7.6v112.1l-2.2-1.2c-1.3-.7-5.9-3.8-10.3-7-13.7-9.9-25-13.9-39-13.9-14.1 0-25.4 4-39.1 14-4.6 3.3-8.5 6-8.8 6-.3 0-.6-24.9-.6-55.4v-55.4l3.9-.7c5.9-1 17.2-6.7 26.4-13.4 4.5-3.3 9.3-6.4 10.7-7 3.4-1.3 11.2-1.3 14.7 0zm137.5 7.1c12.1 8.2 20.3 12.4 26.8 13.4l4 .7v111.8l-7.7-5.5c-16.4-11.9-26.9-15.6-43.8-15.6-15.9 0-27.4 3.7-39.9 12.9-2.8 2.1-5.7 4.1-6.3 4.5-1 .6-1.3-10.5-1.3-53.9 0-51.1.1-54.6 1.8-55.1 7.4-2.3 15.7-6.7 23.5-12.2 12.4-8.8 13.7-9.3 23.4-9l8.1.3 11.4 7.7zm110.5-7.1c1.5.6 6.4 3.6 10.8 6.8 10.4 7.5 18.9 11.8 27.5 13.7l7 1.6v55.9c0 30.7-.3 55.9-.6 55.9-1.2 0-5.2-2.5-12.9-8.1-13.7-9.9-25-13.9-39-13.9-15.8 0-26.4 4.3-44.2 17.8l-3.3 2.4v-111l4.6-1.1c6.6-1.7 15.7-6.5 24.9-13.2 4.4-3.2 9.1-6.2 10.5-6.8 3.4-1.3 11.2-1.3 14.7 0zM136.2 309.2c11.7 8 19.9 12.2 26.2 13.3l3.6.7v55.5c0 44-.3 55.3-1.2 54.7-.7-.4-4.3-2.9-7.9-5.5-14.4-10.3-25-13.9-41.4-13.9-16.5 0-27.1 3.6-41.5 14.1-3.7 2.7-7.1 4.9-7.4 4.9-.3 0-.6-24.7-.6-54.9v-54.9l3.3-.7c5.9-1.3 15.9-6.4 24.6-12.6 11.7-8.4 13.1-9 22.8-8.7l8.1.3 11.4 7.7zm110.5-7.1c1.5.6 6.4 3.6 10.8 6.8 11.8 8.6 18.5 11.8 30.8 14.5l2.7.6v112.1l-2.2-1.2c-1.3-.7-5.9-3.8-10.3-7-13.7-9.9-25-13.9-39-13.9-14.1 0-25.4 4-39.1 14-4.6 3.3-8.5 6-8.8 6-.3 0-.6-24.9-.6-55.4v-55.4l3.9-.7c5.9-1 17.2-6.7 26.4-13.4 4.5-3.3 9.3-6.4 10.7-7 3.4-1.3 11.2-1.3 14.7 0zm137.5 7.1c12.1 8.2 20.3 12.4 26.8 13.4l4 .7v111.8l-7.7-5.5c-16.4-11.9-26.9-15.6-43.8-15.6-15.9 0-27.4 3.7-39.9 12.9-2.8 2.1-5.7 4.1-6.3 4.5-1 .6-1.3-10.5-1.3-53.9 0-51.1.1-54.6 1.8-55.1 7.4-2.3 15.7-6.7 23.5-12.2 12.4-8.8 13.7-9.3 23.4-9l8.1.3 11.4 7.7zm110.5-7.1c1.5.6 6.4 3.6 10.8 6.8 10.4 7.5 18.9 11.8 27.5 13.7l7 1.6v55.9c0 30.7-.3 55.9-.6 55.9-1.2 0-5.2-2.5-12.9-8.1-13.7-9.9-25-13.9-39-13.9-15.8 0-26.4 4.3-44.2 17.8l-3.3 2.4v-111l4.6-1.1c6.6-1.7 15.7-6.5 24.9-13.2 4.4-3.2 9.1-6.2 10.5-6.8 3.4-1.3 11.2-1.3 14.7 0zM136.2 447.2c11.7 8 19.9 12.2 26.2 13.3l3.6.7v55.5c0 44-.3 55.3-1.2 54.7-.7-.4-4.3-2.9-7.9-5.5-14.4-10.3-25-13.9-41.4-13.9-16.5 0-27.1 3.6-41.5 14.1-3.7 2.7-7.1 4.9-7.4 4.9-.3 0-.6-24.7-.6-54.9v-54.9l3.3-.7c5.9-1.3 15.9-6.4 24.6-12.6 11.7-8.4 13.1-9 22.8-8.7l8.1.3 11.4 7.7zm110.5-7.1c1.5.6 6.4 3.6 10.8 6.8 11.8 8.6 18.5 11.8 30.8 14.5l2.7.6v112.1l-2.2-1.2c-1.3-.7-5.9-3.8-10.3-7-13.7-9.9-25-13.9-39-13.9-14.1 0-25.4 4-39.1 14-4.6 3.3-8.5 6-8.8 6-.3 0-.6-24.9-.6-55.4v-55.4l3.9-.7c5.9-1 17.2-6.7 26.4-13.4 4.5-3.3 9.3-6.4 10.7-7 3.4-1.3 11.2-1.3 14.7 0zm137.5 7.1c12.1 8.2 20.3 12.4 26.8 13.4l4 .7v111.8l-7.7-5.5c-16.4-11.9-26.9-15.6-43.8-15.6-15.9 0-27.4 3.7-39.9 12.9-2.8 2.1-5.7 4.1-6.3 4.5-1 .6-1.3-10.5-1.3-53.9 0-51.1.1-54.6 1.8-55.1 7.4-2.3 15.7-6.7 23.5-12.2 12.4-8.8 13.7-9.3 23.4-9l8.1.3 11.4 7.7zm110.5-7.1c1.5.6 6.4 3.6 10.8 6.8 10.4 7.5 18.9 11.8 27.5 13.7l7 1.6v55.9c0 30.7-.3 55.9-.6 55.9-1.2 0-5.2-2.5-12.9-8.1-13.7-9.9-25-13.9-39-13.9-15.8 0-26.4 4.3-44.2 17.8l-3.3 2.4v-111l4.6-1.1c6.6-1.7 15.7-6.5 24.9-13.2 4.4-3.2 9.1-6.2 10.5-6.8 3.4-1.3 11.2-1.3 14.7 0z" fill="currentColor" /></symbol><symbol viewBox="0 0 600 600" id="category_03"><path d="M195.1 1.6c-8.7 2.3-19.1 8.4-25.6 14.9C160 25.9 153 41.4 153 52.7V57H63v543h115v-24l3.7-2.4c7.1-4.7 18.7-7.8 28.8-7.8 10.1 0 21.7 3.1 28.7 7.8l3.8 2.4v24h115v-24l3.8-2.4c7-4.7 18.6-7.8 28.7-7.8 10.1 0 21.7 3.1 28.8 7.8l3.7 2.4v24h115V57h-90v-4.3c0-16.9-13.1-37.3-29.6-45.9-9.4-5-16.9-6.8-27.9-6.8S372 1.8 362.6 6.8c-16.5 8.6-29.6 29-29.6 45.9V57h-65v-4.3c0-11.3-7-26.8-16.5-36.2-6.7-6.7-17-12.6-26.1-15-7.3-1.9-23.1-1.9-30.3.1zM224.6 29c5.7 2.8 13.7 11.7 16 17.7 1.8 4.6 1.8 15.7 2.2 252l.3 247.1-7.8-2.6c-7.2-2.5-9.1-2.7-24.8-2.7-15.7 0-17.6.2-24.8 2.7l-7.8 2.6.3-247.1c.4-280.2-.6-251.8 8.9-262.2 10-10.9 24.4-13.8 37.5-7.5zm180 0c5.7 2.8 13.7 11.7 16 17.7 1.8 4.6 1.8 15.7 2.2 252l.3 247.1-7.8-2.6c-7.2-2.5-9.1-2.7-24.8-2.7-15.7 0-17.6.2-24.8 2.7l-7.8 2.6.3-247.1c.4-280.2-.6-251.8 8.9-262.2 10-10.9 24.4-13.8 37.5-7.5zM153 328.5V575H88V82h65v246.5zm180 0V575h-65V82h65v246.5zm180 0V575h-65V82h65v246.5z" fill="currentColor" /></symbol><symbol viewBox="0 0 600 600" id="category_04"><path d="M206 53.2c-16.8 29.2-30.6 53.9-30.8 54.8-.2.9 11.7 22.5 26.5 48.1 14.7 25.5 26.7 47.1 26.7 47.9 0 .8-10.5 19.9-23.4 42.3L181.5 287h-55l-55 .1L41 340.2c-16.8 29.3-30.5 54.1-30.5 55.3 0 1.2 13.7 26 30.5 55.3l30.5 53.1 55 .1h55l27.5 48 27.5 47.9h127L391 552l27.5-48h55l55-.1 30.5-53.1c16.8-29.2 30.6-53.9 30.8-54.8.2-.9-11.9-22.8-26.9-48.8-14.9-25.9-27.1-47.4-27.1-47.7 0-.3 12.2-21.8 27.1-47.7 15-26 27.1-47.9 26.9-48.8-.2-.9-14-25.6-30.8-54.8l-30.5-53.1-55.4-.3-55.4-.3-27.1-47.2L363.5.1h-127L206 53.2zm164.4 13.9l23.7 41.2-14.4 25.1c-8 13.8-18.7 32.4-23.8 41.3l-9.4 16.3h-93.2l-23.7-41c-13-22.6-23.6-41.3-23.6-41.5 0-.2 10.6-18.9 23.6-41.5l23.7-41h93.4l23.7 41.1zm165 94.9c13 22.6 23.6 41.3 23.6 41.5 0 .3-10.6 18.9-23.6 41.5l-23.7 41h-93.4l-23.7-41.1-23.7-41.1 11.9-20.7c6.5-11.3 17.2-29.9 23.8-41.3l11.9-20.8h93.2l23.7 41zm-165 96c13 22.6 23.6 41.3 23.6 41.5 0 .3-10.6 18.9-23.6 41.5l-23.7 41h-93.4l-23.8-41.2c-17.5-30.5-23.4-41.6-22.8-42.8.4-1 11.1-19.6 23.7-41.4l22.9-39.6h93.4l23.7 41zm-165 96c13 22.6 23.6 41.3 23.6 41.5 0 .2-10.6 18.9-23.6 41.5l-23.7 41H88.3l-23.7-41c-13-22.6-23.6-41.3-23.6-41.5 0-.2 10.6-18.9 23.6-41.5l23.7-41h93.4l23.7 41zm330 0c13 22.6 23.6 41.3 23.6 41.5 0 .2-10.6 18.9-23.6 41.5l-23.7 41h-93.4l-22.9-39.6c-12.6-21.8-23.3-40.4-23.7-41.4-.6-1.2 5.3-12.3 22.8-42.8l23.8-41.2h93.4l23.7 41zm-165 96c13 22.6 23.6 41.3 23.6 41.5 0 .2-10.6 18.9-23.6 41.5l-23.7 41h-93.4l-22.9-39.6c-12.6-21.8-23.3-40.4-23.7-41.4-.6-1.2 5.3-12.3 22.8-42.8l23.8-41.2h93.4l23.7 41z" fill="currentColor" /></symbol><symbol viewBox="0 0 600 600" id="category_05"><g fill="currentColor"><path d="M98.2 1.9C86.8 5.2 79.2 9.8 70 19c-6.5 6.5-9.4 10.3-12.2 16C51.3 48.3 51 50.8 51 88.9V123H0v134h51v87H0v134h51v122h130V478h55v122h130V478h54v122h130V478h50V344h-50v-87h50V123h-50V88.9c0-38.1-.3-40.6-6.8-53.9-5.1-10.5-17.7-23.1-28.2-28.2C504.5 1.7 497 0 485 0s-19.5 1.7-30 6.8-23.1 17.7-28.2 28.2c-6.5 13.3-6.8 15.8-6.8 53.9V123h-54V88.9c0-38.1-.3-40.6-6.8-53.9-5.1-10.5-17.7-23.1-28.2-28.2C320.5 1.7 313 0 301 0s-19.5 1.7-30 6.8-23.1 17.7-28.2 28.2c-6.5 13.3-6.8 15.8-6.8 53.9V123h-55V88.9c0-38.1-.3-40.6-6.8-53.9-2.8-5.7-5.7-9.5-12.2-16-9.3-9.3-18-14.5-29.6-17.4-8.5-2.2-26-2-34.2.3zm34.9 27.8c11.9 5.9 20 17.2 22 30.6.5 3.5.9 114.6.9 260.4V575H76V320.7c0-145.8.4-256.9.9-260.4 1.2-7.9 4.8-15.8 9.6-21.2 4.9-5.4 8.5-7.9 15.4-10.8 4.8-2 7-2.3 15.1-2.1 8.4.3 10.3.7 16.1 3.5zm185 0c11.9 5.9 20 17.2 22 30.6.5 3.5.9 114.6.9 260.4V575h-80V320.7c0-145.8.4-256.9.9-260.4 1.2-7.9 4.8-15.8 9.6-21.2 4.9-5.4 8.5-7.9 15.4-10.8 4.8-2 7-2.3 15.1-2.1 8.4.3 10.3.7 16.1 3.5zm184 0c11.9 5.9 20 17.2 22 30.6.5 3.5.9 114.6.9 260.4V575h-80V320.7c0-145.8.4-256.9.9-260.4 1.2-7.9 4.8-15.8 9.6-21.2 4.9-5.4 8.5-7.9 15.4-10.8 4.8-2 7-2.3 15.1-2.1 8.4.3 10.3.7 16.1 3.5zM51 190v42H25v-84h26v42zm185 0v42h-54v-84h54v42zm184 0v42h-54v-84h54v42zm156 0v42h-26v-84h26v42zM236 300.5V344h-55v-87h55v43.5zm184 0V344h-54v-87h54v43.5zM51 411v42H25v-84h26v42zm185 0v42h-54v-84h54v42zm184 0v42h-54v-84h54v42zm156 0v42h-26v-84h26v42z" /><path d="M107.4 180.4c-3.1 3.1-3.4 4-3.4 9.1s.3 6 3.4 9.1c3.1 3.1 4 3.4 9.1 3.4s6-.3 9.1-3.4c3.1-3.1 3.4-4 3.4-9.1s-.3-6-3.4-9.1c-3.1-3.1-4-3.4-9.1-3.4s-6 .3-9.1 3.4zm0 221c-3.1 3.1-3.4 4-3.4 9.1s.3 6 3.4 9.1c3.1 3.1 4 3.4 9.1 3.4s6-.3 9.1-3.4c3.1-3.1 3.4-4 3.4-9.1s-.3-6-3.4-9.1c-3.1-3.1-4-3.4-9.1-3.4s-6 .3-9.1 3.4zm185-221c-3.1 3.1-3.4 4-3.4 9.1s.3 6 3.4 9.1c3.1 3.1 4 3.4 9.1 3.4s6-.3 9.1-3.4c3.1-3.1 3.4-4 3.4-9.1s-.3-6-3.4-9.1c-3.1-3.1-4-3.4-9.1-3.4s-6 .3-9.1 3.4zm0 221c-3.1 3.1-3.4 4-3.4 9.1s.3 6 3.4 9.1c3.1 3.1 4 3.4 9.1 3.4s6-.3 9.1-3.4c3.1-3.1 3.4-4 3.4-9.1s-.3-6-3.4-9.1c-3.1-3.1-4-3.4-9.1-3.4s-6 .3-9.1 3.4zm184-221c-3.1 3.1-3.4 4-3.4 9.1s.3 6 3.4 9.1c3.1 3.1 4 3.4 9.1 3.4s6-.3 9.1-3.4c3.1-3.1 3.4-4 3.4-9.1s-.3-6-3.4-9.1c-3.1-3.1-4-3.4-9.1-3.4s-6 .3-9.1 3.4zm0 221c-3.1 3.1-3.4 4-3.4 9.1s.3 6 3.4 9.1c3.1 3.1 4 3.4 9.1 3.4s6-.3 9.1-3.4c3.1-3.1 3.4-4 3.4-9.1s-.3-6-3.4-9.1c-3.1-3.1-4-3.4-9.1-3.4s-6 .3-9.1 3.4z" /></g></symbol><symbol viewBox="0 0 600 600" id="category_06"><path d="M339 50.1c-16.2 8.2-99.1 50.8-184.3 94.7L0 224.5l.2 105.8.3 105.8 81 42.5c44.6 23.4 94.7 49.5 111.4 58.1l30.4 15.6 34.4-17.2c18.9-9.5 103.5-53 188.1-96.7L599.5 359l.3-101.8.2-101.9-5.2-2.4c-7.8-3.6-30-15.3-100.3-52.3-35.2-18.6-77.9-40.9-95-49.6l-31-15.9-29.5 15zM465.8 115c52.9 27.8 95.8 50.8 95.4 51.1-1.3 1.3-336.7 174.2-337.7 174.2-1.1-.1-191.5-100-192.7-101.1-.7-.7 337.1-175.3 338.4-174.9.3.1 43.8 22.9 96.6 50.7zm108.5 227.1c-.5.5-76.6 40-169.3 87.8L236.5 517l-.3-76.2c-.1-41.9.1-76.5.5-76.9.5-.5 76.6-40 169.3-87.8L574.5 189l.3 76.2c.1 41.9-.1 76.5-.5 76.9zm-443.5-20.6l80.1 42 .1 76.7v76.7l-11.8-6.2c-6.5-3.4-48.4-25.3-93-48.7l-81.1-42.5-.1-76.7V266l12.8 6.8c7 3.7 48.9 25.6 93 48.7z" fill="currentColor" /></symbol></defs><use id="category_01-usage" xlink:href="#category_01" class="sprite-symbol-usage" /><use id="category_02-usage" xlink:href="#category_02" class="sprite-symbol-usage" /><use id="category_03-usage" xlink:href="#category_03" class="sprite-symbol-usage" /><use id="category_04-usage" xlink:href="#category_04" class="sprite-symbol-usage" /><use id="category_05-usage" xlink:href="#category_05" class="sprite-symbol-usage" /><use id="category_06-usage" xlink:href="#category_06" class="sprite-symbol-usage" /></svg>