<svg xmlns="http://www.w3.org/2000/svg" xmlns:xlink="http://www.w3.org/1999/xlink"><defs><style>
    .sprite-symbol-usage {display: none;}
    .sprite-symbol-usage:target {display: inline;}
  </style><symbol fill="currentColor" viewBox="0 0 512 512" id="manufacture-01"><path d="M493.644 211.136l-23.073-3.846c-5.501-24.389-15.033-47.397-28.406-68.568l13.6-19.04c6.367-8.917 5.929-20.029-1.066-27.024l-35.356-35.355c-6.996-6.997-18.11-7.436-27.024-1.067L373.28 69.835c-21.163-13.372-44.172-22.904-68.567-28.406l-3.846-23.075C299.063 7.548 290.895 0 281 0h-50c-9.894 0-18.062 7.548-19.864 18.355l-3.846 23.074c-24.396 5.502-47.404 15.034-68.568 28.406l-19.038-13.598c-8.916-6.369-20.029-5.931-27.024 1.066L57.302 92.658c-6.996 6.996-7.434 18.109-1.066 27.025l13.599 19.039C56.461 159.894 46.93 182.9 41.429 207.29l-23.073 3.846C7.548 212.937-.001 221.105 0 231v50c-.001 9.894 7.547 18.062 18.355 19.865l23.074 3.845c5.501 24.391 15.032 47.396 28.406 68.568l-13.599 19.039c-6.368 8.916-5.929 20.029 1.066 27.025l35.355 35.354c6.996 6.998 18.109 7.436 27.025 1.067l19.038-13.599c21.164 13.372 44.173 22.904 68.568 28.406l3.846 23.075C212.937 504.452 221.106 512 231 512h50c9.895 0 18.062-7.548 19.864-18.355l3.846-23.074c24.396-5.502 47.404-15.034 68.567-28.406l19.038 13.598c8.916 6.37 20.029 5.931 27.025-1.065l35.356-35.355c6.995-6.995 7.434-18.108 1.066-27.025l-13.6-19.039c13.373-21.17 22.905-44.179 28.406-68.568l23.074-3.846c10.809-1.802 18.356-9.97 18.354-19.863v-50c.004-9.897-7.544-18.065-18.352-19.866zm-1.645 69.431c-.286.177-.827.432-1.643.568l-29.817 4.97a10 10 0 0 0-8.176 7.971c-5.118 26.556-15.411 51.402-30.593 73.849a10 10 0 0 0 .146 11.415l17.571 24.6c.482.674.685 1.238.761 1.565l-34.743 34.743c-.328-.077-.891-.279-1.563-.761l-24.602-17.572a10.003 10.003 0 0 0-11.416-.145c-22.437 15.18-47.281 25.472-73.847 30.592a10.002 10.002 0 0 0-7.972 8.175l-4.97 29.818c-.136.816-.391 1.357-.568 1.643h-49.135c-.178-.286-.433-.827-.568-1.643l-4.97-29.818a9.999 9.999 0 0 0-7.972-8.175c-26.564-5.119-51.41-15.412-73.847-30.592a9.997 9.997 0 0 0-11.416.145l-24.601 17.572c-.673.481-1.236.684-1.563.76l-34.744-34.743c.076-.328.279-.891.76-1.564l17.572-24.601a10 10 0 0 0 .146-11.415c-15.182-22.446-25.475-47.293-30.593-73.849a10 10 0 0 0-8.175-7.971l-29.817-4.97c-.816-.136-1.358-.391-1.644-.569V231.43c.286-.177.827-.432 1.643-.568l29.817-4.97a9.999 9.999 0 0 0 8.175-7.971c5.118-26.556 15.411-51.402 30.593-73.849a10 10 0 0 0-.146-11.415l-17.571-24.6c-.481-.674-.684-1.237-.76-1.565l34.744-34.743c.327.076.89.279 1.563.76l24.601 17.572a10 10 0 0 0 11.416.145c22.437-15.18 47.282-25.473 73.847-30.592a10 10 0 0 0 7.972-8.175l4.97-29.818c.136-.816.391-1.358.569-1.643h49.135c.178.285.433.827.568 1.643l4.97 29.818a10 10 0 0 0 7.972 8.175c26.565 5.12 51.41 15.412 73.847 30.592a10 10 0 0 0 11.416-.145l24.603-17.573c.673-.48 1.235-.683 1.562-.759l34.743 34.743c-.076.328-.278.891-.76 1.564l-17.572 24.601a10 10 0 0 0-.146 11.415c15.182 22.446 25.475 47.292 30.593 73.848a10 10 0 0 0 8.176 7.972l29.817 4.97c.815.136 1.357.39 1.643.568v49.137z" /><path d="M256 86c-28.671 0-57.027 7.283-82.003 21.062-4.836 2.668-6.593 8.751-3.925 13.586 2.668 4.837 8.751 6.594 13.586 3.925C281.885 69.326 406.986 143.148 405.999 256 406 338.71 338.71 406 256 406c-112.851.97-186.675-124.103-131.428-222.337 2.666-4.835.909-10.918-3.926-13.586-4.837-2.668-10.919-.911-13.587 3.925-62.625 111.346 21.038 253.104 148.943 251.996C481.518 416.669 481.473 95.306 256 86z" /><path d="M166 337.634h157.692c17.815 0 32.309-14.58 32.309-32.5v-71.128c0-17.92-14.493-32.5-32.309-32.5h-45.438l-12.3-42.156c-3.672-12.583-15.052-21.715-27.06-21.715h-22.495c-5.523 0-10 4.477-10 10v53.872H166c-5.523 0-10 4.477-10 10v116.128a10.001 10.001 0 0 0 10 9.999zm60.399-180h12.495c2.996 0 6.742 3.488 7.86 7.317l14.401 49.355a9.998 9.998 0 0 0 9.6 7.199h52.938c6.787 0 12.309 5.607 12.309 12.5v71.128c0 6.893-5.521 12.5-12.309 12.5H226.4V157.634zM176 221.506h30.399v96.128H176zm-33.137-68.642a9.965 9.965 0 0 0 6.727-2.602c4.086-3.715 4.388-10.04.673-14.126-3.716-4.087-10.04-4.388-14.126-.673l-.005.005c-4.086 3.715-4.385 10.037-.67 14.124a9.966 9.966 0 0 0 7.401 3.272z" /></symbol><symbol viewBox="0 0 512 512" fill="currentColor" id="manufacture-02"><path d="M488.399 492h-21.933V173.536c0-14.823-12.06-26.882-26.882-26.882H390.56c-14.823 0-26.882 12.06-26.882 26.882V492h-55.692V317.825c0-14.823-12.059-26.882-26.882-26.882H232.08c-14.823 0-26.882 12.06-26.882 26.882V492h-55.692v-90.204c0-14.823-12.06-26.882-26.882-26.882H73.599c-14.823 0-26.882 12.06-26.882 26.882V492H23.601c-5.523 0-10 4.477-10 10s4.477 10 10 10h464.798c5.523 0 10-4.477 10-10s-4.477-10-10-10zm-358.895 0H66.716v-90.204a6.89 6.89 0 0 1 6.882-6.882h49.024a6.89 6.89 0 0 1 6.882 6.882V492zm158.481 0h-62.788V317.825a6.89 6.89 0 0 1 6.882-6.882h49.024a6.89 6.89 0 0 1 6.882 6.882V492zm158.481 0h-62.788V173.536a6.89 6.89 0 0 1 6.882-6.882h49.024a6.89 6.89 0 0 1 6.882 6.882V492zm19.976-481.484A9.965 9.965 0 0 0 455.95.024c-.161-.007-.32-.024-.484-.024h-60.5c-5.523 0-10 4.477-10 10s4.477 10 10 10h37.357l-98.857 98.858-37.28-37.28a10.001 10.001 0 0 0-14.142 0l-179.769 179.77c-3.905 3.905-3.905 10.237 0 14.143 1.953 1.951 4.512 2.927 7.071 2.927s5.119-.976 7.071-2.929L289.115 102.79l37.28 37.28c3.905 3.905 10.237 3.905 14.143 0L446.466 34.143v33.81c0 5.523 4.477 10 10 10s10-4.477 10-10V11c0-.163-.017-.322-.024-.484z" /><circle cx="75.64" cy="303.31" r="10" /></symbol><symbol viewBox="0 0 512 512" fill="currentColor" id="star"><path d="M512 197.816L325.961 185.585 255.898 9.569 185.835 185.585 0 197.816 142.534 318.842 95.762 502.431 255.898 401.21 416.035 502.431 369.263 318.842z" /></symbol></defs><use id="manufacture-01-usage" xlink:href="#manufacture-01" class="sprite-symbol-usage" /><use id="manufacture-02-usage" xlink:href="#manufacture-02" class="sprite-symbol-usage" /><use id="star-usage" xlink:href="#star" class="sprite-symbol-usage" /></svg>