<svg xmlns="http://www.w3.org/2000/svg" xmlns:xlink="http://www.w3.org/1999/xlink"><defs><style>
    .sprite-symbol-usage {display: none;}
    .sprite-symbol-usage:target {display: inline;}
  </style><symbol viewBox="0 0 447.907 447.907" fill="currentColor" id="partners_01"><path d="M432.703 206.904l-30.5-13.2-25.9-50.4c-7-13.8-21.2-22.4-36.7-22.3h-44.6v-12.6c0-22.8-18.2-41.4-41-41.4h-213.2c-22.8 0-40.8 18.7-40.8 41.4v193c-.2 13.9 10.9 25.3 24.8 25.5h5.7c0 1-.1 1.4-.1 2-.1 28.6 23 51.9 51.6 52 28.6.1 51.9-23 52-51.6v-.5c0-.7 0-1-.1-2h172.3v2c-.1 28.6 23 51.9 51.6 52 28.6.1 51.9-23 52-51.6v-.5-2h12.9c13.9 0 25.2-11.3 25.2-25.2v-71.4c.2-9.8-5.8-19.1-15.2-23.2zm-350.4 154.1c-17.6 0-31.8-14.2-31.8-31.8s14.2-31.8 31.8-31.8 31.8 14.2 31.8 31.8c0 17.5-14.3 31.8-31.8 31.8zm192.7-53.9h-145.8c-8.4-18.3-26.8-30-46.9-29.9-20.2-.1-38.5 11.5-46.9 29.9h-10.2c-3.1 0-5.2-2.4-5.2-5.5v-51.5h255v57zm0-198.6v121.6h-255v-121.6c0-11.7 9.1-21.4 20.8-21.4h213.2c11.7.1 21.1 9.7 21 21.3v.1zm20 32.6h44.6c7.9-.1 15.3 4.2 19 11.3l20 38.7h-83.6v-50zm63.1 219.9c-17.6 0-31.8-14.2-31.8-31.8s14.2-31.8 31.8-31.8 31.8 14.2 31.8 31.8c0 17.5-14.2 31.8-31.8 31.8zm69.9-59.4c0 3.1-2.1 5.5-5.2 5.5h-17.8c-12.1-25.9-42.9-37.1-68.8-25-11 5.1-19.9 14-25 25h-16.2v-96h98l31.8 14c2 1 3.3 3.2 3.2 5.4v71.1z" /></symbol><symbol viewBox="0 0 337.76 337.76" fill="currentColor" id="partners_02"><path d="M320.88 67.76H223.6V35.92c0-9.323-7.557-16.88-16.88-16.88h-75.76c-9.323 0-16.88 7.557-16.88 16.88V67.84h-97.2C7.557 67.84 0 75.397 0 84.72v217.12c0 9.323 7.557 16.88 16.88 16.88h304c9.323 0 16.88-7.557 16.88-16.88V84.64c0-9.323-7.557-16.88-16.88-16.88zm-190.8-.96l.16-31.04a.88.88 0 0 1 .88-.88h75.92a.88.88 0 0 1 .88.88V66.8a.88.88 0 0 1-.88.88h-76.08a.88.88 0 0 1-.88-.88zM16.88 83.76h304c-7.52 14.24-46.64 81.6-119.44 97.76v-9.28c.002-9.199-7.363-16.706-16.56-16.88h-32c-9.323 0-16.88 7.557-16.88 16.88v9.44c-72.72-16-112-83.6-119.44-97.76l.32-.16zm168.64 88.48v46.56a.88.88 0 0 1-.88.88h-31.76a.88.88 0 0 1-.88-.88v-46.56a.88.88 0 0 1 .88-.88h32a.88.88 0 0 1 .64.88zm136 129.68a.88.88 0 0 1-.88.88H16.88a.88.88 0 0 1-.88-.88V113.68c19.68 28.56 58.88 72 120 84.32v20.72c0 9.323 7.557 16.88 16.88 16.88h32c9.323 0 16.88-7.557 16.88-16.88V198c61.12-12.16 100.32-56 120-84.32l-.24 188.24z" /></symbol><symbol viewBox="0 0 512 512" fill="currentColor" id="partners_03"><path d="M404.267 315.41c-10.048-20.949-45.995-50.027-80.725-78.123-19.371-15.659-37.675-30.464-49.344-42.133-2.923-2.944-7.296-3.883-11.157-2.496-7.189 2.603-11.627 4.608-15.125 6.165-5.333 2.389-7.125 3.2-14.315 3.925a10.663 10.663 0 0 0-7.808 4.672c-15.083 22.549-30.699 20.629-41.131 17.131-3.328-1.109-3.925-2.539-4.245-3.904-2.24-9.365 9.003-31.168 23.573-45.739 34.667-34.688 52.544-43.371 90.304-26.496 42.837 19.157 85.76 34.155 86.187 34.304a10.654 10.654 0 0 0 13.589-6.571c1.92-5.568-1.003-11.648-6.571-13.589-.427-.149-42.496-14.848-84.48-33.643-48.917-21.867-75.755-7.467-114.091 30.891-14.592 14.592-34.411 44.117-29.291 65.771 2.197 9.216 8.683 16.043 18.325 19.221 24.171 7.979 46.229.341 62.656-21.461 6.784-1.045 10.475-2.581 16.021-5.077a209.95 209.95 0 0 1 7.467-3.2c12.203 11.456 28.672 24.789 46.016 38.805 31.36 25.365 66.923 54.123 74.923 70.763 3.947 8.213-.299 13.568-3.179 16.021-4.224 3.627-10.005 4.779-13.141 2.581-3.456-2.368-7.957-2.517-11.52-.384a10.66 10.66 0 0 0-5.141 10.304c.725 6.784-5.483 10.667-8.171 12.011-6.827 3.456-13.952 2.859-16.619.384-2.987-2.773-7.275-3.584-11.072-2.176-3.797 1.429-6.443 4.928-6.827 8.981-.64 6.997-5.824 13.717-12.587 16.341-3.264 1.237-8 1.984-12.245-1.899a10.791 10.791 0 0 0-9.749-2.475 10.65 10.65 0 0 0-7.488 6.72c-.405 1.067-1.323 3.627-11.307 3.627-7.104 0-19.883-4.8-26.133-8.939-7.488-4.928-54.443-39.957-94.997-73.92-5.696-4.8-15.552-15.083-24.256-24.171-7.723-8.064-14.784-15.381-18.411-18.453-4.544-3.84-11.264-3.264-15.04 1.259-3.797 4.501-3.243 11.243 1.259 15.04 3.307 2.795 9.707 9.557 16.768 16.917 9.515 9.941 19.349 20.224 25.963 25.771 39.723 33.259 87.467 69.163 96.981 75.413 7.851 5.163 24.768 12.416 37.867 12.416 10.517 0 18.603-2.411 24.213-7.125 7.509 2.923 16.043 2.944 24.256-.256 9.707-3.755 17.685-11.328 22.208-20.501 8.405 1.792 18.027.533 26.773-3.861 8.555-4.309 14.741-10.901 17.813-18.603 8.491.448 17.237-2.56 24.469-8.768 12.247-10.474 15.617-26.772 8.535-41.471z" /><path d="M213.333 138.663h-96c-5.888 0-10.667 4.779-10.667 10.667s4.779 10.667 10.667 10.667h96c5.888 0 10.667-4.779 10.667-10.667s-4.779-10.667-10.667-10.667zM435.52 292.711c-3.307-4.885-9.92-6.229-14.805-2.901l-31.189 20.949c-4.885 3.285-6.187 9.92-2.901 14.805a10.717 10.717 0 0 0 8.875 4.715c2.027 0 4.096-.576 5.931-1.813l31.189-20.949c4.884-3.286 6.185-9.92 2.9-14.806zm-66.219 50.902c-7.637-6.016-41.792-40.981-62.912-62.997-4.075-4.267-10.837-4.416-15.083-.32-4.267 4.075-4.395 10.837-.32 15.083 5.483 5.717 53.845 56.128 65.088 65.003a10.623 10.623 0 0 0 6.592 2.283c3.136 0 6.272-1.408 8.405-4.075 3.649-4.609 2.86-11.329-1.77-14.977zm-42.624 21.397c-12.779-10.219-44.885-44.331-52.139-52.224-4.011-4.352-10.731-4.608-15.083-.64-4.331 3.989-4.629 10.752-.64 15.083.384.405 38.699 41.771 54.528 54.443a10.72 10.72 0 0 0 6.656 2.325c3.115 0 6.229-1.387 8.341-3.989 3.671-4.609 2.924-11.329-1.663-14.998zm-42.453 21.483c-15.211-12.821-46.336-45.952-52.416-52.459-4.032-4.309-10.795-4.544-15.083-.512-4.309 4.032-4.523 10.773-.512 15.083 8.747 9.365 38.528 40.939 54.251 54.208a10.638 10.638 0 0 0 6.869 2.517c3.029 0 6.059-1.301 8.171-3.797 3.797-4.523 3.221-11.243-1.28-15.04z" /><path d="M124.672 120.253C106.389 102.93 33.28 97.319 11.307 96.018c-3.029-.149-5.824.853-7.957 2.88A10.662 10.662 0 0 0 0 106.663v192c0 5.888 4.779 10.667 10.667 10.667h64c4.608 0 8.704-2.965 10.133-7.36 1.557-4.779 38.315-117.589 43.157-173.056.278-3.243-.917-6.443-3.285-8.661zM66.88 287.997H21.333V118.098c34.283 2.709 71.275 8.597 84.715 15.125-5.653 46.72-31.232 129.728-39.168 154.774zM501.333 117.33c-83.755 0-130.219 21.44-132.16 22.336-2.773 1.301-4.843 3.712-5.696 6.635s-.427 6.059 1.173 8.661c13.184 21.227 54.464 139.115 62.4 167.872a10.665 10.665 0 0 0 10.283 7.829h64c5.888 0 10.667-4.779 10.667-10.667v-192a10.657 10.657 0 0 0-10.667-10.666zm-10.666 192h-45.355c-10.112-32.939-39.979-118.827-56.64-154.325 16.277-5.525 51.243-15.019 101.995-16.213V309.33z" /></symbol></defs><use id="partners_01-usage" xlink:href="#partners_01" class="sprite-symbol-usage" /><use id="partners_02-usage" xlink:href="#partners_02" class="sprite-symbol-usage" /><use id="partners_03-usage" xlink:href="#partners_03" class="sprite-symbol-usage" /></svg>