<svg xmlns="http://www.w3.org/2000/svg" xmlns:xlink="http://www.w3.org/1999/xlink"><defs><style>
    .sprite-symbol-usage {display: none;}
    .sprite-symbol-usage:target {display: inline;}
  </style><symbol fill="none" viewBox="0 0 61 61" id="services_01"><g clip-path="url(#services_01_a)" fill="currentColor"><path d="m10.7283 47.1737c-.85378 0-1.6747.2132-2.4032.6132-3.83681-4.9181-5.94283-11.028-5.94283-17.2869 0-15.5044 12.61313-28.1172 28.11693-28.1172 1.8848 0 3.7687.18735 5.5994.55757.644.1302 1.2731-.28673 1.4038-.93175.1302-.64503-.2867-1.27317-.9317-1.404361-1.9858-.401028-4.0287-.604259-6.0715-.604259-8.1467 0-15.8059 3.17243-21.56687 8.93342-5.76043 5.76048-8.93333708 13.42028-8.93333708 21.56708 0 6.8527 2.32713708 13.5405 6.56347708 18.902-.54563.815-.83882 1.7725-.83882 2.7754 0 1.3367.52079 2.593 1.46595 3.5382.94467.9451 2.20142 1.4659 3.5382 1.4659 1.3367 0 2.5929-.5208 3.5381-1.4659.9452-.9447 1.4655-2.202 1.4655-3.5387 0-1.3363-.5203-2.593-1.4655-3.5377-.9452-.9452-2.2019-1.4655-3.5386-1.4655zm1.853 6.8572c-.4944.495-1.1534.7678-1.853.7678-.6997 0-1.35817-.2728-1.85311-.7678-.49494-.4949-.76774-1.1533-.76774-1.853 0-.7002.2728-1.3587.76774-1.8536.49445-.4955 1.15341-.7673 1.85311-.7673.7001 0 1.3581.2728 1.853.7673.4915.488.7683 1.1534.7683 1.8466v.007c0 .7002-.2729 1.3581-.7678 1.853zm41.8536-42.4344c1.295-1.94301 1.0873-4.59965-.6261-6.31259-.9452-.94468-2.202-1.46545-3.5382-1.46545-1.3368 0-2.593.52077-3.5382 1.46545-.9451.94517-1.4654 2.20194-1.4654 3.5387 0 1.33679.5203 2.59299 1.4654 3.53819.9452.9452 2.202 1.4655 3.5387 1.4655.8537 0 1.6747-.2132 2.4032-.6132 3.8368 4.9186 5.9428 11.028 5.9428 17.2869 0 15.5044-12.6132 28.1172-28.1169 28.1172-1.866 0-3.7325-.1839-5.5458-.5467-.645-.1287-1.2726.2898-1.4023.9348-.1287.6455.2897 1.2726.9342 1.4023 1.9733.3901 3.9929.5929 6.0089.5929h.004c8.1467 0 15.8059-3.1725 21.5668-8.9334 5.7619-5.7605 8.9343-13.4203 8.9343-21.5671 0-6.8533-2.3276-13.5415-6.5644-18.9035zm-6.0174-.9208c-.4914-.488-.7677-1.15341-.7677-1.84664 0-.00248 0-.00496 0-.00695 0-.70018.2728-1.35813.7677-1.85308.4945-.49495 1.1534-.76778 1.8531-.76778s1.3586.27283 1.8536.76778c1.0216 1.0222 1.0216 2.68496 0 3.70667-.4885.491-1.1539.7673-1.8472.7673-.0024 0-.0044 0-.0064 0s-.005 0-.007 0c-.6927 0-1.3576-.2768-1.8456-.7678z" /><path d="m25.583 50.9922c0 .658.5338 1.1917 1.1917 1.1917h7.4495c.6579 0 1.1916-.5332 1.1916-1.1917v-2.3097c1.5629-.4185 3.0706-1.0451 4.4714-1.8536l1.6304 1.6304c.2232.2241.5268.3499.8423.3499.3161 0 .6197-.1258.8428-.3499l5.2655-5.269c.4652-.4656.4652-1.22 0-1.6846l-1.6289-1.629c.8085-1.4013 1.4346-2.909 1.8541-4.4714h2.3002c.658 0 1.1917-.5332 1.1917-1.1917v-7.4495c0-.658-.5332-1.1917-1.1917-1.1917h-2.3012c-.419-1.5634-1.0431-3.0671-1.8516-4.4704l1.62-1.6201c.2226-.2241.3483-.5277.3483-.8438-.0005-.316-.1262-.6191-.3493-.8428l-5.2695-5.2655c-.4651-.4651-1.2194-.4651-1.6846.0005l-1.618 1.618c-1.4013-.8085-2.909-1.4346-4.4719-1.854v-2.2879c0-.65799-.5332-1.1917-1.1916-1.1917h-7.4495c-.6574 0-1.1917.53321-1.1917 1.1917v2.2888c-1.5608.419-3.072 1.0446-4.4718 1.8526l-1.6181-1.618c-.4646-.4651-1.2194-.4656-1.6846-.0005l-5.2689 5.266c-.2226.2237-.3489.5268-.3489.8428 0 .3161.1258.6197.3489.8428l1.62 1.6201c-.8085 1.4018-1.4351 2.9095-1.8541 4.4714l-2.2958-.0005c-.65793 0-1.19164.5332-1.19164 1.1912l-.00446 7.4495c-.0005.3161.12523.6197.34885.8428.22362.2232.52625.3489.84275.3489h2.3008c.4184 1.5624 1.0451 3.0701 1.8536 4.4709l-1.629 1.629c-.4651.4646-.4656 1.2195 0 1.6846l5.2655 5.269c.2231.2237.5263.3499.8423.3499h.0005c.3161 0 .6192-.1257.8423-.3494l1.6305-1.6304c1.4023.808 2.9095 1.4346 4.4708 1.8541l.0005 2.3087zm-4.0042-6.6689c-.1923-.1242-.4175-.1908-.6465-.1908-.3161 0-.6192.1257-.8428.3488l-1.4506 1.4506-3.5809-3.5839 1.4491-1.4496c.2231-.2231.3488-.5262.3488-.8423 0-.2291-.0665-.4542-.1908-.6465-1.0803-1.6717-1.8396-3.5039-2.2566-5.4464-.1177-.5486-.6032-.9412-1.1648-.9412h-2.0463l.003-5.0668h2.0433c.5616 0 1.0471-.3926 1.1648-.9412.417-1.942 1.1768-3.7742 2.2566-5.4459.1243-.1928.1908-.4174.1908-.6465 0-.3161-.1257-.6192-.3488-.8423l-1.4401-1.4407 3.5839-3.5809 1.4386 1.4391c.2236.2232.5267.3489.8428.3489.229 0 .4542-.0661.6465-.1903 1.6712-1.0804 3.5033-1.8397 5.4458-2.2566.5486-.1178.9412-.6038.9412-1.1648v-2.0345h5.0667v2.0345c0 .5615.3921 1.047.9412 1.1648 1.9346.4144 3.7847 1.1812 5.4459 2.2566.1928.1242.4174.1908.6465.1908.3161 0 .6192-.1257.8423-.3489l1.4391-1.4386 3.5839 3.5809-1.4401 1.4402c-.2231.2236-.3494.5262-.3494.8423 0 .2291.0666.4542.1909.6465 1.0753 1.6612 1.8421 3.5123 2.2565 5.4469.1173.5481.6028.9407 1.1643.9407h.0005 2.0474v5.0668h-2.0474c-.5615 0-1.0465.3921-1.1648.9407-.4144 1.9345-1.1807 3.7842-2.2555 5.4464-.1253.1923-.1919.4174-.1919.6465 0 .3161.1258.6192.3489.8423l1.449 1.4491-3.5808 3.5839-1.4506-1.4501c-.2236-.2231-.5262-.3488-.8423-.3488-.2291 0-.4542.0666-.6465.1908-1.6612 1.0754-3.5123 1.8427-5.4469 2.2566-.5481.1178-.9402.6033-.9402 1.1648v2.0559h-5.0667v-2.0559c0-.561-.3921-1.0465-.9412-1.1648-1.942-.4169-3.7741-1.1767-5.4458-2.2566z" /><path d="m40.3439 30.5c0-5.4285-4.4162-9.8443-9.8442-9.8443-5.4285 0-9.8442 4.4163-9.8442 9.8443 0 5.4286 4.4162 9.8444 9.8442 9.8444 5.4285 0 9.8442-4.4163 9.8442-9.8444zm-17.3062 0c0-4.1146 3.3474-7.4615 7.4615-7.4615 4.1146 0 7.4614 3.3479 7.4614 7.4615 0 4.1142-3.3473 7.4615-7.4614 7.4615-4.1146 0-7.4615-3.3473-7.4615-7.4615zm18.4317-25.99423c.3136 0 .6207-.12772.8423-.34886.2222-.22461.3479-.52774.3489-.84379 0-.31208-.1272-.61969-.3489-.84232-.2241-.22263-.5267-.34835-.8423-.34885-.3155.0005-.6181.12622-.8418.34885-.2226.22362-.3483.52676-.3493.84232 0 .31456.1277.62067.3493.84379.2237.22263.5263.34836.8418.34886zm-21.8883 52.00993c-.3156.001-.6187.1267-.8423.3488-.2221.2236-.3479.5268-.3488.8423 0 .3146.1277.6207.3488.8423.2216.2217.5292.3489.8423.3489s.6207-.1277.8423-.3489c.2216-.2216.3488-.5292.3488-.8423 0-.313-.1277-.6211-.3488-.8423-.2236-.2221-.5268-.3478-.8423-.3488z" /></g></symbol><clipPath id="services_01_a"><path d="m0 0h60.9998v61h-60.9998z" /></clipPath><symbol fill="none" viewBox="0 0 80 68" id="services_02"><path clip-rule="evenodd" d="m65.515 54.7937c3.2537-.7964 5.9352 1.6151 6.4659 4.1515.6909 3.3064-1.5574 5.7879-4.0705 6.4086-6.7621 1.6679-9.539-8.8109-2.3954-10.5601zm.6645 2.7619c-3.3207.7527-2.3183 5.6782 1.0521 5.0413 3.0488-.5759 2.3914-5.8214-1.0521-5.0413zm-44.1318.0264c-3.408.8726-2.0748 5.8347 1.251 4.9804 3.206-.8248 2.0149-5.8164-1.251-4.9804zm-18.20244-10.7602c-1.59288.26-1.70854 2.4724.61483 2.4866 1.79275.0112 15.05831.0874 15.68121-.0457 1.3271-.2834 1.7461-2.4694-.7264-2.4755zm29.10604 5.4172c-.7274.2976-1.2449 1.0594-.625 1.9015.5195.706 1.6771.5008 2.5507.4998 2.6855-.0021 16.9879.1229 17.6119-.1148.6919-.2631 1.0247-1.224.4911-1.9056-.5033-.644-1.6071-.4815-2.506-.4805-2.6501.002-16.9556-.132-17.5237.0996zm-11.6666 2.6227c3.2213-.9934 5.987 1.4343 6.5927 3.8722.8421 3.3907-1.4417 5.9647-4.0126 6.6209-6.4101 1.6364-9.7632-8.2787-2.5801-10.4931zm56.1525-5.4131c-2.4096.1077-3.0214-.2834-2.7769-2.8178l2.7962.0061zm-18.8365-18.8784 11.1329.0376 1.9835 8.1547-13.1205-.0213zm.0274-5.3207c2.4654-.0965 5.0921-.0132 7.5748-.0132 1.4569 0 4.6538-.2519 4.5442 2.8249l-12.1474-.0112zm-28.9113-10.7897c-1.0683-.3545-5.7221-3.4943-6.8098-4.3029-.8593-.63893-2.4167-1.70957-2.9209-2.58619-.8594-1.49422-.5032-3.09917.5174-4.10074.9963-.9782 2.5943-1.34388 4.0421-.46218 1.6405.99954 3.0812 5.31359 3.7803 7.23751.3936 1.0828 1.2073 3.1174 1.3909 4.2135zm4.4845.0396c.3165-1.5765 2.2868-6.5173 2.9868-8.22585.553-1.34897 1.1993-2.65019 2.2341-3.28506 2.9494-1.81013 6.3715 1.74208 4.4997 4.64114-.9639 1.4932-8.4037 6.38827-9.7217 6.86977zm9.474-3.1804c1.0775-.9061 2.1742-1.68319 2.8114-3.22618 2.2442-5.43649-3.9173-10.15178-8.4696-7.165362-2.3498 1.540952-3.4263 5.004782-4.4307 7.622472-.5194 1.35303-1.0511 3.26977-1.5969 4.43997-.349-.5251-1.3078-3.62734-1.6396-4.49889-.5661-1.48711-1.1058-2.87671-1.7785-4.26224-.7183-1.48-1.4671-2.60753-2.7698-3.392733-4.6193-2.782247-10.6246 1.910693-8.286 7.380713.5742 1.34287 1.8009 2.37895 2.853 3.17435.5905.4459 1.1617.8593 1.743 1.2718.5824.4134 1.3595.778 1.7715 1.3103-1.25-.2519-4.2988-1.6638-5.6208-2.1941-.5722-.2295-2.3183-1.0015-2.7911-1.0493-1.3159-.1331-1.8292 1.2789-1.0866 2.059.3957.4165 6.6566 2.8036 8.0517 3.3653.486.1961.8654.3444 1.393.5546l1.0328.4439c.2415.1595.0599-.0071.2323.2083-2.8702.1005-16.67444-.319-18.05324.1767-1.16574.4195-1.68622 1.4353-1.69636 2.9438-.01928 2.9854-.12886 22.0994.15015 22.7333.47482 1.0808 2.25844 1.0046 2.35685-.6765.08117-1.3916.00203-3.0494.00203-4.4705 0-6.0439.03856-12.1011-.00304-18.1755l48.24291.0508-.0061 22.0649c.002 1.1194.3581 2.2134 1.6172 1.863 1.1942-.3332.7062-1.3591.9547-2.5943 1.5493-.0508 14.6728-.1758 15.8436.1595 1.256.3606 2.4806 1.4708 2.7038 2.6562-4.5929.2611-5.3417-1.2626-5.0647 4.0876.072 1.3957.6899 2.2804 1.5634 2.9833 1.0562.8513 2.1864.7436 3.76.8208l-.0263 5.4853-3.2406.003c-.7295-1.5572-1.396-2.8056-2.8469-3.8224-4.4357-3.1093-10.1213-1.027-11.8502 3.1662-.211.5109-.1643.6603-.8725.642-.1674-1.7421-.0304-4.1871-.0304-6.0064 0-1.5623.5904-4.7061-1.3028-4.636-1.7937.066-1.2032 3.3226-1.2032 4.7671 0 1.8213.1197 4.0966-.0244 5.8885l-25.9264-.001c-.4301-.7426-.5894-1.3145-1.1373-2.1058-2.8398-4.1017-9.609-4.4664-12.8008.0965-.5327.7619-.6991 1.2749-1.0836 2.0113l-7.25825-.0315.03449-2.7954c1.33214-.0407 2.70996-.0132 4.04616-.0102 1.2215.003 2.6561.0803 2.5709-1.3327-.0792-1.3012-1.3839-1.1702-2.7018-1.1692-2.0596.002-10.77478-.2702-11.408884.3555-.871517.8584-.217118 2.0743 1.046024 2.1464 1.23879.0711 2.66021-.1046 3.87668.0345.09537 1.0554-.11871 2.5832.15827 3.5035.8421 2.8025 5.27581 1.7157 9.19811 1.8132.2486 2.6898.8898 4.1779 2.3487 5.6599 1.1911 1.2098 3.1625 2.3638 5.6634 2.3455 2.4481-.0173 4.461-1.1895 5.6095-2.3942 1.4438-1.5156 1.9947-2.8777 2.2798-5.6173l28.1604.0061c.279 2.704.8787 4.12 2.3437 5.6447 2.1265 2.2134 5.8865 3.1368 8.9709 1.6121.3804-.188.9141-.4724 1.2408-.7263 2.1214-1.6446 3.0559-3.2922 3.3501-6.4909 1.186-.1879 2.7769.0487 4.0167-.0559 1.5046-.127 1.3078-1.3682 1.3057-2.7457-.003-2.6684 0-5.3369 0-8.0054 0-2.6624.3014-4.9215-.8826-7.1217-1.0156-1.8873-2.6714-2.7497-4.7178-3.2779l-2.0109-8.235c.9182-.7121.9517-.643.9334-2.0986-.0122-.9488-.1146-1.7553-.3987-2.4806-1.8881-4.825-8.2556-2.9986-14.2811-3.3023-.0771-2.1392.3957-4.052-1.3058-4.9906-1.1018-.6074-4.3921-.3453-5.9099-.3453-4.1384 0-8.3854.0934-12.5106-.0071.3997-.5526 2.0474-.9732 2.7545-1.2627 1.4782-.6054 7.5464-2.8543 8.003-3.411.7102-.8665-.0305-2.1382-1.2449-1.9513-.9568.1473-6.4466 2.8036-8.3124 3.2312l3.5926-2.6532z" fill="currentColor" fill-rule="evenodd" /></symbol><symbol fill="none" viewBox="0 0 62 51" id="services_03"><g fill="currentColor"><path d="m60.069 37.6325v12.1325h-2.4762v-12.1325l1.2381-1.2348zm-2.4762 0c0-.6824.5541-1.2348 1.2381-1.2348.6839 0 1.2381.5533 1.2381 1.2348zm-52.49437-1.2348h53.73247v2.4696h-53.73247l-1.23811-1.2348zm0 2.4696c-.68393 0-1.23811-.5533-1.23811-1.2348 0-.6824.55418-1.2348 1.23811-1.2348zm-1.23811 10.8977v-12.1325h2.47622v12.1325l-1.23811 1.2348zm2.47622 0c0 .6824-.55418 1.2348-1.23811 1.2348s-1.23811-.5533-1.23811-1.2348zm52.49436 1.2348h-53.73247v-2.4695h53.73247l1.2381 1.2347zm0-2.4695c.6839 0 1.2381.5532 1.2381 1.2347 0 .6824-.5542 1.2348-1.2381 1.2348z" /><path d="m45.9389 37.6325c0-.6824.5541-1.2348 1.2381-1.2348.6839 0 1.2381.5533 1.2381 1.2348zm0 10.7095v-10.7095h2.4762v10.7095zm2.4762 0c0 .6824-.5542 1.2347-1.2381 1.2347-.684 0-1.2381-.5532-1.2381-1.2347z" /><path d="m52.2952 37.6325c0-.6824.5542-1.2348 1.2381-1.2348s1.2381.5533 1.2381 1.2348zm0 10.7095v-10.7095h2.4762v10.7095zm2.4762 0c0 .6824-.5542 1.2347-1.2381 1.2347s-1.2381-.5532-1.2381-1.2347z" /><path d="m17.9913 37.6325h-2.4762c0-.6824.5542-1.2348 1.2381-1.2348s1.2381.5533 1.2381 1.2348zm0 10.7095h-2.4762v-10.7095h2.4762zm-2.4762 0h2.4762c0 .6824-.5542 1.2347-1.2381 1.2347s-1.2381-.5532-1.2381-1.2347z" /><path d="m11.6341 37.6325h-2.47623c0-.6824.55417-1.2348 1.23813-1.2348.6839 0 1.2381.5533 1.2381 1.2348zm0 10.7095h-2.47623v-10.7095h2.47623zm-2.47623 0h2.47623c0 .6824-.5542 1.2347-1.2381 1.2347-.68396 0-1.23813-.5532-1.23813-1.2347z" /><path d="m56.2096 37.6325-1.2381 1.2348-1.2382-1.2348v-12.1326h2.4763zm-2.4763 0h2.4763c0 .6824-.5542 1.2348-1.2381 1.2348-.684 0-1.2382-.5533-1.2382-1.2348zm-52.49428 1.2348-1.23810447-1.2348 1.23810447-1.2348h53.73248v2.4696zm0-2.4696v2.4696c-.68393 0-1.23810447-.5533-1.23810447-1.2348 0-.6824.55417447-1.2348 1.23810447-1.2348zm-1.23810447-10.8978 1.23810447-1.2348 1.23811 1.2348v12.1326h-2.47621447zm2.47621447 0h-2.47621447c0-.6824.55417447-1.2348 1.23810447-1.2348.68394 0 1.23811.5533 1.23811 1.2348zm52.49437-1.2348 1.2381 1.2348-1.2381 1.2348h-53.73248v-2.4696zm0 2.4696v-2.4696c.6839 0 1.2381.5533 1.2381 1.2348 0 .6824-.5542 1.2348-1.2381 1.2348z" /><path d="m42.0786 37.6325h2.4762c0 .6824-.5542 1.2348-1.2381 1.2348-.684 0-1.2381-.5533-1.2381-1.2348zm0-10.7095h2.4762v10.7095h-2.4762zm2.4762 0h-2.4762c0-.6824.5541-1.2348 1.2381-1.2348.6839 0 1.2381.5533 1.2381 1.2348z" /><path d="m48.4349 37.6325h2.4762c0 .6824-.5542 1.2348-1.2381 1.2348s-1.2381-.5533-1.2381-1.2348zm0-10.7095h2.4762v10.7095h-2.4762zm2.4762 0h-2.4762c0-.6824.5542-1.2348 1.2381-1.2348s1.2381.5533 1.2381 1.2348z" /><path d="m14.131 37.6325c0 .6824-.5541 1.2348-1.2381 1.2348-.6839 0-1.2381-.5533-1.2381-1.2348zm0-10.7095v10.7095h-2.4762v-10.7095zm-2.4762 0c0-.6824.5542-1.2348 1.2381-1.2348.684 0 1.2381.5533 1.2381 1.2348z" /><path d="m7.77379 37.6325c0 .6824-.55417 1.2348-1.23811 1.2348-.68393 0-1.2381-.5533-1.2381-1.2348zm0-10.7095v10.7095h-2.47621v-10.7095zm-2.47621 0c0-.6824.55417-1.2348 1.2381-1.2348.68394 0 1.23811.5533 1.23811 1.2348z" /><path d="m58.7191 13.3673v12.1326h-2.4762v-12.1326l1.2381-1.2347zm-2.4762 0c0-.6824.5542-1.2347 1.2381-1.2347s1.2381.5532 1.2381 1.2347zm-52.49433-1.2347h53.73243v2.4695h-53.73243l-1.2381-1.2348zm0 2.4695c-.68393 0-1.2381-.5533-1.2381-1.2348 0-.6824.55417-1.2347 1.2381-1.2347zm-1.2381 10.8978v-12.1326h2.47621v12.1326l-1.23811 1.2348zm2.47621 0c0 .6824-.55417 1.2348-1.23811 1.2348-.68393 0-1.2381-.5533-1.2381-1.2348zm52.49432 1.2348h-53.73243v-2.4696h53.73243l1.2381 1.2348zm0-2.4696c.6839 0 1.2381.5533 1.2381 1.2348 0 .6824-.5542 1.2348-1.2381 1.2348z" /><path d="m44.5881 13.3673c0-.6824.5542-1.2347 1.2381-1.2347s1.2381.5532 1.2381 1.2347zm0 10.7095v-10.7095h2.4762v10.7095zm2.4762 0c0 .6824-.5542 1.2348-1.2381 1.2348s-1.2381-.5533-1.2381-1.2348z" /><path d="m50.9444 13.3673c0-.6824.5542-1.2347 1.2381-1.2347.684 0 1.2382.5532 1.2382 1.2347zm0 10.7095v-10.7095h2.4763v10.7095zm2.4763 0c0 .6824-.5542 1.2348-1.2382 1.2348-.6839 0-1.2381-.5533-1.2381-1.2348z" /><path d="m16.6406 13.3673h-2.4762c0-.6824.5541-1.2347 1.2381-1.2347.6839 0 1.2381.5532 1.2381 1.2347zm0 10.7095h-2.4762v-10.7095h2.4762zm-2.4762 0h2.4762c0 .6824-.5542 1.2348-1.2381 1.2348-.684 0-1.2381-.5533-1.2381-1.2348z" /><path d="m10.2833 13.3673h-2.47617c0-.6824.55417-1.2347 1.23811-1.2347.68393 0 1.23806.5532 1.23806 1.2347zm0 10.7095h-2.47617v-10.7095h2.47617zm-2.47617 0h2.47617c0 .6824-.55413 1.2348-1.23806 1.2348-.68394 0-1.23811-.5533-1.23811-1.2348z" /><path d="m62 13.3673-1.2381 1.2348-1.2381-1.2348v-12.13252h2.4762zm-2.4762 0h2.4762c0 .6824-.5542 1.2348-1.2381 1.2348s-1.2381-.5533-1.2381-1.2348zm-52.49434 1.2348-1.23811-1.2348 1.23811-1.2347h53.73244v2.4695zm0-2.4695v2.4695c-.68393 0-1.23811-.5533-1.23811-1.2348 0-.6824.55418-1.2347 1.23811-1.2347zm-1.23811-10.89782 1.23811-1.23478 1.23811 1.23478v12.13252h-2.47622zm2.47622 0h-2.47622c0-.682403.55418-1.23478 1.23811-1.23478s1.23811.553273 1.23811 1.23478zm52.49433-1.23478 1.2381 1.23478-1.2381 1.23477h-53.73244v-2.46955zm0 2.46955v-2.46955c.6839 0 1.2381.553273 1.2381 1.23478 0 .6824-.5542 1.23477-1.2381 1.23477z" /><path d="m47.869 13.3673h2.4762c0 .6824-.5542 1.2348-1.2381 1.2348s-1.2381-.5532-1.2381-1.2348zm0-10.70943h2.4762v10.70943h-2.4762zm2.4762 0h-2.4762c0-.6824.5542-1.23477 1.2381-1.23477s1.2381.55327 1.2381 1.23477z" /><path d="m54.2253 13.3673h2.4762c0 .6824-.5541 1.2348-1.2381 1.2348-.6839 0-1.2381-.5532-1.2381-1.2348zm0-10.70943h2.4762v10.70943h-2.4762zm2.4762 0h-2.4762c0-.6824.5542-1.23477 1.2381-1.23477.684 0 1.2381.55327 1.2381 1.23477z" /><path d="m19.9215 13.3673c0 .6824-.5542 1.2348-1.2381 1.2348-.684 0-1.2381-.5532-1.2381-1.2348zm0-10.70943v10.70943h-2.4762v-10.70943zm-2.4762 0c0-.6824.5541-1.23477 1.2381-1.23477.6839 0 1.2381.55327 1.2381 1.23477z" /><path d="m13.5642 13.3673c0 .6824-.5541 1.2348-1.2381 1.2348-.6839 0-1.2381-.5532-1.2381-1.2348zm0-10.70943v10.70943h-2.4762v-10.70943zm-2.4762 0c0-.6824.5542-1.23477 1.2381-1.23477.684 0 1.2381.55327 1.2381 1.23477z" /></g></symbol><symbol fill="none" viewBox="0 0 75 36" id="services_04"><path d="m74.9934 1.79868-.0046 32.54902c0 .9089-.7425 1.6459-1.6582 1.6459v.0066h-71.66578c-.91938 0-1.66482-.7399-1.66482-1.6525 0-.0494.0024848-.0979.00662614-.146l.00372716-32.54895c0-.908879.7425417-1.64592873 1.6581867-1.64592873v-.00657713h12.24306 11.7899 11.7979 11.7986 11.7942 12.243c.9194 0 1.6648.73992786 1.6648 1.65250586 0 .04933-.0025.09783-.0066.14593zm-12.2364 1.50616v6.33173c0 .91253-.7455 1.65253-1.6648 1.65253-.9194 0-1.6649-.74-1.6649-1.65253v-6.33173h-8.4649v11.47056c0 .9125-.7454 1.6525-1.6648 1.6525-.9193 0-1.6648-.74-1.6648-1.6525v-11.47056h-8.4694v6.33173c0 .91253-.7455 1.65253-1.6648 1.65253-.9194 0-1.6649-.74-1.6649-1.65253v-6.33173h-8.4686v11.47056c0 .9125-.7454 1.6525-1.6648 1.6525s-1.6648-.74-1.6648-1.6525v-11.47056h-8.4608v6.33173c0 .91253-.7454 1.65253-1.6648 1.65253s-1.6648-.74-1.6648-1.65253v-6.33173h-8.92044l-.00331 29.39076h68.34985l.0041-29.39076h-8.92z" fill="currentColor" /></symbol><symbol fill="none" viewBox="0 0 53 51" id="services_05"><g clip-path="url(#services_05_a)" fill="currentColor"><path d="m51.072-.00024414h-49.98879c-.598215 0-1.08308793.45477614-1.08308793 1.01584414v41.1538c0 4.8691 4.22356793 8.8301 9.41466793 8.8301 3.61051 0 6.75261-1.9167 8.33161-4.722 1.5789 2.8053 4.7207 4.722 8.3316 4.722 3.6105 0 6.7526-1.9167 8.3315-4.722 1.579 2.8053 4.7207 4.722 8.3316 4.722 5.1914 0 9.4147-3.9613 9.4147-8.8301v-41.1538c0-.561068-.4849-1.01584414-1.0831-1.01584414zm-34.409 42.16994414c0 3.7484-3.2516 6.7981-7.24821 6.7981-3.99659 0-7.24814-3.0497-7.24814-6.7981v-8.0312c1.72833 1.9543 4.33594 3.2012 7.24814 3.2012 2.91251 0 5.52011-1.2469 7.24821-3.2012zm0-13.718v.0577c0 3.7484-3.2516 6.798-7.24821 6.798-3.99659 0-7.24814-3.0496-7.24814-6.798v-8.147c1.72833 1.9544 4.33594 3.2013 7.24814 3.2013 2.91251 0 5.52011-1.2469 7.24821-3.2013zm0-13.718c0 3.7484-3.2516 6.798-7.24821 6.798-3.99659 0-7.24814-3.0496-7.24814-6.798v-12.70196h14.49665v12.70196zm16.6628 27.436c0 3.7484-3.2516 6.7981-7.2482 6.7981s-7.2481-3.0497-7.2481-6.7981v-8.0312c1.7283 1.9543 4.3359 3.2012 7.2481 3.2012 2.9126 0 5.5202-1.2469 7.2482-3.2012zm0-13.718v.0577c0 3.7484-3.2516 6.798-7.2482 6.798s-7.2481-3.0496-7.2481-6.798v-8.147c1.7283 1.9544 4.3359 3.2013 7.2481 3.2013 2.9126 0 5.5202-1.2469 7.2482-3.2013zm0-13.718c0 3.7484-3.2516 6.798-7.2482 6.798s-7.2481-3.0496-7.2481-6.798v-12.70196h14.4966v12.70196zm16.6628 27.436c0 3.7484-3.2515 6.7981-7.2481 6.7981s-7.2482-3.0497-7.2482-6.7981v-8.0312c1.7283 1.9543 4.336 3.2012 7.2482 3.2012 2.9125 0 5.5201-1.2469 7.2481-3.2012zm0-13.718v.0577c0 3.7484-3.2515 6.798-7.2481 6.798s-7.2482-3.0496-7.2482-6.798v-8.147c1.7283 1.9544 4.336 3.2013 7.2482 3.2013 2.9125 0 5.5201-1.2469 7.2481-3.2013zm0-13.718c0 3.7484-3.2515 6.798-7.2481 6.798s-7.2482-3.0496-7.2482-6.798v-12.70196h14.4967v12.70196z" /><path d="m47.9582 3.15454c-.5982 0-1.0831.45476-1.0831 1.01583v4.67335c0 .56106.4849 1.01583 1.0831 1.01583s1.0831-.45477 1.0831-1.01583v-4.67335c0-.56107-.4849-1.01583-1.0831-1.01583zm0 7.72116c-.5982 0-1.0831.4548-1.0831 1.0158v1.0159c0 .561.4849 1.0158 1.0831 1.0158s1.0831-.4548 1.0831-1.0158v-1.0159c0-.5607-.4849-1.0158-1.0831-1.0158z" /></g></symbol><clipPath id="services_05_a"><path d="m0 0h52.155v51h-52.155z" /></clipPath><symbol fill="none" viewBox="0 0 93 71" id="services_06"><path d="m26.9682 19.5074c.0842-.53.5121-.9499 1.0537-1.0173l2.944-.4557c.2094-.7952.6024-1.5367 1.1495-2.1213.7454-.7966 1.7596-1.3096 2.9767-1.3096h3.1414l2.9721-1.3748c.1661-.0766.3409-.1124.5126-.1124v-.0023h3.0977c.057-.1157.1256-.2313.2079-.3451.4142-.575 1.1136-1.0448 2.2943-1.0448h40.3037c.1187 0 .0368.0004 0 .0018v.0018l.0976.0019c2.1203.0248 3.4488.8397 4.2591 1.9511.7808 1.071 1.0215 2.3755 1.0215 3.4833 0 .1431-.0005.0463-.0018 0h-.0024l-.0013.077h.0046v10.1989c.0004-.0234.0004-.0234.0004.0615 0 1.1077-.2411 2.4127-1.0215 3.4832-.8103 1.1114-2.1387 1.9264-4.2591 1.9511l-.0975.0019v.0018c.0368.0009.1187.0019 0 .0019-.035 0-.0695-.0014-.1036-.0042l-8.6995.0344c-1.3961.4676-1.0505 2.6798-.6097 4.407.1427.5585.2724.9967.3833 1.372l3.4539 11.7324c.0345.1166.0437.1468.0451.15-.0005-.0032-.0083-.0302.0004 0 .1302.4557.266.9297 1.5659 1.2752.023.006.0456.0129.0681.0202l.3069.0776c1.7302.4345 4.2863 1.0765 4.2863 6.4994v5.9947c0 1.9915-.4965 3.4071-1.5825 4.3744-1.0505.9361-2.5533 1.3399-4.6028 1.3399h-21.5297c-1.2516 0-2.5746-.6388-3.5749-1.529-1.057-.9407-1.8042-2.2145-1.8042-3.3897v-7.809c0-.0477.0027-.0945.0082-.1404.0691-2.042.7869-3.5594 1.8761-4.6456 1.2939-1.2903 3.0866-1.9249 4.9129-2.0878.0612-.0055.122-.006.1818-.0023v-.0023c1.3772.0908 2.401-.0349 3.1018-.346.3589-.1592.624-.3708.7997-.6282.1745-.2556.2725-.58.2978-.965.0561-.8457-.2126-1.9199-.7708-3.1717l-.0041-.0096-.0005.0004-.814-1.8754h-2.0936c-.7528 0-1.4362-.3061-1.9308-.7993-.4947-.4933-.8016-1.1747-.8016-1.9254v-5.45c0-.1005.0124-.1983.0355-.2919l-5.5213-5.372h-7.1829c-1.1812 0-1.8802-.4698-2.2943-1.0448-.0824-.1138-.1505-.2299-.208-.3451h-3.0977c-.213 0-.4136-.0541-.5885-.1496l-2.7323-1.2641c-.1174-.0097-.2301-.0358-.3355-.0758h-2.9693c-1.2171 0-2.2313-.5134-2.9767-1.3096-.5471-.5846-.9401-1.3261-1.1494-2.1213l-2.9781-.4607c-.5499-.0849-.9571-.5231-1.0247-1.0472h-10.2005v47.8243c0 .6754-.549 1.2229-1.2263 1.2229h-14.31101c-.677337 0-1.22629-.5475-1.22629-1.2229v-68.55414c0-.675455.548953-1.22288617 1.22629-1.22288617h14.31101c.6773 0 1.2263.54743117 1.2263 1.22288617v18.28414h10.2051zm7.0287 15.8246c-.479-.4777-.479-1.2518 0-1.7291.479-.4776 1.2553-.4776 1.7339 0l.4693.4681c.479.4777.479 1.2518 0 1.729-.479.4777-1.2553.4777-1.7338 0zm-1.0868 10.5952c-.3493-.5749-.1648-1.3238.4118-1.6721s1.3275-.1642 1.6768.4107l.536.882c.3493.5749.1648 1.3238-.4118 1.6721s-1.3275.1643-1.6768-.4107zm-10.0841-3.134c-.185-.6489.1923-1.3248.843-1.5097.6506-.1845 1.3284.1918 1.5138.8406l.197.6847c.185.6488-.1924 1.3247-.843 1.5097-.6507.1844-1.3284-.1919-1.5139-.8407zm24.1677-28.4563v12.8221c0 .0533.0019.1294.0129.1446.0092.0124.0856.0229.3115.0229h7.6771v.0037c.3074 0 .6148.1147.8527.3451l7.9826 7.7663-.0014.0014c.1113.1078.2038.2391.2696.3905l3.7704 8.6878h-.0004c.7178 1.6129 1.0588 3.0666.9773 4.2991-.0547.8255-.2908 1.5597-.7192 2.1879-.427.6259-1.0353 1.1242-1.8341 1.4785-1.0482.4648-2.4277.6667-4.162.5607-1.2558.128-2.4567.552-3.2878 1.3803-.6741.6722-1.12 1.6437-1.1673 2.9868.0013.0234.0018.0463.0018.0702v7.809c0 .4561.4063 1.054.9806 1.5652.594.5286 1.322.9077 1.9464.9077h21.5297c1.4407 0 2.4181-.2139 2.9744-.7094.5209-.464.7588-1.2941.7588-2.5596v-5.9947c0-3.52-1.4481-3.8839-2.4277-4.1298-.1017-.0257-.1979-.0496-.3718-.0991l-.0318-.0078c-2.6532-.7058-2.9831-1.8584-3.2997-2.9662-.0442-.1551.0138.0377-.0359-.1307l-3.4538-11.7324c-.1339-.4524-.2904-.9806-.4119-1.4583-.7196-2.8197-1.114-6.4957 2.4922-7.4107l.0009.0037c.0948-.0239.1937-.0368.2959-.0372l8.8863-.0349c.0373-.0032.075-.005.1132-.005.179 0 .035.0032 0 .0046l.0686-.0005c1.2065-.0142 1.9123-.4098 2.3048-.948.422-.5787.5522-1.3624.5522-2.0503.0041-3.4199-.0005-6.8403-.0005-10.2607h.001l-.0005-.0771c0-.6879-.1302-1.4716-.5522-2.0502-.3925-.5383-1.0983-.9338-2.3048-.9481l-.0686-.0009c.035.0018.179.0051 0 .0051h-40.3037c-.2259 0-.3023.0101-.3115.0229-.011.0151-.0129.0913-.0129.1445zm-2.4525 11.5993v-10.3764h-2.5585l-2.2579 1.0448v8.2872l2.2579 1.0448h2.5585zm-7.2694-1.4895v-7.3975h-2.1797c-.4813 0-.8858.2065-1.1854.5264-.3846.4111-.6189.9971-.6598 1.6088h-.0028c-.0368.557-.456 1.0338-1.0321 1.1228l-2.7802.4304-.0004.0211 2.6983.4176c.5926.05 1.0758.5254 1.1167 1.1353.041.6116.2752 1.1976.6599 1.6087.2995.3199.7035.5264 1.1853.5264h2.1797zm-11.7273 2.4233c-.479-.4777-.479-1.2518 0-1.7291.479-.4776 1.2553-.4776 1.7338 0l6.5815 6.5632c.479.4777.479 1.2518 0 1.7291-.479.4776-1.2553.4776-1.7338 0zm-2.9454 2.3182c-.3492-.575-.1647-1.3239.4119-1.6722.5765-.3482 1.3275-.1642 1.6767.4107l8.3572 13.7514c.3492.575.1647 1.3239-.4118 1.6721-.5766.3483-1.3276.1643-1.6768-.4106zm-3.5293 1.4229c-.185-.6488.1923-1.3247.843-1.5097.6506-.1844 1.3284.1918 1.5139.8407l2.4548 8.5423c.185.6488-.1923 1.3248-.8429 1.5097-.6507.1844-1.3285-.1918-1.5139-.8407zm-4.7593-28.16445h-11.85838v66.10835h11.85838zm49.4408 38.71845-1.3123-3.0239v2.7445c0 .0752.0317.145.0833.1959.051.0509.121.083.1964.083h1.0326zm23.8701-29.4397c-.0166.0005-.024.001 0 .0019zm0 2.4394c-.0106-.0005-.0088 0 0 0zm2.9306 2.9987-.0027.0771h.0018l.0005-.0771zm2.4457 0c-.0005-.022-.0014-.033-.0023 0zm-2.4461 0c0-.0101.0004-.0128 0 0zm2.4466 10.2952-.0019.0422h.0014l.0009-.0422zm-.0019.0422-.0005.0101c.0005.0197.0014.0092.0019-.0101zm-5.3749 5.4362c-.024.0009-.0166.0014 0 .0019z" fill="currentColor" /></symbol></defs><use id="services_01-usage" xlink:href="#services_01" class="sprite-symbol-usage" /><use id="services_02-usage" xlink:href="#services_02" class="sprite-symbol-usage" /><use id="services_03-usage" xlink:href="#services_03" class="sprite-symbol-usage" /><use id="services_04-usage" xlink:href="#services_04" class="sprite-symbol-usage" /><use id="services_05-usage" xlink:href="#services_05" class="sprite-symbol-usage" /><use id="services_06-usage" xlink:href="#services_06" class="sprite-symbol-usage" /></svg>