<svg xmlns="http://www.w3.org/2000/svg" xmlns:xlink="http://www.w3.org/1999/xlink"><defs><style>
    .sprite-symbol-usage {display: none;}
    .sprite-symbol-usage:target {display: inline;}
  </style><symbol viewBox="0 0 476.213 476.213" id="arrow-right">
<polygon points="345.606,107.5 324.394,128.713 418.787,223.107 0,223.107 0,253.107 418.787,253.107 324.394,347.5
	345.606,368.713 476.213,238.106 " fill="currentColor" />
<g>
</g>
<g>
</g>
<g>
</g>
<g>
</g>
<g>
</g>
<g>
</g>
<g>
</g>
<g>
</g>
<g>
</g>
<g>
</g>
<g>
</g>
<g>
</g>
<g>
</g>
<g>
</g>
<g>
</g>
</symbol><symbol viewBox="0 0 509.275 509.275" id="cart">
    <g fill="currentColor">
        <path d="m479.637 314.485v-182.744l-360-65v-22.466c0-24.413-19.861-44.275-44.274-44.275h-45.726v30h45.725c7.871 0 14.275 6.404 14.275 14.275v277.005c0 31.979 26.016 57.995 57.995 57.995h12.005v34.187c-6.129-2.686-12.891-4.187-20-4.187-27.57 0-50 22.43-50 50s22.43 50 50 50c25.883 0 47.233-19.769 49.749-45h.251v-85h260v34.187c-6.129-2.686-12.891-4.187-20-4.187-27.57 0-50 22.43-50 50s22.43 50 50 50c25.883 0 47.233-19.769 49.749-45h.251v-115h-332.005c-15.437 0-27.995-12.558-27.995-27.995v-11.796zm-340 164.79c-11.028 0-20-8.972-20-20s8.972-20 20-20 20 8.972 20 20-8.972 20-20 20zm290 0c-11.028 0-20-8.972-20-20s8.972-20 20-20 20 8.972 20 20-8.972 20-20 20zm-160-197.71-60-.833v-167.256l60 10.833zm30-151.839 55 9.931v143.089l-55-.764zm-120 150.589-60-.833v-182.256l60 10.833zm270 3.75-65-.903v-138.089l65 11.736z" />
    </g>
</symbol><symbol viewBox="0 0 451.847 451.847" id="chevrone-down">
<g fill="currentColor">
	<path d="M225.923,354.706c-8.098,0-16.195-3.092-22.369-9.263L9.27,151.157c-12.359-12.359-12.359-32.397,0-44.751
		c12.354-12.354,32.388-12.354,44.748,0l171.905,171.915l171.906-171.909c12.359-12.354,32.391-12.354,44.744,0
		c12.365,12.354,12.365,32.392,0,44.751L248.292,345.449C242.115,351.621,234.018,354.706,225.923,354.706z" />
</g>
<g>
</g>
<g>
</g>
<g>
</g>
<g>
</g>
<g>
</g>
<g>
</g>
<g>
</g>
<g>
</g>
<g>
</g>
<g>
</g>
<g>
</g>
<g>
</g>
<g>
</g>
<g>
</g>
<g>
</g>
</symbol><symbol viewBox="0 0 341.751 341.751" id="close">
<g>
	<g fill="currentColor">

			<rect x="-49.415" y="149.542" transform="matrix(0.7072 -0.707 0.707 0.7072 -70.7868 170.8326)" width="440.528" height="42.667" />
			<rect x="149.569" y="-49.388" transform="matrix(0.707 -0.7072 0.7072 0.707 -70.7712 170.919)" width="42.667" height="440.528" />
	</g>
</g>
<g>
	<g>

	</g>
</g>
<g>
</g>
<g>
</g>
<g>
</g>
<g>
</g>
<g>
</g>
<g>
</g>
<g>
</g>
<g>
</g>
<g>
</g>
<g>
</g>
<g>
</g>
<g>
</g>
<g>
</g>
<g>
</g>
<g>
</g>
</symbol><symbol viewBox="0 0 155.139 155.139" id="fb">
<g>
	<path id="fb_f_1_" fill="currentColor" d="M89.584,155.139V84.378h23.742l3.562-27.585H89.584V39.184
		c0-7.984,2.208-13.425,13.67-13.425l14.595-0.006V1.08C115.325,0.752,106.661,0,96.577,0C75.52,0,61.104,12.853,61.104,36.452
		v20.341H37.29v27.585h23.814v70.761H89.584z" />
</g>
<g>
</g>
<g>
</g>
<g>
</g>
<g>
</g>
<g>
</g>
<g>
</g>
<g>
</g>
<g>
</g>
<g>
</g>
<g>
</g>
<g>
</g>
<g>
</g>
<g>
</g>
<g>
</g>
<g>
</g>
</symbol><symbol viewBox="0 0 512 512" fill="currentColor" id="file"><path d="M316.814 0H113.056c-33.084 0-60 26.916-60 60v392c0 33.084 26.916 60 60 60h285.889c33.084 0 60-26.916 60-60V142.856L316.814 0zm11.129 67.9l62.89 63.211h-42.89c-11.028 0-20-8.972-20-20V67.9zM418.945 452c-.001 11.028-8.973 20-20.001 20H113.056c-11.028 0-20-8.972-20-20V60c0-11.028 8.972-20 20-20h174.889v71.111c0 33.084 26.916 60 60 60h71V452z" /></symbol><symbol viewBox="0 0 512 512" fill="currentColor" id="filter"><path d="M207 200c0-11.046-8.954-20-20-20h-80c-11.046 0-20 8.954-20 20v35.878H0v40h87V310c0 11.046 8.954 20 20 20h80c11.046 0 20-8.954 20-20v-34.122h305v-40H207V200zm-40 90h-40v-70h40v70zm264 92c0-11.046-8.954-20-20-20h-80c-11.046 0-20 8.954-20 20v35H0v40h311v35c0 11.046 8.954 20 20 20h80c11.046 0 20-8.954 20-20v-35h81v-40h-81v-35zm-40 90h-40v-70h40v70zm42-416V20c0-11.046-8.954-20-20-20h-80c-11.046 0-20 8.954-20 20v36H0v40h313v34c0 11.046 8.954 20 20 20h80c11.046 0 20-8.954 20-20V96h79V56h-79zm-40 54h-40V40h40v70z" /></symbol><symbol viewBox="0 0 512 512" id="g+">
<g>
	<g fill="currentColor">
		<polygon points="448,224 448,160 416,160 416,224 352,224 352,256 416,256 416,320 448,320 448,256 512,256 512,224 		" />
		<path d="M160,224v64h90.528c-13.216,37.248-48.8,64-90.528,64c-52.928,0-96-43.072-96-96c0-52.928,43.072-96,96-96
			c22.944,0,45.024,8.224,62.176,23.168l42.048-48.256C235.424,109.824,198.432,96,160,96C71.776,96,0,167.776,0,256
			s71.776,160,160,160s160-71.776,160-160v-32H160z" />
	</g>
</g>
<g>
	<g>
	</g>
</g>
<g>
</g>
<g>
</g>
<g>
</g>
<g>
</g>
<g>
</g>
<g>
</g>
<g>
</g>
<g>
</g>
<g>
</g>
<g>
</g>
<g>
</g>
<g>
</g>
<g>
</g>
<g>
</g>
<g>
</g>
</symbol><symbol viewBox="0 0 512 512" id="geo">
<g>
	<g fill="currentColor">
		<path d="M256,0C148.477,0,61,87.477,61,195c0,69.412,21.115,97.248,122.581,231.01C201.194,449.229,221.158,475.546,244,506
			c2.833,3.777,7.279,6,12.001,6c4.722,0,9.167-2.224,12-6.002c22.708-30.29,42.585-56.507,60.123-79.638
			C429.834,292.209,451,264.292,451,195C451,87.477,363.523,0,256,0z M304.219,408.235c-14.404,18.998-30.383,40.074-48.222,63.789
			c-17.961-23.867-34.031-45.052-48.515-64.146C108.784,277.766,91,254.321,91,195c0-90.981,74.019-165,165-165s165,74.019,165,165
			C421,254.205,403.17,277.722,304.219,408.235z" />
		<path d="M256,90c-57.897,0-105,47.103-105,105c0,57.897,47.103,105,105,105c57.897,0,105-47.103,105-105
			C361,137.103,313.897,90,256,90z M256,270c-41.355,0-75-33.645-75-75s33.645-75,75-75c41.355,0,75,33.645,75,75
			S297.355,270,256,270z" />
	</g>
</g>
<g>
	<g>
	</g>
</g>
<g>
</g>
<g>
</g>
<g>
</g>
<g>
</g>
<g>
</g>
<g>
</g>
<g>
</g>
<g>
</g>
<g>
</g>
<g>
</g>
<g>
</g>
<g>
</g>
<g>
</g>
<g>
</g>
<g>
</g>
</symbol><symbol viewBox="0 0 341.333 341.333" id="hamburger">
<g>
	<g fill="currentColor">
		<rect y="277.333" width="341.333" height="42.667" />
		<rect y="149.333" width="341.333" height="42.667" />
		<rect y="21.333" width="341.333" height="42.667" />
	</g>
</g>
<g>
	<g>
	</g>
</g>
<g>
	<g>
	</g>
</g>
<g>
</g>
<g>
</g>
<g>
</g>
<g>
</g>
<g>
</g>
<g>
</g>
<g>
</g>
<g>
</g>
<g>
</g>
<g>
</g>
<g>
</g>
<g>
</g>
<g>
</g>
<g>
</g>
<g>
</g>
</symbol><symbol viewBox="0 0 512 512" fill="currentColor" id="note"><path d="M256 0C114.497 0 0 114.507 0 256c0 141.503 114.507 256 256 256 141.503 0 256-114.507 256-256C512 114.497 397.493 0 256 0zm0 472c-119.393 0-216-96.615-216-216 0-119.393 96.615-216 216-216 119.393 0 216 96.615 216 216 0 119.393-96.615 216-216 216z" /><path d="M256 128.877c-11.046 0-20 8.954-20 20V277.67c0 11.046 8.954 20 20 20s20-8.954 20-20V148.877c0-11.046-8.954-20-20-20z" /><circle cx="256" cy="349.16" r="27" /></symbol><symbol viewBox="0 0 512 512" id="phone">
<g>
	<g fill="currentColor">
		<path d="M302.933,42.667h-51.2c-7.074,0-12.8,5.726-12.8,12.8s5.726,12.8,12.8,12.8h51.2c7.074,0,12.8-5.726,12.8-12.8
			S310.007,42.667,302.933,42.667z" />
		<path d="M358.4,0H153.6c-28.228,0-51.2,22.972-51.2,51.2v409.6c0,28.228,22.972,51.2,51.2,51.2h204.8
			c28.228,0,51.2-22.972,51.2-51.2V51.2C409.6,22.972,386.628,0,358.4,0z M384,460.8c0,14.14-11.46,25.6-25.6,25.6H153.6
			c-14.14,0-25.6-11.46-25.6-25.6V51.2c0-14.14,11.46-25.6,25.6-25.6h204.8c14.14,0,25.6,11.46,25.6,25.6V460.8z" />
		<circle cx="256" cy="443.733" r="25.6" />
		<circle cx="209.067" cy="55.467" r="12.8" />
	</g>
</g>
<g>
	<g>
	</g>
</g>
<g>
	<g>
	</g>
</g>
<g>
	<g>
	</g>
</g>
<g>
</g>
<g>
</g>
<g>
</g>
<g>
</g>
<g>
</g>
<g>
</g>
<g>
</g>
<g>
</g>
<g>
</g>
<g>
</g>
<g>
</g>
<g>
</g>
<g>
</g>
<g>
</g>
<g>
</g>
</symbol><symbol viewBox="0 0 24 24" id="phone2">
    <g>
        <path d="m17.25 0h-1.25-8-1.25c-1.517 0-2.75 1.233-2.75 2.75v18.5c0 1.517 1.233 2.75 2.75 2.75h10.5c1.517 0 2.75-1.233 2.75-2.75v-18.5c0-1.517-1.233-2.75-2.75-2.75zm.75 21c0 .552-.448 1-1 1h-10c-.552 0-1-.448-1-1v-18c0-.552.448-1 1-1h.5c.552 0 1 .448 1 1s.448 1 1 1h5c.552 0 1-.448 1-1s.448-1 1-1h.5c.552 0 1 .448 1 1z" fill="currentColor" />
    </g>
</symbol><symbol viewBox="0 0 512 512" id="pin">
<g>
	<g>
		<path d="M256,0C150.125,0,64,86.135,64,192c0,141.646,177.146,310,184.688,317.104C250.75,511.031,253.375,512,256,512
			s5.25-0.969,7.313-2.896C270.854,502,448,333.646,448,192C448,86.135,361.875,0,256,0z M256,298.667
			c-58.813,0-106.667-47.854-106.667-106.667S197.188,85.333,256,85.333S362.667,133.188,362.667,192S314.813,298.667,256,298.667z" fill="currentColor" />
	</g>
</g>
<g>
</g>
<g>
</g>
<g>
</g>
<g>
</g>
<g>
</g>
<g>
</g>
<g>
</g>
<g>
</g>
<g>
</g>
<g>
</g>
<g>
</g>
<g>
</g>
<g>
</g>
<g>
</g>
<g>
</g>
</symbol><symbol viewBox="0 0 515.558 515.558" id="search">
    <path d="m378.344 332.78c25.37-34.645 40.545-77.2 40.545-123.333 0-115.484-93.961-209.445-209.445-209.445s-209.444 93.961-209.444 209.445 93.961 209.445 209.445 209.445c46.133 0 88.692-15.177 123.337-40.547l137.212 137.212 45.564-45.564c0-.001-137.214-137.213-137.214-137.213zm-168.899 21.667c-79.958 0-145-65.042-145-145s65.042-145 145-145 145 65.042 145 145-65.043 145-145 145z" fill="currentColor" />
</symbol><symbol viewBox="0 0 512 512" id="twitter">
<g>
	<g>
		<path d="M512,97.248c-19.04,8.352-39.328,13.888-60.48,16.576c21.76-12.992,38.368-33.408,46.176-58.016
			c-20.288,12.096-42.688,20.64-66.56,25.408C411.872,60.704,384.416,48,354.464,48c-58.112,0-104.896,47.168-104.896,104.992
			c0,8.32,0.704,16.32,2.432,23.936c-87.264-4.256-164.48-46.08-216.352-109.792c-9.056,15.712-14.368,33.696-14.368,53.056
			c0,36.352,18.72,68.576,46.624,87.232c-16.864-0.32-33.408-5.216-47.424-12.928c0,0.32,0,0.736,0,1.152
			c0,51.008,36.384,93.376,84.096,103.136c-8.544,2.336-17.856,3.456-27.52,3.456c-6.72,0-13.504-0.384-19.872-1.792
			c13.6,41.568,52.192,72.128,98.08,73.12c-35.712,27.936-81.056,44.768-130.144,44.768c-8.608,0-16.864-0.384-25.12-1.44
			C46.496,446.88,101.6,464,161.024,464c193.152,0,298.752-160,298.752-298.688c0-4.64-0.16-9.12-0.384-13.568
			C480.224,136.96,497.728,118.496,512,97.248z" fill="currentColor" />
	</g>
</g>
<g>
</g>
<g>
</g>
<g>
</g>
<g>
</g>
<g>
</g>
<g>
</g>
<g>
</g>
<g>
</g>
<g>
</g>
<g>
</g>
<g>
</g>
<g>
</g>
<g>
</g>
<g>
</g>
<g>
</g>
</symbol><symbol viewBox="0 0 511.962 511.962" id="vk">
<g>
	<g>
		<path d="M507.399,370.471c-1.376-2.304-9.888-20.8-50.848-58.816c-42.88-39.808-37.12-33.344,14.528-102.176
			c31.456-41.92,44.032-67.52,40.096-78.464c-3.744-10.432-26.88-7.68-26.88-7.68l-76.928,0.448c0,0-5.696-0.768-9.952,1.76
			c-4.128,2.496-6.784,8.256-6.784,8.256s-12.192,32.448-28.448,60.032c-34.272,58.208-48,61.28-53.6,57.664
			c-13.024-8.416-9.76-33.856-9.76-51.904c0-56.416,8.544-79.936-16.672-86.016c-8.384-2.016-14.528-3.36-35.936-3.584
			c-27.456-0.288-50.72,0.096-63.872,6.528c-8.768,4.288-15.52,13.856-11.392,14.4c5.088,0.672,16.608,3.104,22.72,11.424
			c7.904,10.72,7.616,34.848,7.616,34.848s4.544,66.4-10.592,74.656c-10.4,5.664-24.64-5.888-55.2-58.72
			c-15.648-27.04-27.488-56.96-27.488-56.96s-2.272-5.568-6.336-8.544c-4.928-3.616-11.84-4.768-11.84-4.768l-73.152,0.448
			c0,0-10.976,0.32-15.008,5.088c-3.584,4.256-0.288,13.024-0.288,13.024s57.28,133.984,122.112,201.536
			c59.488,61.92,127.008,57.856,127.008,57.856h30.592c0,0,9.248-1.024,13.952-6.112c4.352-4.672,4.192-13.44,4.192-13.44
			s-0.608-41.056,18.464-47.104c18.784-5.952,42.912,39.68,68.48,57.248c19.328,13.28,34.016,10.368,34.016,10.368l68.384-0.96
			C488.583,400.807,524.359,398.599,507.399,370.471z" fill="currentColor" />
	</g>
</g>
<g>
</g>
<g>
</g>
<g>
</g>
<g>
</g>
<g>
</g>
<g>
</g>
<g>
</g>
<g>
</g>
<g>
</g>
<g>
</g>
<g>
</g>
<g>
</g>
<g>
</g>
<g>
</g>
<g>
</g>
</symbol><symbol viewBox="0 0 750 131" id="wavyline"><path d="M46.3 47.5C21.4 73 1 94.3 1 94.8 1 96.2 35 131 36.3 131c.7-.1 13.6-12.9 28.7-28.5l27.5-28.3 28 28.4c15.4 15.7 28.5 28.4 29 28.4.6-.1 13.4-12.9 28.5-28.5l27.5-28.4 27.9 28.5c15.3 15.7 28.4 28.4 29 28.2.6-.2 13.5-13 28.6-28.5l27.5-28.1 28.3 28.6 28.2 28.7 28.2-28.7 28.2-28.6 28.3 28.6 28.3 28.7 28.3-28.7 28.2-28.6 27.5 28.1c15.1 15.5 27.9 28.4 28.5 28.6.5.2 13.6-12.4 29-28.2l28-28.5 27.5 28.3c15.1 15.6 28 28.4 28.6 28.5 1.7 0 35.6-35 35.2-36.5-.3-1.4-89.5-92.8-91.2-93.4-.5-.2-13.5 12.4-28.8 28L601 57.5l-27.9-28.3C557.8 13.7 544.9 1 544.4 1S531 13.7 515.7 29.2L488 57.5l-27.8-28.3C444.9 13.7 432 1 431.5 1c-.6 0-13.5 12.7-28.7 28.2L375 57.5l-27.7-28.3C332 13.7 319.1 1 318.6 1c-.6 0-13.5 12.7-28.8 28.2L262 57.5l-27.7-28.3C219 13.7 206.1 1 205.5 1c-.5 0-13.4 12.8-28.5 28.4l-27.5 28.4-28-28.4C106.1 13.7 93.1 1 92.5 1c-.5.1-21.4 21-46.2 46.5z" fill="currentColor" /></symbol><symbol viewBox="-21 -117 682.667 682" fill="currentColor" id="youtube"><path d="M626.813 64.035c-7.375-27.418-28.993-49.031-56.407-56.414C520.324-6.082 319.992-6.082 319.992-6.082s-200.324 0-250.406 13.184c-26.887 7.375-49.031 29.52-56.406 56.933C0 114.113 0 217.97 0 217.97s0 104.379 13.18 153.933c7.382 27.414 28.992 49.028 56.41 56.41C120.195 442.02 320 442.02 320 442.02s200.324 0 250.406-13.184c27.418-7.379 49.032-28.992 56.414-56.406 13.176-50.082 13.176-153.934 13.176-153.934s.527-104.383-13.183-154.46zM256.21 313.915V122.022l166.586 95.946zm0 0" /></symbol></defs><use id="arrow-right-usage" xlink:href="#arrow-right" class="sprite-symbol-usage" /><use id="cart-usage" xlink:href="#cart" class="sprite-symbol-usage" /><use id="chevrone-down-usage" xlink:href="#chevrone-down" class="sprite-symbol-usage" /><use id="close-usage" xlink:href="#close" class="sprite-symbol-usage" /><use id="fb-usage" xlink:href="#fb" class="sprite-symbol-usage" /><use id="file-usage" xlink:href="#file" class="sprite-symbol-usage" /><use id="filter-usage" xlink:href="#filter" class="sprite-symbol-usage" /><use id="g+-usage" xlink:href="#g+" class="sprite-symbol-usage" /><use id="geo-usage" xlink:href="#geo" class="sprite-symbol-usage" /><use id="hamburger-usage" xlink:href="#hamburger" class="sprite-symbol-usage" /><use id="note-usage" xlink:href="#note" class="sprite-symbol-usage" /><use id="phone-usage" xlink:href="#phone" class="sprite-symbol-usage" /><use id="phone2-usage" xlink:href="#phone2" class="sprite-symbol-usage" /><use id="pin-usage" xlink:href="#pin" class="sprite-symbol-usage" /><use id="search-usage" xlink:href="#search" class="sprite-symbol-usage" /><use id="twitter-usage" xlink:href="#twitter" class="sprite-symbol-usage" /><use id="vk-usage" xlink:href="#vk" class="sprite-symbol-usage" /><use id="wavyline-usage" xlink:href="#wavyline" class="sprite-symbol-usage" /><use id="youtube-usage" xlink:href="#youtube" class="sprite-symbol-usage" /></svg>