<svg xmlns="http://www.w3.org/2000/svg" xmlns:xlink="http://www.w3.org/1999/xlink"><defs><style>
    .sprite-symbol-usage {display: none;}
    .sprite-symbol-usage:target {display: inline;}
  </style><symbol viewBox="0 0 476.213 476.213" id="arrow-right">
<polygon points="345.606,107.5 324.394,128.713 418.787,223.107 0,223.107 0,253.107 418.787,253.107 324.394,347.5
	345.606,368.713 476.213,238.106 " fill="currentColor" />
<g>
</g>
<g>
</g>
<g>
</g>
<g>
</g>
<g>
</g>
<g>
</g>
<g>
</g>
<g>
</g>
<g>
</g>
<g>
</g>
<g>
</g>
<g>
</g>
<g>
</g>
<g>
</g>
<g>
</g>
</symbol><symbol preserveAspectRatio="xMidYMid meet" viewBox="0 0 179 163" id="calculator_01">
    <path d="m1040 1609c-19-12-84-50-145-84-60-34-139-80-175-102s-101-59-145-83c-44-23-100-55-125-70-49-29-113-66-315-182-100-58-131-81-133-98-3-17 15-41 72-99l76-76 2-253 3-254 120-67c66-38 188-107 270-154 83-48 156-87 163-87 11 0 114 58 572 322 91 52 215 124 275 158 61 35 118 70 128 78 14 13 17 34 17 136l1 121 44 27c76 46 76 46-164 293-75 77-193 200-263 273-70 72-132 132-138 132-5 0-16 13-25 29-15 30-51 61-70 61-5 0-26-10-45-21zm137-161c256-265 518-541 517-546-1-7-141-89-634-372-118-68-244-141-280-162l-65-39-70 75c-38 41-163 170-276 288-228 236-269 280-269 288 1 3 65 41 143 86 190 108 676 388 757 436 36 21 70 38 76 38s51-42 101-92zm449-833c-4-10-54-43-141-90-55-30-614-353-677-391-31-19-59-34-62-34-4 0-6 37-4 82l3 81 130 75c72 41 155 90 185 107 204 118 473 273 515 296l50 28 3-71c2-39 1-77-2-83zm-1186-105c8-9 66-68 128-131l112-116v-83c0-71-2-81-16-76-9 3-84 46-168 95-83 48-179 103-213 122l-63 34v191 191l103-106c56-58 109-112 117-121z" transform="matrix(.1 0 0 -.1 0 163)" fill="currentColor" />
</symbol><symbol viewBox="0 0 177.000000 155.000000" preserveAspectRatio="xMidYMid meet" id="calculator_02">
<metadata>
Created by potrace 1.16, written by Peter Selinger 2001-2019
</metadata>
<g transform="translate(0.000000,155.000000) scale(0.100000,-0.100000)" fill="currentColor" stroke="none">
<path d="M1235 1535 l-110 -12 -230 -133 c-127 -73 -336 -193 -465 -268 -375
-216 -419 -242 -425 -252 -4 -6 -3 -20 0 -31 7 -20 12 -21 80 -16 l72 7 7 -38
c3 -20 6 -141 6 -269 l0 -231 88 -50 c48 -27 163 -93 255 -146 93 -54 175 -95
183 -92 8 3 58 31 111 62 54 31 152 88 218 126 66 38 122 74 123 79 2 5 9 9
17 9 11 0 240 128 388 217 l57 34 0 248 0 248 80 47 c64 37 80 51 80 70 0 16
-52 89 -152 214 l-153 191 -60 -1 c-33 0 -110 -6 -170 -13z m35 -68 c0 -2 -62
-39 -137 -82 -76 -43 -163 -93 -193 -111 -30 -17 -181 -105 -335 -194 -249
-145 -287 -163 -340 -170 -33 -4 -61 -7 -62 -6 -1 1 85 51 190 111 106 60 322
185 480 277 197 114 299 168 325 171 67 7 72 7 72 4z m288 -154 c67 -86 121
-157 120 -158 -4 -4 -806 -467 -972 -562 -33 -19 -63 -30 -67 -26 -11 12 -153
189 -201 251 -22 29 -39 55 -36 57 5 5 227 134 568 330 107 62 254 146 325
188 72 42 132 76 135 76 3 0 60 -71 128 -156z m-18 -531 l0 -208 -262 -151
c-145 -83 -329 -189 -410 -236 l-148 -86 0 208 0 207 248 142 c136 78 319 185
407 236 88 52 161 94 163 95 1 1 2 -92 2 -207z m-1120 -62 c38 -47 96 -120
130 -162 39 -51 67 -78 80 -78 19 0 20 -7 20 -186 0 -173 -1 -186 -17 -180
-10 4 -105 57 -210 119 l-193 112 0 247 0 247 43 3 c48 4 41 9 147 -122z" />
</g>
</symbol><symbol viewBox="0 0 177.000000 164.000000" preserveAspectRatio="xMidYMid meet" id="calculator_03">
<metadata>
Created by potrace 1.16, written by Peter Selinger 2001-2019
</metadata>
<g transform="translate(0.000000,164.000000) scale(0.100000,-0.100000)" fill="currentColor" stroke="none">
<path d="M1215 1586 c-49 -29 -288 -169 -530 -310 -413 -241 -665 -392 -680
-408 -17 -16 11 -50 68 -82 34 -20 69 -40 77 -45 12 -8 16 -50 20 -233 l5
-223 170 -98 c296 -170 327 -187 342 -187 7 0 71 33 141 74 264 153 442 256
592 341 85 48 163 95 173 103 15 14 17 39 17 261 l0 246 80 45 c68 39 80 49
80 72 0 15 -8 33 -19 40 -11 8 -61 52 -113 99 -51 47 -110 100 -130 118 -21
18 -62 78 -95 137 -70 126 -70 126 -198 50z m164 -143 c23 -43 55 -81 105
-124 105 -91 189 -170 185 -173 -10 -7 -196 -116 -414 -241 -326 -187 -423
-244 -430 -256 -4 -5 -12 -9 -20 -9 -7 0 -41 -16 -75 -36 -33 -20 -63 -34 -67
-31 -3 3 -21 83 -39 177 -27 139 -40 182 -70 238 -20 37 -41 73 -47 80 -5 7
-8 14 -6 16 2 2 186 109 409 238 l405 236 16 -27 c8 -14 30 -54 48 -88z m-944
-515 l92 -51 29 -149 c17 -82 27 -147 24 -146 -25 11 -460 264 -460 268 0 7
203 130 214 130 5 0 51 -23 101 -52z m1105 -152 l0 -204 -137 -80 c-76 -44
-154 -89 -173 -100 -19 -11 -141 -81 -270 -155 l-235 -136 -3 206 c-2 211 1
233 37 233 9 0 32 10 51 22 19 12 107 63 195 113 326 188 421 243 470 273 28
17 53 31 58 31 4 1 7 -91 7 -203z m-1100 -200 c100 -58 188 -106 196 -106 12
0 14 -32 14 -186 l0 -185 -53 30 c-28 16 -122 70 -207 119 l-155 89 -3 178
c-2 150 0 176 12 172 8 -3 96 -53 196 -111z" />
</g>
</symbol><symbol viewBox="0 0 216.000000 174.000000" preserveAspectRatio="xMidYMid meet" id="calculator_04">
<metadata>
Created by potrace 1.16, written by Peter Selinger 2001-2019
</metadata>
<g transform="translate(0.000000,174.000000) scale(0.100000,-0.100000)" fill="currentColor" stroke="none">
<path d="M1185 1698 c-38 -22 -88 -50 -110 -63 -22 -12 -96 -55 -165 -95 -183
-106 -504 -291 -590 -341 -41 -23 -129 -74 -195 -113 -153 -91 -155 -98 -38
-169 l83 -49 1 -87 c1 -47 2 -151 3 -230 l1 -144 65 -40 c58 -35 320 -187 440
-255 25 -14 78 -45 118 -69 41 -24 84 -43 97 -43 12 0 89 39 171 86 294 170
691 399 798 460 60 35 113 69 117 76 5 7 9 114 8 238 0 123 3 226 8 227 4 2
43 24 86 49 80 47 93 67 60 96 -19 16 -19 16 -263 156 -91 52 -190 109 -220
127 -30 18 -98 57 -150 87 -52 30 -127 74 -166 96 -39 23 -75 42 -80 41 -5 0
-40 -18 -79 -41z m143 -77 c26 -15 68 -39 93 -53 24 -14 71 -41 104 -60 33
-19 133 -77 222 -128 90 -52 162 -95 160 -96 -3 -3 -761 147 -765 151 -3 3
130 215 135 215 1 0 24 -13 51 -29z m-225 -103 c-25 -40 -47 -75 -49 -77 -5
-6 -518 -210 -521 -207 -2 1 36 25 85 52 48 26 186 106 307 176 121 71 221
128 222 128 2 0 -18 -33 -44 -72z m142 -177 c55 -11 251 -50 435 -86 184 -37
336 -67 337 -69 1 -1 -32 -22 -75 -46 -42 -24 -102 -58 -132 -76 -257 -152
-854 -493 -858 -490 -2 3 31 183 74 400 74 370 80 395 99 391 11 -3 65 -13
120 -24z m-294 -390 c-44 -216 -81 -394 -83 -395 -3 -4 -240 130 -333 187 -27
16 -95 56 -150 87 -164 93 -266 153 -263 156 6 5 903 363 905 360 1 -1 -33
-179 -76 -395z m969 -99 l0 -188 -127 -73 c-71 -41 -216 -124 -323 -186 -107
-61 -265 -153 -351 -203 -87 -51 -164 -95 -173 -98 -15 -6 -16 12 -14 181 l3
188 190 110 c105 60 278 160 385 222 107 62 242 140 300 174 58 33 106 61 107
61 2 0 3 -85 3 -188z m-1380 -196 c102 -60 215 -126 253 -148 l67 -40 0 -184
c0 -101 -2 -184 -5 -184 -5 0 -60 31 -410 232 l-200 115 -3 191 -2 191 57 -33
c32 -18 141 -81 243 -140z" />
</g>
</symbol><symbol viewBox="0 0 189.000000 174.000000" preserveAspectRatio="xMidYMid meet" id="calculator_05">
<metadata>
Created by potrace 1.16, written by Peter Selinger 2001-2019
</metadata>
<g transform="translate(0.000000,174.000000) scale(0.100000,-0.100000)" fill="currentColor" stroke="none">
<path d="M1352 1733 c-48 -3 -75 -11 -115 -35 -29 -17 -72 -42 -97 -56 -43
-24 -336 -194 -470 -272 -180 -105 -319 -185 -355 -204 -106 -58 -147 -86
-227 -159 -72 -65 -88 -85 -88 -108 0 -40 33 -38 109 6 32 19 62 35 65 35 3 0
6 -145 6 -323 l0 -323 255 -147 c141 -81 261 -147 268 -147 7 0 17 4 22 9 6 5
116 69 245 143 129 74 266 153 304 176 37 23 70 42 72 42 3 0 59 32 127 72 67
39 147 85 177 103 l55 31 2 109 c1 61 2 160 2 220 l1 110 63 34 c90 50 117 70
117 91 0 10 -36 91 -80 179 -44 89 -80 164 -80 167 0 3 -48 62 -106 130 l-105
124 -52 -2 c-29 -1 -80 -3 -115 -5z m8 -68 c0 -2 -15 -12 -32 -21 -18 -9 -73
-40 -123 -69 -106 -62 -454 -264 -505 -293 -19 -11 -64 -37 -100 -57 -173
-101 -236 -135 -250 -135 -18 0 -3 10 190 120 80 46 186 107 235 136 529 307
585 338 585 319z m202 -90 c34 -42 64 -79 65 -83 2 -4 -46 -34 -105 -68 -59
-33 -210 -121 -337 -194 -343 -198 -485 -280 -535 -308 -25 -13 -50 -29 -56
-33 -7 -6 -30 13 -64 54 -30 34 -62 72 -72 83 -19 21 -19 22 24 46 24 13 120
69 213 123 94 54 229 132 300 173 72 41 189 109 260 150 177 103 229 132 237
132 3 0 35 -34 70 -75z m204 -444 c-73 -42 -229 -132 -296 -171 -104 -61 -442
-256 -480 -278 -89 -50 -158 -90 -190 -110 -19 -12 -38 -22 -43 -22 -4 0 -28
44 -53 98 -26 53 -55 114 -65 134 l-19 36 143 83 c78 45 183 106 232 134 50
29 178 103 285 165 226 130 323 186 365 211 l30 19 66 -137 67 -138 -42 -24z
m-1315 -213 c65 -77 102 -134 148 -225 l61 -123 0 -231 c0 -144 -4 -229 -10
-227 -5 1 -99 55 -209 118 l-201 115 0 338 0 337 63 0 62 0 86 -102z m1189
-121 l0 -174 -146 -84 c-81 -46 -163 -93 -183 -105 -20 -12 -144 -83 -276
-159 -132 -75 -255 -146 -272 -157 l-33 -20 1 179 0 178 57 29 c44 22 534 303
807 462 22 13 41 24 43 24 1 0 2 -78 2 -173z" />
</g>
</symbol><symbol viewBox="0 0 509.275 509.275" id="cart">
    <g fill="currentColor">
        <path d="m479.637 314.485v-182.744l-360-65v-22.466c0-24.413-19.861-44.275-44.274-44.275h-45.726v30h45.725c7.871 0 14.275 6.404 14.275 14.275v277.005c0 31.979 26.016 57.995 57.995 57.995h12.005v34.187c-6.129-2.686-12.891-4.187-20-4.187-27.57 0-50 22.43-50 50s22.43 50 50 50c25.883 0 47.233-19.769 49.749-45h.251v-85h260v34.187c-6.129-2.686-12.891-4.187-20-4.187-27.57 0-50 22.43-50 50s22.43 50 50 50c25.883 0 47.233-19.769 49.749-45h.251v-115h-332.005c-15.437 0-27.995-12.558-27.995-27.995v-11.796zm-340 164.79c-11.028 0-20-8.972-20-20s8.972-20 20-20 20 8.972 20 20-8.972 20-20 20zm290 0c-11.028 0-20-8.972-20-20s8.972-20 20-20 20 8.972 20 20-8.972 20-20 20zm-160-197.71-60-.833v-167.256l60 10.833zm30-151.839 55 9.931v143.089l-55-.764zm-120 150.589-60-.833v-182.256l60 10.833zm270 3.75-65-.903v-138.089l65 11.736z" />
    </g>
</symbol><symbol viewBox="0 0 600.000000 600.000000" preserveAspectRatio="xMidYMid meet" id="category_01">
<metadata>
Created by potrace 1.16, written by Peter Selinger 2001-2019
</metadata>
<g transform="translate(0.000000,600.000000) scale(0.100000,-0.100000)" fill="currentColor" stroke="none">
<path d="M2579 5978 c-11 -13 -595 -907 -1299 -1988 l-1280 -1965 0 -1012 0
-1013 3000 0 3000 0 0 1004 0 1005 -1298 1993 -1298 1993 -403 3 -402 2 -20
-22z m1892 -2103 l1217 -1870 -1343 -3 c-739 -1 -1951 -1 -2693 0 l-1350 3
1139 1750 c627 963 1176 1805 1220 1873 l80 122 256 -2 256 -3 1218 -1870z
m-3971 -2625 l0 -500 -125 0 -125 0 0 500 0 500 125 0 125 0 0 -500z m2130 79
l0 -420 -82 44 c-65 35 -1243 647 -1483 770 l-50 26 808 1 807 0 0 -421z m500
-79 l0 -500 -125 0 -125 0 0 500 0 500 125 0 125 0 0 -500z m1805 476 c-22
-12 -344 -179 -715 -371 -371 -191 -712 -367 -757 -392 l-83 -44 0 415 0 416
798 0 797 0 -40 -24z m815 -476 l0 -500 -105 0 -105 0 0 500 0 500 105 0 105
0 0 -500z m-460 -70 l0 -430 -832 0 -833 1 90 47 c298 156 1561 810 1568 811
4 1 7 -192 7 -429z m-3670 -40 c404 -210 737 -384 739 -386 2 -2 -359 -4 -802
-4 l-807 0 0 420 0 420 68 -34 c37 -19 399 -206 802 -416z m4130 -765 l0 -125
-2750 0 -2750 0 0 125 0 125 2750 0 2750 0 0 -125z" />
<path d="M1891 3766 c-534 -822 -971 -1497 -971 -1500 0 -3 439 -6 975 -6
l975 0 0 1500 c0 825 -2 1500 -4 1500 -2 0 -441 -672 -975 -1494z m696 -1253
c-2 -2 -272 -2 -600 -1 l-595 3 596 918 597 918 3 -917 c1 -505 1 -919 -1
-921z" />
<path d="M3130 3762 l0 -1502 975 0 c536 0 975 3 975 6 0 6 -1927 2974 -1941
2989 -5 5 -9 -604 -9 -1493z m868 -308 c318 -489 586 -901 596 -916 l18 -28
-601 0 -601 0 0 922 c0 507 2 919 5 917 2 -3 265 -405 583 -895z" />
</g>
</symbol><symbol viewBox="0 0 600.000000 600.000000" preserveAspectRatio="xMidYMid meet" id="category_02">
<metadata>
Created by potrace 1.16, written by Peter Selinger 2001-2019
</metadata>
<g transform="translate(0.000000,600.000000) scale(0.100000,-0.100000)" fill="currentColor" stroke="none">
<path d="M988 5984 c-76 -18 -156 -59 -268 -138 -95 -68 -105 -71 -232 -81
l-78 -7 0 -2879 0 -2879 105 0 c175 0 270 32 424 141 115 83 138 92 232 87
l77 -3 114 -77 c178 -122 255 -148 426 -148 167 0 270 37 427 151 93 67 120
79 180 79 60 0 87 -12 180 -79 157 -114 260 -151 427 -151 167 0 265 33 417
141 115 83 138 92 232 87 l77 -3 114 -77 c178 -122 255 -148 426 -148 167 0
270 37 427 151 93 67 120 79 180 79 60 0 87 -12 180 -79 167 -121 257 -151
463 -151 l132 0 0 2879 0 2878 -117 8 c-65 3 -133 13 -151 20 -18 8 -70 41
-115 74 -138 101 -251 141 -392 141 -141 0 -254 -40 -392 -141 -112 -81 -140
-92 -234 -87 -76 3 -78 4 -163 63 -186 131 -280 165 -451 165 -171 0 -265 -34
-451 -165 -85 -59 -87 -60 -163 -63 -94 -5 -122 6 -234 87 -138 101 -251 141
-392 141 -141 0 -254 -40 -392 -141 -112 -81 -140 -92 -234 -87 -76 3 -78 4
-163 63 -122 85 -211 132 -288 150 -82 19 -252 18 -330 -1z m374 -316 c117
-80 199 -122 262 -133 l36 -7 0 -555 c0 -440 -3 -553 -12 -547 -7 4 -43 29
-79 55 -144 103 -250 139 -414 139 -165 0 -271 -36 -415 -141 -37 -27 -71 -49
-74 -49 -3 0 -6 247 -6 549 l0 549 33 7 c59 13 159 64 246 126 117 84 131 90
228 87 l81 -3 114 -77z m1105 71 c15 -6 64 -36 108 -68 118 -86 185 -118 308
-145 l27 -6 0 -561 0 -560 -22 12 c-13 7 -59 38 -103 70 -137 99 -250 139
-390 139 -141 0 -254 -40 -391 -140 -46 -33 -85 -60 -88 -60 -3 0 -6 249 -6
554 l0 554 39 7 c59 10 172 67 264 134 45 33 93 64 107 70 34 13 112 13 147 0z
m1375 -71 c121 -82 203 -124 268 -134 l40 -7 0 -559 0 -559 -77 55 c-164 119
-269 156 -438 156 -159 0 -274 -37 -399 -129 -28 -21 -57 -41 -63 -45 -10 -6
-13 105 -13 539 0 511 1 546 18 551 74 23 157 67 235 122 124 88 137 93 234
90 l81 -3 114 -77z m1105 71 c15 -6 64 -36 108 -68 104 -75 189 -118 275 -137
l70 -16 0 -559 c0 -307 -3 -559 -6 -559 -12 0 -52 25 -129 81 -137 99 -250
139 -390 139 -158 0 -264 -43 -442 -178 l-33 -24 0 555 0 555 46 11 c66 17
157 65 249 132 44 32 91 62 105 68 34 13 112 13 147 0z m-3585 -1451 c117 -80
199 -122 262 -133 l36 -7 0 -555 c0 -440 -3 -553 -12 -547 -7 4 -43 29 -79 55
-144 103 -250 139 -414 139 -165 0 -271 -36 -415 -141 -37 -27 -71 -49 -74
-49 -3 0 -6 247 -6 549 l0 549 33 7 c59 13 159 64 246 126 117 84 131 90 228
87 l81 -3 114 -77z m1105 71 c15 -6 64 -36 108 -68 118 -86 185 -118 308 -145
l27 -6 0 -561 0 -560 -22 12 c-13 7 -59 38 -103 70 -137 99 -250 139 -390 139
-141 0 -254 -40 -391 -140 -46 -33 -85 -60 -88 -60 -3 0 -6 249 -6 554 l0 554
39 7 c59 10 172 67 264 134 45 33 93 64 107 70 34 13 112 13 147 0z m1375 -71
c121 -82 203 -124 268 -134 l40 -7 0 -559 0 -559 -77 55 c-164 119 -269 156
-438 156 -159 0 -274 -37 -399 -129 -28 -21 -57 -41 -63 -45 -10 -6 -13 105
-13 539 0 511 1 546 18 551 74 23 157 67 235 122 124 88 137 93 234 90 l81 -3
114 -77z m1105 71 c15 -6 64 -36 108 -68 104 -75 189 -118 275 -137 l70 -16 0
-559 c0 -307 -3 -559 -6 -559 -12 0 -52 25 -129 81 -137 99 -250 139 -390 139
-158 0 -264 -43 -442 -178 l-33 -24 0 555 0 555 46 11 c66 17 157 65 249 132
44 32 91 62 105 68 34 13 112 13 147 0z m-3585 -1451 c117 -80 199 -122 262
-133 l36 -7 0 -555 c0 -440 -3 -553 -12 -547 -7 4 -43 29 -79 55 -144 103
-250 139 -414 139 -165 0 -271 -36 -415 -141 -37 -27 -71 -49 -74 -49 -3 0 -6
247 -6 549 l0 549 33 7 c59 13 159 64 246 126 117 84 131 90 228 87 l81 -3
114 -77z m1105 71 c15 -6 64 -36 108 -68 118 -86 185 -118 308 -145 l27 -6 0
-561 0 -560 -22 12 c-13 7 -59 38 -103 70 -137 99 -250 139 -390 139 -141 0
-254 -40 -391 -140 -46 -33 -85 -60 -88 -60 -3 0 -6 249 -6 554 l0 554 39 7
c59 10 172 67 264 134 45 33 93 64 107 70 34 13 112 13 147 0z m1375 -71 c121
-82 203 -124 268 -134 l40 -7 0 -559 0 -559 -77 55 c-164 119 -269 156 -438
156 -159 0 -274 -37 -399 -129 -28 -21 -57 -41 -63 -45 -10 -6 -13 105 -13
539 0 511 1 546 18 551 74 23 157 67 235 122 124 88 137 93 234 90 l81 -3 114
-77z m1105 71 c15 -6 64 -36 108 -68 104 -75 189 -118 275 -137 l70 -16 0
-559 c0 -307 -3 -559 -6 -559 -12 0 -52 25 -129 81 -137 99 -250 139 -390 139
-158 0 -264 -43 -442 -178 l-33 -24 0 555 0 555 46 11 c66 17 157 65 249 132
44 32 91 62 105 68 34 13 112 13 147 0z m-3585 -1451 c117 -80 199 -122 262
-133 l36 -7 0 -555 c0 -440 -3 -553 -12 -547 -7 4 -43 29 -79 55 -144 103
-250 139 -414 139 -165 0 -271 -36 -415 -141 -37 -27 -71 -49 -74 -49 -3 0 -6
247 -6 549 l0 549 33 7 c59 13 159 64 246 126 117 84 131 90 228 87 l81 -3
114 -77z m1105 71 c15 -6 64 -36 108 -68 118 -86 185 -118 308 -145 l27 -6 0
-561 0 -560 -22 12 c-13 7 -59 38 -103 70 -137 99 -250 139 -390 139 -141 0
-254 -40 -391 -140 -46 -33 -85 -60 -88 -60 -3 0 -6 249 -6 554 l0 554 39 7
c59 10 172 67 264 134 45 33 93 64 107 70 34 13 112 13 147 0z m1375 -71 c121
-82 203 -124 268 -134 l40 -7 0 -559 0 -559 -77 55 c-164 119 -269 156 -438
156 -159 0 -274 -37 -399 -129 -28 -21 -57 -41 -63 -45 -10 -6 -13 105 -13
539 0 511 1 546 18 551 74 23 157 67 235 122 124 88 137 93 234 90 l81 -3 114
-77z m1105 71 c15 -6 64 -36 108 -68 104 -75 189 -118 275 -137 l70 -16 0
-559 c0 -307 -3 -559 -6 -559 -12 0 -52 25 -129 81 -137 99 -250 139 -390 139
-158 0 -264 -43 -442 -178 l-33 -24 0 555 0 555 46 11 c66 17 157 65 249 132
44 32 91 62 105 68 34 13 112 13 147 0z" />
</g>
</symbol><symbol viewBox="0 0 600.000000 600.000000" preserveAspectRatio="xMidYMid meet" id="category_03">
<metadata>
Created by potrace 1.16, written by Peter Selinger 2001-2019
</metadata>
<g transform="translate(0.000000,600.000000) scale(0.100000,-0.100000)" fill="currentColor" stroke="none">
<path d="M1951 5984 c-87 -23 -191 -84 -256 -149 -95 -94 -165 -249 -165 -362
l0 -43 -450 0 -450 0 0 -2715 0 -2715 575 0 575 0 0 120 0 120 37 24 c71 47
187 78 288 78 101 0 217 -31 287 -78 l38 -24 0 -120 0 -120 575 0 575 0 0 120
0 120 38 24 c70 47 186 78 287 78 101 0 217 -31 288 -78 l37 -24 0 -120 0
-120 575 0 575 0 0 2715 0 2715 -450 0 -450 0 0 43 c0 169 -131 373 -296 459
-94 50 -169 68 -279 68 -110 0 -185 -18 -279 -68 -165 -86 -296 -290 -296
-459 l0 -43 -325 0 -325 0 0 43 c0 113 -70 268 -165 362 -67 67 -170 126 -261
150 -73 19 -231 19 -303 -1z m295 -274 c57 -28 137 -117 160 -177 18 -46 18
-157 22 -2520 l3 -2471 -78 26 c-72 25 -91 27 -248 27 -157 0 -176 -2 -248
-27 l-78 -26 3 2471 c4 2802 -6 2518 89 2622 100 109 244 138 375 75z m1800 0
c57 -28 137 -117 160 -177 18 -46 18 -157 22 -2520 l3 -2471 -78 26 c-72 25
-91 27 -248 27 -157 0 -176 -2 -248 -27 l-78 -26 3 2471 c4 2802 -6 2518 89
2622 100 109 244 138 375 75z m-2516 -2995 l0 -2465 -325 0 -325 0 0 2465 0
2465 325 0 325 0 0 -2465z m1800 0 l0 -2465 -325 0 -325 0 0 2465 0 2465 325
0 325 0 0 -2465z m1800 0 l0 -2465 -325 0 -325 0 0 2465 0 2465 325 0 325 0 0
-2465z" />
</g>
</symbol><symbol viewBox="0 0 600.000000 600.000000" preserveAspectRatio="xMidYMid meet" id="category_04">
<metadata>
Created by potrace 1.16, written by Peter Selinger 2001-2019
</metadata>
<g transform="translate(0.000000,600.000000) scale(0.100000,-0.100000)" fill="currentColor" stroke="none">
<path d="M2060 5468 c-168 -292 -306 -539 -308 -548 -2 -9 117 -225 265 -481
147 -255 267 -471 267 -479 0 -8 -105 -199 -234 -423 l-235 -407 -550 0 -550
-1 -305 -531 c-168 -293 -305 -541 -305 -553 0 -12 137 -260 305 -553 l305
-531 550 -1 550 0 275 -480 275 -479 635 0 635 0 275 479 275 480 550 0 550 1
305 531 c168 292 306 539 308 548 2 9 -119 228 -269 488 -149 259 -271 474
-271 477 0 3 122 218 271 477 150 260 271 479 269 488 -2 9 -140 256 -308 548
l-305 531 -554 3 -554 3 -271 472 -271 472 -635 0 -635 0 -305 -531z m1644
-139 l237 -412 -144 -251 c-80 -138 -187 -324 -238 -413 l-94 -163 -466 0
-466 0 -237 410 c-130 226 -236 413 -236 415 0 2 106 189 236 415 l237 410
467 0 467 0 237 -411z m1650 -949 c130 -226 236 -413 236 -415 0 -3 -106 -189
-236 -415 l-237 -410 -467 0 -467 0 -237 411 -237 411 119 207 c65 113 172
299 238 413 l119 208 466 0 466 0 237 -410z m-1650 -960 c130 -226 236 -413
236 -415 0 -3 -106 -189 -236 -415 l-237 -410 -467 0 -467 0 -238 412 c-175
305 -234 416 -228 428 4 10 111 196 237 414 l229 396 467 0 467 0 237 -410z
m-1650 -960 c130 -226 236 -413 236 -415 0 -2 -106 -189 -236 -415 l-237 -410
-467 0 -467 0 -237 410 c-130 226 -236 413 -236 415 0 2 106 189 236 415 l237
410 467 0 467 0 237 -410z m3300 0 c130 -226 236 -413 236 -415 0 -2 -106
-189 -236 -415 l-237 -410 -467 0 -467 0 -229 396 c-126 218 -233 404 -237
414 -6 12 53 123 228 428 l238 412 467 0 467 0 237 -410z m-1650 -960 c130
-226 236 -413 236 -415 0 -2 -106 -189 -236 -415 l-237 -410 -467 0 -467 0
-229 396 c-126 218 -233 404 -237 414 -6 12 53 123 228 428 l238 412 467 0
467 0 237 -410z" />
</g>
</symbol><symbol viewBox="0 0 600.000000 600.000000" preserveAspectRatio="xMidYMid meet" id="category_05">
<metadata>
Created by potrace 1.16, written by Peter Selinger 2001-2019
</metadata>
<g transform="translate(0.000000,600.000000) scale(0.100000,-0.100000)" fill="currentColor" stroke="none">
<path d="M982 5981 c-114 -33 -190 -79 -282 -171 -65 -65 -94 -103 -122 -160
-65 -133 -68 -158 -68 -539 l0 -341 -255 0 -255 0 0 -670 0 -670 255 0 255 0
0 -435 0 -435 -255 0 -255 0 0 -670 0 -670 255 0 255 0 0 -610 0 -610 650 0
650 0 0 610 0 610 275 0 275 0 0 -610 0 -610 650 0 650 0 0 610 0 610 270 0
270 0 0 -610 0 -610 650 0 650 0 0 610 0 610 250 0 250 0 0 670 0 670 -250 0
-250 0 0 435 0 435 250 0 250 0 0 670 0 670 -250 0 -250 0 0 341 c0 381 -3
406 -68 539 -51 105 -177 231 -282 282 -105 51 -180 68 -300 68 -120 0 -195
-17 -300 -68 -105 -51 -231 -177 -282 -282 -65 -133 -68 -158 -68 -539 l0
-341 -270 0 -270 0 0 341 c0 381 -3 406 -68 539 -51 105 -177 231 -282 282
-105 51 -180 68 -300 68 -120 0 -195 -17 -300 -68 -105 -51 -231 -177 -282
-282 -65 -133 -68 -158 -68 -539 l0 -341 -275 0 -275 0 0 341 c0 381 -3 406
-68 539 -28 57 -57 95 -122 160 -93 93 -180 145 -296 174 -85 22 -260 20 -342
-3z m349 -278 c119 -59 200 -172 220 -306 5 -35 9 -1146 9 -2604 l0 -2543
-400 0 -400 0 0 2543 c0 1458 4 2569 9 2604 12 79 48 158 96 212 49 54 85 79
154 108 48 20 70 23 151 21 84 -3 103 -7 161 -35z m1850 0 c119 -59 200 -172
220 -306 5 -35 9 -1146 9 -2604 l0 -2543 -400 0 -400 0 0 2543 c0 1458 4 2569
9 2604 12 79 48 158 96 212 49 54 85 79 154 108 48 20 70 23 151 21 84 -3 103
-7 161 -35z m1840 0 c119 -59 200 -172 220 -306 5 -35 9 -1146 9 -2604 l0
-2543 -400 0 -400 0 0 2543 c0 1458 4 2569 9 2604 12 79 48 158 96 212 49 54
85 79 154 108 48 20 70 23 151 21 84 -3 103 -7 161 -35z m-4511 -1603 l0 -420
-130 0 -130 0 0 420 0 420 130 0 130 0 0 -420z m1850 0 l0 -420 -270 0 -270 0
0 420 0 420 270 0 270 0 0 -420z m1840 0 l0 -420 -270 0 -270 0 0 420 0 420
270 0 270 0 0 -420z m1560 0 l0 -420 -130 0 -130 0 0 420 0 420 130 0 130 0 0
-420z m-3400 -1105 l0 -435 -275 0 -275 0 0 435 0 435 275 0 275 0 0 -435z
m1840 0 l0 -435 -270 0 -270 0 0 435 0 435 270 0 270 0 0 -435z m-3690 -1105
l0 -420 -130 0 -130 0 0 420 0 420 130 0 130 0 0 -420z m1850 0 l0 -420 -270
0 -270 0 0 420 0 420 270 0 270 0 0 -420z m1840 0 l0 -420 -270 0 -270 0 0
420 0 420 270 0 270 0 0 -420z m1560 0 l0 -420 -130 0 -130 0 0 420 0 420 130
0 130 0 0 -420z" />
<path d="M1074 4196 c-31 -31 -34 -40 -34 -91 0 -51 3 -60 34 -91 31 -31 40
-34 91 -34 51 0 60 3 91 34 31 31 34 40 34 91 0 51 -3 60 -34 91 -31 31 -40
34 -91 34 -51 0 -60 -3 -91 -34z" />
<path d="M1074 1986 c-31 -31 -34 -40 -34 -91 0 -51 3 -60 34 -91 31 -31 40
-34 91 -34 51 0 60 3 91 34 31 31 34 40 34 91 0 51 -3 60 -34 91 -31 31 -40
34 -91 34 -51 0 -60 -3 -91 -34z" />
<path d="M2924 4196 c-31 -31 -34 -40 -34 -91 0 -51 3 -60 34 -91 31 -31 40
-34 91 -34 51 0 60 3 91 34 31 31 34 40 34 91 0 51 -3 60 -34 91 -31 31 -40
34 -91 34 -51 0 -60 -3 -91 -34z" />
<path d="M2924 1986 c-31 -31 -34 -40 -34 -91 0 -51 3 -60 34 -91 31 -31 40
-34 91 -34 51 0 60 3 91 34 31 31 34 40 34 91 0 51 -3 60 -34 91 -31 31 -40
34 -91 34 -51 0 -60 -3 -91 -34z" />
<path d="M4764 4196 c-31 -31 -34 -40 -34 -91 0 -51 3 -60 34 -91 31 -31 40
-34 91 -34 51 0 60 3 91 34 31 31 34 40 34 91 0 51 -3 60 -34 91 -31 31 -40
34 -91 34 -51 0 -60 -3 -91 -34z" />
<path d="M4764 1986 c-31 -31 -34 -40 -34 -91 0 -51 3 -60 34 -91 31 -31 40
-34 91 -34 51 0 60 3 91 34 31 31 34 40 34 91 0 51 -3 60 -34 91 -31 31 -40
34 -91 34 -51 0 -60 -3 -91 -34z" />
</g>
</symbol><symbol viewBox="0 0 600.000000 600.000000" preserveAspectRatio="xMidYMid meet" id="category_06">
<metadata>
Created by potrace 1.16, written by Peter Selinger 2001-2019
</metadata>
<g transform="translate(0.000000,600.000000) scale(0.100000,-0.100000)" fill="currentColor" stroke="none">
<path d="M3390 5499 c-162 -82 -991 -508 -1843 -947 l-1547 -797 2 -1058 3
-1058 810 -425 c446 -234 947 -495 1114 -581 l304 -156 344 172 c189 95 1035
530 1881 967 l1537 794 3 1018 2 1019 -52 24 c-78 36 -300 153 -1003 523 -352
186 -779 409 -950 496 l-310 159 -295 -150z m1268 -649 c529 -278 958 -508
954 -511 -13 -13 -3367 -1742 -3377 -1742 -11 1 -1915 1000 -1927 1011 -7 7
3371 1753 3384 1749 3 -1 438 -229 966 -507z m1085 -2271 c-5 -5 -766 -400
-1693 -878 l-1685 -871 -3 762 c-1 419 1 765 5 769 5 5 766 400 1693 878
l1685 871 3 -762 c1 -419 -1 -765 -5 -769z m-4435 206 l801 -420 1 -767 0
-767 -118 62 c-65 34 -484 253 -930 487 l-811 425 -1 767 0 768 128 -68 c70
-37 489 -256 930 -487z" />
</g>
</symbol><symbol viewBox="0 0 451.847 451.847" id="chevrone-down">
<g fill="currentColor">
	<path d="M225.923,354.706c-8.098,0-16.195-3.092-22.369-9.263L9.27,151.157c-12.359-12.359-12.359-32.397,0-44.751
		c12.354-12.354,32.388-12.354,44.748,0l171.905,171.915l171.906-171.909c12.359-12.354,32.391-12.354,44.744,0
		c12.365,12.354,12.365,32.392,0,44.751L248.292,345.449C242.115,351.621,234.018,354.706,225.923,354.706z" />
</g>
<g>
</g>
<g>
</g>
<g>
</g>
<g>
</g>
<g>
</g>
<g>
</g>
<g>
</g>
<g>
</g>
<g>
</g>
<g>
</g>
<g>
</g>
<g>
</g>
<g>
</g>
<g>
</g>
<g>
</g>
</symbol><symbol viewBox="0 0 341.751 341.751" id="close">
<g>
	<g fill="currentColor">

			<rect x="-49.415" y="149.542" transform="matrix(0.7072 -0.707 0.707 0.7072 -70.7868 170.8326)" width="440.528" height="42.667" />
			<rect x="149.569" y="-49.388" transform="matrix(0.707 -0.7072 0.7072 0.707 -70.7712 170.919)" width="42.667" height="440.528" />
	</g>
</g>
<g>
	<g>

	</g>
</g>
<g>
</g>
<g>
</g>
<g>
</g>
<g>
</g>
<g>
</g>
<g>
</g>
<g>
</g>
<g>
</g>
<g>
</g>
<g>
</g>
<g>
</g>
<g>
</g>
<g>
</g>
<g>
</g>
<g>
</g>
</symbol><symbol viewBox="0 0 512 512" id="dealer_01">
    <path fill="currentColor" d="m503.249 173.612-115.568-111.172c-5.494-5.277-12.742-8.08-20.376-7.935-7.632.159-14.729 3.268-19.982 8.75l-38.198 39.807c-5.093 5.36-4.896 13.854.409 18.908l3.112 2.994-15.678 12.523c-.391-.021-.834-.041-1.341-.058-24.483-.761-42.661 3.295-54.027 12.074l-1.803 1.395-43.073-21.22 5.712-5.495c2.592-2.468 4.062-5.803 4.141-9.392.078-3.592-1.249-6.994-3.729-9.57l-38.168-39.778c-5.255-5.486-12.352-8.594-19.984-8.754-7.672-.185-14.884 2.657-20.382 7.939l-115.56 111.165c-11.345 10.896-11.712 29.013-.813 40.391l38.178 39.786c2.616 2.72 6.124 4.091 9.645 4.091 3.335 0 6.681-1.231 9.287-3.713l4.528-4.356c3.202 20.378 8.706 40.952 21.678 55.462l-1.608 1.742c-13.708 14.88-9.444 34.733 1.529 45.859 6.048 6.134 13.401 9.331 20.809 9.562-.99 9.504 3.365 19.014 10.349 25.636 6.128 5.811 14.323 9.536 22.658 9.535 2.072 0 4.153-.239 6.214-.725 1.172 6.743 4.69 13.155 9.474 17.952 5.746 5.762 13.833 9.778 22.445 9.778.881 0 1.768-.044 2.658-.13.115 1.655.372 3.338.791 5.041 2.924 11.888 12.556 21.884 23.968 24.873 1.906.499 4.363.925 7.199.925 6.629 0 15.328-2.325 23.901-11.463l8.402-8.944 12.288 9.447c8.041 6.183 16.016 8.706 23.176 8.706 8.992 0 16.7-3.979 21.636-9.685 4.692-5.423 7.484-13.12 6.449-21.35 9.444.481 18.352-3.16 24.105-9.227 4.257-4.489 7.035-10.603 6.985-17.305 9.786 1.03 18.329-3.147 23.613-9.414 6.086-7.218 8.806-17.974 5.349-28.182 9.031-1.949 17.309-7.664 22.591-16.258 5.929-9.647 8.114-24.027-.955-38.233 13.579-7.486 31.37-22.429 51.037-52.033l.656.629c2.589 2.465 5.92 3.69 9.248 3.69 3.523 0 7.04-1.374 9.663-4.101l38.177-39.784c10.893-11.375 10.526-29.492-.815-40.383zm-401.311 170.83c-6.029-6.114-8.967-16.546-1.178-25l13.125-14.219c5.369-5.827 11.242-8.211 16.993-6.896 6.03 1.38 11.403 6.661 13.369 13.142.948 3.123 1.798 9.148-3.158 14.4-.006.006-.01.013-.016.019l-18.404 19.539c-7.746 6.918-15.786 4.028-20.731-.985zm52.497 35.821c-7.749 8.126-17.286 3.209-21.7-.978-1.146-1.087-10.947-10.887-2.217-20.145.001-.001.002-.002.003-.003l33.328-35.385c4.141-4.399 8.399-5.668 11.934-5.668 1.313 0 2.527.176 3.596.43 5.946 1.416 11.06 6.149 12.726 11.779 1.551 5.243-.068 10.572-4.681 15.41l-7.032 7.368c-.358.358-.709.735-1.06 1.11zm39.287 26.45c-.064.055-.132.103-.195.16-.131.119-.249.246-.377.367-10.364 9.511-19.939.937-21.768-.897-4.298-4.31-8.518-13.002-2.527-19.278.067-.07.123-.145.187-.216l20.359-21.331c.116-.115.233-.227.343-.351.071-.081.144-.154.216-.234l1.316-1.379c5.066-5.014 10.599-6.994 16.112-5.71 6.072 1.412 11.298 6.573 13.004 12.844 1.055 3.879 1.125 9.632-4.538 15.013l-2.485 2.359c-.062.055-.125.104-.187.159-.161.144-.31.297-.456.452zm47.674 17.514-10.773 11.467c-5.258 5.603-10.731 7.705-16.251 6.262-6.015-1.576-11.533-7.405-13.122-13.862-.696-2.827-.852-6.775 2.177-9.772.139-.128.279-.248.418-.38l19.6-18.608c5.903-5.092 14.192-2.618 19.051 2.36 2.4 2.456 9.41 11.338-1.1 22.533zm141.964-88.315c-3.83 6.231-11.848 11.22-20.217 9.408l-28.825-26.831c-3.056-2.844-7.837-2.672-10.681.383-2.843 3.055-2.672 7.837.383 10.681l30.209 28.119c.029.027.06.049.089.075.013.012.022.026.035.037 7.453 6.637 6.844 15.458 2.389 20.741-5.056 5.997-12.966 5.695-21.187-.782l-29.972-27.9c-3.056-2.845-7.837-2.672-10.681.383-2.843 3.055-2.672 7.837.383 10.681l29.991 27.918c5.208 5.661 5.731 11.254 1.455 15.763-5.084 5.36-15.22 7.089-23.99-.269-.11-.092-.226-.172-.34-.257l-13.769-12.796c-3.057-2.841-7.839-2.666-10.68.392-2.841 3.057-2.666 7.839.391 10.68l14.902 13.849c7.497 7.768 6.082 15.312 2.468 19.49-4.519 5.221-13.743 6.901-24.17-1.113l-12.424-9.552c6.223-12.785 2.279-25.593-5.81-33.876-4.727-4.838-11.214-8.368-18.111-9.442 1.198-4.798 1.163-9.88-.223-14.971-3.173-11.659-12.658-20.922-24.164-23.597-1.427-.332-2.858-.553-4.288-.669 1.619-5.367 1.692-10.984.074-16.45-3.2-10.815-12.511-19.525-23.719-22.193-8.36-1.987-16.735-.392-23.873 4.362-.097-.364-.185-.727-.295-1.091-3.544-11.678-13.146-20.897-24.461-23.486-11.177-2.556-22.354 1.486-31.474 11.382l-1.213 1.314c-10.641-12.657-15.34-32.256-18.535-57.235l31.871-30.659c3.008-2.893 3.101-7.677.207-10.685-2.892-3.008-7.676-3.101-10.685-.207l-34.202 32.901c-.265.222-.512.461-.744.716l-13.651 13.132-36.973-38.529c-5.137-5.363-4.969-13.9.377-19.035l115.56-111.169c2.581-2.478 5.997-3.804 9.594-3.726 3.592.075 6.925 1.531 9.39 4.103l36.984 38.542-62.417 60.047c-3.008 2.894-3.101 7.678-.207 10.685 2.893 3.008 7.677 3.1 10.685.207l46.324-44.565 41.348 20.37-29.211 22.59c-35.023 27.099-24.47 51.489-20.401 58.318 6.941 11.653 19.841 18.38 33 18.38 5.13 0 10.3-1.023 15.171-3.175.29-.128.572-.274.844-.438l30.675-18.472 41.721-9.528 79.756 79.253c12.396 12.724 7.85 23.675 5.317 27.796zm109.793-132.378-36.979 38.536-5.669-5.431c-.213-.232-.442-.451-.687-.658l-52.084-49.894c-3.017-2.89-7.798-2.783-10.686.228-2.887 3.014-2.784 7.798.229 10.685l47.937 45.923c-21.069 32.378-39.117 45.565-50.1 50.914l-79.126-78.628c-.021-.021-.043-.037-.064-.058-.114-.111-.233-.215-.354-.318-.073-.063-.145-.127-.22-.187-.11-.087-.225-.167-.339-.248-.091-.064-.181-.131-.274-.191-.104-.067-.213-.126-.32-.188-.106-.061-.211-.125-.32-.18-.112-.057-.227-.106-.342-.157-.106-.048-.21-.099-.318-.141-.14-.055-.283-.101-.427-.148-.084-.027-.167-.059-.252-.084-.175-.051-.353-.09-.532-.128-.056-.012-.111-.027-.166-.038-.188-.036-.38-.06-.571-.081-.05-.005-.099-.014-.149-.019-.174-.016-.35-.02-.527-.023-.072-.001-.144-.006-.216-.006-.145.001-.291.012-.437.022-.108.007-.215.012-.323.024-.114.013-.228.032-.342.05-.142.022-.283.044-.423.075-.031.007-.062.009-.093.016l-46.957 10.725c-.782.179-1.53.48-2.216.893l-31.27 18.83c-10.098 4.198-23.135.012-28.676-9.289-6.57-11.029-.34-25.471 16.665-38.628l38.815-30.017c.068-.053.138-.102.204-.158l5.3-4.099c8.274-6.393 24.02-9.562 44.309-8.925.662.021 1.189.052 1.622.076 4.414.263 6.18-.551 9.577-3.276l17.282-13.803 38.782 37.311c3.008 2.894 7.792 2.8 10.686-.206 2.894-3.008 2.801-7.792-.206-10.686l-51.649-49.691 36.988-38.546c2.461-2.569 5.794-4.024 9.387-4.099.097-.002.193-.003.291-.003 3.498 0 6.791 1.317 9.297 3.724l115.568 111.173c5.34 5.132 5.508 13.669.375 19.027z" />
</symbol><symbol viewBox="0 0 512 512" id="dealer_02">
    <g fill="currentColor">
    <path d="m90.050781 395.949219c-7.167969 0-14.058593 1.789062-20.171875 5.148437-32.203125-41.28125-49.878906-92.5625-49.878906-145.097656 0-130.132812 105.867188-236 236-236 15.820312 0 31.632812 1.574219 47 4.679688 5.40625 1.09375 10.6875-2.40625 11.78125-7.820313s-2.40625-10.6875-7.820312-11.785156c-16.667969-3.367188-33.8125-5.074219-50.960938-5.074219-68.378906 0-132.667969 26.628906-181.019531 74.980469-48.351563 48.351562-74.980469 112.640625-74.980469 181.019531 0 57.519531 19.53125 113.652344 55.089844 158.652344-4.578125 6.839844-7.039063 14.878906-7.039063 23.296875 0 11.21875 4.371094 21.765625 12.304688 29.695312 7.929687 7.933594 18.476562 12.304688 29.695312 12.304688s21.765625-4.371094 29.699219-12.304688c7.933594-7.929687 12.300781-18.480469 12.300781-29.699219 0-11.214843-4.367187-21.765624-12.300781-29.695312-7.933594-7.933594-18.480469-12.300781-29.699219-12.300781zm15.554688 57.554687c-4.152344 4.15625-9.679688 6.445313-15.554688 6.445313s-11.398437-2.289063-15.554687-6.445313-6.445313-9.679687-6.445313-15.554687c0-5.878907 2.289063-11.402344 6.445313-15.558594 4.152344-4.15625 9.679687-6.441406 15.554687-6.441406s11.398438 2.289062 15.554688 6.441406c4.15625 4.15625 6.445312 9.679687 6.445312 15.558594 0 5.875-2.289062 11.398437-6.445312 15.554687zm0 0" />
    <path d="m456.902344 97.335938c10.871094-16.308594 9.125-38.605469-5.253906-52.984376-7.933594-7.929687-18.480469-12.300781-29.699219-12.300781s-21.765625 4.371094-29.699219 12.300781c-7.933594 7.933594-12.300781 18.480469-12.300781 29.699219s4.367187 21.765625 12.300781 29.699219 18.480469 12.300781 29.699219 12.300781c7.167969 0 14.058593-1.789062 20.171875-5.148437 32.203125 41.285156 49.878906 92.5625 49.878906 145.097656 0 130.132812-105.867188 236-236 236-15.664062 0-31.328125-1.542969-46.550781-4.589844-5.414063-1.082031-10.683594 2.429688-11.769531 7.84375-1.082032 5.417969 2.429687 10.683594 7.84375 11.769532 16.511718 3.300781 33.496093 4.976562 50.476562 4.976562 68.378906 0 132.667969-26.628906 181.019531-74.980469 48.351563-48.351562 74.980469-112.640625 74.980469-181.019531 0-57.523438-19.535156-113.660156-55.097656-158.664062zm-50.507813-7.726563c-4.15625-4.15625-6.445312-9.679687-6.445312-15.558594 0-5.875 2.289062-11.398437 6.445312-15.554687 4.152344-4.15625 9.679688-6.445313 15.554688-6.445313s11.402343 2.289063 15.558593 6.445313c8.574219 8.578125 8.574219 22.535156 0 31.113281-4.15625 4.152344-9.683593 6.441406-15.558593 6.441406-5.878907 0-11.402344-2.289062-15.554688-6.441406zm0 0" />
    <path d="m214.734375 428c0 5.523438 4.480469 10 10 10h62.527344c5.523437 0 10-4.476562 10-10v-19.386719c13.148437-3.539062 25.71875-8.75 37.53125-15.554687l13.6875 13.6875c1.875 1.875 4.417969 2.929687 7.074219 2.929687 2.648437 0 5.195312-1.054687 7.070312-2.933593l44.195312-44.226563c3.902344-3.90625 3.902344-10.238281 0-14.140625l-13.671874-13.671875c6.804687-11.8125 12.015624-24.382813 15.554687-37.53125h19.3125c5.523437 0 10-4.476563 10-10v-62.527344c0-5.523437-4.476563-10-10-10h-19.316406c-3.539063-13.144531-8.746094-25.714843-15.550781-37.527343l13.597656-13.597657c1.875-1.875 2.929687-4.421875 2.929687-7.074219-.003906-2.652343-1.058593-5.199218-2.933593-7.074218l-44.230469-44.195313c-3.902344-3.902343-10.234375-3.902343-14.140625.003907l-13.578125 13.582031c-11.8125-6.804688-24.382813-12.015625-37.53125-15.554688v-19.207031c0-5.523438-4.476563-10-10-10h-62.527344c-5.519531 0-10 4.476562-10 10v19.210938c-13.144531 3.535156-25.714844 8.746093-37.527344 15.550781l-13.582031-13.582031c-3.902344-3.902344-10.234375-3.90625-14.140625-.003907l-44.226563 44.199219c-1.878906 1.875-2.933593 4.417969-2.933593 7.070312 0 2.652344 1.054687 5.199219 2.929687 7.074219l13.597656 13.597657c-6.804687 11.8125-12.015624 24.378906-15.554687 37.527343h-19.277344c-5.523437 0-10 4.476563-10 9.996094l-.035156 62.527344c-.003906 2.652343 1.050781 5.199219 2.925781 7.074219s4.417969 2.929687 7.074219 2.929687h19.3125c3.539063 13.148437 8.75 25.71875 15.554687 37.53125l-13.671874 13.671875c-3.902344 3.902344-3.90625 10.234375 0 14.140625l44.195312 44.226563c1.875 1.875 4.417969 2.933593 7.070312 2.933593h.003907c2.652343 0 5.195312-1.054687 7.070312-2.929687l13.683594-13.6875c11.816406 6.804687 24.386719 12.015625 37.53125 15.554687zm-33.609375-55.972656c-3.957031-2.558594-9.164062-2.003906-12.5 1.328125l-12.175781 12.175781-30.058594-30.082031 12.164063-12.167969c3.332031-3.332031 3.886718-8.539062 1.328124-12.496094-9.066406-14.03125-15.441406-29.410156-18.941406-45.714844-.992187-4.605468-5.0625-7.898437-9.777344-7.898437h-17.175781l.023438-42.527344h17.152343c4.714844 0 8.785157-3.289062 9.777344-7.898437 3.5-16.300782 9.875-31.679688 18.941406-45.710938 2.558594-3.957031 2.003907-9.164062-1.328124-12.496094l-12.085938-12.089843 30.082031-30.058594 12.074219 12.078125c3.335938 3.332031 8.539062 3.882812 12.5 1.328125 14.027344-9.066406 29.40625-15.441406 45.710938-18.941406 4.605468-.992188 7.898437-5.066407 7.898437-9.777344v-17.078125h42.527344v17.074219c0 4.714843 3.289062 8.789062 7.898437 9.777343 16.300782 3.503907 31.683594 9.875 45.710938 18.941407 3.957031 2.558593 9.164062 2.007812 12.496094-1.328125l12.078124-12.074219 30.082032 30.058594-12.085938 12.085937c-3.335937 3.335938-3.886718 8.542969-1.328125 12.5 9.066407 14.03125 15.4375 29.410156 18.941407 45.710938.988281 4.609375 5.0625 7.898437 9.777343 7.898437h17.183594v42.527344h-17.183594c-4.714843 0-8.785156 3.292969-9.777343 7.898437-3.5 16.300782-9.875 31.683594-18.941407 45.710938-2.558593 3.960938-2.003906 9.167969 1.328125 12.5l12.164063 12.164062-30.058594 30.082032-12.175781-12.171875c-3.335938-3.335938-8.542969-3.886719-12.5-1.328125-14.03125 9.066406-29.410156 15.4375-45.710938 18.941406-4.609375.992188-7.898437 5.0625-7.898437 9.777344v17.253906h-42.527344v-17.253906c0-4.710938-3.292969-8.785156-7.898437-9.777344-16.300782-3.5-31.679688-9.875-45.710938-18.941406zm0 0" />
    <path d="m338.628906 256c0-45.5625-37.066406-82.628906-82.628906-82.628906s-82.628906 37.066406-82.628906 82.628906 37.066406 82.628906 82.628906 82.628906 82.628906-37.066406 82.628906-82.628906zm-145.257812 0c0-34.535156 28.09375-62.628906 62.628906-62.628906s62.628906 28.097656 62.628906 62.628906-28.09375 62.628906-62.628906 62.628906-62.628906-28.09375-62.628906-62.628906zm0 0" />
    <path d="m348.078125 37.820312c2.632813 0 5.210937-1.070312 7.070313-2.929687 1.859374-1.871094 2.929687-4.449219 2.929687-7.082031 0-2.617188-1.066406-5.199219-2.929687-7.070313-1.859376-1.859375-4.4375-2.929687-7.070313-2.929687-2.640625 0-5.207031 1.070312-7.066406 2.929687-1.863281 1.871094-2.933594 4.441407-2.933594 7.070313 0 2.640625 1.070313 5.210937 2.933594 7.082031 1.859375 1.859375 4.425781 2.929687 7.066406 2.929687zm0 0" />
    <path d="m164.359375 474.359375c-2.628906 0-5.210937 1.070313-7.070313 2.929687-1.859374 1.859376-2.929687 4.441407-2.929687 7.070313 0 2.640625 1.070313 5.210937 2.929687 7.070313 1.859376 1.859374 4.441407 2.929687 7.070313 2.929687s5.210937-1.070313 7.070313-2.929687c1.859374-1.859376 2.929687-4.441407 2.929687-7.070313s-1.070313-5.210937-2.929687-7.070313c-1.859376-1.859374-4.441407-2.929687-7.070313-2.929687zm0 0" />
    </g>
</symbol><symbol viewBox="0 0 512 512" id="dealer_03">
<g>
	<g fill="currentColor">
		<path d="M512,304c0-12.821-5.099-24.768-13.888-33.579c9.963-10.901,15.04-25.515,13.653-40.725
			c-2.496-27.115-26.923-48.363-55.637-48.363H324.352c6.528-19.819,16.981-56.149,16.981-85.333c0-46.272-39.317-85.333-64-85.333
			c-22.144,0-37.995,12.48-38.656,12.992c-2.539,2.027-4.011,5.099-4.011,8.341v72.341L173.205,237.44l-2.539,1.301v-4.075
			c0-5.888-4.779-10.667-10.667-10.667H53.333C23.915,224,0,247.915,0,277.333V448c0,29.419,23.915,53.333,53.333,53.333h64
			c23.061,0,42.773-14.72,50.197-35.264C185.28,475.2,209.173,480,224,480h195.819c23.232,0,43.563-15.659,48.341-37.248
			c2.453-11.136,1.024-22.336-3.84-32.064c15.744-7.915,26.347-24.192,26.347-42.688c0-7.552-1.728-14.784-4.992-21.312
			C501.419,338.752,512,322.496,512,304z M467.008,330.325c-4.117,0.491-7.595,3.285-8.917,7.232
			c-1.301,3.947-0.213,8.277,2.816,11.136c5.419,5.099,8.427,11.968,8.427,19.307c0,13.461-10.176,24.768-23.637,26.325
			c-4.117,0.491-7.595,3.285-8.917,7.232c-1.301,3.947-0.213,8.277,2.816,11.136c7.019,6.613,9.835,15.893,7.723,25.451
			c-2.624,11.904-14.187,20.523-27.499,20.523H224c-17.323,0-46.379-8.128-56.448-18.219c-3.051-3.029-7.659-3.925-11.627-2.304
			c-3.989,1.643-6.592,5.547-6.592,9.856c0,17.643-14.357,32-32,32h-64c-17.643,0-32-14.357-32-32V277.333c0-17.643,14.357-32,32-32
			h96V256c0,3.691,1.92,7.125,5.077,9.088c3.115,1.877,7.04,2.069,10.368,0.448l21.333-10.667c2.155-1.067,3.883-2.859,4.907-5.056
			l64-138.667c0.64-1.408,0.981-2.944,0.981-4.48V37.781C260.437,35.328,268.139,32,277.333,32C289.024,32,320,61.056,320,96
			c0,37.547-20.437,91.669-20.629,92.203c-1.237,3.264-0.811,6.955,1.173,9.856c2.005,2.88,5.291,4.608,8.789,4.608h146.795
			c17.792,0,32.896,12.736,34.389,28.992c1.131,12.16-4.715,23.723-15.189,30.187c-3.264,2.005-5.205,5.632-5.056,9.493
			s2.368,7.317,5.781,9.088c9.024,4.587,14.613,13.632,14.613,23.573C490.667,317.461,480.491,328.768,467.008,330.325z" />
		<path d="M160,245.333c-5.888,0-10.667,4.779-10.667,10.667v192c0,5.888,4.779,10.667,10.667,10.667s10.667-4.779,10.667-10.667
			V256C170.667,250.112,165.888,245.333,160,245.333z" />
	</g>
</g>
<g>
	<g>
	</g>
</g>
<g>
</g>
<g>
</g>
<g>
</g>
<g>
</g>
<g>
</g>
<g>
</g>
<g>
</g>
<g>
</g>
<g>
</g>
<g>
</g>
<g>
</g>
<g>
</g>
<g>
</g>
<g>
</g>
<g>
</g>
</symbol><symbol viewBox="0 0 512 512" id="dealer_04">
<g>
	<g fill="currentColor">
		<path d="M491.342,0H20.659c-5.632,0-10.199,4.567-10.199,10.199v413.154c0,48.88,39.767,88.646,88.646,88.646
			c33.997,0,63.581-19.242,78.447-47.404C192.419,492.758,222.003,512,256,512s63.581-19.242,78.447-47.404
			C349.314,492.758,378.897,512,412.894,512c48.88,0,88.646-39.767,88.646-88.646V10.199C501.541,4.567,496.974,0,491.342,0z
			 M167.354,423.354c0,37.632-30.616,68.248-68.248,68.248s-68.248-30.616-68.248-68.248v-80.629
			c16.273,19.619,40.825,32.138,68.248,32.138s51.975-12.517,68.248-32.138V423.354z M167.354,285.635v0.58
			c0,37.632-30.616,68.248-68.248,68.248s-68.248-30.616-68.248-68.248v-0.58v-81.209c16.273,19.62,40.825,32.138,68.248,32.138
			s51.975-12.517,68.248-32.138V285.635z M167.354,147.917c0,37.632-30.616,68.248-68.248,68.248
			c-37.632,0-68.248-30.616-68.248-68.248V20.398h136.496V147.917z M324.248,423.354c0,37.632-30.616,68.248-68.248,68.248
			s-68.248-30.616-68.248-68.248v-80.629c16.273,19.619,40.825,32.138,68.248,32.138s51.975-12.517,68.248-32.138V423.354z
			 M324.248,285.636v0.58c0,37.632-30.616,68.248-68.248,68.248s-68.248-30.616-68.248-68.248v-0.58v-81.209
			c16.273,19.619,40.825,32.138,68.248,32.138s51.975-12.517,68.248-32.138V285.636z M324.248,147.917
			c0,37.632-30.616,68.248-68.248,68.248s-68.248-30.616-68.248-68.248V20.398h136.496V147.917z M481.142,423.354
			c0,37.632-30.616,68.248-68.248,68.248s-68.248-30.616-68.248-68.248v-80.629c16.273,19.619,40.825,32.138,68.248,32.138
			s51.975-12.517,68.248-32.138V423.354z M481.142,285.636v0.58c0,37.632-30.616,68.248-68.248,68.248s-68.248-30.616-68.248-68.248
			v-0.58v-81.209c16.273,19.619,40.825,32.138,68.248,32.138s51.975-12.517,68.248-32.138V285.636z M481.142,147.917
			c0,37.632-30.616,68.248-68.248,68.248s-68.248-30.616-68.248-68.248V20.398h136.496V147.917z" />
		<path d="M462.024,31.669c-5.632,0-10.199,4.567-10.199,10.199v46.916c0,5.632,4.567,10.199,10.199,10.199
			s10.199-4.567,10.199-10.199V41.868C472.223,36.236,467.656,31.669,462.024,31.669z" />
		<path d="M462.024,109.182c-5.632,0-10.199,4.567-10.199,10.199v10.199c0,5.632,4.567,10.199,10.199,10.199
			s10.199-4.567,10.199-10.199v-10.199C472.223,113.75,467.656,109.182,462.024,109.182z" />
	</g>
</g>
<g>
	<g>
	</g>
</g>
<g>
	<g>
	</g>
</g>
<g>
</g>
<g>
</g>
<g>
</g>
<g>
</g>
<g>
</g>
<g>
</g>
<g>
</g>
<g>
</g>
<g>
</g>
<g>
</g>
<g>
</g>
<g>
</g>
<g>
</g>
<g>
</g>
<g>
</g>
</symbol><symbol viewBox="0 0 512 512" id="dealer_05">
<g>
	<g fill="currentColor">
		<path d="M458.667,0H323.349c-25.643,0-49.749,9.984-67.883,28.117L18.197,265.387C6.464,277.12,0,292.715,0,309.376
			c0,16.576,6.464,32.171,18.197,43.904L158.72,493.803C170.453,505.536,186.048,512,202.709,512
			c16.576,0,32.171-6.464,43.904-18.197l237.269-237.269C502.016,238.4,512,214.293,512,188.651V53.333
			C512,23.936,488.064,0,458.667,0z M490.667,188.651c0,19.947-7.765,38.699-21.845,52.779L231.531,478.72
			c-15.339,15.339-42.24,15.445-57.707,0L33.28,338.176c-7.701-7.68-11.947-17.92-11.947-28.885c0-10.88,4.245-21.12,11.947-28.821
			L270.549,43.2c14.123-14.101,32.853-21.867,52.8-21.867h135.317c17.643,0,32,14.357,32,32V188.651z" />
		<path d="M394.667,64c-29.397,0-53.333,23.936-53.333,53.333c0,29.397,23.936,53.333,53.333,53.333S448,146.731,448,117.333
			C448,87.936,424.064,64,394.667,64z M394.667,149.333c-17.643,0-32-14.357-32-32c0-17.643,14.357-32,32-32s32,14.357,32,32
			C426.667,134.976,412.309,149.333,394.667,149.333z" />
	</g>
</g>
<g>
	<g>
	</g>
</g>
<g>
</g>
<g>
</g>
<g>
</g>
<g>
</g>
<g>
</g>
<g>
</g>
<g>
</g>
<g>
</g>
<g>
</g>
<g>
</g>
<g>
</g>
<g>
</g>
<g>
</g>
<g>
</g>
<g>
</g>
</symbol><symbol viewBox="-106 0 512 512" id="dealer_06">
    <g fill="currentColor">
        <path d="m150 323c5.519531 0 10-4.480469 10-10s-4.480469-10-10-10-10 4.480469-10 10 4.480469 10 10 10zm0 0" />
        <path d="m204.683594 247.238281c23.203125-14.097656 42.410156-33.941406 55.550781-57.390625 12.929687-23.074218 19.765625-49.183594 19.765625-75.507812v-56.058594c11.640625-4.128906 20-15.246094 20-28.28125v-20c0-5.523438-4.476562-10-10-10h-280c-5.523438 0-10 4.476562-10 10v20c0 13.035156 8.359375 24.152344 20 28.28125v56.058594c0 26.324218 6.835938 52.433594 19.765625 75.507812 13.140625 23.449219 32.351563 43.296875 55.554687 57.390625 2.964844 1.800781 4.738282 5.078125 4.738282 8.761719 0 3.6875-1.773438 6.960938-4.738282 8.765625-23.203124 14.09375-42.414062 33.9375-55.554687 57.386719-12.929687 23.074218-19.765625 49.183594-19.765625 75.507812v56.058594c-11.640625 4.128906-20 15.246094-20 28.28125v20c0 5.523438 4.476562 10 10 10h280c5.523438 0 10-4.476562 10-10v-20c0-13.035156-8.359375-24.152344-20-28.28125v-56.058594c0-26.324218-6.835938-52.433594-19.765625-75.507812-13.140625-23.449219-32.351563-43.296875-55.554687-57.390625-2.964844-1.800781-4.738282-5.078125-4.738282-8.761719 0-3.6875 1.773438-6.960938 4.742188-8.761719zm-184.683594-227.238281h260v10c0 5.515625-4.484375 10-10 10h-240c-5.515625 0-10-4.484375-10-10zm260 472h-260v-10c0-5.515625 4.484375-10 10-10h240c5.515625 0 10 4.484375 10 10zm-85.699219-210.144531c41.136719 24.992187 65.699219 68.285156 65.699219 115.804687v54.339844h-220v-54.339844c0-47.519531 24.5625-90.8125 65.699219-115.804687 8.992187-5.457031 14.359375-15.125 14.359375-25.855469s-5.367188-20.398438-14.359375-25.855469c-41.136719-24.992187-65.699219-68.285156-65.699219-115.804687v-54.339844h220v54.339844c0 47.519531-24.5625 90.8125-65.699219 115.804687-8.992187 5.457031-14.359375 15.125-14.359375 25.855469s5.367188 20.398438 14.359375 25.855469zm0 0" />
        <path d="m157.96875 346.460938c-1.886719-2.515626-4.847656-4-7.992188-4 0 0-.003906 0-.007812 0-3.140625 0-6.101562 1.476562-7.988281 3.984374-3.769531 5.015626-8.464844 9.277344-13.953125 12.679688-11.453125 6.898438-21.683594 11.210938-30.714844 15.019531-20.023438 8.445313-37.3125 15.738281-37.3125 43.457031v4.398438c0 5.523438 4.476562 10 10 10h160c5.523438 0 10-4.476562 10-10v-4.398438c0-27.703124-17.332031-35.027343-37.398438-43.511718-9.105468-3.851563-19.425781-8.210938-31.023437-15.191406-5.316406-3.300782-9.894531-7.488282-13.609375-12.4375zm61.636719 65.539062h-139.214844c1.523437-9.242188 7.824219-12.3125 24.695313-19.425781 9.183593-3.875 20.609374-8.691407 33.316406-16.347657.03125-.023437.066406-.042968.097656-.0625 4.148438-2.566406 7.980469-5.5 11.460938-8.769531 3.394531 3.191407 7.113281 6.042969 11.132812 8.535157.035156.019531.070312.042968.105469.0625 12.84375 7.734374 24.359375 12.605468 33.613281 16.519531 16.941406 7.160156 23.265625 10.246093 24.792969 19.488281zm0 0" />
        <path d="m240 114.398438v-18.398438c0-3.636719-1.972656-6.984375-5.152344-8.746094-3.179687-1.765625-7.0625-1.660156-10.148437.265625-22.421875 14.015625-48.25 21.421875-74.699219 21.421875-26.445312 0-52.277344-7.40625-74.699219-21.421875-3.085937-1.925781-6.96875-2.027343-10.148437-.265625-3.179688 1.761719-5.152344 5.109375-5.152344 8.746094v18.398438c0 17.296874 6.679688 35.914062 19.3125 53.835937 12.242188 17.367187 29.222656 32.878906 49.109375 44.867187 4.039063 2.511719 7.996094 6.074219 11.578125 10.378907v49.519531c0 5.523438 4.476562 10 10 10 5.519531 0 10-4.476562 10-10v-49.5c3.648438-4.355469 7.738281-8 11.972656-10.625 40.691406-24.542969 68.027344-64.109375 68.027344-98.476562zm-78.402344 81.375c-.03125.023437-.066406.039062-.097656.0625-3.988281 2.464843-7.851562 5.515624-11.464844 9.023437-3.503906-3.429687-7.226562-6.371094-11.128906-8.789063-.035156-.023437-.070312-.042968-.105469-.066406-35.171875-21.183594-58.800781-53.976562-58.800781-81.605468v-1.472657c21.761719 10.515625 45.652344 16.015625 70 16.015625s48.238281-5.5 70-16.015625v1.472657c0 27.195312-24.015625 60.65625-58.402344 81.375zm0 0" />
    </g>
</symbol><symbol viewBox="0 0 155.139 155.139" id="fb">
<g>
	<path id="fb_f_1_" fill="currentColor" d="M89.584,155.139V84.378h23.742l3.562-27.585H89.584V39.184
		c0-7.984,2.208-13.425,13.67-13.425l14.595-0.006V1.08C115.325,0.752,106.661,0,96.577,0C75.52,0,61.104,12.853,61.104,36.452
		v20.341H37.29v27.585h23.814v70.761H89.584z" />
</g>
<g>
</g>
<g>
</g>
<g>
</g>
<g>
</g>
<g>
</g>
<g>
</g>
<g>
</g>
<g>
</g>
<g>
</g>
<g>
</g>
<g>
</g>
<g>
</g>
<g>
</g>
<g>
</g>
<g>
</g>
</symbol><symbol viewBox="0 0 512 512" id="g+">
<g>
	<g fill="currentColor">
		<polygon points="448,224 448,160 416,160 416,224 352,224 352,256 416,256 416,320 448,320 448,256 512,256 512,224 		" />
		<path d="M160,224v64h90.528c-13.216,37.248-48.8,64-90.528,64c-52.928,0-96-43.072-96-96c0-52.928,43.072-96,96-96
			c22.944,0,45.024,8.224,62.176,23.168l42.048-48.256C235.424,109.824,198.432,96,160,96C71.776,96,0,167.776,0,256
			s71.776,160,160,160s160-71.776,160-160v-32H160z" />
	</g>
</g>
<g>
	<g>
	</g>
</g>
<g>
</g>
<g>
</g>
<g>
</g>
<g>
</g>
<g>
</g>
<g>
</g>
<g>
</g>
<g>
</g>
<g>
</g>
<g>
</g>
<g>
</g>
<g>
</g>
<g>
</g>
<g>
</g>
<g>
</g>
</symbol><symbol viewBox="0 0 512 512" id="geo">
<g>
	<g fill="currentColor">
		<path d="M256,0C148.477,0,61,87.477,61,195c0,69.412,21.115,97.248,122.581,231.01C201.194,449.229,221.158,475.546,244,506
			c2.833,3.777,7.279,6,12.001,6c4.722,0,9.167-2.224,12-6.002c22.708-30.29,42.585-56.507,60.123-79.638
			C429.834,292.209,451,264.292,451,195C451,87.477,363.523,0,256,0z M304.219,408.235c-14.404,18.998-30.383,40.074-48.222,63.789
			c-17.961-23.867-34.031-45.052-48.515-64.146C108.784,277.766,91,254.321,91,195c0-90.981,74.019-165,165-165s165,74.019,165,165
			C421,254.205,403.17,277.722,304.219,408.235z" />
		<path d="M256,90c-57.897,0-105,47.103-105,105c0,57.897,47.103,105,105,105c57.897,0,105-47.103,105-105
			C361,137.103,313.897,90,256,90z M256,270c-41.355,0-75-33.645-75-75s33.645-75,75-75c41.355,0,75,33.645,75,75
			S297.355,270,256,270z" />
	</g>
</g>
<g>
	<g>
	</g>
</g>
<g>
</g>
<g>
</g>
<g>
</g>
<g>
</g>
<g>
</g>
<g>
</g>
<g>
</g>
<g>
</g>
<g>
</g>
<g>
</g>
<g>
</g>
<g>
</g>
<g>
</g>
<g>
</g>
<g>
</g>
</symbol><symbol viewBox="0 0 341.333 341.333" id="hamburger">
<g>
	<g fill="currentColor">
		<rect y="277.333" width="341.333" height="42.667" />
		<rect y="149.333" width="341.333" height="42.667" />
		<rect y="21.333" width="341.333" height="42.667" />
	</g>
</g>
<g>
	<g>
	</g>
</g>
<g>
	<g>
	</g>
</g>
<g>
</g>
<g>
</g>
<g>
</g>
<g>
</g>
<g>
</g>
<g>
</g>
<g>
</g>
<g>
</g>
<g>
</g>
<g>
</g>
<g>
</g>
<g>
</g>
<g>
</g>
<g>
</g>
<g>
</g>
</symbol><symbol viewBox="0 0 512 512" id="phone">
<g>
	<g fill="currentColor">
		<path d="M302.933,42.667h-51.2c-7.074,0-12.8,5.726-12.8,12.8s5.726,12.8,12.8,12.8h51.2c7.074,0,12.8-5.726,12.8-12.8
			S310.007,42.667,302.933,42.667z" />
		<path d="M358.4,0H153.6c-28.228,0-51.2,22.972-51.2,51.2v409.6c0,28.228,22.972,51.2,51.2,51.2h204.8
			c28.228,0,51.2-22.972,51.2-51.2V51.2C409.6,22.972,386.628,0,358.4,0z M384,460.8c0,14.14-11.46,25.6-25.6,25.6H153.6
			c-14.14,0-25.6-11.46-25.6-25.6V51.2c0-14.14,11.46-25.6,25.6-25.6h204.8c14.14,0,25.6,11.46,25.6,25.6V460.8z" />
		<circle cx="256" cy="443.733" r="25.6" />
		<circle cx="209.067" cy="55.467" r="12.8" />
	</g>
</g>
<g>
	<g>
	</g>
</g>
<g>
	<g>
	</g>
</g>
<g>
	<g>
	</g>
</g>
<g>
</g>
<g>
</g>
<g>
</g>
<g>
</g>
<g>
</g>
<g>
</g>
<g>
</g>
<g>
</g>
<g>
</g>
<g>
</g>
<g>
</g>
<g>
</g>
<g>
</g>
<g>
</g>
<g>
</g>
</symbol><symbol viewBox="0 0 24 24" id="phone2">
    <g>
        <path d="m17.25 0h-1.25-8-1.25c-1.517 0-2.75 1.233-2.75 2.75v18.5c0 1.517 1.233 2.75 2.75 2.75h10.5c1.517 0 2.75-1.233 2.75-2.75v-18.5c0-1.517-1.233-2.75-2.75-2.75zm.75 21c0 .552-.448 1-1 1h-10c-.552 0-1-.448-1-1v-18c0-.552.448-1 1-1h.5c.552 0 1 .448 1 1s.448 1 1 1h5c.552 0 1-.448 1-1s.448-1 1-1h.5c.552 0 1 .448 1 1z" fill="currentColor" />
    </g>
</symbol><symbol viewBox="0 0 512 512" id="pin">
<g>
	<g>
		<path d="M256,0C150.125,0,64,86.135,64,192c0,141.646,177.146,310,184.688,317.104C250.75,511.031,253.375,512,256,512
			s5.25-0.969,7.313-2.896C270.854,502,448,333.646,448,192C448,86.135,361.875,0,256,0z M256,298.667
			c-58.813,0-106.667-47.854-106.667-106.667S197.188,85.333,256,85.333S362.667,133.188,362.667,192S314.813,298.667,256,298.667z" fill="currentColor" />
	</g>
</g>
<g>
</g>
<g>
</g>
<g>
</g>
<g>
</g>
<g>
</g>
<g>
</g>
<g>
</g>
<g>
</g>
<g>
</g>
<g>
</g>
<g>
</g>
<g>
</g>
<g>
</g>
<g>
</g>
<g>
</g>
</symbol><symbol viewBox="0 0 515.558 515.558" id="search">
    <path d="m378.344 332.78c25.37-34.645 40.545-77.2 40.545-123.333 0-115.484-93.961-209.445-209.445-209.445s-209.444 93.961-209.444 209.445 93.961 209.445 209.445 209.445c46.133 0 88.692-15.177 123.337-40.547l137.212 137.212 45.564-45.564c0-.001-137.214-137.213-137.214-137.213zm-168.899 21.667c-79.958 0-145-65.042-145-145s65.042-145 145-145 145 65.042 145 145-65.043 145-145 145z" fill="currentColor" />
</symbol><symbol viewBox="0 0 512 512" id="twitter">
<g>
	<g>
		<path d="M512,97.248c-19.04,8.352-39.328,13.888-60.48,16.576c21.76-12.992,38.368-33.408,46.176-58.016
			c-20.288,12.096-42.688,20.64-66.56,25.408C411.872,60.704,384.416,48,354.464,48c-58.112,0-104.896,47.168-104.896,104.992
			c0,8.32,0.704,16.32,2.432,23.936c-87.264-4.256-164.48-46.08-216.352-109.792c-9.056,15.712-14.368,33.696-14.368,53.056
			c0,36.352,18.72,68.576,46.624,87.232c-16.864-0.32-33.408-5.216-47.424-12.928c0,0.32,0,0.736,0,1.152
			c0,51.008,36.384,93.376,84.096,103.136c-8.544,2.336-17.856,3.456-27.52,3.456c-6.72,0-13.504-0.384-19.872-1.792
			c13.6,41.568,52.192,72.128,98.08,73.12c-35.712,27.936-81.056,44.768-130.144,44.768c-8.608,0-16.864-0.384-25.12-1.44
			C46.496,446.88,101.6,464,161.024,464c193.152,0,298.752-160,298.752-298.688c0-4.64-0.16-9.12-0.384-13.568
			C480.224,136.96,497.728,118.496,512,97.248z" fill="currentColor" />
	</g>
</g>
<g>
</g>
<g>
</g>
<g>
</g>
<g>
</g>
<g>
</g>
<g>
</g>
<g>
</g>
<g>
</g>
<g>
</g>
<g>
</g>
<g>
</g>
<g>
</g>
<g>
</g>
<g>
</g>
<g>
</g>
</symbol><symbol viewBox="0 0 511.962 511.962" id="vk">
<g>
	<g>
		<path d="M507.399,370.471c-1.376-2.304-9.888-20.8-50.848-58.816c-42.88-39.808-37.12-33.344,14.528-102.176
			c31.456-41.92,44.032-67.52,40.096-78.464c-3.744-10.432-26.88-7.68-26.88-7.68l-76.928,0.448c0,0-5.696-0.768-9.952,1.76
			c-4.128,2.496-6.784,8.256-6.784,8.256s-12.192,32.448-28.448,60.032c-34.272,58.208-48,61.28-53.6,57.664
			c-13.024-8.416-9.76-33.856-9.76-51.904c0-56.416,8.544-79.936-16.672-86.016c-8.384-2.016-14.528-3.36-35.936-3.584
			c-27.456-0.288-50.72,0.096-63.872,6.528c-8.768,4.288-15.52,13.856-11.392,14.4c5.088,0.672,16.608,3.104,22.72,11.424
			c7.904,10.72,7.616,34.848,7.616,34.848s4.544,66.4-10.592,74.656c-10.4,5.664-24.64-5.888-55.2-58.72
			c-15.648-27.04-27.488-56.96-27.488-56.96s-2.272-5.568-6.336-8.544c-4.928-3.616-11.84-4.768-11.84-4.768l-73.152,0.448
			c0,0-10.976,0.32-15.008,5.088c-3.584,4.256-0.288,13.024-0.288,13.024s57.28,133.984,122.112,201.536
			c59.488,61.92,127.008,57.856,127.008,57.856h30.592c0,0,9.248-1.024,13.952-6.112c4.352-4.672,4.192-13.44,4.192-13.44
			s-0.608-41.056,18.464-47.104c18.784-5.952,42.912,39.68,68.48,57.248c19.328,13.28,34.016,10.368,34.016,10.368l68.384-0.96
			C488.583,400.807,524.359,398.599,507.399,370.471z" fill="currentColor" />
	</g>
</g>
<g>
</g>
<g>
</g>
<g>
</g>
<g>
</g>
<g>
</g>
<g>
</g>
<g>
</g>
<g>
</g>
<g>
</g>
<g>
</g>
<g>
</g>
<g>
</g>
<g>
</g>
<g>
</g>
<g>
</g>
</symbol><symbol viewBox="0 0 750.000000 131.000000" id="wavyline">
<metadata>
Created by potrace 1.16, written by Peter Selinger 2001-2019
</metadata>
<g transform="translate(0.000000,131.000000) scale(0.100000,-0.100000)" fill="currentColor" stroke="none">
<path d="M463 835 c-249 -255 -453 -468 -453 -473 0 -14 340 -362 353 -362 7
1 136 129 287 285 l275 283 280 -284 c154 -157 285 -284 290 -284 6 1 134 129
285 285 l275 284 279 -285 c153 -157 284 -284 290 -282 6 2 135 130 286 285
l275 281 283 -286 282 -287 282 287 282 286 283 -286 283 -287 283 287 282
286 275 -281 c151 -155 279 -284 285 -286 5 -2 136 124 290 282 l280 285 275
-283 c151 -156 280 -284 286 -285 17 0 356 350 352 365 -3 14 -895 928 -912
934 -5 2 -135 -124 -288 -280 l-278 -284 -279 283 c-153 155 -282 282 -287
282 -5 0 -134 -127 -287 -282 l-277 -283 -278 283 c-153 155 -282 282 -287
282 -6 0 -135 -127 -287 -282 l-278 -283 -277 283 c-153 155 -282 282 -287
282 -6 0 -135 -127 -288 -282 l-278 -283 -277 283 c-153 155 -282 282 -288
282 -5 0 -134 -128 -285 -284 l-275 -284 -280 284 c-154 157 -284 284 -290
284 -5 -1 -214 -210 -462 -465z" />
</g>
</symbol></defs><use id="arrow-right-usage" xlink:href="#arrow-right" class="sprite-symbol-usage" /><use id="calculator_01-usage" xlink:href="#calculator_01" class="sprite-symbol-usage" /><use id="calculator_02-usage" xlink:href="#calculator_02" class="sprite-symbol-usage" /><use id="calculator_03-usage" xlink:href="#calculator_03" class="sprite-symbol-usage" /><use id="calculator_04-usage" xlink:href="#calculator_04" class="sprite-symbol-usage" /><use id="calculator_05-usage" xlink:href="#calculator_05" class="sprite-symbol-usage" /><use id="cart-usage" xlink:href="#cart" class="sprite-symbol-usage" /><use id="category_01-usage" xlink:href="#category_01" class="sprite-symbol-usage" /><use id="category_02-usage" xlink:href="#category_02" class="sprite-symbol-usage" /><use id="category_03-usage" xlink:href="#category_03" class="sprite-symbol-usage" /><use id="category_04-usage" xlink:href="#category_04" class="sprite-symbol-usage" /><use id="category_05-usage" xlink:href="#category_05" class="sprite-symbol-usage" /><use id="category_06-usage" xlink:href="#category_06" class="sprite-symbol-usage" /><use id="chevrone-down-usage" xlink:href="#chevrone-down" class="sprite-symbol-usage" /><use id="close-usage" xlink:href="#close" class="sprite-symbol-usage" /><use id="dealer_01-usage" xlink:href="#dealer_01" class="sprite-symbol-usage" /><use id="dealer_02-usage" xlink:href="#dealer_02" class="sprite-symbol-usage" /><use id="dealer_03-usage" xlink:href="#dealer_03" class="sprite-symbol-usage" /><use id="dealer_04-usage" xlink:href="#dealer_04" class="sprite-symbol-usage" /><use id="dealer_05-usage" xlink:href="#dealer_05" class="sprite-symbol-usage" /><use id="dealer_06-usage" xlink:href="#dealer_06" class="sprite-symbol-usage" /><use id="fb-usage" xlink:href="#fb" class="sprite-symbol-usage" /><use id="g+-usage" xlink:href="#g+" class="sprite-symbol-usage" /><use id="geo-usage" xlink:href="#geo" class="sprite-symbol-usage" /><use id="hamburger-usage" xlink:href="#hamburger" class="sprite-symbol-usage" /><use id="phone-usage" xlink:href="#phone" class="sprite-symbol-usage" /><use id="phone2-usage" xlink:href="#phone2" class="sprite-symbol-usage" /><use id="pin-usage" xlink:href="#pin" class="sprite-symbol-usage" /><use id="search-usage" xlink:href="#search" class="sprite-symbol-usage" /><use id="twitter-usage" xlink:href="#twitter" class="sprite-symbol-usage" /><use id="vk-usage" xlink:href="#vk" class="sprite-symbol-usage" /><use id="wavyline-usage" xlink:href="#wavyline" class="sprite-symbol-usage" /></svg>