<svg version="1" xmlns="http://www.w3.org/2000/svg" width="800" height="800" viewBox="0 0 600 600"><path d="M98.8 1.6C91.2 3.4 83.2 7.5 72 15.4c-9.5 6.8-10.5 7.1-23.2 8.1l-7.8.7V600h10.5c17.5 0 27-3.2 42.4-14.1 11.5-8.3 13.8-9.2 23.2-8.7l7.7.3 11.4 7.7c17.8 12.2 25.5 14.8 42.6 14.8 16.7 0 27-3.7 42.7-15.1 9.3-6.7 12-7.9 18-7.9s8.7 1.2 18 7.9c15.7 11.4 26 15.1 42.7 15.1 16.7 0 26.5-3.3 41.7-14.1 11.5-8.3 13.8-9.2 23.2-8.7l7.7.3 11.4 7.7c17.8 12.2 25.5 14.8 42.6 14.8 16.7 0 27-3.7 42.7-15.1 9.3-6.7 12-7.9 18-7.9s8.7 1.2 18 7.9c16.7 12.1 25.7 15.1 46.3 15.1H565V24.3l-11.7-.8c-6.5-.3-13.3-1.3-15.1-2-1.8-.8-7-4.1-11.5-7.4C512.9 4 501.6 0 487.5 0c-14.1 0-25.4 4-39.2 14.1-11.2 8.1-14 9.2-23.4 8.7-7.6-.3-7.8-.4-16.3-6.3C390 3.4 380.6 0 363.5 0S337 3.4 318.4 16.5c-8.5 5.9-8.7 6-16.3 6.3-9.4.5-12.2-.6-23.4-8.7C264.9 4 253.6 0 239.5 0c-14.1 0-25.4 4-39.2 14.1-11.2 8.1-14 9.2-23.4 8.7-7.6-.3-7.8-.4-16.3-6.3-12.2-8.5-21.1-13.2-28.8-15-8.2-1.9-25.2-1.8-33 .1zm37.4 31.6c11.7 8 19.9 12.2 26.2 13.3l3.6.7v55.5c0 44-.3 55.3-1.2 54.7-.7-.4-4.3-2.9-7.9-5.5-14.4-10.3-25-13.9-41.4-13.9-16.5 0-27.1 3.6-41.5 14.1-3.7 2.7-7.1 4.9-7.4 4.9-.3 0-.6-24.7-.6-54.9V47.2l3.3-.7c5.9-1.3 15.9-6.4 24.6-12.6 11.7-8.4 13.1-9 22.8-8.7l8.1.3 11.4 7.7zm110.5-7.1c1.5.6 6.4 3.6 10.8 6.8 11.8 8.6 18.5 11.8 30.8 14.5l2.7.6v112.1l-2.2-1.2c-1.3-.7-5.9-3.8-10.3-7-13.7-9.9-25-13.9-39-13.9-14.1 0-25.4 4-39.1 14-4.6 3.3-8.5 6-8.8 6-.3 0-.6-24.9-.6-55.4V47.2l3.9-.7c5.9-1 17.2-6.7 26.4-13.4 4.5-3.3 9.3-6.4 10.7-7 3.4-1.3 11.2-1.3 14.7 0zm137.5 7.1c12.1 8.2 20.3 12.4 26.8 13.4l4 .7v111.8l-7.7-5.5c-16.4-11.9-26.9-15.6-43.8-15.6-15.9 0-27.4 3.7-39.9 12.9-2.8 2.1-5.7 4.1-6.3 4.5-1 .6-1.3-10.5-1.3-53.9 0-51.1.1-54.6 1.8-55.1 7.4-2.3 15.7-6.7 23.5-12.2 12.4-8.8 13.7-9.3 23.4-9l8.1.3 11.4 7.7zm110.5-7.1c1.5.6 6.4 3.6 10.8 6.8 10.4 7.5 18.9 11.8 27.5 13.7l7 1.6v55.9c0 30.7-.3 55.9-.6 55.9-1.2 0-5.2-2.5-12.9-8.1-13.7-9.9-25-13.9-39-13.9-15.8 0-26.4 4.3-44.2 17.8l-3.3 2.4v-111l4.6-1.1c6.6-1.7 15.7-6.5 24.9-13.2 4.4-3.2 9.1-6.2 10.5-6.8 3.4-1.3 11.2-1.3 14.7 0zM136.2 171.2c11.7 8 19.9 12.2 26.2 13.3l3.6.7v55.5c0 44-.3 55.3-1.2 54.7-.7-.4-4.3-2.9-7.9-5.5-14.4-10.3-25-13.9-41.4-13.9-16.5 0-27.1 3.6-41.5 14.1-3.7 2.7-7.1 4.9-7.4 4.9-.3 0-.6-24.7-.6-54.9v-54.9l3.3-.7c5.9-1.3 15.9-6.4 24.6-12.6 11.7-8.4 13.1-9 22.8-8.7l8.1.3 11.4 7.7zm110.5-7.1c1.5.6 6.4 3.6 10.8 6.8 11.8 8.6 18.5 11.8 30.8 14.5l2.7.6v112.1l-2.2-1.2c-1.3-.7-5.9-3.8-10.3-7-13.7-9.9-25-13.9-39-13.9-14.1 0-25.4 4-39.1 14-4.6 3.3-8.5 6-8.8 6-.3 0-.6-24.9-.6-55.4v-55.4l3.9-.7c5.9-1 17.2-6.7 26.4-13.4 4.5-3.3 9.3-6.4 10.7-7 3.4-1.3 11.2-1.3 14.7 0zm137.5 7.1c12.1 8.2 20.3 12.4 26.8 13.4l4 .7v111.8l-7.7-5.5c-16.4-11.9-26.9-15.6-43.8-15.6-15.9 0-27.4 3.7-39.9 12.9-2.8 2.1-5.7 4.1-6.3 4.5-1 .6-1.3-10.5-1.3-53.9 0-51.1.1-54.6 1.8-55.1 7.4-2.3 15.7-6.7 23.5-12.2 12.4-8.8 13.7-9.3 23.4-9l8.1.3 11.4 7.7zm110.5-7.1c1.5.6 6.4 3.6 10.8 6.8 10.4 7.5 18.9 11.8 27.5 13.7l7 1.6v55.9c0 30.7-.3 55.9-.6 55.9-1.2 0-5.2-2.5-12.9-8.1-13.7-9.9-25-13.9-39-13.9-15.8 0-26.4 4.3-44.2 17.8l-3.3 2.4v-111l4.6-1.1c6.6-1.7 15.7-6.5 24.9-13.2 4.4-3.2 9.1-6.2 10.5-6.8 3.4-1.3 11.2-1.3 14.7 0zM136.2 309.2c11.7 8 19.9 12.2 26.2 13.3l3.6.7v55.5c0 44-.3 55.3-1.2 54.7-.7-.4-4.3-2.9-7.9-5.5-14.4-10.3-25-13.9-41.4-13.9-16.5 0-27.1 3.6-41.5 14.1-3.7 2.7-7.1 4.9-7.4 4.9-.3 0-.6-24.7-.6-54.9v-54.9l3.3-.7c5.9-1.3 15.9-6.4 24.6-12.6 11.7-8.4 13.1-9 22.8-8.7l8.1.3 11.4 7.7zm110.5-7.1c1.5.6 6.4 3.6 10.8 6.8 11.8 8.6 18.5 11.8 30.8 14.5l2.7.6v112.1l-2.2-1.2c-1.3-.7-5.9-3.8-10.3-7-13.7-9.9-25-13.9-39-13.9-14.1 0-25.4 4-39.1 14-4.6 3.3-8.5 6-8.8 6-.3 0-.6-24.9-.6-55.4v-55.4l3.9-.7c5.9-1 17.2-6.7 26.4-13.4 4.5-3.3 9.3-6.4 10.7-7 3.4-1.3 11.2-1.3 14.7 0zm137.5 7.1c12.1 8.2 20.3 12.4 26.8 13.4l4 .7v111.8l-7.7-5.5c-16.4-11.9-26.9-15.6-43.8-15.6-15.9 0-27.4 3.7-39.9 12.9-2.8 2.1-5.7 4.1-6.3 4.5-1 .6-1.3-10.5-1.3-53.9 0-51.1.1-54.6 1.8-55.1 7.4-2.3 15.7-6.7 23.5-12.2 12.4-8.8 13.7-9.3 23.4-9l8.1.3 11.4 7.7zm110.5-7.1c1.5.6 6.4 3.6 10.8 6.8 10.4 7.5 18.9 11.8 27.5 13.7l7 1.6v55.9c0 30.7-.3 55.9-.6 55.9-1.2 0-5.2-2.5-12.9-8.1-13.7-9.9-25-13.9-39-13.9-15.8 0-26.4 4.3-44.2 17.8l-3.3 2.4v-111l4.6-1.1c6.6-1.7 15.7-6.5 24.9-13.2 4.4-3.2 9.1-6.2 10.5-6.8 3.4-1.3 11.2-1.3 14.7 0zM136.2 447.2c11.7 8 19.9 12.2 26.2 13.3l3.6.7v55.5c0 44-.3 55.3-1.2 54.7-.7-.4-4.3-2.9-7.9-5.5-14.4-10.3-25-13.9-41.4-13.9-16.5 0-27.1 3.6-41.5 14.1-3.7 2.7-7.1 4.9-7.4 4.9-.3 0-.6-24.7-.6-54.9v-54.9l3.3-.7c5.9-1.3 15.9-6.4 24.6-12.6 11.7-8.4 13.1-9 22.8-8.7l8.1.3 11.4 7.7zm110.5-7.1c1.5.6 6.4 3.6 10.8 6.8 11.8 8.6 18.5 11.8 30.8 14.5l2.7.6v112.1l-2.2-1.2c-1.3-.7-5.9-3.8-10.3-7-13.7-9.9-25-13.9-39-13.9-14.1 0-25.4 4-39.1 14-4.6 3.3-8.5 6-8.8 6-.3 0-.6-24.9-.6-55.4v-55.4l3.9-.7c5.9-1 17.2-6.7 26.4-13.4 4.5-3.3 9.3-6.4 10.7-7 3.4-1.3 11.2-1.3 14.7 0zm137.5 7.1c12.1 8.2 20.3 12.4 26.8 13.4l4 .7v111.8l-7.7-5.5c-16.4-11.9-26.9-15.6-43.8-15.6-15.9 0-27.4 3.7-39.9 12.9-2.8 2.1-5.7 4.1-6.3 4.5-1 .6-1.3-10.5-1.3-53.9 0-51.1.1-54.6 1.8-55.1 7.4-2.3 15.7-6.7 23.5-12.2 12.4-8.8 13.7-9.3 23.4-9l8.1.3 11.4 7.7zm110.5-7.1c1.5.6 6.4 3.6 10.8 6.8 10.4 7.5 18.9 11.8 27.5 13.7l7 1.6v55.9c0 30.7-.3 55.9-.6 55.9-1.2 0-5.2-2.5-12.9-8.1-13.7-9.9-25-13.9-39-13.9-15.8 0-26.4 4.3-44.2 17.8l-3.3 2.4v-111l4.6-1.1c6.6-1.7 15.7-6.5 24.9-13.2 4.4-3.2 9.1-6.2 10.5-6.8 3.4-1.3 11.2-1.3 14.7 0z" fill="currentColor"/></svg>