<svg version="1" xmlns="http://www.w3.org/2000/svg" width="800" height="800" viewBox="0 0 600 600"><path d="M206 53.2c-16.8 29.2-30.6 53.9-30.8 54.8-.2.9 11.7 22.5 26.5 48.1 14.7 25.5 26.7 47.1 26.7 47.9 0 .8-10.5 19.9-23.4 42.3L181.5 287h-55l-55 .1L41 340.2c-16.8 29.3-30.5 54.1-30.5 55.3 0 1.2 13.7 26 30.5 55.3l30.5 53.1 55 .1h55l27.5 48 27.5 47.9h127L391 552l27.5-48h55l55-.1 30.5-53.1c16.8-29.2 30.6-53.9 30.8-54.8.2-.9-11.9-22.8-26.9-48.8-14.9-25.9-27.1-47.4-27.1-47.7 0-.3 12.2-21.8 27.1-47.7 15-26 27.1-47.9 26.9-48.8-.2-.9-14-25.6-30.8-54.8l-30.5-53.1-55.4-.3-55.4-.3-27.1-47.2L363.5.1h-127L206 53.2zm164.4 13.9l23.7 41.2-14.4 25.1c-8 13.8-18.7 32.4-23.8 41.3l-9.4 16.3h-93.2l-23.7-41c-13-22.6-23.6-41.3-23.6-41.5 0-.2 10.6-18.9 23.6-41.5l23.7-41h93.4l23.7 41.1zm165 94.9c13 22.6 23.6 41.3 23.6 41.5 0 .3-10.6 18.9-23.6 41.5l-23.7 41h-93.4l-23.7-41.1-23.7-41.1 11.9-20.7c6.5-11.3 17.2-29.9 23.8-41.3l11.9-20.8h93.2l23.7 41zm-165 96c13 22.6 23.6 41.3 23.6 41.5 0 .3-10.6 18.9-23.6 41.5l-23.7 41h-93.4l-23.8-41.2c-17.5-30.5-23.4-41.6-22.8-42.8.4-1 11.1-19.6 23.7-41.4l22.9-39.6h93.4l23.7 41zm-165 96c13 22.6 23.6 41.3 23.6 41.5 0 .2-10.6 18.9-23.6 41.5l-23.7 41H88.3l-23.7-41c-13-22.6-23.6-41.3-23.6-41.5 0-.2 10.6-18.9 23.6-41.5l23.7-41h93.4l23.7 41zm330 0c13 22.6 23.6 41.3 23.6 41.5 0 .2-10.6 18.9-23.6 41.5l-23.7 41h-93.4l-22.9-39.6c-12.6-21.8-23.3-40.4-23.7-41.4-.6-1.2 5.3-12.3 22.8-42.8l23.8-41.2h93.4l23.7 41zm-165 96c13 22.6 23.6 41.3 23.6 41.5 0 .2-10.6 18.9-23.6 41.5l-23.7 41h-93.4l-22.9-39.6c-12.6-21.8-23.3-40.4-23.7-41.4-.6-1.2 5.3-12.3 22.8-42.8l23.8-41.2h93.4l23.7 41z" fill="currentColor"/></svg>