<svg version="1" xmlns="http://www.w3.org/2000/svg" width="800" height="800" viewBox="0 0 600 600"><path d="M339 50.1c-16.2 8.2-99.1 50.8-184.3 94.7L0 224.5l.2 105.8.3 105.8 81 42.5c44.6 23.4 94.7 49.5 111.4 58.1l30.4 15.6 34.4-17.2c18.9-9.5 103.5-53 188.1-96.7L599.5 359l.3-101.8.2-101.9-5.2-2.4c-7.8-3.6-30-15.3-100.3-52.3-35.2-18.6-77.9-40.9-95-49.6l-31-15.9-29.5 15zM465.8 115c52.9 27.8 95.8 50.8 95.4 51.1-1.3 1.3-336.7 174.2-337.7 174.2-1.1-.1-191.5-100-192.7-101.1-.7-.7 337.1-175.3 338.4-174.9.3.1 43.8 22.9 96.6 50.7zm108.5 227.1c-.5.5-76.6 40-169.3 87.8L236.5 517l-.3-76.2c-.1-41.9.1-76.5.5-76.9.5-.5 76.6-40 169.3-87.8L574.5 189l.3 76.2c.1 41.9-.1 76.5-.5 76.9zm-443.5-20.6l80.1 42 .1 76.7v76.7l-11.8-6.2c-6.5-3.4-48.4-25.3-93-48.7l-81.1-42.5-.1-76.7V266l12.8 6.8c7 3.7 48.9 25.6 93 48.7z" fill="currentColor"/></svg>