<svg version="1" xmlns="http://www.w3.org/2000/svg" width="252" height="232" viewBox="0 0 189 174"><path d="M135.2.7c-4.8.3-7.5 1.1-11.5 3.5-2.9 1.7-7.2 4.2-9.7 5.6-4.3 2.4-33.6 19.4-47 27.2-18 10.5-31.9 18.5-35.5 20.4C20.9 63.2 16.8 66 8.8 73.3 1.6 79.8 0 81.8 0 84.1c0 4 3.3 3.8 10.9-.6 3.2-1.9 6.2-3.5 6.5-3.5.3 0 .6 14.5.6 32.3v32.3l25.5 14.7c14.1 8.1 26.1 14.7 26.8 14.7.7 0 1.7-.4 2.2-.9.6-.5 11.6-6.9 24.5-14.3s26.6-15.3 30.4-17.6c3.7-2.3 7-4.2 7.2-4.2.3 0 5.9-3.2 12.7-7.2 6.7-3.9 14.7-8.5 17.7-10.3l5.5-3.1.2-10.9c.1-6.1.2-16 .2-22l.1-11 6.3-3.4c9-5 11.7-7 11.7-9.1 0-1-3.6-9.1-8-17.9-4.4-8.9-8-16.4-8-16.7 0-.3-4.8-6.2-10.6-13L151.9 0l-5.2.2c-2.9.1-8 .3-11.5.5zm.8 6.8c0 .2-1.5 1.2-3.2 2.1-1.8.9-7.3 4-12.3 6.9-10.6 6.2-45.4 26.4-50.5 29.3-1.9 1.1-6.4 3.7-10 5.7C42.7 61.6 36.4 65 35 65c-1.8 0-.3-1 19-12 8-4.6 18.6-10.7 23.5-13.6C130.4 8.7 136 5.6 136 7.5zm20.2 9c3.4 4.2 6.4 7.9 6.5 8.3.2.4-4.6 3.4-10.5 6.8-5.9 3.3-21 12.1-33.7 19.4C84.2 70.8 70 79 65 81.8c-2.5 1.3-5 2.9-5.6 3.3-.7.6-3-1.3-6.4-5.4-3-3.4-6.2-7.2-7.2-8.3-1.9-2.1-1.9-2.2 2.4-4.6 2.4-1.3 12-6.9 21.3-12.3 9.4-5.4 22.9-13.2 30-17.3 7.2-4.1 18.9-10.9 26-15C143.2 11.9 148.4 9 149.2 9c.3 0 3.5 3.4 7 7.5zm20.4 44.4c-7.3 4.2-22.9 13.2-29.6 17.1-10.4 6.1-44.2 25.6-48 27.8-8.9 5-15.8 9-19 11-1.9 1.2-3.8 2.2-4.3 2.2-.4 0-2.8-4.4-5.3-9.8-2.6-5.3-5.5-11.4-6.5-13.4L62 92.2l14.3-8.3c7.8-4.5 18.3-10.6 23.2-13.4 5-2.9 17.8-10.3 28.5-16.5 22.6-13 32.3-18.6 36.5-21.1l3-1.9 6.6 13.7 6.7 13.8-4.2 2.4zM45.1 82.2c6.5 7.7 10.2 13.4 14.8 22.5L66 117v23.1c0 14.4-.4 22.9-1 22.7-.5-.1-9.9-5.5-20.9-11.8L24 139.5V72h12.5l8.6 10.2zM164 94.3v17.4l-14.6 8.4c-8.1 4.6-16.3 9.3-18.3 10.5-2 1.2-14.4 8.3-27.6 15.9-13.2 7.5-25.5 14.6-27.2 15.7l-3.3 2 .1-17.9v-17.8l5.7-2.9c4.4-2.2 53.4-30.3 80.7-46.2 2.2-1.3 4.1-2.4 4.3-2.4.1 0 .2 7.8.2 17.3z" fill="currentColor"/></svg>