<svg version="1" xmlns="http://www.w3.org/2000/svg" width="288" height="232" viewBox="0 0 216 174"><path d="M118.5 4.2c-3.8 2.2-8.8 5-11 6.3-2.2 1.2-9.6 5.5-16.5 9.5-18.3 10.6-50.4 29.1-59 34.1-4.1 2.3-12.9 7.4-19.5 11.3C-2.8 74.5-3 75.2 8.7 82.3l8.3 4.9.1 8.7c.1 4.7.2 15.1.3 23l.1 14.4 6.5 4c5.8 3.5 32 18.7 44 25.5 2.5 1.4 7.8 4.5 11.8 6.9 4.1 2.4 8.4 4.3 9.7 4.3 1.2 0 8.9-3.9 17.1-8.6 29.4-17 69.1-39.9 79.8-46 6-3.5 11.3-6.9 11.7-7.6.5-.7.9-11.4.8-23.8 0-12.3.3-22.6.8-22.7.4-.2 4.3-2.4 8.6-4.9 8-4.7 9.3-6.7 6-9.6-1.9-1.6-1.9-1.6-26.3-15.6-9.1-5.2-19-10.9-22-12.7-3-1.8-9.8-5.7-15-8.7-5.2-3-12.7-7.4-16.6-9.6-3.9-2.3-7.5-4.2-8-4.1-.5 0-4 1.8-7.9 4.1zm14.3 7.7c2.6 1.5 6.8 3.9 9.3 5.3 2.4 1.4 7.1 4.1 10.4 6 3.3 1.9 13.3 7.7 22.2 12.8 9 5.2 16.2 9.5 16 9.6-.3.3-76.1-14.7-76.5-15.1-.3-.3 13-21.5 13.5-21.5.1 0 2.4 1.3 5.1 2.9zm-22.5 10.3c-2.5 4-4.7 7.5-4.9 7.7-.5.6-51.8 21-52.1 20.7-.2-.1 3.6-2.5 8.5-5.2 4.8-2.6 18.6-10.6 30.7-17.6 12.1-7.1 22.1-12.8 22.2-12.8.2 0-1.8 3.3-4.4 7.2zm14.2 17.7c5.5 1.1 25.1 5 43.5 8.6 18.4 3.7 33.6 6.7 33.7 6.9.1.1-3.2 2.2-7.5 4.6-4.2 2.4-10.2 5.8-13.2 7.6-25.7 15.2-85.4 49.3-85.8 49-.2-.3 3.1-18.3 7.4-40 7.4-37 8-39.5 9.9-39.1 1.1.3 6.5 1.3 12 2.4zm-29.4 39c-4.4 21.6-8.1 39.4-8.3 39.5-.3.4-24-13-33.3-18.7-2.7-1.6-9.5-5.6-15-8.7-16.4-9.3-26.6-15.3-26.3-15.6.6-.5 90.3-36.3 90.5-36 .1.1-3.3 17.9-7.6 39.5zm96.9 9.9v18.8l-12.7 7.3c-7.1 4.1-21.6 12.4-32.3 18.6-10.7 6.1-26.5 15.3-35.1 20.3-8.7 5.1-16.4 9.5-17.3 9.8-1.5.6-1.6-1.2-1.4-18.1l.3-18.8 19-11c10.5-6 27.8-16 38.5-22.2 10.7-6.2 24.2-14 30-17.4 5.8-3.3 10.6-6.1 10.7-6.1.2 0 .3 8.5.3 18.8zM54 108.4c10.2 6 21.5 12.6 25.3 14.8l6.7 4v18.4c0 10.1-.2 18.4-.5 18.4-.5 0-6-3.1-41-23.2l-20-11.5-.3-19.1-.2-19.1 5.7 3.3c3.2 1.8 14.1 8.1 24.3 14z" fill="currentColor"/></svg>