<svg version="1" xmlns="http://www.w3.org/2000/svg" width="236" height="206.667" viewBox="0 0 177 155"><path d="M123.5 1.5l-11 1.2-23 13.3C76.8 23.3 55.9 35.3 43 42.8 5.5 64.4 1.1 67 .5 68c-.4.6-.3 2 0 3.1.7 2 1.2 2.1 8 1.6l7.2-.7.7 3.8c.3 2 .6 14.1.6 26.9v23.1l8.8 5c4.8 2.7 16.3 9.3 25.5 14.6 9.3 5.4 17.5 9.5 18.3 9.2.8-.3 5.8-3.1 11.1-6.2 5.4-3.1 15.2-8.8 21.8-12.6 6.6-3.8 12.2-7.4 12.3-7.9.2-.5.9-.9 1.7-.9 1.1 0 24-12.8 38.8-21.7l5.7-3.4V52.3l8-4.7c6.4-3.7 8-5.1 8-7 0-1.6-5.2-8.9-15.2-21.4L146.5.1l-6 .1c-3.3 0-11 .6-17 1.3zm3.5 6.8c0 .2-6.2 3.9-13.7 8.2-7.6 4.3-16.3 9.3-19.3 11.1-3 1.7-18.1 10.5-33.5 19.4-24.9 14.5-28.7 16.3-34 17-3.3.4-6.1.7-6.2.6-.1-.1 8.5-5.1 19-11.1 10.6-6 32.2-18.5 48-27.7C107 14.4 117.2 9 119.8 8.7c6.7-.7 7.2-.7 7.2-.4zm28.8 15.4c6.7 8.6 12.1 15.7 12 15.8-.4.4-80.6 46.7-97.2 56.2-3.3 1.9-6.3 3-6.7 2.6-1.1-1.2-15.3-18.9-20.1-25.1-2.2-2.9-3.9-5.5-3.6-5.7.5-.5 22.7-13.4 56.8-33 10.7-6.2 25.4-14.6 32.5-18.8 7.2-4.2 13.2-7.6 13.5-7.6.3 0 6 7.1 12.8 15.6zM154 76.8v20.8l-26.2 15.1c-14.5 8.3-32.9 18.9-41 23.6L72 144.9v-41.5l24.8-14.2c13.6-7.8 31.9-18.5 40.7-23.6 8.8-5.2 16.1-9.4 16.3-9.5.1-.1.2 9.2.2 20.7zM42 83c3.8 4.7 9.6 12 13 16.2 3.9 5.1 6.7 7.8 8 7.8 1.9 0 2 .7 2 18.6 0 17.3-.1 18.6-1.7 18-1-.4-10.5-5.7-21-11.9L23 120.5V71.1l4.3-.3c4.8-.4 4.1-.9 14.7 12.2z" fill="currentColor"/></svg>