<svg height="163pt" preserveAspectRatio="xMidYMid meet" viewBox="0 0 179 163" width="179pt"
     xmlns="http://www.w3.org/2000/svg">
    <path d="m1040 1609c-19-12-84-50-145-84-60-34-139-80-175-102s-101-59-145-83c-44-23-100-55-125-70-49-29-113-66-315-182-100-58-131-81-133-98-3-17 15-41 72-99l76-76 2-253 3-254 120-67c66-38 188-107 270-154 83-48 156-87 163-87 11 0 114 58 572 322 91 52 215 124 275 158 61 35 118 70 128 78 14 13 17 34 17 136l1 121 44 27c76 46 76 46-164 293-75 77-193 200-263 273-70 72-132 132-138 132-5 0-16 13-25 29-15 30-51 61-70 61-5 0-26-10-45-21zm137-161c256-265 518-541 517-546-1-7-141-89-634-372-118-68-244-141-280-162l-65-39-70 75c-38 41-163 170-276 288-228 236-269 280-269 288 1 3 65 41 143 86 190 108 676 388 757 436 36 21 70 38 76 38s51-42 101-92zm449-833c-4-10-54-43-141-90-55-30-614-353-677-391-31-19-59-34-62-34-4 0-6 37-4 82l3 81 130 75c72 41 155 90 185 107 204 118 473 273 515 296l50 28 3-71c2-39 1-77-2-83zm-1186-105c8-9 66-68 128-131l112-116v-83c0-71-2-81-16-76-9 3-84 46-168 95-83 48-179 103-213 122l-63 34v191 191l103-106c56-58 109-112 117-121z"
          transform="matrix(.1 0 0 -.1 0 163)" fill="currentColor"/>
</svg>
