<svg version="1" xmlns="http://www.w3.org/2000/svg" width="236" height="218.667" viewBox="0 0 177 164"><path d="M121.5 5.4c-4.9 2.9-28.8 16.9-53 31C27.2 60.5 2 75.6.5 77.2c-1.7 1.6 1.1 5 6.8 8.2 3.4 2 6.9 4 7.7 4.5 1.2.8 1.6 5 2 23.3l.5 22.3 17 9.8c29.6 17 32.7 18.7 34.2 18.7.7 0 7.1-3.3 14.1-7.4 26.4-15.3 44.2-25.6 59.2-34.1 8.5-4.8 16.3-9.5 17.3-10.3 1.5-1.4 1.7-3.9 1.7-26.1V61.5l8-4.5c6.8-3.9 8-4.9 8-7.2 0-1.5-.8-3.3-1.9-4-1.1-.8-6.1-5.2-11.3-9.9-5.1-4.7-11-10-13-11.8-2.1-1.8-6.2-7.8-9.5-13.7-7-12.6-7-12.6-19.8-5zm16.4 14.3c2.3 4.3 5.5 8.1 10.5 12.4 10.5 9.1 18.9 17 18.5 17.3-1 .7-19.6 11.6-41.4 24.1-32.6 18.7-42.3 24.4-43 25.6-.4.5-1.2.9-2 .9-.7 0-4.1 1.6-7.5 3.6-3.3 2-6.3 3.4-6.7 3.1-.3-.3-2.1-8.3-3.9-17.7-2.7-13.9-4-18.2-7-23.8-2-3.7-4.1-7.3-4.7-8-.5-.7-.8-1.4-.6-1.6.2-.2 18.6-10.9 40.9-23.8l40.5-23.6 1.6 2.7c.8 1.4 3 5.4 4.8 8.8zM43.5 71.2l9.2 5.1 2.9 14.9c1.7 8.2 2.7 14.7 2.4 14.6-2.5-1.1-46-26.4-46-26.8 0-.7 20.3-13 21.4-13 .5 0 5.1 2.3 10.1 5.2zM154 86.4v20.4l-13.7 8c-7.6 4.4-15.4 8.9-17.3 10-1.9 1.1-14.1 8.1-27 15.5l-23.5 13.6-.3-20.6c-.2-21.1.1-23.3 3.7-23.3.9 0 3.2-1 5.1-2.2 1.9-1.2 10.7-6.3 19.5-11.3 32.6-18.8 42.1-24.3 47-27.3 2.8-1.7 5.3-3.1 5.8-3.1.4-.1.7 9.1.7 20.3zm-110 20c10 5.8 18.8 10.6 19.6 10.6 1.2 0 1.4 3.2 1.4 18.6v18.5l-5.3-3c-2.8-1.6-12.2-7-20.7-11.9l-15.5-8.9-.3-17.8c-.2-15 0-17.6 1.2-17.2.8.3 9.6 5.3 19.6 11.1z" fill="currentColor"/></svg>