<svg fill="none" height="68" viewBox="0 0 80 68" width="80" xmlns="http://www.w3.org/2000/svg"><path clip-rule="evenodd" d="m65.515 54.7937c3.2537-.7964 5.9352 1.6151 6.4659 4.1515.6909 3.3064-1.5574 5.7879-4.0705 6.4086-6.7621 1.6679-9.539-8.8109-2.3954-10.5601zm.6645 2.7619c-3.3207.7527-2.3183 5.6782 1.0521 5.0413 3.0488-.5759 2.3914-5.8214-1.0521-5.0413zm-44.1318.0264c-3.408.8726-2.0748 5.8347 1.251 4.9804 3.206-.8248 2.0149-5.8164-1.251-4.9804zm-18.20244-10.7602c-1.59288.26-1.70854 2.4724.61483 2.4866 1.79275.0112 15.05831.0874 15.68121-.0457 1.3271-.2834 1.7461-2.4694-.7264-2.4755zm29.10604 5.4172c-.7274.2976-1.2449 1.0594-.625 1.9015.5195.706 1.6771.5008 2.5507.4998 2.6855-.0021 16.9879.1229 17.6119-.1148.6919-.2631 1.0247-1.224.4911-1.9056-.5033-.644-1.6071-.4815-2.506-.4805-2.6501.002-16.9556-.132-17.5237.0996zm-11.6666 2.6227c3.2213-.9934 5.987 1.4343 6.5927 3.8722.8421 3.3907-1.4417 5.9647-4.0126 6.6209-6.4101 1.6364-9.7632-8.2787-2.5801-10.4931zm56.1525-5.4131c-2.4096.1077-3.0214-.2834-2.7769-2.8178l2.7962.0061zm-18.8365-18.8784 11.1329.0376 1.9835 8.1547-13.1205-.0213zm.0274-5.3207c2.4654-.0965 5.0921-.0132 7.5748-.0132 1.4569 0 4.6538-.2519 4.5442 2.8249l-12.1474-.0112zm-28.9113-10.7897c-1.0683-.3545-5.7221-3.4943-6.8098-4.3029-.8593-.63893-2.4167-1.70957-2.9209-2.58619-.8594-1.49422-.5032-3.09917.5174-4.10074.9963-.9782 2.5943-1.34388 4.0421-.46218 1.6405.99954 3.0812 5.31359 3.7803 7.23751.3936 1.0828 1.2073 3.1174 1.3909 4.2135zm4.4845.0396c.3165-1.5765 2.2868-6.5173 2.9868-8.22585.553-1.34897 1.1993-2.65019 2.2341-3.28506 2.9494-1.81013 6.3715 1.74208 4.4997 4.64114-.9639 1.4932-8.4037 6.38827-9.7217 6.86977zm9.474-3.1804c1.0775-.9061 2.1742-1.68319 2.8114-3.22618 2.2442-5.43649-3.9173-10.15178-8.4696-7.165362-2.3498 1.540952-3.4263 5.004782-4.4307 7.622472-.5194 1.35303-1.0511 3.26977-1.5969 4.43997-.349-.5251-1.3078-3.62734-1.6396-4.49889-.5661-1.48711-1.1058-2.87671-1.7785-4.26224-.7183-1.48-1.4671-2.60753-2.7698-3.392733-4.6193-2.782247-10.6246 1.910693-8.286 7.380713.5742 1.34287 1.8009 2.37895 2.853 3.17435.5905.4459 1.1617.8593 1.743 1.2718.5824.4134 1.3595.778 1.7715 1.3103-1.25-.2519-4.2988-1.6638-5.6208-2.1941-.5722-.2295-2.3183-1.0015-2.7911-1.0493-1.3159-.1331-1.8292 1.2789-1.0866 2.059.3957.4165 6.6566 2.8036 8.0517 3.3653.486.1961.8654.3444 1.393.5546l1.0328.4439c.2415.1595.0599-.0071.2323.2083-2.8702.1005-16.67444-.319-18.05324.1767-1.16574.4195-1.68622 1.4353-1.69636 2.9438-.01928 2.9854-.12886 22.0994.15015 22.7333.47482 1.0808 2.25844 1.0046 2.35685-.6765.08117-1.3916.00203-3.0494.00203-4.4705 0-6.0439.03856-12.1011-.00304-18.1755l48.24291.0508-.0061 22.0649c.002 1.1194.3581 2.2134 1.6172 1.863 1.1942-.3332.7062-1.3591.9547-2.5943 1.5493-.0508 14.6728-.1758 15.8436.1595 1.256.3606 2.4806 1.4708 2.7038 2.6562-4.5929.2611-5.3417-1.2626-5.0647 4.0876.072 1.3957.6899 2.2804 1.5634 2.9833 1.0562.8513 2.1864.7436 3.76.8208l-.0263 5.4853-3.2406.003c-.7295-1.5572-1.396-2.8056-2.8469-3.8224-4.4357-3.1093-10.1213-1.027-11.8502 3.1662-.211.5109-.1643.6603-.8725.642-.1674-1.7421-.0304-4.1871-.0304-6.0064 0-1.5623.5904-4.7061-1.3028-4.636-1.7937.066-1.2032 3.3226-1.2032 4.7671 0 1.8213.1197 4.0966-.0244 5.8885l-25.9264-.001c-.4301-.7426-.5894-1.3145-1.1373-2.1058-2.8398-4.1017-9.609-4.4664-12.8008.0965-.5327.7619-.6991 1.2749-1.0836 2.0113l-7.25825-.0315.03449-2.7954c1.33214-.0407 2.70996-.0132 4.04616-.0102 1.2215.003 2.6561.0803 2.5709-1.3327-.0792-1.3012-1.3839-1.1702-2.7018-1.1692-2.0596.002-10.77478-.2702-11.408884.3555-.871517.8584-.217118 2.0743 1.046024 2.1464 1.23879.0711 2.66021-.1046 3.87668.0345.09537 1.0554-.11871 2.5832.15827 3.5035.8421 2.8025 5.27581 1.7157 9.19811 1.8132.2486 2.6898.8898 4.1779 2.3487 5.6599 1.1911 1.2098 3.1625 2.3638 5.6634 2.3455 2.4481-.0173 4.461-1.1895 5.6095-2.3942 1.4438-1.5156 1.9947-2.8777 2.2798-5.6173l28.1604.0061c.279 2.704.8787 4.12 2.3437 5.6447 2.1265 2.2134 5.8865 3.1368 8.9709 1.6121.3804-.188.9141-.4724 1.2408-.7263 2.1214-1.6446 3.0559-3.2922 3.3501-6.4909 1.186-.1879 2.7769.0487 4.0167-.0559 1.5046-.127 1.3078-1.3682 1.3057-2.7457-.003-2.6684 0-5.3369 0-8.0054 0-2.6624.3014-4.9215-.8826-7.1217-1.0156-1.8873-2.6714-2.7497-4.7178-3.2779l-2.0109-8.235c.9182-.7121.9517-.643.9334-2.0986-.0122-.9488-.1146-1.7553-.3987-2.4806-1.8881-4.825-8.2556-2.9986-14.2811-3.3023-.0771-2.1392.3957-4.052-1.3058-4.9906-1.1018-.6074-4.3921-.3453-5.9099-.3453-4.1384 0-8.3854.0934-12.5106-.0071.3997-.5526 2.0474-.9732 2.7545-1.2627 1.4782-.6054 7.5464-2.8543 8.003-3.411.7102-.8665-.0305-2.1382-1.2449-1.9513-.9568.1473-6.4466 2.8036-8.3124 3.2312l3.5926-2.6532z" fill="currentColor" fill-rule="evenodd"/></svg>