<svg fill="none" height="71" viewBox="0 0 93 71" width="93" xmlns="http://www.w3.org/2000/svg"><path d="m26.9682 19.5074c.0842-.53.5121-.9499 1.0537-1.0173l2.944-.4557c.2094-.7952.6024-1.5367 1.1495-2.1213.7454-.7966 1.7596-1.3096 2.9767-1.3096h3.1414l2.9721-1.3748c.1661-.0766.3409-.1124.5126-.1124v-.0023h3.0977c.057-.1157.1256-.2313.2079-.3451.4142-.575 1.1136-1.0448 2.2943-1.0448h40.3037c.1187 0 .0368.0004 0 .0018v.0018l.0976.0019c2.1203.0248 3.4488.8397 4.2591 1.9511.7808 1.071 1.0215 2.3755 1.0215 3.4833 0 .1431-.0005.0463-.0018 0h-.0024l-.0013.077h.0046v10.1989c.0004-.0234.0004-.0234.0004.0615 0 1.1077-.2411 2.4127-1.0215 3.4832-.8103 1.1114-2.1387 1.9264-4.2591 1.9511l-.0975.0019v.0018c.0368.0009.1187.0019 0 .0019-.035 0-.0695-.0014-.1036-.0042l-8.6995.0344c-1.3961.4676-1.0505 2.6798-.6097 4.407.1427.5585.2724.9967.3833 1.372l3.4539 11.7324c.0345.1166.0437.1468.0451.15-.0005-.0032-.0083-.0302.0004 0 .1302.4557.266.9297 1.5659 1.2752.023.006.0456.0129.0681.0202l.3069.0776c1.7302.4345 4.2863 1.0765 4.2863 6.4994v5.9947c0 1.9915-.4965 3.4071-1.5825 4.3744-1.0505.9361-2.5533 1.3399-4.6028 1.3399h-21.5297c-1.2516 0-2.5746-.6388-3.5749-1.529-1.057-.9407-1.8042-2.2145-1.8042-3.3897v-7.809c0-.0477.0027-.0945.0082-.1404.0691-2.042.7869-3.5594 1.8761-4.6456 1.2939-1.2903 3.0866-1.9249 4.9129-2.0878.0612-.0055.122-.006.1818-.0023v-.0023c1.3772.0908 2.401-.0349 3.1018-.346.3589-.1592.624-.3708.7997-.6282.1745-.2556.2725-.58.2978-.965.0561-.8457-.2126-1.9199-.7708-3.1717l-.0041-.0096-.0005.0004-.814-1.8754h-2.0936c-.7528 0-1.4362-.3061-1.9308-.7993-.4947-.4933-.8016-1.1747-.8016-1.9254v-5.45c0-.1005.0124-.1983.0355-.2919l-5.5213-5.372h-7.1829c-1.1812 0-1.8802-.4698-2.2943-1.0448-.0824-.1138-.1505-.2299-.208-.3451h-3.0977c-.213 0-.4136-.0541-.5885-.1496l-2.7323-1.2641c-.1174-.0097-.2301-.0358-.3355-.0758h-2.9693c-1.2171 0-2.2313-.5134-2.9767-1.3096-.5471-.5846-.9401-1.3261-1.1494-2.1213l-2.9781-.4607c-.5499-.0849-.9571-.5231-1.0247-1.0472h-10.2005v47.8243c0 .6754-.549 1.2229-1.2263 1.2229h-14.31101c-.677337 0-1.22629-.5475-1.22629-1.2229v-68.55414c0-.675455.548953-1.22288617 1.22629-1.22288617h14.31101c.6773 0 1.2263.54743117 1.2263 1.22288617v18.28414h10.2051zm7.0287 15.8246c-.479-.4777-.479-1.2518 0-1.7291.479-.4776 1.2553-.4776 1.7339 0l.4693.4681c.479.4777.479 1.2518 0 1.729-.479.4777-1.2553.4777-1.7338 0zm-1.0868 10.5952c-.3493-.5749-.1648-1.3238.4118-1.6721s1.3275-.1642 1.6768.4107l.536.882c.3493.5749.1648 1.3238-.4118 1.6721s-1.3275.1643-1.6768-.4107zm-10.0841-3.134c-.185-.6489.1923-1.3248.843-1.5097.6506-.1845 1.3284.1918 1.5138.8406l.197.6847c.185.6488-.1924 1.3247-.843 1.5097-.6507.1844-1.3284-.1919-1.5139-.8407zm24.1677-28.4563v12.8221c0 .0533.0019.1294.0129.1446.0092.0124.0856.0229.3115.0229h7.6771v.0037c.3074 0 .6148.1147.8527.3451l7.9826 7.7663-.0014.0014c.1113.1078.2038.2391.2696.3905l3.7704 8.6878h-.0004c.7178 1.6129 1.0588 3.0666.9773 4.2991-.0547.8255-.2908 1.5597-.7192 2.1879-.427.6259-1.0353 1.1242-1.8341 1.4785-1.0482.4648-2.4277.6667-4.162.5607-1.2558.128-2.4567.552-3.2878 1.3803-.6741.6722-1.12 1.6437-1.1673 2.9868.0013.0234.0018.0463.0018.0702v7.809c0 .4561.4063 1.054.9806 1.5652.594.5286 1.322.9077 1.9464.9077h21.5297c1.4407 0 2.4181-.2139 2.9744-.7094.5209-.464.7588-1.2941.7588-2.5596v-5.9947c0-3.52-1.4481-3.8839-2.4277-4.1298-.1017-.0257-.1979-.0496-.3718-.0991l-.0318-.0078c-2.6532-.7058-2.9831-1.8584-3.2997-2.9662-.0442-.1551.0138.0377-.0359-.1307l-3.4538-11.7324c-.1339-.4524-.2904-.9806-.4119-1.4583-.7196-2.8197-1.114-6.4957 2.4922-7.4107l.0009.0037c.0948-.0239.1937-.0368.2959-.0372l8.8863-.0349c.0373-.0032.075-.005.1132-.005.179 0 .035.0032 0 .0046l.0686-.0005c1.2065-.0142 1.9123-.4098 2.3048-.948.422-.5787.5522-1.3624.5522-2.0503.0041-3.4199-.0005-6.8403-.0005-10.2607h.001l-.0005-.0771c0-.6879-.1302-1.4716-.5522-2.0502-.3925-.5383-1.0983-.9338-2.3048-.9481l-.0686-.0009c.035.0018.179.0051 0 .0051h-40.3037c-.2259 0-.3023.0101-.3115.0229-.011.0151-.0129.0913-.0129.1445zm-2.4525 11.5993v-10.3764h-2.5585l-2.2579 1.0448v8.2872l2.2579 1.0448h2.5585zm-7.2694-1.4895v-7.3975h-2.1797c-.4813 0-.8858.2065-1.1854.5264-.3846.4111-.6189.9971-.6598 1.6088h-.0028c-.0368.557-.456 1.0338-1.0321 1.1228l-2.7802.4304-.0004.0211 2.6983.4176c.5926.05 1.0758.5254 1.1167 1.1353.041.6116.2752 1.1976.6599 1.6087.2995.3199.7035.5264 1.1853.5264h2.1797zm-11.7273 2.4233c-.479-.4777-.479-1.2518 0-1.7291.479-.4776 1.2553-.4776 1.7338 0l6.5815 6.5632c.479.4777.479 1.2518 0 1.7291-.479.4776-1.2553.4776-1.7338 0zm-2.9454 2.3182c-.3492-.575-.1647-1.3239.4119-1.6722.5765-.3482 1.3275-.1642 1.6767.4107l8.3572 13.7514c.3492.575.1647 1.3239-.4118 1.6721-.5766.3483-1.3276.1643-1.6768-.4106zm-3.5293 1.4229c-.185-.6488.1923-1.3247.843-1.5097.6506-.1844 1.3284.1918 1.5139.8407l2.4548 8.5423c.185.6488-.1923 1.3248-.8429 1.5097-.6507.1844-1.3285-.1918-1.5139-.8407zm-4.7593-28.16445h-11.85838v66.10835h11.85838zm49.4408 38.71845-1.3123-3.0239v2.7445c0 .0752.0317.145.0833.1959.051.0509.121.083.1964.083h1.0326zm23.8701-29.4397c-.0166.0005-.024.001 0 .0019zm0 2.4394c-.0106-.0005-.0088 0 0 0zm2.9306 2.9987-.0027.0771h.0018l.0005-.0771zm2.4457 0c-.0005-.022-.0014-.033-.0023 0zm-2.4461 0c0-.0101.0004-.0128 0 0zm2.4466 10.2952-.0019.0422h.0014l.0009-.0422zm-.0019.0422-.0005.0101c.0005.0197.0014.0092.0019-.0101zm-5.3749 5.4362c-.024.0009-.0166.0014 0 .0019z" fill="currentColor"/></svg>