<svg fill="none" height="51" viewBox="0 0 62 51" width="62" xmlns="http://www.w3.org/2000/svg"><g fill="currentColor"><path d="m60.069 37.6325v12.1325h-2.4762v-12.1325l1.2381-1.2348zm-2.4762 0c0-.6824.5541-1.2348 1.2381-1.2348.6839 0 1.2381.5533 1.2381 1.2348zm-52.49437-1.2348h53.73247v2.4696h-53.73247l-1.23811-1.2348zm0 2.4696c-.68393 0-1.23811-.5533-1.23811-1.2348 0-.6824.55418-1.2348 1.23811-1.2348zm-1.23811 10.8977v-12.1325h2.47622v12.1325l-1.23811 1.2348zm2.47622 0c0 .6824-.55418 1.2348-1.23811 1.2348s-1.23811-.5533-1.23811-1.2348zm52.49436 1.2348h-53.73247v-2.4695h53.73247l1.2381 1.2347zm0-2.4695c.6839 0 1.2381.5532 1.2381 1.2347 0 .6824-.5542 1.2348-1.2381 1.2348z"/><path d="m45.9389 37.6325c0-.6824.5541-1.2348 1.2381-1.2348.6839 0 1.2381.5533 1.2381 1.2348zm0 10.7095v-10.7095h2.4762v10.7095zm2.4762 0c0 .6824-.5542 1.2347-1.2381 1.2347-.684 0-1.2381-.5532-1.2381-1.2347z"/><path d="m52.2952 37.6325c0-.6824.5542-1.2348 1.2381-1.2348s1.2381.5533 1.2381 1.2348zm0 10.7095v-10.7095h2.4762v10.7095zm2.4762 0c0 .6824-.5542 1.2347-1.2381 1.2347s-1.2381-.5532-1.2381-1.2347z"/><path d="m17.9913 37.6325h-2.4762c0-.6824.5542-1.2348 1.2381-1.2348s1.2381.5533 1.2381 1.2348zm0 10.7095h-2.4762v-10.7095h2.4762zm-2.4762 0h2.4762c0 .6824-.5542 1.2347-1.2381 1.2347s-1.2381-.5532-1.2381-1.2347z"/><path d="m11.6341 37.6325h-2.47623c0-.6824.55417-1.2348 1.23813-1.2348.6839 0 1.2381.5533 1.2381 1.2348zm0 10.7095h-2.47623v-10.7095h2.47623zm-2.47623 0h2.47623c0 .6824-.5542 1.2347-1.2381 1.2347-.68396 0-1.23813-.5532-1.23813-1.2347z"/><path d="m56.2096 37.6325-1.2381 1.2348-1.2382-1.2348v-12.1326h2.4763zm-2.4763 0h2.4763c0 .6824-.5542 1.2348-1.2381 1.2348-.684 0-1.2382-.5533-1.2382-1.2348zm-52.49428 1.2348-1.23810447-1.2348 1.23810447-1.2348h53.73248v2.4696zm0-2.4696v2.4696c-.68393 0-1.23810447-.5533-1.23810447-1.2348 0-.6824.55417447-1.2348 1.23810447-1.2348zm-1.23810447-10.8978 1.23810447-1.2348 1.23811 1.2348v12.1326h-2.47621447zm2.47621447 0h-2.47621447c0-.6824.55417447-1.2348 1.23810447-1.2348.68394 0 1.23811.5533 1.23811 1.2348zm52.49437-1.2348 1.2381 1.2348-1.2381 1.2348h-53.73248v-2.4696zm0 2.4696v-2.4696c.6839 0 1.2381.5533 1.2381 1.2348 0 .6824-.5542 1.2348-1.2381 1.2348z"/><path d="m42.0786 37.6325h2.4762c0 .6824-.5542 1.2348-1.2381 1.2348-.684 0-1.2381-.5533-1.2381-1.2348zm0-10.7095h2.4762v10.7095h-2.4762zm2.4762 0h-2.4762c0-.6824.5541-1.2348 1.2381-1.2348.6839 0 1.2381.5533 1.2381 1.2348z"/><path d="m48.4349 37.6325h2.4762c0 .6824-.5542 1.2348-1.2381 1.2348s-1.2381-.5533-1.2381-1.2348zm0-10.7095h2.4762v10.7095h-2.4762zm2.4762 0h-2.4762c0-.6824.5542-1.2348 1.2381-1.2348s1.2381.5533 1.2381 1.2348z"/><path d="m14.131 37.6325c0 .6824-.5541 1.2348-1.2381 1.2348-.6839 0-1.2381-.5533-1.2381-1.2348zm0-10.7095v10.7095h-2.4762v-10.7095zm-2.4762 0c0-.6824.5542-1.2348 1.2381-1.2348.684 0 1.2381.5533 1.2381 1.2348z"/><path d="m7.77379 37.6325c0 .6824-.55417 1.2348-1.23811 1.2348-.68393 0-1.2381-.5533-1.2381-1.2348zm0-10.7095v10.7095h-2.47621v-10.7095zm-2.47621 0c0-.6824.55417-1.2348 1.2381-1.2348.68394 0 1.23811.5533 1.23811 1.2348z"/><path d="m58.7191 13.3673v12.1326h-2.4762v-12.1326l1.2381-1.2347zm-2.4762 0c0-.6824.5542-1.2347 1.2381-1.2347s1.2381.5532 1.2381 1.2347zm-52.49433-1.2347h53.73243v2.4695h-53.73243l-1.2381-1.2348zm0 2.4695c-.68393 0-1.2381-.5533-1.2381-1.2348 0-.6824.55417-1.2347 1.2381-1.2347zm-1.2381 10.8978v-12.1326h2.47621v12.1326l-1.23811 1.2348zm2.47621 0c0 .6824-.55417 1.2348-1.23811 1.2348-.68393 0-1.2381-.5533-1.2381-1.2348zm52.49432 1.2348h-53.73243v-2.4696h53.73243l1.2381 1.2348zm0-2.4696c.6839 0 1.2381.5533 1.2381 1.2348 0 .6824-.5542 1.2348-1.2381 1.2348z"/><path d="m44.5881 13.3673c0-.6824.5542-1.2347 1.2381-1.2347s1.2381.5532 1.2381 1.2347zm0 10.7095v-10.7095h2.4762v10.7095zm2.4762 0c0 .6824-.5542 1.2348-1.2381 1.2348s-1.2381-.5533-1.2381-1.2348z"/><path d="m50.9444 13.3673c0-.6824.5542-1.2347 1.2381-1.2347.684 0 1.2382.5532 1.2382 1.2347zm0 10.7095v-10.7095h2.4763v10.7095zm2.4763 0c0 .6824-.5542 1.2348-1.2382 1.2348-.6839 0-1.2381-.5533-1.2381-1.2348z"/><path d="m16.6406 13.3673h-2.4762c0-.6824.5541-1.2347 1.2381-1.2347.6839 0 1.2381.5532 1.2381 1.2347zm0 10.7095h-2.4762v-10.7095h2.4762zm-2.4762 0h2.4762c0 .6824-.5542 1.2348-1.2381 1.2348-.684 0-1.2381-.5533-1.2381-1.2348z"/><path d="m10.2833 13.3673h-2.47617c0-.6824.55417-1.2347 1.23811-1.2347.68393 0 1.23806.5532 1.23806 1.2347zm0 10.7095h-2.47617v-10.7095h2.47617zm-2.47617 0h2.47617c0 .6824-.55413 1.2348-1.23806 1.2348-.68394 0-1.23811-.5533-1.23811-1.2348z"/><path d="m62 13.3673-1.2381 1.2348-1.2381-1.2348v-12.13252h2.4762zm-2.4762 0h2.4762c0 .6824-.5542 1.2348-1.2381 1.2348s-1.2381-.5533-1.2381-1.2348zm-52.49434 1.2348-1.23811-1.2348 1.23811-1.2347h53.73244v2.4695zm0-2.4695v2.4695c-.68393 0-1.23811-.5533-1.23811-1.2348 0-.6824.55418-1.2347 1.23811-1.2347zm-1.23811-10.89782 1.23811-1.23478 1.23811 1.23478v12.13252h-2.47622zm2.47622 0h-2.47622c0-.682403.55418-1.23478 1.23811-1.23478s1.23811.553273 1.23811 1.23478zm52.49433-1.23478 1.2381 1.23478-1.2381 1.23477h-53.73244v-2.46955zm0 2.46955v-2.46955c.6839 0 1.2381.553273 1.2381 1.23478 0 .6824-.5542 1.23477-1.2381 1.23477z"/><path d="m47.869 13.3673h2.4762c0 .6824-.5542 1.2348-1.2381 1.2348s-1.2381-.5532-1.2381-1.2348zm0-10.70943h2.4762v10.70943h-2.4762zm2.4762 0h-2.4762c0-.6824.5542-1.23477 1.2381-1.23477s1.2381.55327 1.2381 1.23477z"/><path d="m54.2253 13.3673h2.4762c0 .6824-.5541 1.2348-1.2381 1.2348-.6839 0-1.2381-.5532-1.2381-1.2348zm0-10.70943h2.4762v10.70943h-2.4762zm2.4762 0h-2.4762c0-.6824.5542-1.23477 1.2381-1.23477.684 0 1.2381.55327 1.2381 1.23477z"/><path d="m19.9215 13.3673c0 .6824-.5542 1.2348-1.2381 1.2348-.684 0-1.2381-.5532-1.2381-1.2348zm0-10.70943v10.70943h-2.4762v-10.70943zm-2.4762 0c0-.6824.5541-1.23477 1.2381-1.23477.6839 0 1.2381.55327 1.2381 1.23477z"/><path d="m13.5642 13.3673c0 .6824-.5541 1.2348-1.2381 1.2348-.6839 0-1.2381-.5532-1.2381-1.2348zm0-10.70943v10.70943h-2.4762v-10.70943zm-2.4762 0c0-.6824.5542-1.23477 1.2381-1.23477.684 0 1.2381.55327 1.2381 1.23477z"/></g></svg>