<svg fill="none" height="61" viewBox="0 0 61 61" width="61" xmlns="http://www.w3.org/2000/svg" xmlns:xlink="http://www.w3.org/1999/xlink"><clipPath id="a"><path d="m0 0h60.9998v61h-60.9998z"/></clipPath><g clip-path="url(#a)" fill="currentColor"><path d="m10.7283 47.1737c-.85378 0-1.6747.2132-2.4032.6132-3.83681-4.9181-5.94283-11.028-5.94283-17.2869 0-15.5044 12.61313-28.1172 28.11693-28.1172 1.8848 0 3.7687.18735 5.5994.55757.644.1302 1.2731-.28673 1.4038-.93175.1302-.64503-.2867-1.27317-.9317-1.404361-1.9858-.401028-4.0287-.604259-6.0715-.604259-8.1467 0-15.8059 3.17243-21.56687 8.93342-5.76043 5.76048-8.93333708 13.42028-8.93333708 21.56708 0 6.8527 2.32713708 13.5405 6.56347708 18.902-.54563.815-.83882 1.7725-.83882 2.7754 0 1.3367.52079 2.593 1.46595 3.5382.94467.9451 2.20142 1.4659 3.5382 1.4659 1.3367 0 2.5929-.5208 3.5381-1.4659.9452-.9447 1.4655-2.202 1.4655-3.5387 0-1.3363-.5203-2.593-1.4655-3.5377-.9452-.9452-2.2019-1.4655-3.5386-1.4655zm1.853 6.8572c-.4944.495-1.1534.7678-1.853.7678-.6997 0-1.35817-.2728-1.85311-.7678-.49494-.4949-.76774-1.1533-.76774-1.853 0-.7002.2728-1.3587.76774-1.8536.49445-.4955 1.15341-.7673 1.85311-.7673.7001 0 1.3581.2728 1.853.7673.4915.488.7683 1.1534.7683 1.8466v.007c0 .7002-.2729 1.3581-.7678 1.853zm41.8536-42.4344c1.295-1.94301 1.0873-4.59965-.6261-6.31259-.9452-.94468-2.202-1.46545-3.5382-1.46545-1.3368 0-2.593.52077-3.5382 1.46545-.9451.94517-1.4654 2.20194-1.4654 3.5387 0 1.33679.5203 2.59299 1.4654 3.53819.9452.9452 2.202 1.4655 3.5387 1.4655.8537 0 1.6747-.2132 2.4032-.6132 3.8368 4.9186 5.9428 11.028 5.9428 17.2869 0 15.5044-12.6132 28.1172-28.1169 28.1172-1.866 0-3.7325-.1839-5.5458-.5467-.645-.1287-1.2726.2898-1.4023.9348-.1287.6455.2897 1.2726.9342 1.4023 1.9733.3901 3.9929.5929 6.0089.5929h.004c8.1467 0 15.8059-3.1725 21.5668-8.9334 5.7619-5.7605 8.9343-13.4203 8.9343-21.5671 0-6.8533-2.3276-13.5415-6.5644-18.9035zm-6.0174-.9208c-.4914-.488-.7677-1.15341-.7677-1.84664 0-.00248 0-.00496 0-.00695 0-.70018.2728-1.35813.7677-1.85308.4945-.49495 1.1534-.76778 1.8531-.76778s1.3586.27283 1.8536.76778c1.0216 1.0222 1.0216 2.68496 0 3.70667-.4885.491-1.1539.7673-1.8472.7673-.0024 0-.0044 0-.0064 0s-.005 0-.007 0c-.6927 0-1.3576-.2768-1.8456-.7678z"/><path d="m25.583 50.9922c0 .658.5338 1.1917 1.1917 1.1917h7.4495c.6579 0 1.1916-.5332 1.1916-1.1917v-2.3097c1.5629-.4185 3.0706-1.0451 4.4714-1.8536l1.6304 1.6304c.2232.2241.5268.3499.8423.3499.3161 0 .6197-.1258.8428-.3499l5.2655-5.269c.4652-.4656.4652-1.22 0-1.6846l-1.6289-1.629c.8085-1.4013 1.4346-2.909 1.8541-4.4714h2.3002c.658 0 1.1917-.5332 1.1917-1.1917v-7.4495c0-.658-.5332-1.1917-1.1917-1.1917h-2.3012c-.419-1.5634-1.0431-3.0671-1.8516-4.4704l1.62-1.6201c.2226-.2241.3483-.5277.3483-.8438-.0005-.316-.1262-.6191-.3493-.8428l-5.2695-5.2655c-.4651-.4651-1.2194-.4651-1.6846.0005l-1.618 1.618c-1.4013-.8085-2.909-1.4346-4.4719-1.854v-2.2879c0-.65799-.5332-1.1917-1.1916-1.1917h-7.4495c-.6574 0-1.1917.53321-1.1917 1.1917v2.2888c-1.5608.419-3.072 1.0446-4.4718 1.8526l-1.6181-1.618c-.4646-.4651-1.2194-.4656-1.6846-.0005l-5.2689 5.266c-.2226.2237-.3489.5268-.3489.8428 0 .3161.1258.6197.3489.8428l1.62 1.6201c-.8085 1.4018-1.4351 2.9095-1.8541 4.4714l-2.2958-.0005c-.65793 0-1.19164.5332-1.19164 1.1912l-.00446 7.4495c-.0005.3161.12523.6197.34885.8428.22362.2232.52625.3489.84275.3489h2.3008c.4184 1.5624 1.0451 3.0701 1.8536 4.4709l-1.629 1.629c-.4651.4646-.4656 1.2195 0 1.6846l5.2655 5.269c.2231.2237.5263.3499.8423.3499h.0005c.3161 0 .6192-.1257.8423-.3494l1.6305-1.6304c1.4023.808 2.9095 1.4346 4.4708 1.8541l.0005 2.3087zm-4.0042-6.6689c-.1923-.1242-.4175-.1908-.6465-.1908-.3161 0-.6192.1257-.8428.3488l-1.4506 1.4506-3.5809-3.5839 1.4491-1.4496c.2231-.2231.3488-.5262.3488-.8423 0-.2291-.0665-.4542-.1908-.6465-1.0803-1.6717-1.8396-3.5039-2.2566-5.4464-.1177-.5486-.6032-.9412-1.1648-.9412h-2.0463l.003-5.0668h2.0433c.5616 0 1.0471-.3926 1.1648-.9412.417-1.942 1.1768-3.7742 2.2566-5.4459.1243-.1928.1908-.4174.1908-.6465 0-.3161-.1257-.6192-.3488-.8423l-1.4401-1.4407 3.5839-3.5809 1.4386 1.4391c.2236.2232.5267.3489.8428.3489.229 0 .4542-.0661.6465-.1903 1.6712-1.0804 3.5033-1.8397 5.4458-2.2566.5486-.1178.9412-.6038.9412-1.1648v-2.0345h5.0667v2.0345c0 .5615.3921 1.047.9412 1.1648 1.9346.4144 3.7847 1.1812 5.4459 2.2566.1928.1242.4174.1908.6465.1908.3161 0 .6192-.1257.8423-.3489l1.4391-1.4386 3.5839 3.5809-1.4401 1.4402c-.2231.2236-.3494.5262-.3494.8423 0 .2291.0666.4542.1909.6465 1.0753 1.6612 1.8421 3.5123 2.2565 5.4469.1173.5481.6028.9407 1.1643.9407h.0005 2.0474v5.0668h-2.0474c-.5615 0-1.0465.3921-1.1648.9407-.4144 1.9345-1.1807 3.7842-2.2555 5.4464-.1253.1923-.1919.4174-.1919.6465 0 .3161.1258.6192.3489.8423l1.449 1.4491-3.5808 3.5839-1.4506-1.4501c-.2236-.2231-.5262-.3488-.8423-.3488-.2291 0-.4542.0666-.6465.1908-1.6612 1.0754-3.5123 1.8427-5.4469 2.2566-.5481.1178-.9402.6033-.9402 1.1648v2.0559h-5.0667v-2.0559c0-.561-.3921-1.0465-.9412-1.1648-1.942-.4169-3.7741-1.1767-5.4458-2.2566z"/><path d="m40.3439 30.5c0-5.4285-4.4162-9.8443-9.8442-9.8443-5.4285 0-9.8442 4.4163-9.8442 9.8443 0 5.4286 4.4162 9.8444 9.8442 9.8444 5.4285 0 9.8442-4.4163 9.8442-9.8444zm-17.3062 0c0-4.1146 3.3474-7.4615 7.4615-7.4615 4.1146 0 7.4614 3.3479 7.4614 7.4615 0 4.1142-3.3473 7.4615-7.4614 7.4615-4.1146 0-7.4615-3.3473-7.4615-7.4615zm18.4317-25.99423c.3136 0 .6207-.12772.8423-.34886.2222-.22461.3479-.52774.3489-.84379 0-.31208-.1272-.61969-.3489-.84232-.2241-.22263-.5267-.34835-.8423-.34885-.3155.0005-.6181.12622-.8418.34885-.2226.22362-.3483.52676-.3493.84232 0 .31456.1277.62067.3493.84379.2237.22263.5263.34836.8418.34886zm-21.8883 52.00993c-.3156.001-.6187.1267-.8423.3488-.2221.2236-.3479.5268-.3488.8423 0 .3146.1277.6207.3488.8423.2216.2217.5292.3489.8423.3489s.6207-.1277.8423-.3489c.2216-.2216.3488-.5292.3488-.8423 0-.313-.1277-.6211-.3488-.8423-.2236-.2221-.5268-.3478-.8423-.3488z"/></g></svg>