<svg fill="none" height="51" viewBox="0 0 53 51" width="53" xmlns="http://www.w3.org/2000/svg" xmlns:xlink="http://www.w3.org/1999/xlink"><clipPath id="a"><path d="m0 0h52.155v51h-52.155z"/></clipPath><g clip-path="url(#a)" fill="currentColor"><path d="m51.072-.00024414h-49.98879c-.598215 0-1.08308793.45477614-1.08308793 1.01584414v41.1538c0 4.8691 4.22356793 8.8301 9.41466793 8.8301 3.61051 0 6.75261-1.9167 8.33161-4.722 1.5789 2.8053 4.7207 4.722 8.3316 4.722 3.6105 0 6.7526-1.9167 8.3315-4.722 1.579 2.8053 4.7207 4.722 8.3316 4.722 5.1914 0 9.4147-3.9613 9.4147-8.8301v-41.1538c0-.561068-.4849-1.01584414-1.0831-1.01584414zm-34.409 42.16994414c0 3.7484-3.2516 6.7981-7.24821 6.7981-3.99659 0-7.24814-3.0497-7.24814-6.7981v-8.0312c1.72833 1.9543 4.33594 3.2012 7.24814 3.2012 2.91251 0 5.52011-1.2469 7.24821-3.2012zm0-13.718v.0577c0 3.7484-3.2516 6.798-7.24821 6.798-3.99659 0-7.24814-3.0496-7.24814-6.798v-8.147c1.72833 1.9544 4.33594 3.2013 7.24814 3.2013 2.91251 0 5.52011-1.2469 7.24821-3.2013zm0-13.718c0 3.7484-3.2516 6.798-7.24821 6.798-3.99659 0-7.24814-3.0496-7.24814-6.798v-12.70196h14.49665v12.70196zm16.6628 27.436c0 3.7484-3.2516 6.7981-7.2482 6.7981s-7.2481-3.0497-7.2481-6.7981v-8.0312c1.7283 1.9543 4.3359 3.2012 7.2481 3.2012 2.9126 0 5.5202-1.2469 7.2482-3.2012zm0-13.718v.0577c0 3.7484-3.2516 6.798-7.2482 6.798s-7.2481-3.0496-7.2481-6.798v-8.147c1.7283 1.9544 4.3359 3.2013 7.2481 3.2013 2.9126 0 5.5202-1.2469 7.2482-3.2013zm0-13.718c0 3.7484-3.2516 6.798-7.2482 6.798s-7.2481-3.0496-7.2481-6.798v-12.70196h14.4966v12.70196zm16.6628 27.436c0 3.7484-3.2515 6.7981-7.2481 6.7981s-7.2482-3.0497-7.2482-6.7981v-8.0312c1.7283 1.9543 4.336 3.2012 7.2482 3.2012 2.9125 0 5.5201-1.2469 7.2481-3.2012zm0-13.718v.0577c0 3.7484-3.2515 6.798-7.2481 6.798s-7.2482-3.0496-7.2482-6.798v-8.147c1.7283 1.9544 4.336 3.2013 7.2482 3.2013 2.9125 0 5.5201-1.2469 7.2481-3.2013zm0-13.718c0 3.7484-3.2515 6.798-7.2481 6.798s-7.2482-3.0496-7.2482-6.798v-12.70196h14.4967v12.70196z"/><path d="m47.9582 3.15454c-.5982 0-1.0831.45476-1.0831 1.01583v4.67335c0 .56106.4849 1.01583 1.0831 1.01583s1.0831-.45477 1.0831-1.01583v-4.67335c0-.56107-.4849-1.01583-1.0831-1.01583zm0 7.72116c-.5982 0-1.0831.4548-1.0831 1.0158v1.0159c0 .561.4849 1.0158 1.0831 1.0158s1.0831-.4548 1.0831-1.0158v-1.0159c0-.5607-.4849-1.0158-1.0831-1.0158z"/></g></svg>