<svg fill="none" height="36" viewBox="0 0 75 36" width="75" xmlns="http://www.w3.org/2000/svg"><path d="m74.9934 1.79868-.0046 32.54902c0 .9089-.7425 1.6459-1.6582 1.6459v.0066h-71.66578c-.91938 0-1.66482-.7399-1.66482-1.6525 0-.0494.0024848-.0979.00662614-.146l.00372716-32.54895c0-.908879.7425417-1.64592873 1.6581867-1.64592873v-.00657713h12.24306 11.7899 11.7979 11.7986 11.7942 12.243c.9194 0 1.6648.73992786 1.6648 1.65250586 0 .04933-.0025.09783-.0066.14593zm-12.2364 1.50616v6.33173c0 .91253-.7455 1.65253-1.6648 1.65253-.9194 0-1.6649-.74-1.6649-1.65253v-6.33173h-8.4649v11.47056c0 .9125-.7454 1.6525-1.6648 1.6525-.9193 0-1.6648-.74-1.6648-1.6525v-11.47056h-8.4694v6.33173c0 .91253-.7455 1.65253-1.6648 1.65253-.9194 0-1.6649-.74-1.6649-1.65253v-6.33173h-8.4686v11.47056c0 .9125-.7454 1.6525-1.6648 1.6525s-1.6648-.74-1.6648-1.6525v-11.47056h-8.4608v6.33173c0 .91253-.7454 1.65253-1.6648 1.65253s-1.6648-.74-1.6648-1.65253v-6.33173h-8.92044l-.00331 29.39076h68.34985l.0041-29.39076h-8.92z" fill="currentColor"/></svg>