<?xml version="1.0" standalone="no"?>
<!DOCTYPE svg PUBLIC "-//W3C//DTD SVG 20010904//EN"
 "http://www.w3.org/TR/2001/REC-SVG-20010904/DTD/svg10.dtd">
<svg version="1.0" xmlns="http://www.w3.org/2000/svg"
 width="189.000000pt" height="174.000000pt" viewBox="0 0 189.000000 174.000000"
 preserveAspectRatio="xMidYMid meet">
<metadata>
Created by potrace 1.16, written by Peter Selinger 2001-2019
</metadata>
<g transform="translate(0.000000,174.000000) scale(0.100000,-0.100000)"
   fill="currentColor" stroke="none">
<path d="M1352 1733 c-48 -3 -75 -11 -115 -35 -29 -17 -72 -42 -97 -56 -43
-24 -336 -194 -470 -272 -180 -105 -319 -185 -355 -204 -106 -58 -147 -86
-227 -159 -72 -65 -88 -85 -88 -108 0 -40 33 -38 109 6 32 19 62 35 65 35 3 0
6 -145 6 -323 l0 -323 255 -147 c141 -81 261 -147 268 -147 7 0 17 4 22 9 6 5
116 69 245 143 129 74 266 153 304 176 37 23 70 42 72 42 3 0 59 32 127 72 67
39 147 85 177 103 l55 31 2 109 c1 61 2 160 2 220 l1 110 63 34 c90 50 117 70
117 91 0 10 -36 91 -80 179 -44 89 -80 164 -80 167 0 3 -48 62 -106 130 l-105
124 -52 -2 c-29 -1 -80 -3 -115 -5z m8 -68 c0 -2 -15 -12 -32 -21 -18 -9 -73
-40 -123 -69 -106 -62 -454 -264 -505 -293 -19 -11 -64 -37 -100 -57 -173
-101 -236 -135 -250 -135 -18 0 -3 10 190 120 80 46 186 107 235 136 529 307
585 338 585 319z m202 -90 c34 -42 64 -79 65 -83 2 -4 -46 -34 -105 -68 -59
-33 -210 -121 -337 -194 -343 -198 -485 -280 -535 -308 -25 -13 -50 -29 -56
-33 -7 -6 -30 13 -64 54 -30 34 -62 72 -72 83 -19 21 -19 22 24 46 24 13 120
69 213 123 94 54 229 132 300 173 72 41 189 109 260 150 177 103 229 132 237
132 3 0 35 -34 70 -75z m204 -444 c-73 -42 -229 -132 -296 -171 -104 -61 -442
-256 -480 -278 -89 -50 -158 -90 -190 -110 -19 -12 -38 -22 -43 -22 -4 0 -28
44 -53 98 -26 53 -55 114 -65 134 l-19 36 143 83 c78 45 183 106 232 134 50
29 178 103 285 165 226 130 323 186 365 211 l30 19 66 -137 67 -138 -42 -24z
m-1315 -213 c65 -77 102 -134 148 -225 l61 -123 0 -231 c0 -144 -4 -229 -10
-227 -5 1 -99 55 -209 118 l-201 115 0 338 0 337 63 0 62 0 86 -102z m1189
-121 l0 -174 -146 -84 c-81 -46 -163 -93 -183 -105 -20 -12 -144 -83 -276
-159 -132 -75 -255 -146 -272 -157 l-33 -20 1 179 0 178 57 29 c44 22 534 303
807 462 22 13 41 24 43 24 1 0 2 -78 2 -173z"/>
</g>
</svg>
