<?xml version="1.0" standalone="no"?>
<!DOCTYPE svg PUBLIC "-//W3C//DTD SVG 20010904//EN"
 "http://www.w3.org/TR/2001/REC-SVG-20010904/DTD/svg10.dtd">
<svg version="1.0" xmlns="http://www.w3.org/2000/svg"
 width="177.000000pt" height="155.000000pt" viewBox="0 0 177.000000 155.000000"
 preserveAspectRatio="xMidYMid meet">
<metadata>
Created by potrace 1.16, written by Peter Selinger 2001-2019
</metadata>
<g transform="translate(0.000000,155.000000) scale(0.100000,-0.100000)"
   fill="currentColor" stroke="none">
<path d="M1235 1535 l-110 -12 -230 -133 c-127 -73 -336 -193 -465 -268 -375
-216 -419 -242 -425 -252 -4 -6 -3 -20 0 -31 7 -20 12 -21 80 -16 l72 7 7 -38
c3 -20 6 -141 6 -269 l0 -231 88 -50 c48 -27 163 -93 255 -146 93 -54 175 -95
183 -92 8 3 58 31 111 62 54 31 152 88 218 126 66 38 122 74 123 79 2 5 9 9
17 9 11 0 240 128 388 217 l57 34 0 248 0 248 80 47 c64 37 80 51 80 70 0 16
-52 89 -152 214 l-153 191 -60 -1 c-33 0 -110 -6 -170 -13z m35 -68 c0 -2 -62
-39 -137 -82 -76 -43 -163 -93 -193 -111 -30 -17 -181 -105 -335 -194 -249
-145 -287 -163 -340 -170 -33 -4 -61 -7 -62 -6 -1 1 85 51 190 111 106 60 322
185 480 277 197 114 299 168 325 171 67 7 72 7 72 4z m288 -154 c67 -86 121
-157 120 -158 -4 -4 -806 -467 -972 -562 -33 -19 -63 -30 -67 -26 -11 12 -153
189 -201 251 -22 29 -39 55 -36 57 5 5 227 134 568 330 107 62 254 146 325
188 72 42 132 76 135 76 3 0 60 -71 128 -156z m-18 -531 l0 -208 -262 -151
c-145 -83 -329 -189 -410 -236 l-148 -86 0 208 0 207 248 142 c136 78 319 185
407 236 88 52 161 94 163 95 1 1 2 -92 2 -207z m-1120 -62 c38 -47 96 -120
130 -162 39 -51 67 -78 80 -78 19 0 20 -7 20 -186 0 -173 -1 -186 -17 -180
-10 4 -105 57 -210 119 l-193 112 0 247 0 247 43 3 c48 4 41 9 147 -122z"/>
</g>
</svg>
