<?xml version="1.0" standalone="no"?>
<!DOCTYPE svg PUBLIC "-//W3C//DTD SVG 20010904//EN"
 "http://www.w3.org/TR/2001/REC-SVG-20010904/DTD/svg10.dtd">
<svg version="1.0" xmlns="http://www.w3.org/2000/svg"
 width="177.000000pt" height="164.000000pt" viewBox="0 0 177.000000 164.000000"
 preserveAspectRatio="xMidYMid meet">
<metadata>
Created by potrace 1.16, written by Peter Selinger 2001-2019
</metadata>
<g transform="translate(0.000000,164.000000) scale(0.100000,-0.100000)"
   fill="currentColor" stroke="none">
<path d="M1215 1586 c-49 -29 -288 -169 -530 -310 -413 -241 -665 -392 -680
-408 -17 -16 11 -50 68 -82 34 -20 69 -40 77 -45 12 -8 16 -50 20 -233 l5
-223 170 -98 c296 -170 327 -187 342 -187 7 0 71 33 141 74 264 153 442 256
592 341 85 48 163 95 173 103 15 14 17 39 17 261 l0 246 80 45 c68 39 80 49
80 72 0 15 -8 33 -19 40 -11 8 -61 52 -113 99 -51 47 -110 100 -130 118 -21
18 -62 78 -95 137 -70 126 -70 126 -198 50z m164 -143 c23 -43 55 -81 105
-124 105 -91 189 -170 185 -173 -10 -7 -196 -116 -414 -241 -326 -187 -423
-244 -430 -256 -4 -5 -12 -9 -20 -9 -7 0 -41 -16 -75 -36 -33 -20 -63 -34 -67
-31 -3 3 -21 83 -39 177 -27 139 -40 182 -70 238 -20 37 -41 73 -47 80 -5 7
-8 14 -6 16 2 2 186 109 409 238 l405 236 16 -27 c8 -14 30 -54 48 -88z m-944
-515 l92 -51 29 -149 c17 -82 27 -147 24 -146 -25 11 -460 264 -460 268 0 7
203 130 214 130 5 0 51 -23 101 -52z m1105 -152 l0 -204 -137 -80 c-76 -44
-154 -89 -173 -100 -19 -11 -141 -81 -270 -155 l-235 -136 -3 206 c-2 211 1
233 37 233 9 0 32 10 51 22 19 12 107 63 195 113 326 188 421 243 470 273 28
17 53 31 58 31 4 1 7 -91 7 -203z m-1100 -200 c100 -58 188 -106 196 -106 12
0 14 -32 14 -186 l0 -185 -53 30 c-28 16 -122 70 -207 119 l-155 89 -3 178
c-2 150 0 176 12 172 8 -3 96 -53 196 -111z"/>
</g>
</svg>
