<?xml version="1.0" standalone="no"?>
<!DOCTYPE svg PUBLIC "-//W3C//DTD SVG 20010904//EN"
 "http://www.w3.org/TR/2001/REC-SVG-20010904/DTD/svg10.dtd">
<svg version="1.0" xmlns="http://www.w3.org/2000/svg"
 width="216.000000pt" height="174.000000pt" viewBox="0 0 216.000000 174.000000"
 preserveAspectRatio="xMidYMid meet">
<metadata>
Created by potrace 1.16, written by Peter Selinger 2001-2019
</metadata>
<g transform="translate(0.000000,174.000000) scale(0.100000,-0.100000)"
   fill="currentColor" stroke="none">
<path d="M1185 1698 c-38 -22 -88 -50 -110 -63 -22 -12 -96 -55 -165 -95 -183
-106 -504 -291 -590 -341 -41 -23 -129 -74 -195 -113 -153 -91 -155 -98 -38
-169 l83 -49 1 -87 c1 -47 2 -151 3 -230 l1 -144 65 -40 c58 -35 320 -187 440
-255 25 -14 78 -45 118 -69 41 -24 84 -43 97 -43 12 0 89 39 171 86 294 170
691 399 798 460 60 35 113 69 117 76 5 7 9 114 8 238 0 123 3 226 8 227 4 2
43 24 86 49 80 47 93 67 60 96 -19 16 -19 16 -263 156 -91 52 -190 109 -220
127 -30 18 -98 57 -150 87 -52 30 -127 74 -166 96 -39 23 -75 42 -80 41 -5 0
-40 -18 -79 -41z m143 -77 c26 -15 68 -39 93 -53 24 -14 71 -41 104 -60 33
-19 133 -77 222 -128 90 -52 162 -95 160 -96 -3 -3 -761 147 -765 151 -3 3
130 215 135 215 1 0 24 -13 51 -29z m-225 -103 c-25 -40 -47 -75 -49 -77 -5
-6 -518 -210 -521 -207 -2 1 36 25 85 52 48 26 186 106 307 176 121 71 221
128 222 128 2 0 -18 -33 -44 -72z m142 -177 c55 -11 251 -50 435 -86 184 -37
336 -67 337 -69 1 -1 -32 -22 -75 -46 -42 -24 -102 -58 -132 -76 -257 -152
-854 -493 -858 -490 -2 3 31 183 74 400 74 370 80 395 99 391 11 -3 65 -13
120 -24z m-294 -390 c-44 -216 -81 -394 -83 -395 -3 -4 -240 130 -333 187 -27
16 -95 56 -150 87 -164 93 -266 153 -263 156 6 5 903 363 905 360 1 -1 -33
-179 -76 -395z m969 -99 l0 -188 -127 -73 c-71 -41 -216 -124 -323 -186 -107
-61 -265 -153 -351 -203 -87 -51 -164 -95 -173 -98 -15 -6 -16 12 -14 181 l3
188 190 110 c105 60 278 160 385 222 107 62 242 140 300 174 58 33 106 61 107
61 2 0 3 -85 3 -188z m-1380 -196 c102 -60 215 -126 253 -148 l67 -40 0 -184
c0 -101 -2 -184 -5 -184 -5 0 -60 31 -410 232 l-200 115 -3 191 -2 191 57 -33
c32 -18 141 -81 243 -140z"/>
</g>
</svg>
