<?xml version="1.0" standalone="no"?>
<!DOCTYPE svg PUBLIC "-//W3C//DTD SVG 20010904//EN"
 "http://www.w3.org/TR/2001/REC-SVG-20010904/DTD/svg10.dtd">
<svg version="1.0" xmlns="http://www.w3.org/2000/svg"
 width="600.000000pt" height="600.000000pt" viewBox="0 0 600.000000 600.000000"
 preserveAspectRatio="xMidYMid meet">
<metadata>
Created by potrace 1.16, written by Peter Selinger 2001-2019
</metadata>
<g transform="translate(0.000000,600.000000) scale(0.100000,-0.100000)"
fill="currentColor" stroke="none">
<path d="M2579 5978 c-11 -13 -595 -907 -1299 -1988 l-1280 -1965 0 -1012 0
-1013 3000 0 3000 0 0 1004 0 1005 -1298 1993 -1298 1993 -403 3 -402 2 -20
-22z m1892 -2103 l1217 -1870 -1343 -3 c-739 -1 -1951 -1 -2693 0 l-1350 3
1139 1750 c627 963 1176 1805 1220 1873 l80 122 256 -2 256 -3 1218 -1870z
m-3971 -2625 l0 -500 -125 0 -125 0 0 500 0 500 125 0 125 0 0 -500z m2130 79
l0 -420 -82 44 c-65 35 -1243 647 -1483 770 l-50 26 808 1 807 0 0 -421z m500
-79 l0 -500 -125 0 -125 0 0 500 0 500 125 0 125 0 0 -500z m1805 476 c-22
-12 -344 -179 -715 -371 -371 -191 -712 -367 -757 -392 l-83 -44 0 415 0 416
798 0 797 0 -40 -24z m815 -476 l0 -500 -105 0 -105 0 0 500 0 500 105 0 105
0 0 -500z m-460 -70 l0 -430 -832 0 -833 1 90 47 c298 156 1561 810 1568 811
4 1 7 -192 7 -429z m-3670 -40 c404 -210 737 -384 739 -386 2 -2 -359 -4 -802
-4 l-807 0 0 420 0 420 68 -34 c37 -19 399 -206 802 -416z m4130 -765 l0 -125
-2750 0 -2750 0 0 125 0 125 2750 0 2750 0 0 -125z"/>
<path d="M1891 3766 c-534 -822 -971 -1497 -971 -1500 0 -3 439 -6 975 -6
l975 0 0 1500 c0 825 -2 1500 -4 1500 -2 0 -441 -672 -975 -1494z m696 -1253
c-2 -2 -272 -2 -600 -1 l-595 3 596 918 597 918 3 -917 c1 -505 1 -919 -1
-921z"/>
<path d="M3130 3762 l0 -1502 975 0 c536 0 975 3 975 6 0 6 -1927 2974 -1941
2989 -5 5 -9 -604 -9 -1493z m868 -308 c318 -489 586 -901 596 -916 l18 -28
-601 0 -601 0 0 922 c0 507 2 919 5 917 2 -3 265 -405 583 -895z"/>
</g>
</svg>
