<?xml version="1.0" standalone="no"?>
<!DOCTYPE svg PUBLIC "-//W3C//DTD SVG 20010904//EN"
 "http://www.w3.org/TR/2001/REC-SVG-20010904/DTD/svg10.dtd">
<svg version="1.0" xmlns="http://www.w3.org/2000/svg"
 width="600.000000pt" height="600.000000pt" viewBox="0 0 600.000000 600.000000"
 preserveAspectRatio="xMidYMid meet">
<metadata>
Created by potrace 1.16, written by Peter Selinger 2001-2019
</metadata>
<g transform="translate(0.000000,600.000000) scale(0.100000,-0.100000)"
fill="currentColor" stroke="none">
<path d="M988 5984 c-76 -18 -156 -59 -268 -138 -95 -68 -105 -71 -232 -81
l-78 -7 0 -2879 0 -2879 105 0 c175 0 270 32 424 141 115 83 138 92 232 87
l77 -3 114 -77 c178 -122 255 -148 426 -148 167 0 270 37 427 151 93 67 120
79 180 79 60 0 87 -12 180 -79 157 -114 260 -151 427 -151 167 0 265 33 417
141 115 83 138 92 232 87 l77 -3 114 -77 c178 -122 255 -148 426 -148 167 0
270 37 427 151 93 67 120 79 180 79 60 0 87 -12 180 -79 167 -121 257 -151
463 -151 l132 0 0 2879 0 2878 -117 8 c-65 3 -133 13 -151 20 -18 8 -70 41
-115 74 -138 101 -251 141 -392 141 -141 0 -254 -40 -392 -141 -112 -81 -140
-92 -234 -87 -76 3 -78 4 -163 63 -186 131 -280 165 -451 165 -171 0 -265 -34
-451 -165 -85 -59 -87 -60 -163 -63 -94 -5 -122 6 -234 87 -138 101 -251 141
-392 141 -141 0 -254 -40 -392 -141 -112 -81 -140 -92 -234 -87 -76 3 -78 4
-163 63 -122 85 -211 132 -288 150 -82 19 -252 18 -330 -1z m374 -316 c117
-80 199 -122 262 -133 l36 -7 0 -555 c0 -440 -3 -553 -12 -547 -7 4 -43 29
-79 55 -144 103 -250 139 -414 139 -165 0 -271 -36 -415 -141 -37 -27 -71 -49
-74 -49 -3 0 -6 247 -6 549 l0 549 33 7 c59 13 159 64 246 126 117 84 131 90
228 87 l81 -3 114 -77z m1105 71 c15 -6 64 -36 108 -68 118 -86 185 -118 308
-145 l27 -6 0 -561 0 -560 -22 12 c-13 7 -59 38 -103 70 -137 99 -250 139
-390 139 -141 0 -254 -40 -391 -140 -46 -33 -85 -60 -88 -60 -3 0 -6 249 -6
554 l0 554 39 7 c59 10 172 67 264 134 45 33 93 64 107 70 34 13 112 13 147 0z
m1375 -71 c121 -82 203 -124 268 -134 l40 -7 0 -559 0 -559 -77 55 c-164 119
-269 156 -438 156 -159 0 -274 -37 -399 -129 -28 -21 -57 -41 -63 -45 -10 -6
-13 105 -13 539 0 511 1 546 18 551 74 23 157 67 235 122 124 88 137 93 234
90 l81 -3 114 -77z m1105 71 c15 -6 64 -36 108 -68 104 -75 189 -118 275 -137
l70 -16 0 -559 c0 -307 -3 -559 -6 -559 -12 0 -52 25 -129 81 -137 99 -250
139 -390 139 -158 0 -264 -43 -442 -178 l-33 -24 0 555 0 555 46 11 c66 17
157 65 249 132 44 32 91 62 105 68 34 13 112 13 147 0z m-3585 -1451 c117 -80
199 -122 262 -133 l36 -7 0 -555 c0 -440 -3 -553 -12 -547 -7 4 -43 29 -79 55
-144 103 -250 139 -414 139 -165 0 -271 -36 -415 -141 -37 -27 -71 -49 -74
-49 -3 0 -6 247 -6 549 l0 549 33 7 c59 13 159 64 246 126 117 84 131 90 228
87 l81 -3 114 -77z m1105 71 c15 -6 64 -36 108 -68 118 -86 185 -118 308 -145
l27 -6 0 -561 0 -560 -22 12 c-13 7 -59 38 -103 70 -137 99 -250 139 -390 139
-141 0 -254 -40 -391 -140 -46 -33 -85 -60 -88 -60 -3 0 -6 249 -6 554 l0 554
39 7 c59 10 172 67 264 134 45 33 93 64 107 70 34 13 112 13 147 0z m1375 -71
c121 -82 203 -124 268 -134 l40 -7 0 -559 0 -559 -77 55 c-164 119 -269 156
-438 156 -159 0 -274 -37 -399 -129 -28 -21 -57 -41 -63 -45 -10 -6 -13 105
-13 539 0 511 1 546 18 551 74 23 157 67 235 122 124 88 137 93 234 90 l81 -3
114 -77z m1105 71 c15 -6 64 -36 108 -68 104 -75 189 -118 275 -137 l70 -16 0
-559 c0 -307 -3 -559 -6 -559 -12 0 -52 25 -129 81 -137 99 -250 139 -390 139
-158 0 -264 -43 -442 -178 l-33 -24 0 555 0 555 46 11 c66 17 157 65 249 132
44 32 91 62 105 68 34 13 112 13 147 0z m-3585 -1451 c117 -80 199 -122 262
-133 l36 -7 0 -555 c0 -440 -3 -553 -12 -547 -7 4 -43 29 -79 55 -144 103
-250 139 -414 139 -165 0 -271 -36 -415 -141 -37 -27 -71 -49 -74 -49 -3 0 -6
247 -6 549 l0 549 33 7 c59 13 159 64 246 126 117 84 131 90 228 87 l81 -3
114 -77z m1105 71 c15 -6 64 -36 108 -68 118 -86 185 -118 308 -145 l27 -6 0
-561 0 -560 -22 12 c-13 7 -59 38 -103 70 -137 99 -250 139 -390 139 -141 0
-254 -40 -391 -140 -46 -33 -85 -60 -88 -60 -3 0 -6 249 -6 554 l0 554 39 7
c59 10 172 67 264 134 45 33 93 64 107 70 34 13 112 13 147 0z m1375 -71 c121
-82 203 -124 268 -134 l40 -7 0 -559 0 -559 -77 55 c-164 119 -269 156 -438
156 -159 0 -274 -37 -399 -129 -28 -21 -57 -41 -63 -45 -10 -6 -13 105 -13
539 0 511 1 546 18 551 74 23 157 67 235 122 124 88 137 93 234 90 l81 -3 114
-77z m1105 71 c15 -6 64 -36 108 -68 104 -75 189 -118 275 -137 l70 -16 0
-559 c0 -307 -3 -559 -6 -559 -12 0 -52 25 -129 81 -137 99 -250 139 -390 139
-158 0 -264 -43 -442 -178 l-33 -24 0 555 0 555 46 11 c66 17 157 65 249 132
44 32 91 62 105 68 34 13 112 13 147 0z m-3585 -1451 c117 -80 199 -122 262
-133 l36 -7 0 -555 c0 -440 -3 -553 -12 -547 -7 4 -43 29 -79 55 -144 103
-250 139 -414 139 -165 0 -271 -36 -415 -141 -37 -27 -71 -49 -74 -49 -3 0 -6
247 -6 549 l0 549 33 7 c59 13 159 64 246 126 117 84 131 90 228 87 l81 -3
114 -77z m1105 71 c15 -6 64 -36 108 -68 118 -86 185 -118 308 -145 l27 -6 0
-561 0 -560 -22 12 c-13 7 -59 38 -103 70 -137 99 -250 139 -390 139 -141 0
-254 -40 -391 -140 -46 -33 -85 -60 -88 -60 -3 0 -6 249 -6 554 l0 554 39 7
c59 10 172 67 264 134 45 33 93 64 107 70 34 13 112 13 147 0z m1375 -71 c121
-82 203 -124 268 -134 l40 -7 0 -559 0 -559 -77 55 c-164 119 -269 156 -438
156 -159 0 -274 -37 -399 -129 -28 -21 -57 -41 -63 -45 -10 -6 -13 105 -13
539 0 511 1 546 18 551 74 23 157 67 235 122 124 88 137 93 234 90 l81 -3 114
-77z m1105 71 c15 -6 64 -36 108 -68 104 -75 189 -118 275 -137 l70 -16 0
-559 c0 -307 -3 -559 -6 -559 -12 0 -52 25 -129 81 -137 99 -250 139 -390 139
-158 0 -264 -43 -442 -178 l-33 -24 0 555 0 555 46 11 c66 17 157 65 249 132
44 32 91 62 105 68 34 13 112 13 147 0z"/>
</g>
</svg>
