<?xml version="1.0" standalone="no"?>
<!DOCTYPE svg PUBLIC "-//W3C//DTD SVG 20010904//EN"
 "http://www.w3.org/TR/2001/REC-SVG-20010904/DTD/svg10.dtd">
<svg version="1.0" xmlns="http://www.w3.org/2000/svg"
 width="600.000000pt" height="600.000000pt" viewBox="0 0 600.000000 600.000000"
 preserveAspectRatio="xMidYMid meet">
<metadata>
Created by potrace 1.16, written by Peter Selinger 2001-2019
</metadata>
<g transform="translate(0.000000,600.000000) scale(0.100000,-0.100000)"
fill="currentColor" stroke="none">
<path d="M982 5981 c-114 -33 -190 -79 -282 -171 -65 -65 -94 -103 -122 -160
-65 -133 -68 -158 -68 -539 l0 -341 -255 0 -255 0 0 -670 0 -670 255 0 255 0
0 -435 0 -435 -255 0 -255 0 0 -670 0 -670 255 0 255 0 0 -610 0 -610 650 0
650 0 0 610 0 610 275 0 275 0 0 -610 0 -610 650 0 650 0 0 610 0 610 270 0
270 0 0 -610 0 -610 650 0 650 0 0 610 0 610 250 0 250 0 0 670 0 670 -250 0
-250 0 0 435 0 435 250 0 250 0 0 670 0 670 -250 0 -250 0 0 341 c0 381 -3
406 -68 539 -51 105 -177 231 -282 282 -105 51 -180 68 -300 68 -120 0 -195
-17 -300 -68 -105 -51 -231 -177 -282 -282 -65 -133 -68 -158 -68 -539 l0
-341 -270 0 -270 0 0 341 c0 381 -3 406 -68 539 -51 105 -177 231 -282 282
-105 51 -180 68 -300 68 -120 0 -195 -17 -300 -68 -105 -51 -231 -177 -282
-282 -65 -133 -68 -158 -68 -539 l0 -341 -275 0 -275 0 0 341 c0 381 -3 406
-68 539 -28 57 -57 95 -122 160 -93 93 -180 145 -296 174 -85 22 -260 20 -342
-3z m349 -278 c119 -59 200 -172 220 -306 5 -35 9 -1146 9 -2604 l0 -2543
-400 0 -400 0 0 2543 c0 1458 4 2569 9 2604 12 79 48 158 96 212 49 54 85 79
154 108 48 20 70 23 151 21 84 -3 103 -7 161 -35z m1850 0 c119 -59 200 -172
220 -306 5 -35 9 -1146 9 -2604 l0 -2543 -400 0 -400 0 0 2543 c0 1458 4 2569
9 2604 12 79 48 158 96 212 49 54 85 79 154 108 48 20 70 23 151 21 84 -3 103
-7 161 -35z m1840 0 c119 -59 200 -172 220 -306 5 -35 9 -1146 9 -2604 l0
-2543 -400 0 -400 0 0 2543 c0 1458 4 2569 9 2604 12 79 48 158 96 212 49 54
85 79 154 108 48 20 70 23 151 21 84 -3 103 -7 161 -35z m-4511 -1603 l0 -420
-130 0 -130 0 0 420 0 420 130 0 130 0 0 -420z m1850 0 l0 -420 -270 0 -270 0
0 420 0 420 270 0 270 0 0 -420z m1840 0 l0 -420 -270 0 -270 0 0 420 0 420
270 0 270 0 0 -420z m1560 0 l0 -420 -130 0 -130 0 0 420 0 420 130 0 130 0 0
-420z m-3400 -1105 l0 -435 -275 0 -275 0 0 435 0 435 275 0 275 0 0 -435z
m1840 0 l0 -435 -270 0 -270 0 0 435 0 435 270 0 270 0 0 -435z m-3690 -1105
l0 -420 -130 0 -130 0 0 420 0 420 130 0 130 0 0 -420z m1850 0 l0 -420 -270
0 -270 0 0 420 0 420 270 0 270 0 0 -420z m1840 0 l0 -420 -270 0 -270 0 0
420 0 420 270 0 270 0 0 -420z m1560 0 l0 -420 -130 0 -130 0 0 420 0 420 130
0 130 0 0 -420z"/>
<path d="M1074 4196 c-31 -31 -34 -40 -34 -91 0 -51 3 -60 34 -91 31 -31 40
-34 91 -34 51 0 60 3 91 34 31 31 34 40 34 91 0 51 -3 60 -34 91 -31 31 -40
34 -91 34 -51 0 -60 -3 -91 -34z"/>
<path d="M1074 1986 c-31 -31 -34 -40 -34 -91 0 -51 3 -60 34 -91 31 -31 40
-34 91 -34 51 0 60 3 91 34 31 31 34 40 34 91 0 51 -3 60 -34 91 -31 31 -40
34 -91 34 -51 0 -60 -3 -91 -34z"/>
<path d="M2924 4196 c-31 -31 -34 -40 -34 -91 0 -51 3 -60 34 -91 31 -31 40
-34 91 -34 51 0 60 3 91 34 31 31 34 40 34 91 0 51 -3 60 -34 91 -31 31 -40
34 -91 34 -51 0 -60 -3 -91 -34z"/>
<path d="M2924 1986 c-31 -31 -34 -40 -34 -91 0 -51 3 -60 34 -91 31 -31 40
-34 91 -34 51 0 60 3 91 34 31 31 34 40 34 91 0 51 -3 60 -34 91 -31 31 -40
34 -91 34 -51 0 -60 -3 -91 -34z"/>
<path d="M4764 4196 c-31 -31 -34 -40 -34 -91 0 -51 3 -60 34 -91 31 -31 40
-34 91 -34 51 0 60 3 91 34 31 31 34 40 34 91 0 51 -3 60 -34 91 -31 31 -40
34 -91 34 -51 0 -60 -3 -91 -34z"/>
<path d="M4764 1986 c-31 -31 -34 -40 -34 -91 0 -51 3 -60 34 -91 31 -31 40
-34 91 -34 51 0 60 3 91 34 31 31 34 40 34 91 0 51 -3 60 -34 91 -31 31 -40
34 -91 34 -51 0 -60 -3 -91 -34z"/>
</g>
</svg>
