<?xml version="1.0" standalone="no"?>
<!DOCTYPE svg PUBLIC "-//W3C//DTD SVG 20010904//EN"
 "http://www.w3.org/TR/2001/REC-SVG-20010904/DTD/svg10.dtd">
<svg version="1.0" xmlns="http://www.w3.org/2000/svg"
 width="600.000000pt" height="600.000000pt" viewBox="0 0 600.000000 600.000000"
 preserveAspectRatio="xMidYMid meet">
<metadata>
Created by potrace 1.16, written by Peter Selinger 2001-2019
</metadata>
<g transform="translate(0.000000,600.000000) scale(0.100000,-0.100000)"
fill="currentColor" stroke="none">
<path d="M2060 5468 c-168 -292 -306 -539 -308 -548 -2 -9 117 -225 265 -481
147 -255 267 -471 267 -479 0 -8 -105 -199 -234 -423 l-235 -407 -550 0 -550
-1 -305 -531 c-168 -293 -305 -541 -305 -553 0 -12 137 -260 305 -553 l305
-531 550 -1 550 0 275 -480 275 -479 635 0 635 0 275 479 275 480 550 0 550 1
305 531 c168 292 306 539 308 548 2 9 -119 228 -269 488 -149 259 -271 474
-271 477 0 3 122 218 271 477 150 260 271 479 269 488 -2 9 -140 256 -308 548
l-305 531 -554 3 -554 3 -271 472 -271 472 -635 0 -635 0 -305 -531z m1644
-139 l237 -412 -144 -251 c-80 -138 -187 -324 -238 -413 l-94 -163 -466 0
-466 0 -237 410 c-130 226 -236 413 -236 415 0 2 106 189 236 415 l237 410
467 0 467 0 237 -411z m1650 -949 c130 -226 236 -413 236 -415 0 -3 -106 -189
-236 -415 l-237 -410 -467 0 -467 0 -237 411 -237 411 119 207 c65 113 172
299 238 413 l119 208 466 0 466 0 237 -410z m-1650 -960 c130 -226 236 -413
236 -415 0 -3 -106 -189 -236 -415 l-237 -410 -467 0 -467 0 -238 412 c-175
305 -234 416 -228 428 4 10 111 196 237 414 l229 396 467 0 467 0 237 -410z
m-1650 -960 c130 -226 236 -413 236 -415 0 -2 -106 -189 -236 -415 l-237 -410
-467 0 -467 0 -237 410 c-130 226 -236 413 -236 415 0 2 106 189 236 415 l237
410 467 0 467 0 237 -410z m3300 0 c130 -226 236 -413 236 -415 0 -2 -106
-189 -236 -415 l-237 -410 -467 0 -467 0 -229 396 c-126 218 -233 404 -237
414 -6 12 53 123 228 428 l238 412 467 0 467 0 237 -410z m-1650 -960 c130
-226 236 -413 236 -415 0 -2 -106 -189 -236 -415 l-237 -410 -467 0 -467 0
-229 396 c-126 218 -233 404 -237 414 -6 12 53 123 228 428 l238 412 467 0
467 0 237 -410z"/>
</g>
</svg>
