<?xml version="1.0" standalone="no"?>
<!DOCTYPE svg PUBLIC "-//W3C//DTD SVG 20010904//EN"
 "http://www.w3.org/TR/2001/REC-SVG-20010904/DTD/svg10.dtd">
<svg version="1.0" xmlns="http://www.w3.org/2000/svg"
 width="600.000000pt" height="600.000000pt" viewBox="0 0 600.000000 600.000000"
 preserveAspectRatio="xMidYMid meet">
<metadata>
Created by potrace 1.16, written by Peter Selinger 2001-2019
</metadata>
<g transform="translate(0.000000,600.000000) scale(0.100000,-0.100000)"
fill="currentColor" stroke="none">
<path d="M1951 5984 c-87 -23 -191 -84 -256 -149 -95 -94 -165 -249 -165 -362
l0 -43 -450 0 -450 0 0 -2715 0 -2715 575 0 575 0 0 120 0 120 37 24 c71 47
187 78 288 78 101 0 217 -31 287 -78 l38 -24 0 -120 0 -120 575 0 575 0 0 120
0 120 38 24 c70 47 186 78 287 78 101 0 217 -31 288 -78 l37 -24 0 -120 0
-120 575 0 575 0 0 2715 0 2715 -450 0 -450 0 0 43 c0 169 -131 373 -296 459
-94 50 -169 68 -279 68 -110 0 -185 -18 -279 -68 -165 -86 -296 -290 -296
-459 l0 -43 -325 0 -325 0 0 43 c0 113 -70 268 -165 362 -67 67 -170 126 -261
150 -73 19 -231 19 -303 -1z m295 -274 c57 -28 137 -117 160 -177 18 -46 18
-157 22 -2520 l3 -2471 -78 26 c-72 25 -91 27 -248 27 -157 0 -176 -2 -248
-27 l-78 -26 3 2471 c4 2802 -6 2518 89 2622 100 109 244 138 375 75z m1800 0
c57 -28 137 -117 160 -177 18 -46 18 -157 22 -2520 l3 -2471 -78 26 c-72 25
-91 27 -248 27 -157 0 -176 -2 -248 -27 l-78 -26 3 2471 c4 2802 -6 2518 89
2622 100 109 244 138 375 75z m-2516 -2995 l0 -2465 -325 0 -325 0 0 2465 0
2465 325 0 325 0 0 -2465z m1800 0 l0 -2465 -325 0 -325 0 0 2465 0 2465 325
0 325 0 0 -2465z m1800 0 l0 -2465 -325 0 -325 0 0 2465 0 2465 325 0 325 0 0
-2465z"/>
</g>
</svg>
