<?xml version="1.0" standalone="no"?>
<!DOCTYPE svg PUBLIC "-//W3C//DTD SVG 20010904//EN"
 "http://www.w3.org/TR/2001/REC-SVG-20010904/DTD/svg10.dtd">
<svg version="1.0" xmlns="http://www.w3.org/2000/svg"
 width="600.000000pt" height="600.000000pt" viewBox="0 0 600.000000 600.000000"
 preserveAspectRatio="xMidYMid meet">
<metadata>
Created by potrace 1.16, written by Peter Selinger 2001-2019
</metadata>
<g transform="translate(0.000000,600.000000) scale(0.100000,-0.100000)"
fill="currentColor" stroke="none">
<path d="M3390 5499 c-162 -82 -991 -508 -1843 -947 l-1547 -797 2 -1058 3
-1058 810 -425 c446 -234 947 -495 1114 -581 l304 -156 344 172 c189 95 1035
530 1881 967 l1537 794 3 1018 2 1019 -52 24 c-78 36 -300 153 -1003 523 -352
186 -779 409 -950 496 l-310 159 -295 -150z m1268 -649 c529 -278 958 -508
954 -511 -13 -13 -3367 -1742 -3377 -1742 -11 1 -1915 1000 -1927 1011 -7 7
3371 1753 3384 1749 3 -1 438 -229 966 -507z m1085 -2271 c-5 -5 -766 -400
-1693 -878 l-1685 -871 -3 762 c-1 419 1 765 5 769 5 5 766 400 1693 878
l1685 871 3 -762 c1 -419 -1 -765 -5 -769z m-4435 206 l801 -420 1 -767 0
-767 -118 62 c-65 34 -484 253 -930 487 l-811 425 -1 767 0 768 128 -68 c70
-37 489 -256 930 -487z"/>
</g>
</svg>
