<svg fill="none" height="42" viewBox="0 0 45 42" width="45" xmlns="http://www.w3.org/2000/svg"><path d="m18.9824.135082c5.866-.650668 11.4449 1.094388 15.723 4.442558 4.2799 3.34936 7.2578 8.30366 7.921 14.06896.2896 2.5198.1093 4.9871-.4725 7.3208-.5374 2.156-1.4173 4.1932-2.5838 6.0468l5.2181 7.52c.3789.5451.2356 1.2882-.3188 1.6598-.3832.257-.8629.2695-1.2479.0727l-8.3552-3.9851c-1.4538 1.1636-3.0776 2.1506-4.8423 2.92-1.9407.8462-4.0376 1.42-6.2474 1.6651h-.0006c-5.863.6507-11.4406-1.0962-15.71813-4.4449-4.27931-3.35-7.257887-8.3037-7.9204-14.066v-.0006c-.662513-5.7612 1.11492-11.2397 4.52404-15.44073 3.41033-4.2028 8.45359-7.127527 14.32149-7.778791zm8.5798 23.984018c.9261 0 1.6773.7378 1.6773 1.6473s-.7512 1.6472-1.6773 1.6472c-.926 0-1.6772-.7377-1.6772-1.6472s.7512-1.6473 1.6772-1.6473zm-7.0617 0c.926 0 1.6772.7378 1.6772 1.6473s-.7512 1.6472-1.6772 1.6472c-.9261 0-1.6772-.7377-1.6772-1.6472s.7511-1.6473 1.6772-1.6473zm-7.0612 0c.9261 0 1.6773.7378 1.6773 1.6473s-.7512 1.6472-1.6773 1.6472c-.926 0-1.6772-.7377-1.6772-1.6472s.7512-1.6473 1.6772-1.6473zm19.7522-17.67057c-3.7923-2.96826-8.7396-4.51531-13.9426-3.938-5.1956.57671-9.66257 3.16686-12.68305 6.89016-3.00833 3.70781-4.58294 8.53921-4.01698 13.62411.00729.0423.01215.0852.01458.1294.60057 5.0771 3.23301 9.4415 7.0083 12.3973 3.77525 2.9551 8.69345 4.5028 13.86785 3.9469.0443-.0071.0899-.0125.136-.0149 1.9451-.2225 3.779-.7252 5.4671-1.4612 1.7696-.7711 3.3952-1.8076 4.8356-3.0535l.0012.0012c.3558-.3072.8781-.3936 1.3323-.1789l4.9947 2.3826-3.0995-4.4665.0013-.0005c-.2715-.3907-.2903-.9197-.0055-1.3366 1.2357-1.8047 2.1557-3.8193 2.6901-5.9633.515-2.0642.6735-4.2535.4154-6.4978-.5872-5.1057-3.2251-9.4928-7.0162-12.45987z" fill="currentColor"/></svg>