<?xml version="1.0" standalone="no"?>
<!DOCTYPE svg PUBLIC "-//W3C//DTD SVG 20010904//EN"
 "http://www.w3.org/TR/2001/REC-SVG-20010904/DTD/svg10.dtd">
<svg version="1.0" xmlns="http://www.w3.org/2000/svg"
 width="750.000000pt" height="131.000000pt" viewBox="0 0 750.000000 131.000000"
 id="wavyline">
<metadata>
Created by potrace 1.16, written by Peter Selinger 2001-2019
</metadata>
<g transform="translate(0.000000,131.000000) scale(0.100000,-0.100000)"
fill="currentColor" stroke="none">
<path d="M463 835 c-249 -255 -453 -468 -453 -473 0 -14 340 -362 353 -362 7
1 136 129 287 285 l275 283 280 -284 c154 -157 285 -284 290 -284 6 1 134 129
285 285 l275 284 279 -285 c153 -157 284 -284 290 -282 6 2 135 130 286 285
l275 281 283 -286 282 -287 282 287 282 286 283 -286 283 -287 283 287 282
286 275 -281 c151 -155 279 -284 285 -286 5 -2 136 124 290 282 l280 285 275
-283 c151 -156 280 -284 286 -285 17 0 356 350 352 365 -3 14 -895 928 -912
934 -5 2 -135 -124 -288 -280 l-278 -284 -279 283 c-153 155 -282 282 -287
282 -5 0 -134 -127 -287 -282 l-277 -283 -278 283 c-153 155 -282 282 -287
282 -6 0 -135 -127 -287 -282 l-278 -283 -277 283 c-153 155 -282 282 -287
282 -6 0 -135 -127 -288 -282 l-278 -283 -277 283 c-153 155 -282 282 -288
282 -5 0 -134 -128 -285 -284 l-275 -284 -280 284 c-154 157 -284 284 -290
284 -5 -1 -214 -210 -462 -465z"/>
</g>
</svg>
