<svg version="1" xmlns="http://www.w3.org/2000/svg" width="1000" height="174.667" viewBox="0 0 750 131"><path d="M46.3 47.5C21.4 73 1 94.3 1 94.8 1 96.2 35 131 36.3 131c.7-.1 13.6-12.9 28.7-28.5l27.5-28.3 28 28.4c15.4 15.7 28.5 28.4 29 28.4.6-.1 13.4-12.9 28.5-28.5l27.5-28.4 27.9 28.5c15.3 15.7 28.4 28.4 29 28.2.6-.2 13.5-13 28.6-28.5l27.5-28.1 28.3 28.6 28.2 28.7 28.2-28.7 28.2-28.6 28.3 28.6 28.3 28.7 28.3-28.7 28.2-28.6 27.5 28.1c15.1 15.5 27.9 28.4 28.5 28.6.5.2 13.6-12.4 29-28.2l28-28.5 27.5 28.3c15.1 15.6 28 28.4 28.6 28.5 1.7 0 35.6-35 35.2-36.5-.3-1.4-89.5-92.8-91.2-93.4-.5-.2-13.5 12.4-28.8 28L601 57.5l-27.9-28.3C557.8 13.7 544.9 1 544.4 1S531 13.7 515.7 29.2L488 57.5l-27.8-28.3C444.9 13.7 432 1 431.5 1c-.6 0-13.5 12.7-28.7 28.2L375 57.5l-27.7-28.3C332 13.7 319.1 1 318.6 1c-.6 0-13.5 12.7-28.8 28.2L262 57.5l-27.7-28.3C219 13.7 206.1 1 205.5 1c-.5 0-13.4 12.8-28.5 28.4l-27.5 28.4-28-28.4C106.1 13.7 93.1 1 92.5 1c-.5.1-21.4 21-46.2 46.5z" fill="currentColor"/></svg>