<svg version="1" xmlns="http://www.w3.org/2000/svg" width="800" height="800" viewBox="0 0 600 600"><path d="M195.1 1.6c-8.7 2.3-19.1 8.4-25.6 14.9C160 25.9 153 41.4 153 52.7V57H63v543h115v-24l3.7-2.4c7.1-4.7 18.7-7.8 28.8-7.8 10.1 0 21.7 3.1 28.7 7.8l3.8 2.4v24h115v-24l3.8-2.4c7-4.7 18.6-7.8 28.7-7.8 10.1 0 21.7 3.1 28.8 7.8l3.7 2.4v24h115V57h-90v-4.3c0-16.9-13.1-37.3-29.6-45.9-9.4-5-16.9-6.8-27.9-6.8S372 1.8 362.6 6.8c-16.5 8.6-29.6 29-29.6 45.9V57h-65v-4.3c0-11.3-7-26.8-16.5-36.2-6.7-6.7-17-12.6-26.1-15-7.3-1.9-23.1-1.9-30.3.1zM224.6 29c5.7 2.8 13.7 11.7 16 17.7 1.8 4.6 1.8 15.7 2.2 252l.3 247.1-7.8-2.6c-7.2-2.5-9.1-2.7-24.8-2.7-15.7 0-17.6.2-24.8 2.7l-7.8 2.6.3-247.1c.4-280.2-.6-251.8 8.9-262.2 10-10.9 24.4-13.8 37.5-7.5zm180 0c5.7 2.8 13.7 11.7 16 17.7 1.8 4.6 1.8 15.7 2.2 252l.3 247.1-7.8-2.6c-7.2-2.5-9.1-2.7-24.8-2.7-15.7 0-17.6.2-24.8 2.7l-7.8 2.6.3-247.1c.4-280.2-.6-251.8 8.9-262.2 10-10.9 24.4-13.8 37.5-7.5zM153 328.5V575H88V82h65v246.5zm180 0V575h-65V82h65v246.5zm180 0V575h-65V82h65v246.5z" fill="currentColor"/></svg>