<svg version="1" xmlns="http://www.w3.org/2000/svg" width="800" height="800" viewBox="0 0 600 600"><g fill="currentColor"><path d="M98.2 1.9C86.8 5.2 79.2 9.8 70 19c-6.5 6.5-9.4 10.3-12.2 16C51.3 48.3 51 50.8 51 88.9V123H0v134h51v87H0v134h51v122h130V478h55v122h130V478h54v122h130V478h50V344h-50v-87h50V123h-50V88.9c0-38.1-.3-40.6-6.8-53.9-5.1-10.5-17.7-23.1-28.2-28.2C504.5 1.7 497 0 485 0s-19.5 1.7-30 6.8-23.1 17.7-28.2 28.2c-6.5 13.3-6.8 15.8-6.8 53.9V123h-54V88.9c0-38.1-.3-40.6-6.8-53.9-5.1-10.5-17.7-23.1-28.2-28.2C320.5 1.7 313 0 301 0s-19.5 1.7-30 6.8-23.1 17.7-28.2 28.2c-6.5 13.3-6.8 15.8-6.8 53.9V123h-55V88.9c0-38.1-.3-40.6-6.8-53.9-2.8-5.7-5.7-9.5-12.2-16-9.3-9.3-18-14.5-29.6-17.4-8.5-2.2-26-2-34.2.3zm34.9 27.8c11.9 5.9 20 17.2 22 30.6.5 3.5.9 114.6.9 260.4V575H76V320.7c0-145.8.4-256.9.9-260.4 1.2-7.9 4.8-15.8 9.6-21.2 4.9-5.4 8.5-7.9 15.4-10.8 4.8-2 7-2.3 15.1-2.1 8.4.3 10.3.7 16.1 3.5zm185 0c11.9 5.9 20 17.2 22 30.6.5 3.5.9 114.6.9 260.4V575h-80V320.7c0-145.8.4-256.9.9-260.4 1.2-7.9 4.8-15.8 9.6-21.2 4.9-5.4 8.5-7.9 15.4-10.8 4.8-2 7-2.3 15.1-2.1 8.4.3 10.3.7 16.1 3.5zm184 0c11.9 5.9 20 17.2 22 30.6.5 3.5.9 114.6.9 260.4V575h-80V320.7c0-145.8.4-256.9.9-260.4 1.2-7.9 4.8-15.8 9.6-21.2 4.9-5.4 8.5-7.9 15.4-10.8 4.8-2 7-2.3 15.1-2.1 8.4.3 10.3.7 16.1 3.5zM51 190v42H25v-84h26v42zm185 0v42h-54v-84h54v42zm184 0v42h-54v-84h54v42zm156 0v42h-26v-84h26v42zM236 300.5V344h-55v-87h55v43.5zm184 0V344h-54v-87h54v43.5zM51 411v42H25v-84h26v42zm185 0v42h-54v-84h54v42zm184 0v42h-54v-84h54v42zm156 0v42h-26v-84h26v42z"/><path d="M107.4 180.4c-3.1 3.1-3.4 4-3.4 9.1s.3 6 3.4 9.1c3.1 3.1 4 3.4 9.1 3.4s6-.3 9.1-3.4c3.1-3.1 3.4-4 3.4-9.1s-.3-6-3.4-9.1c-3.1-3.1-4-3.4-9.1-3.4s-6 .3-9.1 3.4zm0 221c-3.1 3.1-3.4 4-3.4 9.1s.3 6 3.4 9.1c3.1 3.1 4 3.4 9.1 3.4s6-.3 9.1-3.4c3.1-3.1 3.4-4 3.4-9.1s-.3-6-3.4-9.1c-3.1-3.1-4-3.4-9.1-3.4s-6 .3-9.1 3.4zm185-221c-3.1 3.1-3.4 4-3.4 9.1s.3 6 3.4 9.1c3.1 3.1 4 3.4 9.1 3.4s6-.3 9.1-3.4c3.1-3.1 3.4-4 3.4-9.1s-.3-6-3.4-9.1c-3.1-3.1-4-3.4-9.1-3.4s-6 .3-9.1 3.4zm0 221c-3.1 3.1-3.4 4-3.4 9.1s.3 6 3.4 9.1c3.1 3.1 4 3.4 9.1 3.4s6-.3 9.1-3.4c3.1-3.1 3.4-4 3.4-9.1s-.3-6-3.4-9.1c-3.1-3.1-4-3.4-9.1-3.4s-6 .3-9.1 3.4zm184-221c-3.1 3.1-3.4 4-3.4 9.1s.3 6 3.4 9.1c3.1 3.1 4 3.4 9.1 3.4s6-.3 9.1-3.4c3.1-3.1 3.4-4 3.4-9.1s-.3-6-3.4-9.1c-3.1-3.1-4-3.4-9.1-3.4s-6 .3-9.1 3.4zm0 221c-3.1 3.1-3.4 4-3.4 9.1s.3 6 3.4 9.1c3.1 3.1 4 3.4 9.1 3.4s6-.3 9.1-3.4c3.1-3.1 3.4-4 3.4-9.1s-.3-6-3.4-9.1c-3.1-3.1-4-3.4-9.1-3.4s-6 .3-9.1 3.4z"/></g></svg>