<svg version="1" xmlns="http://www.w3.org/2000/svg" width="800" height="800" viewBox="0 0 600 600"><g fill="currentColor"><path d="M257.9 2.2C256.8 3.5 198.4 92.9 128 201L0 397.5V600h600V399.1L470.2 199.8 340.4.5 300.1.2 259.9 0l-2 2.2zm189.2 210.3l121.7 187-134.3.3c-73.9.1-195.1.1-269.3 0l-135-.3 113.9-175c62.7-96.3 117.6-180.5 122-187.3l8-12.2 25.6.2 25.6.3 121.8 187zM50 475v50H25V425h25v50zm213-7.9v42l-8.2-4.4c-6.5-3.5-124.3-64.7-148.3-77l-5-2.6 80.8-.1H263v42.1zm50 7.9v50h-25V425h25v50zm180.5-47.6c-2.2 1.2-34.4 17.9-71.5 37.1-37.1 19.1-71.2 36.7-75.7 39.2l-8.3 4.4V425h159.5l-4 2.4zM575 475v50h-21V425h21v50zm-46 7v43h-83.2l-83.3-.1 9-4.7c29.8-15.6 156.1-81 156.8-81.1.4-.1.7 19.2.7 42.9zm-367 4c40.4 21 73.7 38.4 73.9 38.6.2.2-35.9.4-80.2.4H75v-84l6.8 3.4c3.7 1.9 39.9 20.6 80.2 41.6zm413 76.5V575H25v-25h550v12.5z"/><path d="M189.1 223.4C135.7 305.6 92 373.1 92 373.4c0 .3 43.9.6 97.5.6H287V224c0-82.5-.2-150-.4-150s-44.1 67.2-97.5 149.4zm69.6 125.3c-.2.2-27.2.2-60 .1l-59.5-.3 59.6-91.8 59.7-91.8.3 91.7c.1 50.5.1 91.9-.1 92.1zM313 223.8V374h97.5c53.6 0 97.5-.3 97.5-.6 0-.6-192.7-297.4-194.1-298.9-.5-.5-.9 60.4-.9 149.3zm86.8 30.8c31.8 48.9 58.6 90.1 59.6 91.6l1.8 2.8H341v-92.2c0-50.7.2-91.9.5-91.7.2.3 26.5 40.5 58.3 89.5z"/></g></svg>